<svg width="32" height="32" viewBox="0 0 32 32" fill="none" xmlns="http://www.w3.org/2000/svg">
<mask id="path-1-inside-1" fill="white">
<path fill-rule="evenodd" clip-rule="evenodd" d="M13.9062 4H18.0967V6.34387C18.9233 6.54351 19.7049 6.85847 20.4235 7.27077L21.9431 5.75113L24.9062 8.71424L23.4689 10.1516C24.01 10.9837 24.4159 11.9118 24.6554 12.9048H27V17.0953H24.6554C24.4253 18.0492 24.0417 18.9433 23.5321 19.7498L25.0898 21.3075L22.1267 24.2706L20.5258 22.6697C19.7792 23.1113 18.9627 23.447 18.0967 23.6562V26H13.9062V23.6576C12.9121 23.4182 11.983 23.0121 11.1501 22.4704L9.3499 24.2706L6.38679 21.3075L8.26927 19.425C7.85648 18.7055 7.54126 17.9229 7.34165 17.0953H5V12.9048H7.34164C7.55075 12.0377 7.88673 11.2201 8.32884 10.4728L6.57031 8.71424L9.53343 5.75113L11.2487 7.46643C12.0561 6.95631 12.9512 6.57241 13.9062 6.34243V4Z"/>
</mask>
<path fill-rule="evenodd" clip-rule="evenodd" d="M13.9062 4H18.0967V6.34387C18.9233 6.54351 19.7049 6.85847 20.4235 7.27077L21.9431 5.75113L24.9062 8.71424L23.4689 10.1516C24.01 10.9837 24.4159 11.9118 24.6554 12.9048H27V17.0953H24.6554C24.4253 18.0492 24.0417 18.9433 23.5321 19.7498L25.0898 21.3075L22.1267 24.2706L20.5258 22.6697C19.7792 23.1113 18.9627 23.447 18.0967 23.6562V26H13.9062V23.6576C12.9121 23.4182 11.983 23.0121 11.1501 22.4704L9.3499 24.2706L6.38679 21.3075L8.26927 19.425C7.85648 18.7055 7.54126 17.9229 7.34165 17.0953H5V12.9048H7.34164C7.55075 12.0377 7.88673 11.2201 8.32884 10.4728L6.57031 8.71424L9.53343 5.75113L11.2487 7.46643C12.0561 6.95631 12.9512 6.57241 13.9062 6.34243V4Z" fill="white"/>
<path d="M18.0967 4H19.0967V3H18.0967V4ZM13.9062 4V3H12.9062V4H13.9062ZM18.0967 6.34387H17.0967V7.13109L17.8619 7.31591L18.0967 6.34387ZM20.4235 7.27077L19.9259 8.13815L20.5895 8.51893L21.1306 7.97787L20.4235 7.27077ZM21.9431 5.75113L22.6502 5.04402L21.9431 4.33692L21.236 5.04402L21.9431 5.75113ZM24.9062 8.71424L25.6134 9.42135L26.3205 8.71424L25.6134 8.00714L24.9062 8.71424ZM23.4689 10.1516L22.7618 9.44451L22.1888 10.0175L22.6306 10.6968L23.4689 10.1516ZM24.6554 12.9048L23.6833 13.1392L23.8679 13.9048H24.6554V12.9048ZM27 12.9048H28V11.9048H27V12.9048ZM27 17.0953V18.0953H28V17.0953H27ZM24.6554 17.0953V16.0953H23.8679L23.6832 16.8608L24.6554 17.0953ZM23.5321 19.7498L22.6867 19.2157L22.2597 19.8916L22.825 20.4569L23.5321 19.7498ZM25.0898 21.3075L25.7969 22.0146L26.504 21.3075L25.7969 20.6004L25.0898 21.3075ZM22.1267 24.2706L21.4196 24.9777L22.1267 25.6848L22.8338 24.9777L22.1267 24.2706ZM20.5258 22.6697L21.2329 21.9626L20.6843 21.414L20.0166 21.809L20.5258 22.6697ZM18.0967 23.6562L17.8619 22.6841L17.0967 22.8689V23.6562H18.0967ZM18.0967 26V27H19.0967V26H18.0967ZM13.9062 26H12.9062V27H13.9062V26ZM13.9062 23.6576H14.9062V22.8698L14.1404 22.6854L13.9062 23.6576ZM11.1501 22.4704L11.6953 21.6321L11.016 21.1903L10.443 21.7633L11.1501 22.4704ZM9.3499 24.2706L8.64279 24.9777L9.3499 25.6848L10.057 24.9777L9.3499 24.2706ZM6.38679 21.3075L5.67968 20.6004L4.97257 21.3075L5.67968 22.0146L6.38679 21.3075ZM8.26927 19.425L8.97637 20.1321L9.51743 19.591L9.13665 18.9274L8.26927 19.425ZM7.34165 17.0953L8.31378 16.8608L8.12915 16.0953H7.34165V17.0953ZM5 17.0953H4V18.0953H5V17.0953ZM5 12.9048V11.9048H4V12.9048H5ZM7.34164 12.9048V13.9048H8.12915L8.31377 13.1392L7.34164 12.9048ZM8.32884 10.4728L9.18953 10.9819L9.5845 10.3142L9.03595 9.76567L8.32884 10.4728ZM6.57031 8.71424L5.86321 8.00714L5.1561 8.71424L5.86321 9.42135L6.57031 8.71424ZM9.53343 5.75113L10.2405 5.04402L9.53343 4.33692L8.82632 5.04402L9.53343 5.75113ZM11.2487 7.46643L10.5416 8.17354L11.107 8.73887L11.7829 8.31183L11.2487 7.46643ZM13.9062 6.34243L14.1404 7.31464L14.9062 7.13021V6.34243H13.9062ZM18.0967 3H13.9062V5H18.0967V3ZM19.0967 6.34387V4H17.0967V6.34387H19.0967ZM20.9211 6.40339C20.1217 5.9447 19.2517 5.59408 18.3315 5.37182L17.8619 7.31591C18.5949 7.49294 19.2881 7.77225 19.9259 8.13815L20.9211 6.40339ZM21.236 5.04402L19.7164 6.56366L21.1306 7.97787L22.6502 6.45824L21.236 5.04402ZM25.6134 8.00714L22.6502 5.04402L21.236 6.45824L24.1991 9.42135L25.6134 8.00714ZM24.176 10.8587L25.6134 9.42135L24.1991 8.00714L22.7618 9.44451L24.176 10.8587ZM25.6275 12.6703C25.3609 11.5648 24.9091 10.5319 24.3072 9.60642L22.6306 10.6968C23.111 11.4355 23.4709 12.2588 23.6833 13.1392L25.6275 12.6703ZM24.6554 13.9048H27V11.9048H24.6554V13.9048ZM26 12.9048V17.0953H28V12.9048H26ZM27 16.0953H24.6554V18.0953H27V16.0953ZM24.3775 20.2839C24.9443 19.3868 25.3714 18.3918 25.6275 17.3297L23.6832 16.8608C23.4793 17.7066 23.1391 18.4997 22.6867 19.2157L24.3775 20.2839ZM25.7969 20.6004L24.2392 19.0427L22.825 20.4569L24.3827 22.0146L25.7969 20.6004ZM22.8338 24.9777L25.7969 22.0146L24.3827 20.6004L21.4196 23.5635L22.8338 24.9777ZM19.8186 23.3768L21.4196 24.9777L22.8338 23.5635L21.2329 21.9626L19.8186 23.3768ZM18.3315 24.6282C19.2956 24.3954 20.2044 24.0216 21.0349 23.5304L20.0166 21.809C19.354 22.2009 18.6298 22.4987 17.8619 22.6841L18.3315 24.6282ZM19.0967 26V23.6562H17.0967V26H19.0967ZM13.9062 27H18.0967V25H13.9062V27ZM12.9062 23.6576V26H14.9062V23.6576H12.9062ZM10.6049 23.3087C11.5313 23.9112 12.5653 24.3633 13.6721 24.6298L14.1404 22.6854C13.2589 22.4731 12.4347 22.113 11.6953 21.6321L10.6049 23.3087ZM10.057 24.9777L11.8572 23.1775L10.443 21.7633L8.64279 23.5635L10.057 24.9777ZM5.67968 22.0146L8.64279 24.9777L10.057 23.5635L7.09389 20.6004L5.67968 22.0146ZM7.56216 18.7179L5.67968 20.6004L7.09389 22.0146L8.97637 20.1321L7.56216 18.7179ZM6.36952 17.3297C6.59175 18.2512 6.94265 19.1222 7.40189 19.9226L9.13665 18.9274C8.77031 18.2888 8.49077 17.5947 8.31378 16.8608L6.36952 17.3297ZM7.34165 16.0953H5V18.0953H7.34165V16.0953ZM6 17.0953V12.9048H4V17.0953H6ZM5 13.9048H7.34164V11.9048H5V13.9048ZM7.46816 9.96363C6.97633 10.7951 6.60231 11.705 6.36951 12.6703L8.31377 13.1392C8.49918 12.3704 8.79713 11.6452 9.18953 10.9819L7.46816 9.96363ZM5.86321 9.42135L7.62173 11.1799L9.03595 9.76567L7.27742 8.00714L5.86321 9.42135ZM8.82632 5.04402L5.86321 8.00714L7.27742 9.42135L10.2405 6.45824L8.82632 5.04402ZM11.9558 6.75932L10.2405 5.04402L8.82632 6.45824L10.5416 8.17354L11.9558 6.75932ZM13.6721 5.37022C12.6088 5.62626 11.6127 6.05363 10.7146 6.62103L11.7829 8.31183C12.4996 7.859 13.2936 7.51855 14.1404 7.31464L13.6721 5.37022ZM12.9062 4V6.34243H14.9062V4H12.9062Z" fill="#AFB4C8" mask="url(#path-1-inside-1)"/>
<circle cx="15.9994" cy="15" r="4.21429" fill="#F5F7F8" stroke="#AFB4C8"/>
</svg>
