<svg width="30" height="29" viewBox="0 0 30 29" fill="none" xmlns="http://www.w3.org/2000/svg">
<path d="M14.7296 19.9206L14.9909 20.0886L15.2572 19.9287L22.5915 15.5282L29.5 16.9099V19.2248L15 28.4082L0.5 19.2248V16.915L7.8968 15.5281L14.7296 19.9206Z" fill="#F5F7F8" stroke="#AFB4C8"/>
<path d="M14.7296 16.9206L14.9909 17.0886L15.2572 16.9287L22.5 12.5831L29.0473 16.5115L15 25.4082L0.974648 16.5254L7.9828 12.5833L14.7296 16.9206Z" fill="white" stroke="#AFB4C8"/>
<path d="M15.2503 11.4168L8.5 7.22203V4.77797L15.2503 0.583163L22.5 4.78801V7.21199L15.2503 11.4168Z" fill="#F5F7F8" stroke="#AFB4C8"/>
<path d="M15.2503 8.41684L8.9473 4.5L15.2503 0.583163L22.0034 4.5L15.2503 8.41684Z" fill="white" stroke="#AFB4C8"/>
</svg>
