<svg width="28" height="25" viewBox="0 0 28 25" fill="none" xmlns="http://www.w3.org/2000/svg">
<path d="M27.5 16.5C27.5 18.6055 26.0921 20.5942 23.64 22.083C21.1969 23.5663 17.7899 24.5 14 24.5C10.2101 24.5 6.80306 23.5663 4.35999 22.083C1.90787 20.5942 0.5 18.6055 0.5 16.5C0.5 14.3945 1.90787 12.4058 4.35999 10.917C6.80306 9.43369 10.2101 8.5 14 8.5C17.7899 8.5 21.1969 9.43369 23.64 10.917C26.0921 12.4058 27.5 14.3945 27.5 16.5Z" fill="#F5F7F8" stroke="#AFB4C8"/>
<path d="M27.5 12.5C27.5 14.6055 26.0921 16.5942 23.64 18.083C21.1969 19.5663 17.7899 20.5 14 20.5C10.2101 20.5 6.80306 19.5663 4.35999 18.083C1.90787 16.5942 0.5 14.6055 0.5 12.5C0.5 10.3945 1.90787 8.40578 4.35999 6.91699C6.80306 5.43369 10.2101 4.5 14 4.5C17.7899 4.5 21.1969 5.43369 23.64 6.91699C26.0921 8.40578 27.5 10.3945 27.5 12.5Z" fill="#F5F7F8" stroke="#AFB4C8"/>
<path d="M27.5 8.5C27.5 10.6055 26.0921 12.5942 23.64 14.083C21.1969 15.5663 17.7899 16.5 14 16.5C10.2101 16.5 6.80306 15.5663 4.35999 14.083C1.90787 12.5942 0.5 10.6055 0.5 8.5C0.5 6.39449 1.90787 4.40578 4.35999 2.91699C6.80306 1.43369 10.2101 0.5 14 0.5C17.7899 0.5 21.1969 1.43369 23.64 2.91699C26.0921 4.40578 27.5 6.39449 27.5 8.5Z" fill="white" stroke="#AFB4C8"/>
<path d="M22.5 8.5C22.5 9.45123 21.7159 10.447 20.1404 11.2348C18.5947 12.0076 16.4245 12.5 14 12.5C11.5755 12.5 9.40527 12.0076 7.85965 11.2348C6.28412 10.447 5.5 9.45123 5.5 8.5C5.5 7.54877 6.28412 6.553 7.85965 5.76523C9.40527 4.99242 11.5755 4.5 14 4.5C16.4245 4.5 18.5947 4.99242 20.1404 5.76523C21.7159 6.553 22.5 7.54877 22.5 8.5Z" fill="#F5F7F8" stroke="#AFB4C8"/>
</svg>
