<svg width="32" height="32" viewBox="0 0 32 32" fill="none" xmlns="http://www.w3.org/2000/svg">
<path d="M26.5 18.2275C26.5 19.8724 25.4221 21.4393 23.5149 22.6208C21.6153 23.7975 18.9597 24.5417 16 24.5417C13.0403 24.5417 10.3847 23.7975 8.48513 22.6208C6.57792 21.4393 5.5 19.8724 5.5 18.2275C5.5 16.5826 6.57792 15.0157 8.48513 13.8342C10.3847 12.6575 13.0403 11.9133 16 11.9133C18.9597 11.9133 21.6153 12.6575 23.5149 13.8342C25.4221 15.0157 26.5 16.5826 26.5 18.2275Z" fill="#F5F7F8" stroke="#AFB4C8"/>
<path d="M26.5 15.0208C26.5 16.6657 25.4221 18.2327 23.5149 19.4141C21.6153 20.5909 18.9597 21.335 16 21.335C13.0403 21.335 10.3847 20.5909 8.48513 19.4141C6.57792 18.2327 5.5 16.6657 5.5 15.0208C5.5 13.3759 6.57792 11.809 8.48513 10.6275C10.3847 9.45081 13.0403 8.70667 16 8.70667C18.9597 8.70667 21.6153 9.45081 23.5149 10.6275C25.4221 11.809 26.5 13.3759 26.5 15.0208Z" fill="#F5F7F8" stroke="#AFB4C8"/>
<path d="M26.5 11.8142C26.5 13.4591 25.4221 15.026 23.5149 16.2075C21.6153 17.3842 18.9597 18.1283 16 18.1283C13.0403 18.1283 10.3847 17.3842 8.48513 16.2075C6.57792 15.026 5.5 13.4591 5.5 11.8142C5.5 10.1693 6.57792 8.60233 8.48513 7.42088C10.3847 6.24415 13.0403 5.5 16 5.5C18.9597 5.5 21.6153 6.24415 23.5149 7.42088C25.4221 8.60233 26.5 10.1693 26.5 11.8142Z" fill="white" stroke="#AFB4C8"/>
<path d="M22.5716 11.8142C22.5716 12.5242 21.996 13.2958 20.7732 13.9197C19.5774 14.5297 17.8907 14.9217 16.0001 14.9217C14.1096 14.9217 12.4228 14.5297 11.2271 13.9197C10.0042 13.2958 9.42871 12.5242 9.42871 11.8142C9.42871 11.1041 10.0042 10.3325 11.2271 9.70867C12.4228 9.09866 14.1096 8.70667 16.0001 8.70667C17.8907 8.70667 19.5774 9.09866 20.7732 9.70867C21.996 10.3325 22.5716 11.1041 22.5716 11.8142Z" fill="#F5F7F8" stroke="#AFB4C8"/>
</svg>
