<svg width="32" height="32" viewBox="0 0 32 32" fill="none" xmlns="http://www.w3.org/2000/svg">
<path d="M23.5363 9.21919C23.5363 9.89607 22.9025 10.6754 21.4831 11.3141C20.1106 11.9317 18.1794 12.3267 16.0196 12.3267C13.8598 12.3267 11.9286 11.9317 10.5561 11.3141C9.13671 10.6754 8.50293 9.89607 8.50293 9.21919C8.50293 8.54232 9.13671 7.76301 10.5561 7.12427C11.9286 6.50664 13.8598 6.11169 16.0196 6.11169C18.1794 6.11169 20.1106 6.50664 21.4831 7.12427C22.9025 7.76301 23.5363 8.54232 23.5363 9.21919Z" fill="#F5F7F8" stroke="#AFB4C8"/>
<path d="M8.49756 19.5V21.2442C8.49756 23.2366 12.0349 25.6534 16.0196 25.6534C20.0044 25.6534 23.4976 23.2366 23.4976 21.2442V19.5" stroke="#AFB4C8"/>
<path fill-rule="evenodd" clip-rule="evenodd" d="M6.70436 16.4151C6.43257 16.1614 5.9096 15.9505 5.25559 15.9505C4.6 15.9505 4.07608 16.1624 3.80485 16.4169L3.12061 15.6876C3.62288 15.2164 4.41622 14.9505 5.25559 14.9505C6.09495 14.9505 6.8883 15.2164 7.39057 15.6876L7.38885 15.6895C7.66063 15.9431 8.18361 16.1541 8.83762 16.1541C9.49321 16.1541 10.0171 15.9421 10.2884 15.6876L10.9726 16.4169C10.4703 16.8882 9.67699 17.1541 8.83762 17.1541C7.99825 17.1541 7.20491 16.8882 6.70264 16.4169L6.70436 16.4151ZM13.8762 16.4151C13.6044 16.1614 13.0815 15.9505 12.4275 15.9505C11.7719 15.9505 11.248 16.1624 10.9767 16.4169L10.2925 15.6876C10.7948 15.2164 11.5881 14.9505 12.4275 14.9505C13.2668 14.9505 14.0602 15.2164 14.5624 15.6876L14.5607 15.6895C14.8325 15.9431 15.3555 16.1541 16.0095 16.1541C16.6651 16.1541 17.189 15.9421 17.4602 15.6876L18.1445 16.4169C17.6422 16.8882 16.8489 17.1541 16.0095 17.1541C15.1701 17.1541 14.3768 16.8882 13.8745 16.4169L13.8762 16.4151ZM23.1853 16.1541C23.8393 16.1541 24.3623 15.9431 24.634 15.6895L24.6323 15.6876C25.1346 15.2164 25.9279 14.9505 26.7673 14.9505C27.6067 14.9505 28.4 15.2164 28.9023 15.6876L28.218 16.4169C27.9468 16.1624 27.4229 15.9505 26.7673 15.9505C26.1133 15.9505 25.5903 16.1614 25.3185 16.4151L25.3203 16.4169C24.818 16.8882 24.0246 17.1541 23.1853 17.1541C22.3459 17.1541 21.5526 16.8882 21.0503 16.4169L21.7345 15.6876C22.0058 15.9421 22.5297 16.1541 23.1853 16.1541ZM21.0501 16.4169C20.7788 16.1624 20.2549 15.9505 19.5993 15.9505C18.9437 15.9505 18.4198 16.1624 18.1486 16.4169L17.4644 15.6876C17.9666 15.2164 18.76 14.9505 19.5993 14.9505C20.4387 14.9505 21.232 15.2164 21.7343 15.6876L21.0501 16.4169Z" fill="#AFB4C8"/>
<path fill-rule="evenodd" clip-rule="evenodd" d="M6.68553 19.1607C6.41095 18.8727 5.89498 18.6425 5.2571 18.6425C4.61786 18.6425 4.10106 18.8737 3.82692 19.1626L3.10156 18.4742C3.60092 17.948 4.40138 17.6425 5.2571 17.6425C6.11282 17.6425 6.91327 17.948 7.41263 18.4742L7.4107 18.476C7.68528 18.764 8.20125 18.9942 8.83913 18.9942C9.47837 18.9942 9.99517 18.7631 10.2693 18.4742L10.9947 19.1626C10.4953 19.6887 9.69485 19.9942 8.83913 19.9942C7.98341 19.9942 7.18296 19.6887 6.68359 19.1626L6.68553 19.1607ZM14.5826 18.476C14.8572 18.764 15.3731 18.9942 16.011 18.9942C16.6502 18.9942 17.167 18.7631 17.4412 18.4742L18.1665 19.1626C17.6672 19.6887 16.8667 19.9942 16.011 19.9942C15.1553 19.9942 14.3548 19.6887 13.8555 19.1626L13.8574 19.1607C13.5828 18.8727 13.0669 18.6425 12.429 18.6425C11.7897 18.6425 11.2729 18.8737 10.9988 19.1626L10.2734 18.4742C10.7728 17.948 11.5733 17.6425 12.429 17.6425C13.2847 17.6425 14.0851 17.948 14.5845 18.4742L14.5826 18.476ZM23.1868 18.9942C23.8247 18.9942 24.3406 18.764 24.6152 18.476L24.6133 18.4742C25.1126 17.948 25.9131 17.6425 26.7688 17.6425C27.6245 17.6425 28.425 17.948 28.9244 18.4742L28.199 19.1626C27.9249 18.8737 27.4081 18.6425 26.7688 18.6425C26.1309 18.6425 25.615 18.8727 25.3404 19.1607L25.3423 19.1626C24.843 19.6887 24.0425 19.9942 23.1868 19.9942C22.3311 19.9942 21.5306 19.6887 21.0312 19.1626L21.7566 18.4742C22.0307 18.7631 22.5476 18.9942 23.1868 18.9942ZM21.031 19.1626C20.7569 18.8737 20.2401 18.6425 19.6008 18.6425C18.9616 18.6425 18.4448 18.8737 18.1707 19.1626L17.4453 18.4742C17.9447 17.948 18.7451 17.6425 19.6008 17.6425C20.4566 17.6425 21.257 17.948 21.7564 18.4742L21.031 19.1626Z" fill="#AFB4C8"/>
<path d="M8.49854 16.6111V9.50003M23.4985 9.50003V16.5" stroke="#AFB4C8"/>
</svg>
