<svg width="32" height="32" viewBox="0 0 32 32" fill="none" xmlns="http://www.w3.org/2000/svg">
<path d="M17.5 5.5C17.5 5.6228 17.3875 5.86858 16.8977 6.11345C16.4379 6.34336 15.7676 6.5 15 6.5C14.2324 6.5 13.5621 6.34336 13.1023 6.11345C12.6125 5.86858 12.5 5.6228 12.5 5.5C12.5 5.3772 12.6125 5.13142 13.1023 4.88655C13.5621 4.65664 14.2324 4.5 15 4.5C15.7676 4.5 16.4379 4.65664 16.8977 4.88655C17.3875 5.13142 17.5 5.3772 17.5 5.5Z" fill="#F5F7F8" stroke="#AFB4C8"/>
<path d="M19.5 17.5C19.5 17.8989 19.1636 18.3947 18.3119 18.8206C17.4902 19.2314 16.3199 19.5 15 19.5C13.6801 19.5 12.5098 19.2314 11.6881 18.8206C10.8364 18.3947 10.5 17.8989 10.5 17.5C10.5 17.1011 10.8364 16.6053 11.6881 16.1794C12.5098 15.7686 13.6801 15.5 15 15.5C16.3199 15.5 17.4902 15.7686 18.3119 16.1794C19.1636 16.6053 19.5 17.1011 19.5 17.5Z" fill="#F5F7F8" stroke="#AFB4C8"/>
<path d="M18 7.5C18 7.86819 16.8225 8.5 15 8.5C13.1775 8.5 12 7.86819 12 7.5" stroke="#AFB4C8" stroke-linecap="round"/>
<path d="M17.499 8V11.6075L24.9952 20.5363C25.1617 20.7346 25.2529 20.9853 25.2529 21.2442V21.2442C25.2529 22.5803 22.6149 26 14.999 26" stroke="#AFB4C8"/>
<path d="M12.5 8V11.5L5.25091 20.5307C5.08851 20.733 5 20.9847 5 21.2441V21.2441C5 22.5803 7.63807 26 15.2539 26" stroke="#AFB4C8"/>
</svg>
