<svg width="103" height="170" viewBox="0 0 103 170" fill="none" xmlns="http://www.w3.org/2000/svg">
<rect x="35.5" y="3.5" width="35" height="3" rx="1.5" fill="white" stroke="#AFB4C8"/>
<rect x="50.5" y="6.5" width="5" height="4" fill="white" stroke="#AFB4C8"/>
<path d="M53.5 166V169.5M50.5 166V169.5" stroke="#AFB4C8"/>
<path d="M30.5 131H15.5L10.5 155H15.5L37.5 163.5L58 167L67 163.5L83.5 155H91.5L88.5 131H70.5V127L67 124L70.5 118.5H35L37.5 124L35 127L30.5 131Z" fill="white"/>
<rect x="45.5" y="15.5" width="15" height="11" fill="white" stroke="#AFB4C8"/>
<rect x="48.5" y="10.5" width="9" height="5" fill="white" stroke="#AFB4C8"/>
<path d="M48 10.5L39.5 6.5" stroke="#AFB4C8"/>
<path d="M58 10.5L66.5 6.5" stroke="#AFB4C8"/>
<path d="M19 38.5H18.5V38V31C18.5 27.9624 20.9624 25.5 24 25.5H80C83.0376 25.5 85.5 27.9624 85.5 31V38V38.5H85H19Z" fill="white" stroke="#AFB4C8"/>
<path d="M47.5 91V84" stroke="#AFB4C8"/>
<path d="M56.5 91V84" stroke="#AFB4C8"/>
<rect x="50.5" y="54.5" width="3" height="40" fill="white" stroke="#AFB4C8"/>
<rect x="48.5" y="105.5" width="7" height="4" fill="white" stroke="#AFB4C8"/>
<rect x="29.5" y="119.5" width="5" height="45" transform="rotate(-90 29.5 119.5)" fill="white" stroke="#AFB4C8"/>
<rect x="29.5" y="114.5" width="5" height="45" transform="rotate(-90 29.5 114.5)" fill="white" stroke="#AFB4C8"/>
<rect x="-0.5" y="0.5" width="10" height="47" transform="matrix(-1 0 0 1 12 118)" fill="white" stroke="#AFB4C8"/>
<rect x="0.5" y="129.5" width="2" height="26" fill="white" stroke="#AFB4C8"/>
<rect x="12.5" y="129.5" width="2" height="26" fill="white" stroke="#AFB4C8"/>
<path d="M61.4545 151.236C66.9848 146.358 80.0364 135.68 88 132M15 155C15.8295 154.164 29.1023 150.4 39.4716 138.273" stroke="#AFB4C8" stroke-linecap="round"/>
<path d="M16 154.497C26.069 158.467 37 165.996 50.3448 165.996C54.5034 165.996 64 166.407 78.4828 159.014C85.931 155.213 85.5172 155.14 88 155.14M15 130.678C15 130.678 31.069 131.088 33.1379 129.446C35.2069 127.803 36.4483 124.107 36.4483 124.107L35.1552 119.5H68.5L67.3103 124.107C70.069 127.118 74 133.5 75 140" stroke="#AFB4C8"/>
<path d="M71 129L88 131" stroke="#AFB4C8"/>
<path d="M38.6289 164C31.4855 161.143 28.8054 154.638 28.1623 148.5" stroke="#AFB4C8"/>
<path d="M36.5 124.5L67.5 124.5" stroke="#AFB4C8" stroke-linecap="round" stroke-dasharray="0.1 0.1"/>
<rect x="32.5" y="119.5" width="5" height="2" fill="white" stroke="#AFB4C8"/>
<rect x="49.5" y="119.5" width="5" height="2" fill="white" stroke="#AFB4C8"/>
<rect x="66.5" y="119.5" width="5" height="2" fill="white" stroke="#AFB4C8"/>
<rect x="50.5" y="105.5" width="3" height="4" fill="white" stroke="#AFB4C8"/>
<rect x="31.5" y="105.5" width="7" height="4" fill="white" stroke="#AFB4C8"/>
<rect x="33.5" y="105.5" width="3" height="4" fill="white" stroke="#AFB4C8"/>
<rect x="65.5" y="105.5" width="7" height="4" fill="white" stroke="#AFB4C8"/>
<rect x="67.5" y="105.5" width="3" height="4" fill="white" stroke="#AFB4C8"/>
<path d="M46.5 166V169.5H57.5V166" stroke="#AFB4C8"/>
<rect x="90.5" y="118.5" width="10" height="47" fill="white" stroke="#AFB4C8"/>
<rect x="-0.5" y="0.5" width="2" height="26" transform="matrix(-1 0 0 1 102 129)" fill="white" stroke="#AFB4C8"/>
<rect x="-0.5" y="0.5" width="2" height="26" transform="matrix(-1 0 0 1 90 129)" fill="white" stroke="#AFB4C8"/>
<path d="M66.707 65.5987L66.7201 65.6232L66.7359 65.646C67.8733 67.2944 68.5 70.0649 68.5 72.0476V92.7826C68.5 94.3641 67.0009 95.7609 65 95.7609H39C36.9991 95.7609 35.5 94.3641 35.5 92.7826V71.7851C35.5 69.9391 36.0429 67.2984 37.0318 65.735L37.046 65.7125L37.0578 65.6886L38.9791 61.7869C39.5832 60.8503 40.748 60.2391 42.0476 60.2391H61.6029C62.8533 60.2391 63.984 60.8057 64.6061 61.69L66.707 65.5987ZM67.1882 60.2963L67.1751 60.2719L67.1594 60.2491C65.9709 58.5267 63.8548 57.5 61.6029 57.5H42.0476C39.7103 57.5 37.5252 58.6058 36.3678 60.4358L36.3535 60.4583L36.3418 60.4821L34.4198 64.3853C33.1463 66.4144 32.5 69.5322 32.5 71.7851V92.7826C32.5 96.0036 35.4781 98.5 39 98.5H65C68.5219 98.5 71.5 96.0036 71.5 92.7826V72.0476C71.5 69.6214 70.7509 66.3398 69.2899 64.2065L67.1882 60.2963Z" fill="white" stroke="#AFB4C8"/>
<rect x="41.5" y="94.5" width="21" height="5" fill="white" stroke="#AFB4C8"/>
<rect x="45.5" y="91.5" width="13" height="3" fill="white" stroke="#AFB4C8"/>
<rect x="45.5" y="86.5" width="13" height="2" fill="white" stroke="#AFB4C8"/>
<path d="M45.6009 73L47.2676 70.5H56.7324L58.3991 73L56.7324 75.5H47.2676L45.6009 73Z" fill="white" stroke="#AFB4C8"/>
<rect x="0.5" y="-0.5" width="21" height="3" transform="matrix(1 0 0 -1 41 102)" fill="white" stroke="#AFB4C8"/>
<path d="M45 102.5C46.1667 104.833 47 108 45 109.5" stroke="#AFB4C8"/>
<path d="M59.207 102.5C58.0404 104.833 57.207 108 59.207 109.5" stroke="#AFB4C8"/>
<circle cx="49" cy="73" r="1" fill="#AFB4C8"/>
<circle cx="55" cy="73" r="1" fill="#AFB4C8"/>
<path d="M39 39.5H38.5V40V55C38.5 58.0376 40.9624 60.5 44 60.5H60C63.0376 60.5 65.5 58.0376 65.5 55V40V39.5H65H39Z" fill="white" stroke="#AFB4C8"/>
<rect x="-0.5" y="0.5" width="39" height="7" transform="matrix(1 0 0 -1 33 49)" fill="white" stroke="#AFB4C8"/>
<path d="M19 30.5H18.5V31V38C18.5 41.0376 20.9624 43.5 24 43.5H80C83.0376 43.5 85.5 41.0376 85.5 38V31V30.5H85H19Z" fill="white" stroke="#AFB4C8"/>
<rect x="16.5" y="31.5" width="71" height="2" fill="white" stroke="#AFB4C8"/>
<rect x="16.5" y="29.5" width="71" height="2" fill="white" stroke="#AFB4C8"/>
<rect x="40.5" y="20.5" width="24" height="5" fill="white" stroke="#AFB4C8"/>
</svg>
