<svg width="134" height="141" viewBox="0 0 134 141" fill="none" xmlns="http://www.w3.org/2000/svg">
<rect x="54.5" y="33.5" width="23" height="17" fill="white" stroke="#AFB4C8"/>
<rect x="46.5" y="13.5" width="39" height="13" fill="white" stroke="#AFB4C8"/>
<rect x="46.5" y="13.5" width="39" height="4" fill="white" stroke="#AFB4C8"/>
<rect x="63.5" y="2.5" width="2" height="11" fill="white" stroke="#AFB4C8"/>
<rect x="65.5" y="2.5" width="3" height="11" fill="white" stroke="#AFB4C8"/>
<rect x="0.5" y="-0.5" width="5" height="2" transform="matrix(1 0 0 -1 63 2)" fill="white" stroke="#AFB4C8"/>
<path d="M46.5 26.5H85.5V26.7731L77.8121 33.5H54.1879L46.5 26.7731V26.5Z" fill="white" stroke="#AFB4C8"/>
<path d="M49.5594 134L49.5586 123.493L81.442 123.066V134C81.442 135.381 80.3227 136.5 78.942 136.5H52.0594C50.6788 136.5 49.5595 135.381 49.5594 134Z" fill="white" stroke="#AFB4C8"/>
<rect x="0.5" y="-0.5" width="26" height="2" transform="matrix(1 0 0 -1 52 138)" fill="white" stroke="#AFB4C8"/>
<rect x="2.5" y="58.5" width="12" height="68" fill="white" stroke="#AFB4C8"/>
<rect x="-0.5" y="0.5" width="2" height="48" transform="matrix(-1 0 0 1 2 68)" fill="white" stroke="#AFB4C8"/>
<rect x="-0.5" y="0.5" width="12" height="68" transform="matrix(-1 0 0 1 131 59)" fill="white" stroke="#AFB4C8"/>
<rect x="131.5" y="71.5" width="2" height="44" fill="white" stroke="#AFB4C8"/>
<rect x="107.5" y="71.5" width="12" height="44" fill="white" stroke="#AFB4C8"/>
<rect x="107.5" y="65.5" width="3" height="7" fill="white" stroke="#AFB4C8"/>
<rect x="107.5" y="67.5" width="3" height="3" fill="white" stroke="#AFB4C8"/>
<rect x="107.5" y="77.5" width="3" height="7" fill="white" stroke="#AFB4C8"/>
<rect x="107.5" y="79.5" width="3" height="3" fill="white" stroke="#AFB4C8"/>
<rect x="107.5" y="89.5" width="3" height="7" fill="white" stroke="#AFB4C8"/>
<rect x="107.5" y="91.5" width="3" height="3" fill="white" stroke="#AFB4C8"/>
<rect x="107.5" y="101.5" width="3" height="7" fill="white" stroke="#AFB4C8"/>
<rect x="107.5" y="103.5" width="3" height="3" fill="white" stroke="#AFB4C8"/>
<rect x="107.5" y="113.5" width="3" height="7" fill="white" stroke="#AFB4C8"/>
<rect x="107.5" y="115.5" width="3" height="3" fill="white" stroke="#AFB4C8"/>
<path d="M19.5 115.382V70.618L14.5 68.7241V117.276L19.5 115.382Z" fill="white" stroke="#AFB4C8"/>
<mask id="path-26-inside-1" fill="white">
<path fill-rule="evenodd" clip-rule="evenodd" d="M30.1987 66.8983C39.2217 63.8735 47.4567 61.1129 57.4922 61.1129H72.9922C76.4236 61.1129 81.8544 61.3437 87.7413 61.5938C94.7079 61.8898 102.313 62.2129 108 62.2129V85.1796V101.046V124.013C102.313 124.013 94.7079 124.924 87.7413 125.758C81.8544 126.463 76.4236 127.113 72.9922 127.113H64.5H57.4922C48.4603 127.113 40.8868 124.044 32.8847 120.8C28.4899 119.019 23.9659 117.186 19 115.78C19.0005 112.35 19.0006 106.274 19.0005 100.48L19 100.48C19 100.48 19.0002 97.3931 19.0003 93.1129C19.0002 88.8328 19 85.7463 19 85.7463L19.0005 85.7463C19.0006 79.952 19.0005 73.8756 19 70.4462C22.9611 69.3245 26.6412 68.0909 30.1987 66.8983Z"/>
</mask>
<path fill-rule="evenodd" clip-rule="evenodd" d="M30.1987 66.8983C39.2217 63.8735 47.4567 61.1129 57.4922 61.1129H72.9922C76.4236 61.1129 81.8544 61.3437 87.7413 61.5938C94.7079 61.8898 102.313 62.2129 108 62.2129V85.1796V101.046V124.013C102.313 124.013 94.7079 124.924 87.7413 125.758C81.8544 126.463 76.4236 127.113 72.9922 127.113H64.5H57.4922C48.4603 127.113 40.8868 124.044 32.8847 120.8C28.4899 119.019 23.9659 117.186 19 115.78C19.0005 112.35 19.0006 106.274 19.0005 100.48L19 100.48C19 100.48 19.0002 97.3931 19.0003 93.1129C19.0002 88.8328 19 85.7463 19 85.7463L19.0005 85.7463C19.0006 79.952 19.0005 73.8756 19 70.4462C22.9611 69.3245 26.6412 68.0909 30.1987 66.8983Z" fill="white"/>
<path d="M30.1987 66.8983L30.5165 67.8465L30.1987 66.8983ZM87.7413 61.5938L87.6989 62.5929L87.7413 61.5938ZM108 62.2129H109V61.2129H108V62.2129ZM108 124.013V125.013H109V124.013H108ZM87.7413 125.758L87.6225 124.765L87.7413 125.758ZM32.8847 120.8L33.2603 119.874L32.8847 120.8ZM19 115.78L18 115.779L17.9999 116.536L18.7275 116.742L19 115.78ZM19.0005 100.48L20.0005 100.48L20.0005 99.4869L19.0078 99.4796L19.0005 100.48ZM19 100.48L18 100.48L17.9999 101.472L18.9927 101.48L19 100.48ZM19.0003 93.1129L20.0003 93.113V93.1129L19.0003 93.1129ZM19 85.7463L18.9927 84.7463L17.9999 84.7536L18 85.7463L19 85.7463ZM19.0005 85.7463L19.0078 86.7462L20.0005 86.739L20.0005 85.7463L19.0005 85.7463ZM19 70.4462L18.7275 69.4841L17.9999 69.6901L18 70.4464L19 70.4462ZM57.4922 60.1129C47.2712 60.1129 38.8895 62.9302 29.8808 65.9502L30.5165 67.8465C39.5539 64.8169 47.6422 62.1129 57.4922 62.1129V60.1129ZM72.9922 60.1129H57.4922V62.1129H72.9922V60.1129ZM87.7838 60.5947C81.9076 60.345 76.4503 60.1129 72.9922 60.1129V62.1129C76.397 62.1129 81.8013 62.3423 87.6989 62.5929L87.7838 60.5947ZM108 61.2129C102.339 61.2129 94.7579 60.891 87.7838 60.5947L87.6989 62.5929C94.6579 62.8886 102.287 63.2129 108 63.2129V61.2129ZM109 85.1796V62.2129H107V85.1796H109ZM107 85.1796V101.046H109V85.1796H107ZM107 101.046V124.013H109V101.046H107ZM108 123.013C102.24 123.013 94.5675 123.933 87.6225 124.765L87.8602 126.751C94.8483 125.914 102.386 125.013 108 125.013V123.013ZM87.6225 124.765C81.7053 125.473 76.3486 126.113 72.9922 126.113V128.113C76.4986 128.113 82.0035 127.452 87.8602 126.751L87.6225 124.765ZM72.9922 126.113H64.5V128.113H72.9922V126.113ZM64.5 126.113H57.4922V128.113H64.5V126.113ZM57.4922 126.113C48.6838 126.113 41.2844 123.126 33.2603 119.874L32.509 121.727C40.4891 124.961 48.2369 128.113 57.4922 128.113V126.113ZM33.2603 119.874C28.8715 118.095 24.2987 116.241 19.2725 114.817L18.7275 116.742C23.633 118.131 28.1083 119.944 32.509 121.727L33.2603 119.874ZM20 115.78C20.0005 112.35 20.0006 106.274 20.0005 100.48L18.0005 100.48C18.0006 106.274 18.0005 112.35 18 115.779L20 115.78ZM18.9927 101.48L18.9932 101.48L19.0078 99.4796L19.0073 99.4796L18.9927 101.48ZM18.0003 93.1129C18.0003 95.253 18.0002 97.0946 18.0001 98.4013C18.0001 99.0546 18 99.5741 18 99.9304C18 100.108 18 100.246 18 100.339C18 100.385 18 100.42 18 100.444C18 100.456 18 100.465 18 100.471C18 100.474 18 100.476 18 100.477C18 100.478 18 100.479 18 100.479C18 100.479 18 100.479 18 100.479C18 100.479 18 100.479 18 100.479C18 100.48 18 100.48 19 100.48C20 100.48 20 100.48 20 100.48C20 100.48 20 100.48 20 100.479C20 100.479 20 100.479 20 100.479C20 100.479 20 100.478 20 100.477C20 100.476 20 100.474 20 100.471C20 100.465 20 100.456 20 100.444C20 100.42 20 100.385 20 100.339C20 100.246 20 100.109 20 99.9305C20 99.5742 20.0001 99.0547 20.0001 98.4014C20.0002 97.0947 20.0003 95.253 20.0003 93.113L18.0003 93.1129ZM20.0003 93.1129C20.0003 90.9728 20.0002 89.1311 20.0001 87.8245C20.0001 87.1712 20 86.6516 20 86.2954C20 86.1172 20 85.9799 20 85.8872C20 85.8408 20 85.8056 20 85.7819C20 85.7701 20 85.7612 20 85.7552C20 85.7522 20 85.75 20 85.7485C20 85.7477 20 85.7471 20 85.7468C20 85.7466 20 85.7464 20 85.7463C20 85.7463 20 85.7463 20 85.7462C20 85.7462 20 85.7462 19 85.7463C18 85.7463 18 85.7463 18 85.7464C18 85.7464 18 85.7464 18 85.7465C18 85.7466 18 85.7467 18 85.7469C18 85.7473 18 85.7478 18 85.7486C18 85.7501 18 85.7523 18 85.7553C18 85.7613 18 85.7702 18 85.782C18 85.8057 18 85.8409 18 85.8873C18 85.9801 18 86.1173 18 86.2955C18 86.6517 18.0001 87.1713 18.0001 87.8246C18.0002 89.1312 18.0003 90.9729 18.0003 93.113L20.0003 93.1129ZM19.0073 86.7462L19.0078 86.7462L18.9932 84.7463L18.9927 84.7463L19.0073 86.7462ZM18 70.4464C18.0005 73.8756 18.0006 79.952 18.0005 85.7462L20.0005 85.7463C20.0006 79.952 20.0005 73.8755 20 70.4461L18 70.4464ZM29.8808 65.9502C26.3207 67.1436 22.6624 68.3698 18.7275 69.4841L19.2725 71.4084C23.2599 70.2793 26.9616 69.0382 30.5165 67.8465L29.8808 65.9502Z" fill="#AFB4C8" mask="url(#path-26-inside-1)"/>
<rect x="53.5" y="138.5" width="5" height="2" fill="white" stroke="#AFB4C8"/>
<rect x="51.5" y="48.5" width="5" height="2" fill="white" stroke="#AFB4C8"/>
<rect x="59.5" y="48.5" width="5" height="2" fill="white" stroke="#AFB4C8"/>
<rect x="67.5" y="48.5" width="5" height="2" fill="white" stroke="#AFB4C8"/>
<rect x="75.5" y="48.5" width="5" height="2" fill="white" stroke="#AFB4C8"/>
<rect x="62.5" y="138.5" width="5" height="2" fill="white" stroke="#AFB4C8"/>
<rect x="71.5" y="138.5" width="5" height="2" fill="white" stroke="#AFB4C8"/>
<path d="M46.5002 60.1057L46.5005 56.5H85.4948L85.4572 60.1349C85.441 61.6932 84.6198 63.1322 83.2863 63.9388L76.056 68.3119C69.8514 72.0646 62.0769 72.0646 55.8723 68.3119L48.6713 63.9565C47.3235 63.1413 46.5001 61.6808 46.5002 60.1057Z" fill="white" stroke="#AFB4C8"/>
<rect x="64" y="71" width="1" height="56" fill="#AFB4C8"/>
<rect x="67" y="71" width="1" height="56" fill="#AFB4C8"/>
<rect x="91" y="62" width="1" height="63" fill="#AFB4C8"/>
<rect x="39" y="64" width="1" height="59" fill="#AFB4C8"/>
<rect x="48.5" y="50.5" width="35" height="6" fill="white" stroke="#AFB4C8"/>
</svg>
