<svg width="161" height="119" viewBox="0 0 161 119" fill="none" xmlns="http://www.w3.org/2000/svg">
<path d="M88.5 23.9708L66.9666 16.5H110.033L88.5 23.9708Z" fill="white" stroke="#AFB4C8"/>
<rect x="77.5" y="23.5" width="22" height="6" fill="white" stroke="#AFB4C8"/>
<path d="M77.6937 23.5L80.3604 15.5H96.6396L99.3063 23.5H77.6937Z" fill="white" stroke="#AFB4C8"/>
<rect x="77.5" y="23.5" width="22" height="2" fill="white" stroke="#AFB4C8"/>
<rect x="52.5" y="38.5" width="71" height="47" fill="white" stroke="#AFB4C8"/>
<path d="M123.5 44.5H151C151.828 44.5 152.5 45.1716 152.5 46V78C152.5 78.8284 151.828 79.5 151 79.5H123.5V44.5Z" fill="white" stroke="#AFB4C8"/>
<path d="M123.5 71.5H152.5V78C152.5 78.8284 151.828 79.5 151 79.5H123.5V71.5Z" fill="white" stroke="#AFB4C8"/>
<path d="M123.5 44.5H151C151.828 44.5 152.5 45.1716 152.5 46V52.5H123.5V44.5Z" fill="white" stroke="#AFB4C8"/>
<rect x="52.5" y="101.5" width="71" height="17" fill="white" stroke="#AFB4C8"/>
<rect x="52.5" y="114.5" width="71" height="4" fill="white" stroke="#AFB4C8"/>
<rect x="72.5" y="85.5" width="31" height="16" fill="white" stroke="#AFB4C8"/>
<rect x="75.5" y="90.5" width="25" height="11" fill="#F6F6F6" stroke="#AFB4C8"/>
<rect x="121.5" y="38.5" width="2" height="47" fill="white" stroke="#AFB4C8"/>
<path d="M61.5 46C61.5 45.7239 61.7239 45.5 62 45.5H85C85.2761 45.5 85.5 45.7239 85.5 46V80C85.5 80.2761 85.2761 80.5 85 80.5H62C61.7239 80.5 61.5 80.2761 61.5 80V46Z" fill="white" stroke="#AFB4C8"/>
<path d="M66 52.5H66.5V52V45.5H73.5H80.5V52V52.5H81H85.5V63.5V73.5H81H80.5V74V80.5H73.5H66.5V74V73.5H66H61.5V63.5V52.5H66Z" fill="white" stroke="#AFB4C8"/>
<rect x="100.5" y="74.5" width="15" height="8" fill="white" stroke="#AFB4C8"/>
<circle cx="108" cy="61" r="8.5" fill="white" stroke="#AFB4C8"/>
<circle cx="108" cy="61" r="5.5" fill="white" stroke="#AFB4C8"/>
<path d="M105.147 47.1194C105.047 46.0941 105.746 45.162 106.758 44.971L157.441 35.4047C158.59 35.1878 159.678 36.0035 159.791 37.1672C159.891 38.1925 159.192 39.1245 158.18 39.3156L107.497 48.8819C106.348 49.0988 105.26 48.2831 105.147 47.1194Z" fill="white" stroke="#AFB4C8"/>
<rect x="0.5" y="-0.5" width="7" height="4" transform="matrix(1 0 0 -1 84 94)" fill="white" stroke="#AFB4C8"/>
<rect x="0.5" y="-0.5" width="3" height="4" transform="matrix(1 0 0 -1 86 94)" fill="white" stroke="#AFB4C8"/>
<rect x="0.5" y="-0.5" width="3" height="2" transform="matrix(1 0 0 -1 86 96)" fill="white" stroke="#AFB4C8"/>
<circle cx="64" cy="49" r="1" fill="#AFB4C8"/>
<circle cx="83" cy="49" r="1" fill="#AFB4C8"/>
<circle cx="64" cy="77" r="1" fill="#AFB4C8"/>
<circle cx="83" cy="77" r="1" fill="#AFB4C8"/>
<rect x="25.5" y="48.5" width="27" height="25" fill="white" stroke="#AFB4C8"/>
<rect x="49.5" y="48.5" width="3" height="31" fill="white" stroke="#AFB4C8"/>
<circle cx="22.5" cy="60.5" r="22" fill="white" stroke="#AFB4C8"/>
<circle cx="22.5" cy="60.5" r="17" fill="white" stroke="#AFB4C8"/>
<path d="M37 53C33.3917 54.5814 31 57.3495 31 60.5C31 63.6505 33.3917 66.4186 37 68" stroke="#AFB4C8" stroke-linecap="round"/>
<rect x="34.5" y="58.5" width="7" height="4" rx="1.5" fill="white" stroke="#AFB4C8"/>
<path d="M8 53C11.6083 54.5814 14 57.3495 14 60.5C14 63.6505 11.6083 66.4186 8 68" stroke="#AFB4C8" stroke-linecap="round"/>
<rect x="-0.5" y="0.5" width="7" height="4" rx="1.5" transform="matrix(-1 0 0 1 9 58)" fill="white" stroke="#AFB4C8"/>
<rect x="16.5" y="51.5" width="12" height="4" fill="#F6F6F6" stroke="#AFB4C8"/>
<rect x="66.5" y="29.5" width="44" height="5" fill="white" stroke="#AFB4C8"/>
<rect x="72.5" y="34.5" width="32" height="4" fill="white" stroke="#AFB4C8"/>
<rect x="69.5" y="27.5" width="4" height="2" fill="white" stroke="#AFB4C8"/>
<rect x="86.5" y="27.5" width="4" height="2" fill="white" stroke="#AFB4C8"/>
<rect x="103.5" y="27.5" width="4" height="2" fill="white" stroke="#AFB4C8"/>
<rect x="84.5" y="15.5" width="8" height="6" fill="white" stroke="#AFB4C8"/>
<rect x="86.5" y="15.5" width="4" height="6" fill="white" stroke="#AFB4C8"/>
<path d="M149.661 7.41174C150.761 7.18034 151.454 6.08756 151.195 4.99369C150.944 3.93892 149.899 3.27587 148.838 3.499L109.812 11.7072C108.712 11.9386 108.019 13.0314 108.279 14.1253C108.529 15.1801 109.574 15.8431 110.635 15.62L149.661 7.41174Z" fill="white" stroke="#AFB4C8"/>
<path d="M30.5904 7.43163C29.4995 7.19125 28.8171 6.10383 29.0751 5.01701C29.3272 3.95472 30.3848 3.29103 31.451 3.52599L68.487 11.6873C69.5778 11.9277 70.2602 13.0151 70.0023 14.102C69.7501 15.1643 68.6925 15.8279 67.6263 15.593L30.5904 7.43163Z" fill="white" stroke="#AFB4C8"/>
<rect x="63.5" y="8.5" width="51" height="9" rx="0.5" fill="white" stroke="#AFB4C8"/>
<rect x="86.5" y="0.5" width="4" height="14" rx="2" fill="white" stroke="#AFB4C8"/>
<rect x="71" y="56" width="1" height="15" fill="#AFB4C8"/>
<rect x="75" y="56" width="1" height="15" fill="#AFB4C8"/>
</svg>
