<svg width="118" height="110" viewBox="0 0 118 110" fill="none" xmlns="http://www.w3.org/2000/svg">
<path d="M101.5 54.5L96.5 60.5" stroke="#AFB4C8"/>
<rect x="2.5" y="0.5" width="9" height="64" fill="white" stroke="#AFB4C8"/>
<rect x="-0.5" y="0.5" width="2" height="38" transform="matrix(-1 0 0 1 2 14)" fill="white" stroke="#AFB4C8"/>
<rect x="-0.5" y="0.5" width="3" height="44" transform="matrix(-1 0 0 1 14 11)" fill="white" stroke="#AFB4C8"/>
<rect x="-0.5" y="0.5" width="9" height="64" transform="matrix(-1 0 0 1 115 0)" fill="white" stroke="#AFB4C8"/>
<rect x="115.5" y="14.5" width="2" height="38" fill="white" stroke="#AFB4C8"/>
<rect x="103.5" y="11.5" width="3" height="44" fill="white" stroke="#AFB4C8"/>
<path d="M54.7671 19.9425L54.9867 20.0581L55.2114 19.9532C62.6337 16.4894 72.1911 14.746 81.2356 13.8728C89.99 13.0275 98.221 13.0009 103.5 13.0001V54.8323C103.311 54.779 103.086 54.717 102.831 54.6495C102.026 54.4364 100.919 54.1676 99.7156 53.9458C98.5142 53.7245 97.2037 53.5478 95.9944 53.5236C94.8001 53.4997 93.6375 53.6223 92.7764 54.0528C92.2147 54.3337 91.7981 54.7003 91.632 55.2343C91.4731 55.7448 91.5815 56.2957 91.7785 56.854C91.9781 57.4194 92.3058 58.0891 92.6925 58.8703C92.7194 58.9247 92.7467 58.9797 92.7743 59.0354C93.1066 59.7061 93.4867 60.4733 93.891 61.3645L54.977 94.8602C46.6671 88.6285 38.5879 77.8522 32.5444 68.5404C29.4891 63.8327 26.9635 59.5142 25.2017 56.3727C24.321 54.8021 23.6314 53.5261 23.1622 52.6434C22.9277 52.202 22.7482 51.8589 22.6276 51.6265C22.5673 51.5103 22.5217 51.4218 22.4912 51.3625L22.457 51.2956L22.4485 51.2789L22.4464 51.2748L22.4459 51.2739C22.4458 51.2737 22.4458 51.2736 22 51.5001L22.4458 51.2736L22.2001 50.7899L21.738 51.0742L15.3585 55.0001H14.5V12.937C21.7521 12.0074 39.9923 12.1663 54.7671 19.9425Z" fill="white" stroke="#AFB4C8"/>
<rect x="97.3697" y="61.6214" width="9" height="58" transform="rotate(53.2093 97.3697 61.6214)" fill="white" stroke="#AFB4C8"/>
<path d="M97.3695 61.6213L96.2767 60.1601L93.5802 59.4603L50.6729 91.5482L49.8639 94.9431L50.9214 96.3572L97.3695 61.6213Z" fill="white" stroke="#AFB4C8"/>
<rect x="-0.699861" y="-0.100967" width="4" height="58" transform="matrix(-0.598894 -0.800829 -0.800829 0.598894 104.656 71.5321)" fill="white" stroke="#AFB4C8"/>
<rect x="-0.699861" y="-0.100967" width="3" height="7" transform="matrix(-0.598894 -0.800829 -0.800829 0.598894 104.049 75.7313)" fill="white" stroke="#AFB4C8"/>
<rect x="-0.699861" y="-0.100967" width="3" height="3" transform="matrix(-0.598894 -0.800829 -0.800829 0.598894 102.448 76.9291)" fill="white" stroke="#AFB4C8"/>
<rect x="-0.699861" y="-0.100967" width="3" height="7" transform="matrix(-0.598894 -0.800829 -0.800829 0.598894 86.431 88.907)" fill="white" stroke="#AFB4C8"/>
<rect x="-0.699861" y="-0.100967" width="3" height="3" transform="matrix(-0.598894 -0.800829 -0.800829 0.598894 84.8294 90.1047)" fill="white" stroke="#AFB4C8"/>
<rect x="-0.699861" y="-0.100967" width="3" height="7" transform="matrix(-0.598894 -0.800829 -0.800829 0.598894 68.0121 102.682)" fill="white" stroke="#AFB4C8"/>
<rect x="-0.699861" y="-0.100967" width="3" height="3" transform="matrix(-0.598894 -0.800829 -0.800829 0.598894 66.4105 103.879)" fill="white" stroke="#AFB4C8"/>
<path d="M22.4995 51.5C22.4995 51.5 18.4997 35.5 48.4995 24.5" stroke="#AFB4C8"/>
<path d="M93.4999 59.5C93.4999 59.5 79.2453 51.4431 69.0615 42.5" stroke="#AFB4C8"/>
<path d="M79 29.5V31.5H89.5V33L94 30.5L89.5 28V29.5H79Z" stroke="#AFB4C8"/>
<rect x="37" y="38" width="17" height="1" fill="#AFB4C8"/>
<rect x="37" y="41" width="17" height="1" fill="#AFB4C8"/>
<rect x="37" y="44" width="13" height="1" fill="#AFB4C8"/>
</svg>
