<svg width="572" height="374" viewBox="0 0 572 374" fill="none" xmlns="http://www.w3.org/2000/svg">
<circle cx="287" cy="187" r="187" fill="#F5F7F8"/>
<rect x="0.5" y="-0.5" width="23" height="17" transform="matrix(1 0 0 -1 510 244)" fill="white" stroke="#AFB4C8"/>
<rect x="0.5" y="-0.5" width="39" height="13" transform="matrix(1 0 0 -1 502 264)" fill="white" stroke="#AFB4C8"/>
<rect x="0.5" y="-0.5" width="39" height="4" transform="matrix(1 0 0 -1 502 264)" fill="white" stroke="#AFB4C8"/>
<path d="M502.5 251.5H541.5V251.227L533.812 244.5H510.188L502.5 251.227V251.5Z" fill="white" stroke="#AFB4C8"/>
<rect x="507.5" y="86.5" width="29" height="35" fill="white" stroke="#AFB4C8"/>
<path d="M507.5 105.5L503 121.5H510.5V106.5C510.5 105.948 510.052 105.5 509.5 105.5H507.5Z" fill="white" stroke="#AFB4C8"/>
<path d="M536.5 105.5L541 121.5H533.5V106.5C533.5 105.948 533.948 105.5 534.5 105.5H536.5Z" fill="white" stroke="#AFB4C8"/>
<path d="M539.5 130V151.5H504.5V130V129.732L504.277 129.584L501.5 127.732V122.426V121.5H514C514.276 121.5 514.5 121.724 514.5 122V124C514.5 124.828 515.172 125.5 516 125.5H528C528.828 125.5 529.5 124.828 529.5 124V122C529.5 121.724 529.724 121.5 530 121.5H542.5V127.732L539.723 129.584L539.5 129.732V130Z" fill="white" stroke="#AFB4C8"/>
<path d="M535.5 119C535.5 118.724 535.724 118.5 536 118.5H538C538.276 118.5 538.5 118.724 538.5 119V121.5H535.5V119Z" fill="white" stroke="#AFB4C8"/>
<path d="M505.5 119C505.5 118.724 505.724 118.5 506 118.5H508C508.276 118.5 508.5 118.724 508.5 119V121.5H505.5V119Z" fill="white" stroke="#AFB4C8"/>
<rect x="513.5" y="105.5" width="17" height="20" rx="0.5" fill="#F6F6F6" stroke="#AFB4C8"/>
<rect x="516.5" y="114.5" width="11" height="4" fill="white" stroke="#AFB4C8"/>
<rect x="518.5" y="110.5" width="7" height="4" fill="white" stroke="#AFB4C8"/>
<rect x="520.5" y="110.5" width="3" height="4" fill="white" stroke="#AFB4C8"/>
<rect x="520.5" y="108.5" width="3" height="2" fill="white" stroke="#AFB4C8"/>
<rect x="520.5" y="118.5" width="3" height="7" fill="white" stroke="#AFB4C8"/>
<rect x="491.5" y="76.5" width="60" height="6" rx="3" fill="white" stroke="#AFB4C8"/>
<rect x="513.5" y="86.5" width="17" height="14" fill="white" stroke="#AFB4C8"/>
<rect x="509.5" y="82.5" width="24" height="2" fill="white" stroke="#AFB4C8"/>
<rect x="515.5" y="74.5" width="13" height="2" fill="white" stroke="#AFB4C8"/>
<rect x="518.5" y="72.5" width="7" height="2" fill="white" stroke="#AFB4C8"/>
<rect x="513.5" y="84.5" width="17" height="2" fill="white" stroke="#AFB4C8"/>
<rect x="504.5" y="93.5" width="3" height="3" fill="white" stroke="#AFB4C8"/>
<rect x="536.5" y="93.5" width="3" height="3" fill="white" stroke="#AFB4C8"/>
<rect x="61.5" y="204.5" width="37" height="29" fill="white" stroke="#AFB4C8"/>
<path d="M29.5008 236L29.5 225.921L61.5 225.507V236C61.5 237.381 60.3807 238.5 59 238.5H32.0008C30.6202 238.5 29.5009 237.381 29.5008 236Z" fill="white" stroke="#AFB4C8"/>
<rect x="0.5" y="-0.5" width="26" height="4" transform="matrix(1 0 0 -1 32 242)" fill="white" stroke="#AFB4C8"/>
<rect x="33.5" y="242.5" width="5" height="2" fill="white" stroke="#AFB4C8"/>
<rect x="42.5" y="242.5" width="6" height="2" fill="white" stroke="#AFB4C8"/>
<rect x="52.5" y="242.5" width="5" height="2" fill="white" stroke="#AFB4C8"/>
<rect x="400.5" y="71.5" width="35" height="3" rx="1.5" fill="white" stroke="#AFB4C8"/>
<rect x="415.5" y="74.5" width="5" height="4" fill="white" stroke="#AFB4C8"/>
<rect x="410.5" y="83.5" width="15" height="11" fill="white" stroke="#AFB4C8"/>
<rect x="413.5" y="78.5" width="9" height="5" fill="white" stroke="#AFB4C8"/>
<path d="M413 78.5L404.5 74.5" stroke="#AFB4C8"/>
<path d="M423 78.5L431.5 74.5" stroke="#AFB4C8"/>
<path d="M384 106.5H383.5V106V99C383.5 95.9624 385.962 93.5 389 93.5H445C448.038 93.5 450.5 95.9624 450.5 99V106V106.5H450H384Z" fill="white" stroke="#AFB4C8"/>
<path d="M412.5 159V152" stroke="#AFB4C8"/>
<path d="M421.5 159V152" stroke="#AFB4C8"/>
<rect x="415.5" y="122.5" width="3" height="40" fill="white" stroke="#AFB4C8"/>
<rect x="413.5" y="173.5" width="7" height="4" fill="white" stroke="#AFB4C8"/>
<rect x="394.5" y="187.5" width="5" height="45" transform="rotate(-90 394.5 187.5)" fill="white" stroke="#AFB4C8"/>
<rect x="394.5" y="182.5" width="5" height="45" transform="rotate(-90 394.5 182.5)" fill="white" stroke="#AFB4C8"/>
<rect x="415.5" y="173.5" width="3" height="4" fill="white" stroke="#AFB4C8"/>
<rect x="396.5" y="173.5" width="7" height="4" fill="white" stroke="#AFB4C8"/>
<rect x="398.5" y="173.5" width="3" height="4" fill="white" stroke="#AFB4C8"/>
<rect x="430.5" y="173.5" width="7" height="4" fill="white" stroke="#AFB4C8"/>
<rect x="432.5" y="173.5" width="3" height="4" fill="white" stroke="#AFB4C8"/>
<path d="M431.707 133.599L431.72 133.623L431.736 133.646C432.873 135.294 433.5 138.065 433.5 140.048V160.783C433.5 162.364 432.001 163.761 430 163.761H404C401.999 163.761 400.5 162.364 400.5 160.783V139.785C400.5 137.939 401.043 135.298 402.032 133.735L402.046 133.713L402.058 133.689L403.979 129.787C404.583 128.85 405.748 128.239 407.048 128.239H426.603C427.853 128.239 428.984 128.806 429.606 129.69L431.707 133.599ZM432.188 128.296L432.175 128.272L432.159 128.249C430.971 126.527 428.855 125.5 426.603 125.5H407.048C404.71 125.5 402.525 126.606 401.368 128.436L401.354 128.458L401.342 128.482L399.42 132.385C398.146 134.414 397.5 137.532 397.5 139.785V160.783C397.5 164.004 400.478 166.5 404 166.5H430C433.522 166.5 436.5 164.004 436.5 160.783V140.048C436.5 137.621 435.751 134.34 434.29 132.206L432.188 128.296Z" fill="white" stroke="#AFB4C8"/>
<rect x="406.5" y="162.5" width="21" height="5" fill="white" stroke="#AFB4C8"/>
<rect x="410.5" y="159.5" width="13" height="3" fill="white" stroke="#AFB4C8"/>
<rect x="410.5" y="154.5" width="13" height="2" fill="white" stroke="#AFB4C8"/>
<path d="M410.601 141L412.268 138.5H421.732L423.399 141L421.732 143.5H412.268L410.601 141Z" fill="white" stroke="#AFB4C8"/>
<rect x="0.5" y="-0.5" width="21" height="3" transform="matrix(1 0 0 -1 406 170)" fill="white" stroke="#AFB4C8"/>
<path d="M410 170.5C411.167 172.833 412 176 410 177.5" stroke="#AFB4C8"/>
<path d="M424.207 170.5C423.04 172.833 422.207 176 424.207 177.5" stroke="#AFB4C8"/>
<circle cx="414" cy="141" r="1" fill="#AFB4C8"/>
<circle cx="420" cy="141" r="1" fill="#AFB4C8"/>
<path d="M404 107.5H403.5V108V123C403.5 126.038 405.962 128.5 409 128.5H425C428.038 128.5 430.5 126.038 430.5 123V108V107.5H430H404Z" fill="white" stroke="#AFB4C8"/>
<rect x="-0.5" y="0.5" width="39" height="7" transform="matrix(1 0 0 -1 398 117)" fill="white" stroke="#AFB4C8"/>
<path d="M384 98.5H383.5V99V106C383.5 109.038 385.962 111.5 389 111.5H445C448.038 111.5 450.5 109.038 450.5 106V99V98.5H450H384Z" fill="white" stroke="#AFB4C8"/>
<rect x="381.5" y="99.5" width="71" height="2" fill="white" stroke="#AFB4C8"/>
<rect x="381.5" y="97.5" width="71" height="2" fill="white" stroke="#AFB4C8"/>
<rect x="405.5" y="88.5" width="24" height="5" fill="white" stroke="#AFB4C8"/>
<rect x="125.5" y="283.5" width="39" height="43" fill="white" stroke="#AFB4C8"/>
<rect x="131.5" y="295.5" width="27" height="23" fill="white" stroke="#AFB4C8"/>
<rect x="0.5" y="-0.5" width="39" height="7" transform="matrix(1 0 0 -1 125 290)" fill="white" stroke="#AFB4C8"/>
<rect x="0.5" y="-0.5" width="25" height="30" transform="matrix(1 0 0 -1 132 283)" fill="white" stroke="#AFB4C8"/>
<path d="M128.5 114C128.5 113.172 129.172 112.5 130 112.5H162C162.828 112.5 163.5 113.172 163.5 114V161.5H128.5V114Z" fill="white" stroke="#AFB4C8"/>
<path d="M129.527 112.5C129.776 110.25 131.684 108.5 134 108.5H158C160.316 108.5 162.224 110.25 162.473 112.5H129.527Z" fill="white" stroke="#AFB4C8"/>
<rect x="0.5" y="-0.5" width="71" height="10" transform="matrix(1 0 0 -1 110 181)" fill="white" stroke="#AFB4C8"/>
<rect x="0.5" y="-0.5" width="71" height="10" transform="matrix(1 0 0 -1 110 171)" fill="white" stroke="#AFB4C8"/>
<rect x="128.5" y="279.5" width="8" height="4" fill="white" stroke="#AFB4C8"/>
<rect x="130.5" y="279.5" width="4" height="4" fill="white" stroke="#AFB4C8"/>
<rect x="140.5" y="104.5" width="12" height="4" fill="white" stroke="#AFB4C8"/>
<rect x="143.5" y="104.5" width="6" height="4" fill="white" stroke="#AFB4C8"/>
<rect x="153.5" y="279.5" width="8" height="4" fill="white" stroke="#AFB4C8"/>
<rect x="155.5" y="279.5" width="4" height="4" fill="white" stroke="#AFB4C8"/>
<rect x="98.5" y="211.5" width="34" height="14" fill="white" stroke="#AFB4C8"/>
<path d="M111 218.5H129" stroke="#AFB4C8"/>
<path d="M495.5 222.966V208.034L501.5 202.186V228.814L495.5 222.966Z" fill="white" stroke="#AFB4C8"/>
<rect x="-0.5" y="0.5" width="25" height="14" transform="matrix(-1 0 0 1 495 208)" fill="white" stroke="#AFB4C8"/>
<path d="M495 218.5H471" stroke="#AFB4C8"/>
<path d="M137 301.5L153 301.5" stroke="#AFB4C8"/>
<path d="M137 304.5L153 304.5" stroke="#AFB4C8"/>
<path d="M137 307.5L153 307.5" stroke="#AFB4C8"/>
<path d="M137 310.5H148" stroke="#AFB4C8"/>
<rect x="130.5" y="277.5" width="4" height="2" fill="white" stroke="#AFB4C8"/>
<rect x="113.5" y="157.5" width="8" height="4" fill="white" stroke="#AFB4C8"/>
<rect x="115.5" y="157.5" width="4" height="4" fill="white" stroke="#AFB4C8"/>
<rect x="115.5" y="155.5" width="4" height="2" fill="white" stroke="#AFB4C8"/>
<rect x="131.5" y="157.5" width="8" height="4" fill="white" stroke="#AFB4C8"/>
<rect x="133.5" y="157.5" width="4" height="4" fill="white" stroke="#AFB4C8"/>
<rect x="133.5" y="155.5" width="4" height="2" fill="white" stroke="#AFB4C8"/>
<rect x="152.5" y="157.5" width="8" height="4" fill="white" stroke="#AFB4C8"/>
<rect x="154.5" y="157.5" width="4" height="4" fill="white" stroke="#AFB4C8"/>
<rect x="142.5" y="69.5" width="8" height="4" fill="white" stroke="#AFB4C8"/>
<rect x="144.5" y="69.5" width="4" height="4" fill="white" stroke="#AFB4C8"/>
<rect x="154.5" y="155.5" width="4" height="2" fill="white" stroke="#AFB4C8"/>
<rect x="170.5" y="157.5" width="8" height="4" fill="white" stroke="#AFB4C8"/>
<rect x="172.5" y="157.5" width="4" height="4" fill="white" stroke="#AFB4C8"/>
<rect x="172.5" y="155.5" width="4" height="2" fill="white" stroke="#AFB4C8"/>
<rect x="155.5" y="277.5" width="4" height="2" fill="white" stroke="#AFB4C8"/>
<rect x="143.5" y="73.5" width="6" height="31" fill="white" stroke="#AFB4C8"/>
<path d="M136.5 113L136.5 155" stroke="#AFB4C8"/>
<rect x="29.5" y="122.5" width="32" height="81" fill="white" stroke="#AFB4C8"/>
<rect x="29.5" y="192.5" width="32" height="34" fill="white" stroke="#AFB4C8"/>
<rect x="129.5" y="181.5" width="31" height="81" fill="white" stroke="#AFB4C8"/>
<rect x="501.5" y="147.5" width="41" height="85" fill="white" stroke="#AFB4C8"/>
<rect x="0.5" y="-0.5" width="39" height="3" transform="matrix(1 0 0 -1 25 193)" fill="white" stroke="#AFB4C8"/>
<rect x="0.5" y="-0.5" width="39" height="3" transform="matrix(1 0 0 -1 25 193)" fill="white" stroke="#AFB4C8"/>
<rect x="0.5" y="-0.5" width="39" height="3" transform="matrix(1 0 0 -1 25 142)" fill="white" stroke="#AFB4C8"/>
<rect x="0.5" y="-0.5" width="39" height="8" transform="matrix(1 0 0 -1 25 122)" fill="white" stroke="#AFB4C8"/>
<rect x="0.5" y="-0.5" width="39" height="8" transform="matrix(1 0 0 -1 25 122)" fill="white" stroke="#AFB4C8"/>
<rect x="0.5" y="-0.5" width="39" height="4" transform="matrix(1 0 0 -1 25 93)" fill="white" stroke="#AFB4C8"/>
<rect x="0.5" y="-0.5" width="33" height="14" transform="matrix(1 0 0 -1 28 89)" fill="white" stroke="#AFB4C8"/>
<rect x="28.5" y="73.5" width="33" height="3" fill="white" stroke="#AFB4C8"/>
<rect x="37.5" y="70.5" width="15" height="3" fill="white" stroke="#AFB4C8"/>
<rect x="5.5" y="79.5" width="23" height="4" fill="white" stroke="#AFB4C8"/>
<rect x="55.5" y="71.5" width="4" height="2" fill="white" stroke="#AFB4C8"/>
<rect x="30.5" y="71.5" width="4" height="2" fill="white" stroke="#AFB4C8"/>
<rect x="19.5" y="93.5" width="51" height="21" rx="3.5" fill="white" stroke="#AFB4C8"/>
<rect x="22.5" y="96.5" width="45" height="15" rx="1.5" fill="#F6F6F6" stroke="#AFB4C8"/>
<rect x="35.5" y="103.5" width="19" height="11" fill="white" stroke="#AFB4C8"/>
<rect x="35.5" y="111.5" width="19" height="3" fill="#F6F6F6" stroke="#AFB4C8"/>
<rect x="43.5" y="111.5" width="3" height="3" fill="white" stroke="#AFB4C8"/>
<rect x="27.5" y="108.5" width="5" height="3" fill="white" stroke="#AFB4C8"/>
<rect x="57.5" y="108.5" width="5" height="3" fill="white" stroke="#AFB4C8"/>
<rect x="57.5" y="108.5" width="5" height="3" fill="white" stroke="#AFB4C8"/>
<rect x="41.5" y="100.5" width="7" height="3" fill="white" stroke="#AFB4C8"/>
<rect x="43.5" y="100.5" width="3" height="3" fill="white" stroke="#AFB4C8"/>
<rect x="26.5" y="96.5" width="7" height="3" fill="white" stroke="#AFB4C8"/>
<rect x="28.5" y="96.5" width="3" height="3" fill="white" stroke="#AFB4C8"/>
<rect x="56.5" y="96.5" width="7" height="3" fill="white" stroke="#AFB4C8"/>
<rect x="58.5" y="96.5" width="3" height="3" fill="white" stroke="#AFB4C8"/>
<rect x="0.5" y="-0.5" width="19" height="3" transform="matrix(1 0 0 -1 25 89)" fill="white" stroke="#AFB4C8"/>
<rect x="0.5" y="-0.5" width="19" height="3" transform="matrix(1 0 0 -1 45 89)" fill="white" stroke="#AFB4C8"/>
<rect x="48.5" y="89.5" width="7" height="3" transform="rotate(-180 48.5 89.5)" fill="white" stroke="#AFB4C8"/>
<circle cx="34.5" cy="81.5" r="2" fill="white" stroke="#AFB4C8"/>
<circle cx="55.5" cy="81.5" r="2" fill="white" stroke="#AFB4C8"/>
<path d="M376.5 183.5C376.5 230.999 338.218 269.5 291 269.5C243.782 269.5 205.5 230.999 205.5 183.5C205.5 136.001 243.782 97.5 291 97.5C338.218 97.5 376.5 136.001 376.5 183.5Z" fill="white" stroke="#AFB4C8"/>
<path d="M362.5 183.5C362.5 223.268 330.485 255.5 291 255.5C251.515 255.5 219.5 223.268 219.5 183.5C219.5 143.732 251.515 111.5 291 111.5C330.485 111.5 362.5 143.732 362.5 183.5Z" fill="white" stroke="#AFB4C8"/>
<path d="M343.5 183.5C343.5 212.214 319.999 235.5 291 235.5C262.001 235.5 238.5 212.214 238.5 183.5C238.5 154.786 262.001 131.5 291 131.5C319.999 131.5 343.5 154.786 343.5 183.5Z" fill="#F6F6F6" stroke="#AFB4C8"/>
<path d="M322.5 183.5C322.5 201.733 307.942 216.5 290 216.5C272.058 216.5 257.5 201.733 257.5 183.5C257.5 165.267 272.058 150.5 290 150.5C307.942 150.5 322.5 165.267 322.5 183.5Z" fill="#F6F6F6" stroke="#AFB4C8"/>
<rect x="287.5" y="138.5" width="5" height="90" fill="white" stroke="#AFB4C8"/>
<rect x="249.984" y="163.379" width="5.0339" height="89.5085" transform="rotate(-60 249.984 163.379)" fill="white" stroke="#AFB4C8"/>
<rect x="0.683013" y="0.183013" width="5.0339" height="89.5085" transform="matrix(0.5 0.866025 0.866025 -0.5 249.484 203.274)" fill="white" stroke="#AFB4C8"/>
<path d="M316.5 183.5C316.5 198.42 304.627 210.5 290 210.5C275.373 210.5 263.5 198.42 263.5 183.5C263.5 168.58 275.373 156.5 290 156.5C304.627 156.5 316.5 168.58 316.5 183.5Z" fill="white" stroke="#AFB4C8"/>
<path d="M310.5 183.5C310.5 195.109 301.311 204.5 290 204.5C278.689 204.5 269.5 195.109 269.5 183.5C269.5 171.891 278.689 162.5 290 162.5C301.311 162.5 310.5 171.891 310.5 183.5Z" fill="white" stroke="#AFB4C8"/>
<circle cx="289.98" cy="169.983" r="2.5" fill="white" stroke="#AFB4C8"/>
<circle cx="277.914" cy="176.017" r="2.5" fill="white" stroke="#AFB4C8"/>
<circle cx="302.051" cy="176.017" r="2.5" fill="white" stroke="#AFB4C8"/>
<circle r="2.5" transform="matrix(1 0 0 -1 289.98 197.17)" fill="white" stroke="#AFB4C8"/>
<circle r="2.5" transform="matrix(1 0 0 -1 277.914 189.627)" fill="white" stroke="#AFB4C8"/>
<circle r="2.5" transform="matrix(1 0 0 -1 302.051 189.627)" fill="white" stroke="#AFB4C8"/>
<rect x="-0.5" y="0.5" width="5" height="13" transform="matrix(-1 0 0 1 29 150)" fill="white" stroke="#AFB4C8"/>
<rect x="-0.5" y="0.5" width="5" height="5" transform="matrix(-1 0 0 1 29 154)" fill="white" stroke="#AFB4C8"/>
<rect x="-0.5" y="0.5" width="7" height="9" transform="matrix(-1 0 0 1 18 152)" fill="white" stroke="#AFB4C8"/>
<rect x="18.5" y="153.5" width="6" height="7" fill="white" stroke="#AFB4C8"/>
<path d="M15.5 152C15.5 151.172 14.8284 150.5 14 150.5H1C0.723857 150.5 0.5 150.724 0.5 151V163C0.5 163.276 0.723858 163.5 1 163.5H14C14.8284 163.5 15.5 162.828 15.5 162V152Z" fill="white" stroke="#AFB4C8"/>
<path d="M15 156.5H1" stroke="#AFB4C8"/>
<rect x="61.5" y="150.5" width="5" height="13" fill="white" stroke="#AFB4C8"/>
<rect x="61.5" y="154.5" width="5" height="5" fill="white" stroke="#AFB4C8"/>
<rect x="72.5" y="152.5" width="7" height="9" fill="white" stroke="#AFB4C8"/>
<rect x="-0.5" y="0.5" width="6" height="7" transform="matrix(-1 0 0 1 72 153)" fill="white" stroke="#AFB4C8"/>
<path d="M75.5 152C75.5 151.172 76.1716 150.5 77 150.5H90C90.2761 150.5 90.5 150.724 90.5 151V163C90.5 163.276 90.2761 163.5 90 163.5H77C76.1716 163.5 75.5 162.828 75.5 162V152Z" fill="white" stroke="#AFB4C8"/>
<path d="M76 156.5H90" stroke="#AFB4C8"/>
<path d="M504.3 310.187L502.521 267.5H541.479L539.7 310.187C539.6 312.598 537.616 314.5 535.204 314.5H508.796C506.384 314.5 504.4 312.598 504.3 310.187Z" fill="white" stroke="#AFB4C8"/>
<rect x="499.5" y="267.5" width="8" height="4" fill="white" stroke="#AFB4C8"/>
<rect x="501.5" y="267.5" width="4" height="4" fill="white" stroke="#AFB4C8"/>
<rect x="501.5" y="271.5" width="4" height="2" fill="white" stroke="#AFB4C8"/>
<rect x="536.5" y="267.5" width="8" height="4" fill="white" stroke="#AFB4C8"/>
<rect x="538.5" y="267.5" width="4" height="4" fill="white" stroke="#AFB4C8"/>
<rect x="538.5" y="271.5" width="4" height="2" fill="white" stroke="#AFB4C8"/>
<path d="M533 267.5H547.5V264.5H496.5V267.5H511H511.5V268V270C511.5 270.276 511.724 270.5 512 270.5H532C532.276 270.5 532.5 270.276 532.5 270V268V267.5H533Z" fill="white" stroke="#AFB4C8"/>
<path d="M528.45 314.5C528.218 315.641 527.209 316.5 526 316.5H518C516.791 316.5 515.782 315.641 515.55 314.5H528.45Z" fill="white" stroke="#AFB4C8"/>
<path d="M513.5 276V309" stroke="#AFB4C8" stroke-linecap="round"/>
<path d="M530.5 276V309" stroke="#AFB4C8" stroke-linecap="round"/>
<path d="M543 230.5C543.828 230.5 544.5 229.828 544.5 229V203C544.5 202.172 543.828 201.5 543 201.5H542.5V230.5H543Z" fill="white" stroke="#AFB4C8"/>
<path d="M553 229.5C553.828 229.5 554.5 228.828 554.5 228V204C554.5 203.172 553.828 202.5 553 202.5H544.5V229.5H553Z" fill="white" stroke="#AFB4C8"/>
<path d="M551 227.5C551.828 227.5 552.5 226.828 552.5 226V220C552.5 219.172 551.828 218.5 551 218.5H544.5V227.5H551Z" fill="white" stroke="#AFB4C8"/>
<path d="M551 213.5C551.828 213.5 552.5 212.828 552.5 212V206C552.5 205.172 551.828 204.5 551 204.5H544.5V213.5H551Z" fill="white" stroke="#AFB4C8"/>
<path d="M565 226.5C568.59 226.5 571.5 223.59 571.5 220V212C571.5 208.41 568.59 205.5 565 205.5H554.5V226.5H565Z" fill="white" stroke="#AFB4C8"/>
<rect x="515.5" y="321.5" width="13" height="5" fill="white" stroke="#AFB4C8"/>
<rect x="518.5" y="316.5" width="7" height="2" fill="white" stroke="#AFB4C8"/>
<rect x="519.5" y="318.5" width="5" height="3" fill="white" stroke="#AFB4C8"/>
<rect x="0.5" y="-0.5" width="49" height="4" transform="matrix(1 0 0 -1 497 147)" fill="white" stroke="#AFB4C8"/>
<rect x="-0.5" y="0.5" width="12" height="39" transform="matrix(-1 0 0 1 177 199)" fill="white" stroke="#AFB4C8"/>
<rect x="177.5" y="205.5" width="2" height="28" fill="white" stroke="#AFB4C8"/>
<rect x="98.5" y="207.5" width="3" height="7" fill="white" stroke="#AFB4C8"/>
<rect x="98.5" y="209.5" width="3" height="3" fill="white" stroke="#AFB4C8"/>
<rect x="98.5" y="223.5" width="3" height="7" fill="white" stroke="#AFB4C8"/>
<rect x="98.5" y="225.5" width="3" height="3" fill="white" stroke="#AFB4C8"/>
<path d="M160.5 232.28V206.72L165.5 205.622V233.378L160.5 232.28Z" fill="white" stroke="#AFB4C8"/>
<rect width="1" height="35" transform="matrix(-1 0 0 1 130 201)" fill="#AFB4C8"/>
<rect x="82.5" y="241.5" width="45" height="3" transform="rotate(-90 82.5 241.5)" fill="white" stroke="#AFB4C8"/>
<rect x="433.5" y="201.5" width="37" height="29" fill="white" stroke="#AFB4C8"/>
<rect x="401.5" y="189.5" width="32" height="46" fill="white" stroke="#AFB4C8"/>
<rect x="0.5" y="-0.5" width="39" height="3" transform="matrix(1 0 0 -1 397 190)" fill="white" stroke="#AFB4C8"/>
<rect x="0.5" y="-0.5" width="39" height="3" transform="matrix(1 0 0 -1 397 190)" fill="white" stroke="#AFB4C8"/>
<rect x="454.5" y="232.5" width="34" height="3" transform="rotate(-90 454.5 232.5)" fill="white" stroke="#AFB4C8"/>
<rect x="468.5" y="232.5" width="34" height="3" transform="rotate(-90 468.5 232.5)" fill="white" stroke="#AFB4C8"/>
<rect x="0.5" y="-0.5" width="53" height="10" transform="matrix(1 0 0 -1 495 171)" fill="white" stroke="#AFB4C8"/>
<rect x="495.5" y="171.5" width="53" height="2" fill="white" stroke="#AFB4C8"/>
<rect x="497.5" y="157.5" width="8" height="4" fill="white" stroke="#AFB4C8"/>
<rect x="499.5" y="157.5" width="4" height="4" fill="white" stroke="#AFB4C8"/>
<rect x="499.5" y="155.5" width="4" height="2" fill="white" stroke="#AFB4C8"/>
<rect x="517.5" y="157.5" width="8" height="4" fill="white" stroke="#AFB4C8"/>
<rect x="519.5" y="157.5" width="4" height="4" fill="white" stroke="#AFB4C8"/>
<rect x="519.5" y="155.5" width="4" height="2" fill="white" stroke="#AFB4C8"/>
<rect x="538.5" y="157.5" width="8" height="4" fill="white" stroke="#AFB4C8"/>
<rect x="540.5" y="157.5" width="4" height="4" fill="white" stroke="#AFB4C8"/>
<rect x="540.5" y="155.5" width="4" height="2" fill="white" stroke="#AFB4C8"/>
<rect x="0.5" y="-0.5" width="5" height="2" transform="matrix(1 0 0 -1 402 250)" fill="white" stroke="#AFB4C8"/>
<rect x="0.5" y="-0.5" width="5" height="2" transform="matrix(1 0 0 -1 410 250)" fill="white" stroke="#AFB4C8"/>
<rect x="0.5" y="-0.5" width="5" height="2" transform="matrix(1 0 0 -1 418 250)" fill="white" stroke="#AFB4C8"/>
<rect x="0.5" y="-0.5" width="5" height="2" transform="matrix(1 0 0 -1 426 250)" fill="white" stroke="#AFB4C8"/>
<path d="M397.5 238.894L397.5 242.5H436.495L436.457 238.865C436.441 237.307 435.62 235.868 434.286 235.061L427.056 230.688C420.851 226.935 413.077 226.935 406.872 230.688L399.671 235.044C398.324 235.859 397.5 237.319 397.5 238.894Z" fill="white" stroke="#AFB4C8"/>
<rect x="0.5" y="-0.5" width="35" height="6" transform="matrix(1 0 0 -1 399 248)" fill="white" stroke="#AFB4C8"/>
<rect x="291" y="256" width="1" height="13" fill="#AFB4C8"/>
<rect x="291" y="98" width="1" height="13" fill="#AFB4C8"/>
</svg>
