<svg width="1105" height="665" viewBox="0 0 1105 665" fill="none" xmlns="http://www.w3.org/2000/svg">
<mask id="mask0" mask-type="alpha" maskUnits="userSpaceOnUse" x="0" y="0" width="1348" height="666">
<path d="M1215 144L1347 665L1107 609.943H780L294 600L2 508.5L68.5 467L157.5 454.5L140 356.5L44 336.5L54 301.5L104 270.5L68.5 259.5L51 230.211L360 168.676L354 89L709 1L1215 144Z" fill="#C4C4C4" stroke="black" stroke-width="1.2"/>
</mask>
<g mask="url(#mask0)">
<path d="M-2062 -25.6221L273.651 616.633" stroke="#D6D8DF" stroke-width="1.2" stroke-miterlimit="10" stroke-linecap="round" stroke-dasharray="0.1 4"/>
<path d="M-1862 -25.6221L473.651 616.633" stroke="#D6D8DF" stroke-width="1.2" stroke-miterlimit="10" stroke-linecap="round" stroke-dasharray="0.1 4"/>
<path d="M-2262 -25.6221L73.6509 616.633" stroke="#D6D8DF" stroke-width="1.2" stroke-miterlimit="10" stroke-linecap="round" stroke-dasharray="0.1 4"/>
<path d="M327.002 -25.6221L2662.65 616.633" stroke="#D6D8DF" stroke-width="1.2" stroke-miterlimit="10" stroke-linecap="round" stroke-dasharray="0.1 4"/>
<path d="M527.002 -25.6221L2862.65 616.633" stroke="#D6D8DF" stroke-width="1.2" stroke-miterlimit="10" stroke-linecap="round" stroke-dasharray="0.1 4"/>
<path d="M127.002 -25.6221L2462.65 616.633" stroke="#D6D8DF" stroke-width="1.2" stroke-miterlimit="10" stroke-linecap="round" stroke-dasharray="0.1 4"/>
<path d="M-272.998 -25.6221L2062.65 616.633" stroke="#D6D8DF" stroke-width="1.2" stroke-miterlimit="10" stroke-linecap="round" stroke-dasharray="0.1 4"/>
<path d="M-72.998 -25.6221L2262.65 616.633" stroke="#D6D8DF" stroke-width="1.2" stroke-miterlimit="10" stroke-linecap="round" stroke-dasharray="0.1 4"/>
<path d="M-472.998 -25.6221L1862.65 616.633" stroke="#D6D8DF" stroke-width="1.2" stroke-miterlimit="10" stroke-linecap="round" stroke-dasharray="0.1 4"/>
<path d="M-872.998 -25.6221L1462.65 616.633" stroke="#D6D8DF" stroke-width="1.2" stroke-miterlimit="10" stroke-linecap="round" stroke-dasharray="0.1 4"/>
<path d="M-672.998 -25.6221L1662.65 616.633" stroke="#D6D8DF" stroke-width="1.2" stroke-miterlimit="10" stroke-linecap="round" stroke-dasharray="0.1 4"/>
<path d="M-1063 -25.6221L1272.65 616.633" stroke="#D6D8DF" stroke-width="1.2" stroke-miterlimit="10" stroke-linecap="round" stroke-dasharray="0.1 4"/>
<path d="M-1463 -25.6221L872.651 616.633" stroke="#D6D8DF" stroke-width="1.2" stroke-miterlimit="10" stroke-linecap="round" stroke-dasharray="0.1 4"/>
<path d="M-1263 -25.6221L1072.65 616.633" stroke="#D6D8DF" stroke-width="1.2" stroke-miterlimit="10" stroke-linecap="round" stroke-dasharray="0.1 4"/>
<path d="M-1663 -25.6221L672.651 616.633" stroke="#D6D8DF" stroke-width="1.2" stroke-miterlimit="10" stroke-linecap="round" stroke-dasharray="0.1 4"/>
<path d="M872.648 -25.6221L-1463 616.633" stroke="#D6D8DF" stroke-width="1.2" stroke-miterlimit="10" stroke-linecap="round" stroke-dasharray="0.1 4"/>
<path d="M672.648 -25.6221L-1663 616.633" stroke="#D6D8DF" stroke-width="1.2" stroke-miterlimit="10" stroke-linecap="round" stroke-dasharray="0.1 4"/>
<path d="M1072.65 -25.6221L-1263 616.633" stroke="#D6D8DF" stroke-width="1.2" stroke-miterlimit="10" stroke-linecap="round" stroke-dasharray="0.1 4"/>
<path d="M1472.65 -25.6221L-863 616.633" stroke="#D6D8DF" stroke-width="1.2" stroke-miterlimit="10" stroke-linecap="round" stroke-dasharray="0.1 4"/>
<path d="M1272.65 -25.6221L-1063 616.633" stroke="#D6D8DF" stroke-width="1.2" stroke-miterlimit="10" stroke-linecap="round" stroke-dasharray="0.1 4"/>
<path d="M1672.65 -25.6221L-663 616.633" stroke="#D6D8DF" stroke-width="1.2" stroke-miterlimit="10" stroke-linecap="round" stroke-dasharray="0.1 4"/>
<path d="M2072.65 -25.6221L-263 616.633" stroke="#D6D8DF" stroke-width="1.2" stroke-miterlimit="10" stroke-linecap="round" stroke-dasharray="0.1 4"/>
<path d="M1872.65 -25.6221L-463 616.633" stroke="#D6D8DF" stroke-width="1.2" stroke-miterlimit="10" stroke-linecap="round" stroke-dasharray="0.1 4"/>
<path d="M2262.65 -25.6221L-73.0005 616.633" stroke="#D6D8DF" stroke-width="1.2" stroke-miterlimit="10" stroke-linecap="round" stroke-dasharray="0.1 4"/>
<path d="M2662.65 -25.6221L327 616.633" stroke="#D6D8DF" stroke-width="1.2" stroke-miterlimit="10" stroke-linecap="round" stroke-dasharray="0.1 4"/>
<path d="M2462.65 -25.6221L127 616.633" stroke="#D6D8DF" stroke-width="1.2" stroke-miterlimit="10" stroke-linecap="round" stroke-dasharray="0.1 4"/>
<path d="M2862.65 -25.6221L527 616.633" stroke="#D6D8DF" stroke-width="1.2" stroke-miterlimit="10" stroke-linecap="round" stroke-dasharray="0.1 4"/>
<path d="M273.648 -25.6221L-2062 616.633" stroke="#D6D8DF" stroke-width="1.2" stroke-miterlimit="10" stroke-linecap="round" stroke-dasharray="0.1 4"/>
<path d="M73.6484 -25.6221L-2262 616.633" stroke="#D6D8DF" stroke-width="1.2" stroke-miterlimit="10" stroke-linecap="round" stroke-dasharray="0.1 4"/>
<path d="M473.648 -25.6221L-1862 616.633" stroke="#D6D8DF" stroke-width="1.2" stroke-miterlimit="10" stroke-linecap="round" stroke-dasharray="0.1 4"/>
</g>
</svg>
