<svg width="619" height="557" viewBox="0 0 619 557" fill="none" xmlns="http://www.w3.org/2000/svg">
<mask id="mask0" mask-type="alpha" maskUnits="userSpaceOnUse" x="279" y="0" width="340" height="557">
<path fill-rule="evenodd" clip-rule="evenodd" d="M279 56.5L286 37H312V0H355V37H385.5V86V133.5H427.5V156.5H495.5V250.5H481.5V276.5H546V283.825C546.135 283.856 546.269 283.888 546.404 283.921C583.284 292.796 608.905 327.836 616.308 372.5H617.5V381.154C619.646 400.622 618.424 421.636 613.3 442.929C595.347 517.535 536.288 567.307 481.389 554.096C465.771 550.337 452.172 541.887 441.121 530H412.5L282 448.5V68.5L279 56.5Z" fill="#C4C4C4"/>
</mask>
<g mask="url(#mask0)">
<path d="M272 455H687.558" stroke="#C6CADA" stroke-width="1.2" stroke-miterlimit="10" stroke-linecap="round" stroke-dasharray="0.1 6"/>
<path d="M272 449H687.558" stroke="#C6CADA" stroke-width="1.2" stroke-miterlimit="10" stroke-linecap="round" stroke-dasharray="0.1 6"/>
<path d="M272 443H687.558" stroke="#C6CADA" stroke-width="1.2" stroke-miterlimit="10" stroke-linecap="round" stroke-dasharray="0.1 6"/>
<path d="M272 437H687.558" stroke="#C6CADA" stroke-width="1.2" stroke-miterlimit="10" stroke-linecap="round" stroke-dasharray="0.1 6"/>
<path d="M272 431H687.558" stroke="#C6CADA" stroke-width="1.2" stroke-miterlimit="10" stroke-linecap="round" stroke-dasharray="0.1 6"/>
<path d="M272 425H687.558" stroke="#C6CADA" stroke-width="1.2" stroke-miterlimit="10" stroke-linecap="round" stroke-dasharray="0.1 6"/>
<path d="M272 419H687.558" stroke="#C6CADA" stroke-width="1.2" stroke-miterlimit="10" stroke-linecap="round" stroke-dasharray="0.1 6"/>
<path d="M272 413H687.558" stroke="#C6CADA" stroke-width="1.2" stroke-miterlimit="10" stroke-linecap="round" stroke-dasharray="0.1 6"/>
<path d="M272 407H687.558" stroke="#C6CADA" stroke-width="1.2" stroke-miterlimit="10" stroke-linecap="round" stroke-dasharray="0.1 6"/>
<path d="M272 401H687.558" stroke="#C6CADA" stroke-width="1.2" stroke-miterlimit="10" stroke-linecap="round" stroke-dasharray="0.1 6"/>
<path d="M272 395H687.558" stroke="#C6CADA" stroke-width="1.2" stroke-miterlimit="10" stroke-linecap="round" stroke-dasharray="0.1 6"/>
<path d="M272 521H687.558" stroke="#C6CADA" stroke-width="1.2" stroke-miterlimit="10" stroke-linecap="round" stroke-dasharray="0.1 6"/>
<path d="M272 551H687.558" stroke="#C6CADA" stroke-width="1.2" stroke-miterlimit="10" stroke-linecap="round" stroke-dasharray="0.1 6"/>
<path d="M272 545H687.558" stroke="#C6CADA" stroke-width="1.2" stroke-miterlimit="10" stroke-linecap="round" stroke-dasharray="0.1 6"/>
<path d="M272 539H687.558" stroke="#C6CADA" stroke-width="1.2" stroke-miterlimit="10" stroke-linecap="round" stroke-dasharray="0.1 6"/>
<path d="M272 533H687.558" stroke="#C6CADA" stroke-width="1.2" stroke-miterlimit="10" stroke-linecap="round" stroke-dasharray="0.1 6"/>
<path d="M272 527H687.558" stroke="#C6CADA" stroke-width="1.2" stroke-miterlimit="10" stroke-linecap="round" stroke-dasharray="0.1 6"/>
<path d="M272 515H687.558" stroke="#C6CADA" stroke-width="1.2" stroke-miterlimit="10" stroke-linecap="round" stroke-dasharray="0.1 6"/>
<path d="M272 509H687.558" stroke="#C6CADA" stroke-width="1.2" stroke-miterlimit="10" stroke-linecap="round" stroke-dasharray="0.1 6"/>
<path d="M272 503H687.558" stroke="#C6CADA" stroke-width="1.2" stroke-miterlimit="10" stroke-linecap="round" stroke-dasharray="0.1 6"/>
<path d="M272 497H687.558" stroke="#C6CADA" stroke-width="1.2" stroke-miterlimit="10" stroke-linecap="round" stroke-dasharray="0.1 6"/>
<path d="M272 491H687.558" stroke="#C6CADA" stroke-width="1.2" stroke-miterlimit="10" stroke-linecap="round" stroke-dasharray="0.1 6"/>
<path d="M272 485H687.558" stroke="#C6CADA" stroke-width="1.2" stroke-miterlimit="10" stroke-linecap="round" stroke-dasharray="0.1 6"/>
<path d="M272 479H687.558" stroke="#C6CADA" stroke-width="1.2" stroke-miterlimit="10" stroke-linecap="round" stroke-dasharray="0.1 6"/>
<path d="M272 473H687.558" stroke="#C6CADA" stroke-width="1.2" stroke-miterlimit="10" stroke-linecap="round" stroke-dasharray="0.1 6"/>
<path d="M272 467H687.558" stroke="#C6CADA" stroke-width="1.2" stroke-miterlimit="10" stroke-linecap="round" stroke-dasharray="0.1 6"/>
<path d="M272 461H687.558" stroke="#C6CADA" stroke-width="1.2" stroke-miterlimit="10" stroke-linecap="round" stroke-dasharray="0.1 6"/>
<path d="M272 389H687.558" stroke="#C6CADA" stroke-width="1.2" stroke-miterlimit="10" stroke-linecap="round" stroke-dasharray="0.1 6"/>
<path d="M272 383H687.558" stroke="#C6CADA" stroke-width="1.2" stroke-miterlimit="10" stroke-linecap="round" stroke-dasharray="0.1 6"/>
<path d="M272 377H687.558" stroke="#C6CADA" stroke-width="1.2" stroke-miterlimit="10" stroke-linecap="round" stroke-dasharray="0.1 6"/>
<path d="M272 371H687.558" stroke="#C6CADA" stroke-width="1.2" stroke-miterlimit="10" stroke-linecap="round" stroke-dasharray="0.1 6"/>
<path d="M272 365H687.558" stroke="#C6CADA" stroke-width="1.2" stroke-miterlimit="10" stroke-linecap="round" stroke-dasharray="0.1 6"/>
<path d="M272 359H687.558" stroke="#C6CADA" stroke-width="1.2" stroke-miterlimit="10" stroke-linecap="round" stroke-dasharray="0.1 6"/>
<path d="M272 353H687.558" stroke="#C6CADA" stroke-width="1.2" stroke-miterlimit="10" stroke-linecap="round" stroke-dasharray="0.1 6"/>
<path d="M272 347H687.558" stroke="#C6CADA" stroke-width="1.2" stroke-miterlimit="10" stroke-linecap="round" stroke-dasharray="0.1 6"/>
<path d="M272 341H687.558" stroke="#C6CADA" stroke-width="1.2" stroke-miterlimit="10" stroke-linecap="round" stroke-dasharray="0.1 6"/>
<path d="M272 335H687.558" stroke="#C6CADA" stroke-width="1.2" stroke-miterlimit="10" stroke-linecap="round" stroke-dasharray="0.1 6"/>
<path d="M272 329H687.558" stroke="#C6CADA" stroke-width="1.2" stroke-miterlimit="10" stroke-linecap="round" stroke-dasharray="0.1 6"/>
<path d="M272 323H687.558" stroke="#C6CADA" stroke-width="1.2" stroke-miterlimit="10" stroke-linecap="round" stroke-dasharray="0.1 6"/>
<path d="M272 317H687.558" stroke="#C6CADA" stroke-width="1.2" stroke-miterlimit="10" stroke-linecap="round" stroke-dasharray="0.1 6"/>
<path d="M272 311H687.558" stroke="#C6CADA" stroke-width="1.2" stroke-miterlimit="10" stroke-linecap="round" stroke-dasharray="0.1 6"/>
<path d="M272 305H687.558" stroke="#C6CADA" stroke-width="1.2" stroke-miterlimit="10" stroke-linecap="round" stroke-dasharray="0.1 6"/>
<path d="M272 299H687.558" stroke="#C6CADA" stroke-width="1.2" stroke-miterlimit="10" stroke-linecap="round" stroke-dasharray="0.1 6"/>
<path d="M272 293H687.558" stroke="#C6CADA" stroke-width="1.2" stroke-miterlimit="10" stroke-linecap="round" stroke-dasharray="0.1 6"/>
<path d="M272 287H687.558" stroke="#C6CADA" stroke-width="1.2" stroke-miterlimit="10" stroke-linecap="round" stroke-dasharray="0.1 6"/>
<path d="M272 281H687.558" stroke="#C6CADA" stroke-width="1.2" stroke-miterlimit="10" stroke-linecap="round" stroke-dasharray="0.1 6"/>
<path d="M272 275H687.558" stroke="#C6CADA" stroke-width="1.2" stroke-miterlimit="10" stroke-linecap="round" stroke-dasharray="0.1 6"/>
<path d="M272 269H687.558" stroke="#C6CADA" stroke-width="1.2" stroke-miterlimit="10" stroke-linecap="round" stroke-dasharray="0.1 6"/>
<path d="M272 263H687.558" stroke="#C6CADA" stroke-width="1.2" stroke-miterlimit="10" stroke-linecap="round" stroke-dasharray="0.1 6"/>
<path d="M272 257H687.558" stroke="#C6CADA" stroke-width="1.2" stroke-miterlimit="10" stroke-linecap="round" stroke-dasharray="0.1 6"/>
<path d="M272 251H687.558" stroke="#C6CADA" stroke-width="1.2" stroke-miterlimit="10" stroke-linecap="round" stroke-dasharray="0.1 6"/>
<path d="M272 245H687.558" stroke="#C6CADA" stroke-width="1.2" stroke-miterlimit="10" stroke-linecap="round" stroke-dasharray="0.1 6"/>
<path d="M272 239H687.558" stroke="#C6CADA" stroke-width="1.2" stroke-miterlimit="10" stroke-linecap="round" stroke-dasharray="0.1 6"/>
<path d="M272 233H687.558" stroke="#C6CADA" stroke-width="1.2" stroke-miterlimit="10" stroke-linecap="round" stroke-dasharray="0.1 6"/>
<path d="M272 227H687.558" stroke="#C6CADA" stroke-width="1.2" stroke-miterlimit="10" stroke-linecap="round" stroke-dasharray="0.1 6"/>
<path d="M272 221H687.558" stroke="#C6CADA" stroke-width="1.2" stroke-miterlimit="10" stroke-linecap="round" stroke-dasharray="0.1 6"/>
<path d="M272 215H687.558" stroke="#C6CADA" stroke-width="1.2" stroke-miterlimit="10" stroke-linecap="round" stroke-dasharray="0.1 6"/>
<path d="M272 209H687.558" stroke="#C6CADA" stroke-width="1.2" stroke-miterlimit="10" stroke-linecap="round" stroke-dasharray="0.1 6"/>
<path d="M272 203H687.558" stroke="#C6CADA" stroke-width="1.2" stroke-miterlimit="10" stroke-linecap="round" stroke-dasharray="0.1 6"/>
<path d="M272 197H687.558" stroke="#C6CADA" stroke-width="1.2" stroke-miterlimit="10" stroke-linecap="round" stroke-dasharray="0.1 6"/>
<path d="M272 191H687.558" stroke="#C6CADA" stroke-width="1.2" stroke-miterlimit="10" stroke-linecap="round" stroke-dasharray="0.1 6"/>
<path d="M272 185H687.558" stroke="#C6CADA" stroke-width="1.2" stroke-miterlimit="10" stroke-linecap="round" stroke-dasharray="0.1 6"/>
<path d="M272 179H687.558" stroke="#C6CADA" stroke-width="1.2" stroke-miterlimit="10" stroke-linecap="round" stroke-dasharray="0.1 6"/>
<path d="M272 173H687.558" stroke="#C6CADA" stroke-width="1.2" stroke-miterlimit="10" stroke-linecap="round" stroke-dasharray="0.1 6"/>
<path d="M272 167H687.558" stroke="#C6CADA" stroke-width="1.2" stroke-miterlimit="10" stroke-linecap="round" stroke-dasharray="0.1 6"/>
<path d="M272 161H687.558" stroke="#C6CADA" stroke-width="1.2" stroke-miterlimit="10" stroke-linecap="round" stroke-dasharray="0.1 6"/>
<path d="M272 155H687.558" stroke="#C6CADA" stroke-width="1.2" stroke-miterlimit="10" stroke-linecap="round" stroke-dasharray="0.1 6"/>
<path d="M272 149H687.558" stroke="#C6CADA" stroke-width="1.2" stroke-miterlimit="10" stroke-linecap="round" stroke-dasharray="0.1 6"/>
<path d="M272 143H687.558" stroke="#C6CADA" stroke-width="1.2" stroke-miterlimit="10" stroke-linecap="round" stroke-dasharray="0.1 6"/>
<path d="M272 137H687.558" stroke="#C6CADA" stroke-width="1.2" stroke-miterlimit="10" stroke-linecap="round" stroke-dasharray="0.1 6"/>
<path d="M272 131H687.558" stroke="#C6CADA" stroke-width="1.2" stroke-miterlimit="10" stroke-linecap="round" stroke-dasharray="0.1 6"/>
<path d="M272 125H687.558" stroke="#C6CADA" stroke-width="1.2" stroke-miterlimit="10" stroke-linecap="round" stroke-dasharray="0.1 6"/>
<path d="M272 119H687.558" stroke="#C6CADA" stroke-width="1.2" stroke-miterlimit="10" stroke-linecap="round" stroke-dasharray="0.1 6"/>
<path d="M272 113H687.558" stroke="#C6CADA" stroke-width="1.2" stroke-miterlimit="10" stroke-linecap="round" stroke-dasharray="0.1 6"/>
<path d="M272 107H687.558" stroke="#C6CADA" stroke-width="1.2" stroke-miterlimit="10" stroke-linecap="round" stroke-dasharray="0.1 6"/>
<path d="M272 101H687.558" stroke="#C6CADA" stroke-width="1.2" stroke-miterlimit="10" stroke-linecap="round" stroke-dasharray="0.1 6"/>
<path d="M272 95H687.558" stroke="#C6CADA" stroke-width="1.2" stroke-miterlimit="10" stroke-linecap="round" stroke-dasharray="0.1 6"/>
<path d="M272 89H687.558" stroke="#C6CADA" stroke-width="1.2" stroke-miterlimit="10" stroke-linecap="round" stroke-dasharray="0.1 6"/>
<path d="M272 83H687.558" stroke="#C6CADA" stroke-width="1.2" stroke-miterlimit="10" stroke-linecap="round" stroke-dasharray="0.1 6"/>
<path d="M272 77H687.558" stroke="#C6CADA" stroke-width="1.2" stroke-miterlimit="10" stroke-linecap="round" stroke-dasharray="0.1 6"/>
<path d="M272 71H687.558" stroke="#C6CADA" stroke-width="1.2" stroke-miterlimit="10" stroke-linecap="round" stroke-dasharray="0.1 6"/>
<path d="M272 65H687.558" stroke="#C6CADA" stroke-width="1.2" stroke-miterlimit="10" stroke-linecap="round" stroke-dasharray="0.1 6"/>
<path d="M272 59H687.558" stroke="#C6CADA" stroke-width="1.2" stroke-miterlimit="10" stroke-linecap="round" stroke-dasharray="0.1 6"/>
<path d="M272 53H687.558" stroke="#C6CADA" stroke-width="1.2" stroke-miterlimit="10" stroke-linecap="round" stroke-dasharray="0.1 6"/>
<path d="M272 47H687.558" stroke="#C6CADA" stroke-width="1.2" stroke-miterlimit="10" stroke-linecap="round" stroke-dasharray="0.1 6"/>
<path d="M272 41H687.558" stroke="#C6CADA" stroke-width="1.2" stroke-miterlimit="10" stroke-linecap="round" stroke-dasharray="0.1 6"/>
<path d="M272 35H687.558" stroke="#C6CADA" stroke-width="1.2" stroke-miterlimit="10" stroke-linecap="round" stroke-dasharray="0.1 6"/>
<path d="M272 29H687.558" stroke="#C6CADA" stroke-width="1.2" stroke-miterlimit="10" stroke-linecap="round" stroke-dasharray="0.1 6"/>
<path d="M272 23H687.558" stroke="#C6CADA" stroke-width="1.2" stroke-miterlimit="10" stroke-linecap="round" stroke-dasharray="0.1 6"/>
<path d="M272 17H687.558" stroke="#C6CADA" stroke-width="1.2" stroke-miterlimit="10" stroke-linecap="round" stroke-dasharray="0.1 6"/>
<path d="M272 11H687.558" stroke="#C6CADA" stroke-width="1.2" stroke-miterlimit="10" stroke-linecap="round" stroke-dasharray="0.1 6"/>
<path d="M272 5H687.558" stroke="#C6CADA" stroke-width="1.2" stroke-miterlimit="10" stroke-linecap="round" stroke-dasharray="0.1 6"/>
</g>
<path d="M202.065 149.135V141.221L306.24 138.249V149.135L313.216 152.228L315.541 154.879V171.164L367.629 178.58L383.441 186.533L387.161 190.068L388.557 194.486V243.532L386.231 250.16L374.605 258.555V276.23L385.301 290.369L399.718 286.834L415.996 285.067L449.945 292.578L465.293 299.648L472.268 304.95L478.314 311.136L489.011 326.601L495.522 344.275L498.312 361.95L499.707 381.391L498.312 399.507L496.452 413.205L493.196 426.902L485.755 451.204L475.524 471.088L466.688 486.553L452.271 505.553L432.273 525.436L412.74 537.366L391.812 544.436L371.349 544.878L354.607 539.134L336.469 534.273L321.122 525.436L310.426 513.948L299.264 494.948L295.543 483.018L284.382 486.111L283.917 500.692L277.871 502.902L253.223 494.948L228.109 502.902L221.133 500.25V487.437L209.506 483.018L188.578 471.088L145.792 441.042L132.77 447.67L116.028 451.204H97.4254L83.4735 447.67L65.801 441.042L52.3141 433.088L41.6175 422.484L33.7114 412.321L26.7354 399.507L21.6197 384.484L18.3643 361.95L18.8293 341.624L21.6197 323.508L26.7354 303.625L33.7114 287.718L44.873 268.718L61.1503 250.16L73.7071 239.114L85.7988 231.602L102.076 223.207L117.423 218.788V194.486L119.749 188.742L126.725 183.882L141.142 178.58L192.299 170.184V154.879L196.019 151.786L202.065 149.135Z" fill="white"/>
<path d="M201.6 141.854V142.357V151.415" stroke="#AFB4C8"/>
<path d="M305.773 143.179V151.415" stroke="#AFB4C8"/>
<path d="M386.229 196.696C393.205 190.952 382.416 176.194 315.074 170.184" stroke="#AFB4C8"/>
<path d="M191.835 170.184C131.887 175.534 115.649 188.167 117.728 194.928" stroke="#AFB4C8"/>
<path d="M221.133 487.437V499.512C221.133 500.458 221.795 501.274 222.72 501.469L228.94 502.783C229.309 502.86 229.691 502.833 230.045 502.702L251.639 494.747C252.062 494.591 252.525 494.583 252.954 494.723L277.301 502.715C277.673 502.837 278.072 502.847 278.449 502.745L282.906 501.535C283.777 501.298 284.382 500.507 284.382 499.605V486.111" stroke="#AFB4C8"/>
<path d="M374.604 258.114V273.407C374.604 274.668 375.001 275.896 375.739 276.918L385.765 290.811M292.752 431.763C273.375 417.771 222.527 374.764 202.064 324.392" stroke="#AFB4C8" stroke-width="0.75"/>
<path d="M296.013 408.121C281.639 397.742 249.95 371.398 226.19 337.926" stroke="#AFB4C8" stroke-width="1.5" stroke-miterlimit="10" stroke-linecap="round" stroke-dasharray="0.1 4"/>
<path d="M363.908 542.669L344.375 536.924C313.681 527.204 292.28 498.645 292.28 450.984C292.28 383.806 333.563 312.332 384.488 291.342C396.757 286.284 408.467 284.619 419.175 285.944L445.769 291.797" stroke="#AFB4C8" stroke-miterlimit="10"/>
<path d="M451.351 301.789C453.254 303.072 454.467 305.704 454.467 309.21C454.467 315.435 450.641 322.059 445.922 324.004C444.528 324.579 443.212 324.681 442.05 324.379" stroke="#AFB4C8" stroke-width="0.6" stroke-miterlimit="10"/>
<path d="M456.398 310.132C456.398 316.357 452.572 322.981 447.853 324.926C443.134 326.871 439.309 323.401 439.309 317.176C439.309 310.95 443.134 304.327 447.853 302.382C452.573 300.437 456.398 303.907 456.398 310.132Z" stroke="#AFB4C8" stroke-miterlimit="10"/>
<path d="M446.031 304.587L451.41 305.865" stroke="#AFB4C8" stroke-miterlimit="10" stroke-linecap="round" stroke-dasharray="0.1 2"/>
<path d="M443.343 307.994L454.1 310.549" stroke="#AFB4C8" stroke-miterlimit="10" stroke-linecap="round" stroke-dasharray="0.1 2"/>
<path d="M440.654 311.401L446.033 312.678" stroke="#AFB4C8" stroke-miterlimit="10" stroke-linecap="round" stroke-dasharray="0.1 2"/>
<path d="M384.379 321.231C386.282 322.514 387.495 325.146 387.495 328.651C387.495 334.877 383.669 341.501 378.951 343.446C377.557 344.02 376.241 344.122 375.078 343.82" stroke="#AFB4C8" stroke-width="0.6" stroke-miterlimit="10"/>
<path d="M389.43 329.574C389.43 335.799 385.604 342.423 380.885 344.368C376.166 346.313 372.34 342.843 372.34 336.618C372.34 330.392 376.166 323.768 380.885 321.823C385.604 319.878 389.43 323.348 389.43 329.574Z" stroke="#AFB4C8" stroke-miterlimit="10"/>
<path d="M379.058 324.029L384.436 325.306" stroke="#AFB4C8" stroke-miterlimit="10" stroke-linecap="round" stroke-dasharray="0.1 2"/>
<path d="M376.37 327.436L387.128 329.991" stroke="#AFB4C8" stroke-miterlimit="10" stroke-linecap="round" stroke-dasharray="0.1 2"/>
<path d="M373.68 330.842L379.058 332.12" stroke="#AFB4C8" stroke-miterlimit="10" stroke-linecap="round" stroke-dasharray="0.1 2"/>
<path d="M371.357 509.461C373.26 510.744 374.473 513.376 374.473 516.882C374.473 523.107 370.647 529.731 365.928 531.676C364.534 532.25 363.218 532.353 362.056 532.051" stroke="#AFB4C8" stroke-width="0.6" stroke-miterlimit="10"/>
<path d="M376.408 517.804C376.408 524.03 372.582 530.654 367.863 532.598C363.144 534.543 359.318 531.074 359.318 524.848C359.318 518.623 363.144 511.999 367.863 510.054C372.583 508.109 376.408 511.579 376.408 517.804Z" stroke="#AFB4C8" stroke-miterlimit="10"/>
<path d="M366.041 512.259L371.42 513.537" stroke="#AFB4C8" stroke-miterlimit="10" stroke-linecap="round" stroke-dasharray="0.1 2"/>
<path d="M363.354 515.666L374.111 518.221" stroke="#AFB4C8" stroke-miterlimit="10" stroke-linecap="round" stroke-dasharray="0.1 2"/>
<path d="M360.663 519.073L366.042 520.35" stroke="#AFB4C8" stroke-miterlimit="10" stroke-linecap="round" stroke-dasharray="0.1 2"/>
<path d="M442.979 485.601C444.882 486.884 446.095 489.516 446.095 493.022C446.095 499.247 442.269 505.871 437.55 507.816C436.156 508.39 434.84 508.492 433.678 508.19" stroke="#AFB4C8" stroke-width="0.6" stroke-miterlimit="10"/>
<path d="M448.028 493.944C448.028 500.169 444.202 506.793 439.483 508.738C434.764 510.683 430.938 507.213 430.938 500.988C430.938 494.762 434.764 488.138 439.483 486.194C444.203 484.249 448.028 487.719 448.028 493.944Z" stroke="#AFB4C8" stroke-miterlimit="10"/>
<path d="M437.664 488.399L443.043 489.676" stroke="#AFB4C8" stroke-miterlimit="10" stroke-linecap="round" stroke-dasharray="0.1 2"/>
<path d="M434.975 491.806L445.732 494.361" stroke="#AFB4C8" stroke-miterlimit="10" stroke-linecap="round" stroke-dasharray="0.1 2"/>
<path d="M432.286 495.213L437.665 496.49" stroke="#AFB4C8" stroke-miterlimit="10" stroke-linecap="round" stroke-dasharray="0.1 2"/>
<path d="M344.381 383.974C346.284 385.258 347.497 387.89 347.497 391.395C347.497 397.621 343.671 404.245 338.952 406.189C337.559 406.764 336.243 406.866 335.08 406.564" stroke="#AFB4C8" stroke-width="0.6" stroke-miterlimit="10"/>
<path d="M349.432 392.317C349.432 398.543 345.607 405.167 340.888 407.112C336.169 409.057 332.343 405.587 332.343 399.361C332.343 393.136 336.169 386.512 340.888 384.567C345.607 382.622 349.432 386.092 349.432 392.317Z" stroke="#AFB4C8" stroke-miterlimit="10"/>
<path d="M339.064 386.772L344.443 388.05" stroke="#AFB4C8" stroke-miterlimit="10" stroke-linecap="round" stroke-dasharray="0.1 2"/>
<path d="M336.378 390.179L347.135 392.734" stroke="#AFB4C8" stroke-miterlimit="10" stroke-linecap="round" stroke-dasharray="0.1 2"/>
<path d="M333.688 393.586L339.066 394.864" stroke="#AFB4C8" stroke-miterlimit="10" stroke-linecap="round" stroke-dasharray="0.1 2"/>
<path d="M57.8414 308.485C59.7441 309.768 60.9573 312.4 60.9573 315.906C60.9573 322.131 57.1314 328.755 52.4124 330.7C51.0185 331.275 49.7025 331.377 48.54 331.075" stroke="#AFB4C8" stroke-width="0.6" stroke-miterlimit="10"/>
<path d="M62.8915 316.829C62.8915 323.054 59.0656 329.678 54.3466 331.623C49.6276 333.568 45.8018 330.098 45.8018 323.872C45.8018 317.647 49.6276 311.023 54.3466 309.078C59.066 307.133 62.8915 310.603 62.8915 316.829Z" stroke="#AFB4C8" stroke-miterlimit="10"/>
<path d="M52.5244 311.283L57.9032 312.561" stroke="#AFB4C8" stroke-miterlimit="10" stroke-linecap="round" stroke-dasharray="0.1 2"/>
<path d="M49.8369 314.69L60.5944 317.245" stroke="#AFB4C8" stroke-miterlimit="10" stroke-linecap="round" stroke-dasharray="0.1 2"/>
<path d="M47.1465 318.097L52.5252 319.374" stroke="#AFB4C8" stroke-miterlimit="10" stroke-linecap="round" stroke-dasharray="0.1 2"/>
<path d="M59.7037 378.298C61.6064 379.582 62.8196 382.213 62.8196 385.719C62.8196 391.945 58.9937 398.568 54.2747 400.513C52.8808 401.088 51.5648 401.19 50.4023 400.888" stroke="#AFB4C8" stroke-width="0.6" stroke-miterlimit="10"/>
<path d="M64.7518 386.641C64.7518 392.867 60.9259 399.491 56.207 401.435C51.488 403.38 47.6621 399.911 47.6621 393.685C47.6621 387.46 51.488 380.836 56.207 378.891C60.9263 376.946 64.7518 380.416 64.7518 386.641Z" stroke="#AFB4C8" stroke-miterlimit="10"/>
<path d="M54.3857 381.096L59.7645 382.374" stroke="#AFB4C8" stroke-miterlimit="10" stroke-linecap="round" stroke-dasharray="0.1 2"/>
<path d="M51.6982 384.503L62.4557 387.058" stroke="#AFB4C8" stroke-miterlimit="10" stroke-linecap="round" stroke-dasharray="0.1 2"/>
<path d="M49.0078 387.91L54.3866 389.188" stroke="#AFB4C8" stroke-miterlimit="10" stroke-linecap="round" stroke-dasharray="0.1 2"/>
<path d="M106.21 420.716C108.112 422 109.325 424.632 109.325 428.137C109.325 434.363 105.5 440.987 100.781 442.931C99.3867 443.506 98.0707 443.608 96.9082 443.306" stroke="#AFB4C8" stroke-width="0.6" stroke-miterlimit="10"/>
<path d="M111.261 429.059C111.261 435.284 107.435 441.908 102.716 443.853C97.9968 445.798 94.1709 442.328 94.1709 436.103C94.1709 429.877 97.9968 423.253 102.716 421.308C107.435 419.363 111.261 422.833 111.261 429.059Z" stroke="#AFB4C8" stroke-miterlimit="10"/>
<path d="M100.89 423.514L106.268 424.792" stroke="#AFB4C8" stroke-miterlimit="10" stroke-linecap="round" stroke-dasharray="0.1 2"/>
<path d="M98.2021 426.921L108.96 429.476" stroke="#AFB4C8" stroke-miterlimit="10" stroke-linecap="round" stroke-dasharray="0.1 2"/>
<path d="M95.5117 430.328L100.89 431.606" stroke="#AFB4C8" stroke-miterlimit="10" stroke-linecap="round" stroke-dasharray="0.1 2"/>
<path d="M96.9087 251.044C98.8115 252.327 100.025 254.959 100.025 258.465C100.025 264.69 96.1988 271.314 91.4798 273.259C90.0859 273.833 88.7699 273.936 87.6074 273.634" stroke="#AFB4C8" stroke-width="0.6" stroke-miterlimit="10"/>
<path d="M101.959 259.387C101.959 265.612 98.133 272.236 93.414 274.181C88.695 276.126 84.8691 272.656 84.8691 266.431C84.8691 260.205 88.695 253.581 93.414 251.637C98.1334 249.692 101.959 253.162 101.959 259.387Z" stroke="#AFB4C8" stroke-miterlimit="10"/>
<path d="M91.5879 253.842L96.9666 255.12" stroke="#AFB4C8" stroke-miterlimit="10" stroke-linecap="round" stroke-dasharray="0.1 2"/>
<path d="M88.8994 257.249L99.6569 259.804" stroke="#AFB4C8" stroke-miterlimit="10" stroke-linecap="round" stroke-dasharray="0.1 2"/>
<path d="M86.2109 260.656L91.5897 261.933" stroke="#AFB4C8" stroke-miterlimit="10" stroke-linecap="round" stroke-dasharray="0.1 2"/>
<path d="M336.942 456.438C338.845 457.722 340.058 460.353 340.058 463.859C340.058 470.085 336.232 476.708 331.513 478.653C330.119 479.228 328.803 479.33 327.641 479.028" stroke="#AFB4C8" stroke-width="0.6" stroke-miterlimit="10"/>
<path d="M341.994 464.781C341.994 471.007 338.168 477.631 333.449 479.576C328.73 481.521 324.904 478.051 324.904 471.825C324.904 465.6 328.73 458.976 333.449 457.031C338.169 455.086 341.994 458.556 341.994 464.781Z" stroke="#AFB4C8" stroke-miterlimit="10"/>
<path d="M331.624 459.236L337.003 460.514" stroke="#AFB4C8" stroke-miterlimit="10" stroke-linecap="round" stroke-dasharray="0.1 2"/>
<path d="M328.937 462.643L339.694 465.198" stroke="#AFB4C8" stroke-miterlimit="10" stroke-linecap="round" stroke-dasharray="0.1 2"/>
<path d="M326.246 466.05L331.625 467.328" stroke="#AFB4C8" stroke-miterlimit="10" stroke-linecap="round" stroke-dasharray="0.1 2"/>
<path d="M486.695 345.975C488.598 347.258 489.811 349.89 489.811 353.396C489.811 359.621 485.985 366.245 481.266 368.19C479.872 368.764 478.556 368.866 477.394 368.564" stroke="#AFB4C8" stroke-width="0.6" stroke-miterlimit="10"/>
<path d="M491.746 354.318C491.746 360.543 487.92 367.167 483.201 369.112C478.482 371.057 474.656 367.587 474.656 361.362C474.656 355.136 478.482 348.512 483.201 346.567C487.92 344.622 491.746 348.093 491.746 354.318Z" stroke="#AFB4C8" stroke-miterlimit="10"/>
<path d="M481.374 348.773L486.753 350.05" stroke="#AFB4C8" stroke-miterlimit="10" stroke-linecap="round" stroke-dasharray="0.1 2"/>
<path d="M478.688 352.18L489.445 354.735" stroke="#AFB4C8" stroke-miterlimit="10" stroke-linecap="round" stroke-dasharray="0.1 2"/>
<path d="M475.997 355.587L481.376 356.864" stroke="#AFB4C8" stroke-miterlimit="10" stroke-linecap="round" stroke-dasharray="0.1 2"/>
<path d="M479.254 424.625C481.157 425.908 482.37 428.54 482.37 432.046C482.37 438.271 478.544 444.895 473.826 446.84C472.432 447.415 471.116 447.517 469.953 447.215" stroke="#AFB4C8" stroke-width="0.6" stroke-miterlimit="10"/>
<path d="M484.304 432.968C484.304 439.194 480.478 445.817 475.759 447.762C471.04 449.707 467.214 446.237 467.214 440.012C467.214 433.786 471.04 427.163 475.759 425.218C480.478 423.273 484.304 426.743 484.304 432.968Z" stroke="#AFB4C8" stroke-miterlimit="10"/>
<path d="M473.933 427.423L479.311 428.701" stroke="#AFB4C8" stroke-miterlimit="10" stroke-linecap="round" stroke-dasharray="0.1 2"/>
<path d="M471.245 430.83L482.003 433.385" stroke="#AFB4C8" stroke-miterlimit="10" stroke-linecap="round" stroke-dasharray="0.1 2"/>
<path d="M468.555 434.237L473.933 435.514" stroke="#AFB4C8" stroke-miterlimit="10" stroke-linecap="round" stroke-dasharray="0.1 2"/>
<path d="M478.25 391.451C478.25 440.004 448.413 491.662 411.607 506.833C374.801 522.004 344.964 494.942 344.964 446.389C344.964 397.836 374.801 346.177 411.607 331.006C448.413 315.835 478.25 342.897 478.25 391.451Z" stroke="#AFB4C8" stroke-miterlimit="10" stroke-linecap="round" stroke-dasharray="0.1 2"/>
<path d="M481.342 392.369C481.342 440.923 451.505 492.581 414.699 507.752C377.893 522.923 348.056 495.861 348.056 447.308C348.056 398.755 377.893 347.096 414.699 331.925C451.505 316.754 481.342 343.816 481.342 392.369Z" fill="white" stroke="#AFB4C8" stroke-miterlimit="10"/>
<mask id="mask1" mask-type="alpha" maskUnits="userSpaceOnUse" x="373" y="360" width="85" height="117">
<path d="M457.465 401.377C457.465 431.959 438.671 464.498 415.488 474.053C392.304 483.609 373.511 466.563 373.511 435.981C373.511 405.398 392.304 372.86 415.488 363.304C438.671 353.749 457.465 370.794 457.465 401.377Z" fill="white"/>
</mask>
<g mask="url(#mask1)">
<path d="M427.973 394.514C427.973 425.097 409.18 457.635 385.996 467.191C362.813 476.747 344.02 459.701 344.02 429.119C344.02 398.536 362.813 365.998 385.996 356.442C409.18 346.886 427.973 363.932 427.973 394.514Z" stroke="#AFB4C8" stroke-miterlimit="10"/>
</g>
<path d="M457.465 401.377C457.465 431.959 438.671 464.498 415.488 474.053C392.304 483.609 373.511 466.563 373.511 435.981C373.511 405.398 392.304 372.86 415.488 363.304C438.671 353.749 457.465 370.794 457.465 401.377Z" stroke="#AFB4C8" stroke-miterlimit="10"/>
<path d="M398.658 475.986C402.74 476.05 407.096 474.999 411.619 473.135C434.803 463.579 453.596 431.04 453.596 400.458C453.596 380.704 445.756 366.598 433.956 361.66" stroke="#AFB4C8" stroke-miterlimit="10"/>
<path d="M378.098 419.103L417.14 429.378" stroke="#AFB4C8" stroke-width="1.5" stroke-miterlimit="10" stroke-linecap="round" stroke-dasharray="0.1 4"/>
<path d="M410.154 368.553L420.84 371.43" stroke="#AFB4C8" stroke-width="1.5" stroke-miterlimit="10" stroke-linecap="round" stroke-dasharray="0.1 4"/>
<path d="M402.044 372.162L426.22 378.134" stroke="#AFB4C8" stroke-miterlimit="10"/>
<path d="M398.646 377.595L410.408 380.753" stroke="#AFB4C8" stroke-width="1.5" stroke-miterlimit="10" stroke-linecap="round" stroke-dasharray="0.1 4"/>
<path d="M376.454 430.611L409.332 439.652" stroke="#AFB4C8" stroke-width="1.5" stroke-miterlimit="10" stroke-linecap="round" stroke-dasharray="0.1 4"/>
<path d="M499.748 380.029C499.748 447 458.592 518.254 407.825 539.18C357.057 560.105 315.901 522.778 315.901 455.807C315.901 388.836 357.057 317.581 407.825 296.656C458.593 275.73 499.748 313.058 499.748 380.029Z" stroke="#AFB4C8" stroke-miterlimit="10"/>
<path d="M117.423 230.664C116.287 231.167 115.149 231.696 114.01 232.25C49.5232 256.346 24.3552 323.031 32.6432 381.066C40.9312 439.101 92.3391 467.543 144.024 442.413C144.875 441.999 145.722 441.573 146.565 441.137" stroke="#AFB4C8" stroke-miterlimit="10"/>
<path d="M98.6595 224.352C38.3616 251.097 11.7951 316.9 20.0831 374.935C23.9082 401.719 37.7617 423.441 55.1039 434.856C59.0965 437.484 67.1956 441.926 73.7065 444.135M98.6595 224.352C99.7986 223.798 97.5237 224.856 98.6595 224.352ZM98.6595 224.352C103.779 222.584 109.982 220.114 116.958 219.231" stroke="#AFB4C8" stroke-miterlimit="10"/>
<path d="M88.5898 395.973C96.961 407.903 128.586 428.67 169.976 457.832C211.367 486.995 221.599 488.419 237.411 490.088C242.062 490.579 270.245 491.502 295.544 483.018" stroke="#AFB4C8"/>
<path d="M109.515 415.856C63.4737 415.856 44.8729 294.788 134.165 262.974" stroke="#AFB4C8"/>
<path d="M94.1687 410.996C56.4985 392.438 48.0695 294.763 127.016 261.649L132.305 259.881" stroke="#AFB4C8" stroke-miterlimit="10" stroke-linecap="round" stroke-dasharray="0.1 2"/>
<path d="M133.235 271.369C62.5448 301.415 77.4269 381.833 89.0521 396.856" stroke="#AFB4C8" stroke-miterlimit="10" stroke-linecap="round" stroke-dasharray="0.1 2"/>
<path d="M133.701 352.229C137.422 368.43 169.883 399.773 249.503 393.763" stroke="#AFB4C8" stroke-width="1.5" stroke-miterlimit="10" stroke-linecap="round" stroke-dasharray="0.1 4"/>
<path d="M133.701 352.229V260.323" stroke="#AFB4C8" stroke-width="0.75"/>
<path d="M117.421 194.045V245.932C117.421 247.264 117.686 248.576 118.502 249.629C123.269 255.777 146.929 276.736 248.104 277.113C353.544 277.506 380.678 255.894 385.4 251.096C385.994 250.492 386.382 249.76 386.685 248.968L388.089 245.3V192.719" stroke="#AFB4C8"/>
<path d="M117.421 222.323C117.421 222.323 141.139 249.32 248.104 249.718C355.07 250.117 388.089 223.649 388.089 223.649" stroke="#AFB4C8"/>
<path d="M117.421 218.788C117.421 218.788 141.139 245.785 248.104 246.184C355.07 246.582 388.089 220.114 388.089 220.114" stroke="#AFB4C8"/>
<path d="M388.089 229.082C388.089 229.082 355.07 255.55 248.104 255.151" stroke="#AFB4C8" stroke-width="1.5" stroke-miterlimit="10" stroke-linecap="round" stroke-dasharray="0.1 4"/>
<path d="M373.675 276.23C373.675 276.23 356.933 300.974 216.018 297.663" stroke="#AFB4C8" stroke-width="1.5" stroke-miterlimit="10" stroke-linecap="round" stroke-dasharray="0.1 4"/>
<path d="M117.421 195.21C117.421 195.21 132.768 219.226 248.104 219.226C363.441 219.226 386.229 196.696 386.229 196.696" stroke="#AFB4C8"/>
<path d="M349.827 168.223L316.912 168.223C316.081 168.223 315.415 168.873 315.415 169.683L315.415 181.499C315.415 182.079 315.762 182.61 316.302 182.859L323.486 186.16C323.691 186.254 323.914 186.303 324.139 186.303L341.645 186.303C341.88 186.303 342.11 186.25 342.319 186.148L350.545 182.131C351.05 181.884 351.368 181.381 351.368 180.826L351.368 169.725C351.368 168.899 350.675 168.223 349.827 168.223Z" fill="white" stroke="#AFB4C8" stroke-miterlimit="10"/>
<path d="M342.278 173.643L342.071 173.19L342.278 173.643L350.009 170.358C351.219 169.844 351.198 168.162 349.976 167.642L342.271 164.369C342.078 164.286 341.87 164.244 341.66 164.244L324.101 164.244C323.902 164.244 323.705 164.282 323.522 164.357L316.33 167.281C315.773 167.507 315.413 168.037 315.413 168.628L315.413 169.067L315.413 169.478C315.413 170.091 315.8 170.646 316.386 170.874L316.568 170.416L316.386 170.874L323.543 173.659C323.724 173.729 323.916 173.765 324.11 173.765L341.677 173.765C341.884 173.765 342.089 173.724 342.278 173.643Z" fill="white" stroke="#AFB4C8" stroke-miterlimit="10"/>
<path d="M343.368 167.696C343.368 169.105 338.643 170.248 332.814 170.248C326.986 170.248 322.261 169.105 322.261 167.696C322.261 166.286 322.26 163.612 322.261 159.528C325.871 159.528 338.383 157.22 343.368 159.528C343.368 165.654 343.368 167.159 343.368 167.696Z" fill="white" stroke="#AFB4C8" stroke-miterlimit="10"/>
<path d="M343.367 164.122C343.367 165.532 338.642 166.675 332.814 166.675C326.986 166.675 322.261 165.532 322.261 164.122" stroke="#AFB4C8" stroke-miterlimit="10" stroke-linecap="round" stroke-dasharray="0.1 2"/>
<ellipse cx="332.812" cy="159.528" rx="10.5532" ry="2.55227" fill="white" stroke="#AFB4C8" stroke-miterlimit="10"/>
<path d="M323.842 173.821V186.582M341.782 174.331V187.093" stroke="#AFB4C8" stroke-miterlimit="10" stroke-linecap="round" stroke-dasharray="0.1 2"/>
<path d="M341.767 181.051L341.764 181.543L341.767 181.051C340.939 181.051 340.266 181.73 340.266 182.565L340.261 194.24C340.261 194.806 340.575 195.322 341.074 195.577L349.307 199.786C349.515 199.892 349.745 199.947 349.979 199.947L367.476 199.947C367.711 199.947 367.943 199.891 368.153 199.784L376.376 195.581C376.882 195.322 377.201 194.799 377.201 194.229L377.201 182.549C377.201 181.72 376.537 181.051 375.716 181.051L341.767 181.051Z" fill="white" stroke="#AFB4C8" stroke-miterlimit="10"/>
<path d="M349.963 176.886C349.755 176.886 349.55 176.93 349.359 177.014L341.582 180.474C340.391 181.003 340.384 182.705 341.569 183.232L349.357 186.696C349.546 186.78 349.75 186.824 349.957 186.824L367.51 186.824C367.718 186.824 367.923 186.78 368.114 186.695L375.891 183.235C377.082 182.706 377.089 181.005 375.904 180.477L368.116 177.013C367.927 176.929 367.723 176.886 367.516 176.886L349.963 176.886Z" fill="white" stroke="#AFB4C8" stroke-miterlimit="10"/>
<path d="M369.21 180.484C369.21 181.96 364.486 183.156 358.657 183.156C352.829 183.156 348.104 181.96 348.104 180.484C348.104 179.009 348.103 176.21 348.104 171.935C351.713 171.935 364.226 169.519 369.21 171.935C369.21 178.347 369.21 179.923 369.21 180.484Z" fill="white" stroke="#AFB4C8" stroke-miterlimit="10"/>
<path d="M369.21 176.744C369.21 178.22 364.485 179.416 358.657 179.416C352.828 179.416 348.104 178.22 348.104 176.744" stroke="#AFB4C8" stroke-miterlimit="10" stroke-linecap="round" stroke-dasharray="0.1 2"/>
<ellipse cx="358.655" cy="171.935" rx="10.5532" ry="2.67165" fill="white" stroke="#AFB4C8" stroke-miterlimit="10"/>
<path d="M349.955 186.832V200.018M367.628 187.339V200.018" stroke="#AFB4C8" stroke-miterlimit="10" stroke-linecap="round" stroke-dasharray="0.1 2"/>
<path d="M201.601 149.135C195.42 150.833 191.835 152.852 191.835 155.019C191.835 161.043 219.528 165.926 253.689 165.926C287.85 165.926 315.542 161.043 315.542 155.019C315.542 153.14 312.287 150.903 305.776 149.577" stroke="#AFB4C8" stroke-miterlimit="10"/>
<path d="M305.774 151.415C305.774 156.296 282.919 160.252 254.152 160.252C225.385 160.252 201.6 156.296 201.6 151.415" stroke="#AFB4C8" stroke-miterlimit="10"/>
<path d="M254.153 147.598C291.139 147.598 321.123 142.201 321.123 135.544V122.412H187.184L187.184 135.544C187.184 142.201 217.167 147.598 254.153 147.598Z" fill="white" stroke="#AFB4C8" stroke-miterlimit="10"/>
<path d="M201.601 185.649C195.42 187.347 191.835 189.366 191.835 191.534C191.835 197.557 219.528 202.44 253.689 202.44C287.85 202.44 315.542 197.557 315.542 191.534C315.542 189.655 312.847 187.886 308.101 186.343" stroke="#AFB4C8" stroke-miterlimit="10"/>
<path d="M239.453 196.827C238.626 196.827 237.952 197.509 237.952 198.347L237.948 210.077C237.947 210.643 238.26 211.159 238.756 211.414L246.993 215.643C247.2 215.75 247.43 215.805 247.663 215.805L265.161 215.805C265.395 215.805 265.627 215.749 265.838 215.641L274.061 211.419C274.566 211.159 274.885 210.634 274.885 210.062L274.885 198.325C274.885 197.496 274.225 196.827 273.406 196.827L239.453 196.827Z" fill="white" stroke="#AFB4C8" stroke-miterlimit="10"/>
<path d="M247.641 202.623L247.645 202.119L247.641 202.623L265.194 202.623C265.402 202.623 265.608 202.579 265.798 202.493L273.581 199.016C274.769 198.485 274.78 196.782 273.598 196.254L265.802 192.771C265.613 192.687 265.409 192.643 265.203 192.643L247.65 192.643C247.442 192.643 247.236 192.687 247.046 192.772L239.263 196.25C238.075 196.781 238.064 198.484 239.246 199.012L247.042 202.495C247.231 202.579 247.435 202.623 247.641 202.623Z" fill="white" stroke="#AFB4C8" stroke-miterlimit="10"/>
<path d="M266.896 196.257C266.896 197.739 262.171 198.94 256.343 198.94C250.514 198.94 245.789 197.739 245.789 196.257C245.789 194.775 245.789 191.963 245.789 187.669C249.399 187.669 261.911 185.242 266.896 187.669C266.896 194.11 266.896 195.692 266.896 196.257Z" fill="white" stroke="#AFB4C8" stroke-miterlimit="10"/>
<path d="M266.895 192.5C266.895 193.982 262.171 195.183 256.342 195.183C250.514 195.183 245.789 193.982 245.789 192.5" stroke="#AFB4C8" stroke-miterlimit="10" stroke-linecap="round" stroke-dasharray="0.1 2"/>
<ellipse cx="256.34" cy="187.669" rx="10.5532" ry="2.6836" fill="white" stroke="#AFB4C8" stroke-miterlimit="10"/>
<path d="M247.641 202.632V215.368M265.313 203.142V215.877" stroke="#AFB4C8" stroke-miterlimit="10" stroke-linecap="round" stroke-dasharray="0.1 2"/>
<path d="M150.152 165.275C149.324 165.275 148.652 165.951 148.651 166.784L148.647 178.402C148.647 178.968 148.963 179.485 149.464 179.74L157.694 183.928C157.902 184.034 158.133 184.09 158.367 184.09L175.864 184.09C176.099 184.09 176.33 184.034 176.54 183.927L184.764 179.742C185.269 179.485 185.588 178.964 185.588 178.395L185.588 166.774C185.588 165.945 184.922 165.275 184.098 165.275L150.152 165.275Z" fill="white" stroke="#AFB4C8" stroke-miterlimit="10"/>
<path d="M158.348 161.128C158.14 161.128 157.935 161.172 157.744 161.256L149.971 164.698C148.779 165.226 148.774 166.926 149.963 167.452L157.743 170.897C157.932 170.981 158.137 171.024 158.344 171.024L175.897 171.024C176.104 171.024 176.31 170.981 176.5 170.897L184.273 167.455C185.466 166.927 185.47 165.227 184.281 164.7L176.502 161.255C176.312 161.172 176.108 161.128 175.901 161.128L158.348 161.128Z" fill="white" stroke="#AFB4C8" stroke-miterlimit="10"/>
<path d="M177.596 164.712C177.596 166.181 172.871 167.372 167.043 167.372C161.215 167.372 156.49 166.181 156.49 164.712C156.49 163.243 156.489 160.457 156.489 156.201C160.099 156.201 172.611 153.796 177.596 156.201C177.596 162.584 177.596 164.153 177.596 164.712Z" fill="white" stroke="#AFB4C8" stroke-miterlimit="10"/>
<path d="M177.596 160.989C177.596 162.458 172.871 163.648 167.042 163.648C161.214 163.648 156.489 162.458 156.489 160.989" stroke="#AFB4C8" stroke-miterlimit="10" stroke-linecap="round" stroke-dasharray="0.1 2"/>
<ellipse cx="167.041" cy="156.201" rx="10.5532" ry="2.65971" fill="white" stroke="#AFB4C8" stroke-miterlimit="10"/>
<path d="M158.342 171.031V183.654M176.014 171.536V184.159" stroke="#AFB4C8" stroke-miterlimit="10" stroke-linecap="round" stroke-dasharray="0.1 2"/>
<path d="M191.835 155.321V182.998M315.542 155.321V182.998" stroke="#AFB4C8"/>
<path d="M131.811 196.792L132.035 196.348L131.811 196.792L140.029 200.904C140.239 201.009 140.472 201.064 140.707 201.064L140.705 200.566L140.707 201.064L158.202 201.064C158.437 201.064 158.668 201.009 158.878 200.905L167.102 196.79C167.608 196.537 167.926 196.023 167.926 195.46L167.926 184.055C167.926 183.227 167.249 182.555 166.416 182.555L132.482 182.555C131.654 182.555 130.984 183.22 130.983 184.043L130.979 195.451C130.979 196.018 131.301 196.537 131.811 196.792Z" fill="white" stroke="#AFB4C8" stroke-miterlimit="10"/>
<path d="M158.232 178.478L158.234 178.976L158.232 178.478L140.68 178.478C140.472 178.478 140.267 178.521 140.077 178.604L132.322 181.98C131.122 182.502 131.128 184.195 132.33 184.719L140.079 188.092C140.27 188.175 140.476 188.218 140.685 188.218L158.236 188.218C158.444 188.218 158.649 188.176 158.839 188.093L166.595 184.716C167.794 184.194 167.789 182.502 166.586 181.978L158.837 178.604C158.646 178.521 158.44 178.478 158.232 178.478Z" fill="white" stroke="#AFB4C8" stroke-miterlimit="10"/>
<path d="M159.932 182.007C159.932 183.451 155.207 184.622 149.379 184.622C143.55 184.622 138.826 183.451 138.826 182.007C138.826 180.563 138.825 177.823 138.825 173.639C142.435 173.639 154.947 171.274 159.932 173.639C159.932 179.915 159.932 181.457 159.932 182.007Z" fill="white" stroke="#AFB4C8" stroke-miterlimit="10"/>
<path d="M159.932 178.346C159.932 179.79 155.207 180.961 149.378 180.961C143.55 180.961 138.825 179.79 138.825 178.346" stroke="#AFB4C8" stroke-miterlimit="10" stroke-linecap="round" stroke-dasharray="0.1 2"/>
<ellipse cx="149.376" cy="173.639" rx="10.5532" ry="2.61499" fill="white" stroke="#AFB4C8" stroke-miterlimit="10"/>
<path d="M140.677 188.22V200.63M158.349 188.716V201.126" stroke="#AFB4C8" stroke-miterlimit="10" stroke-linecap="round" stroke-dasharray="0.1 2"/>
<path d="M298.981 192.279C298.154 192.279 297.479 192.964 297.479 193.805L297.475 205.591C297.475 206.156 297.785 206.672 298.28 206.927L306.519 211.176C306.726 211.283 306.955 211.338 307.188 211.338L324.686 211.338C324.921 211.338 325.153 211.282 325.363 211.173L333.586 206.933C334.092 206.672 334.411 206.145 334.411 205.572L334.411 193.777C334.411 192.948 333.753 192.279 332.937 192.279L298.981 192.279Z" fill="white" stroke="#AFB4C8" stroke-miterlimit="10"/>
<path d="M307.177 188.078L307.172 188.582L307.177 188.078C306.969 188.078 306.763 188.122 306.573 188.207L298.786 191.702C297.599 192.234 297.586 193.939 298.765 194.468L306.568 197.97C306.756 198.054 306.96 198.098 307.166 198.098L324.72 198.098C324.928 198.098 325.133 198.054 325.324 197.968L333.111 194.474C334.297 193.941 334.31 192.236 333.132 191.707L325.328 188.205C325.14 188.121 324.937 188.078 324.731 188.078L307.177 188.078Z" fill="white" stroke="#AFB4C8" stroke-miterlimit="10"/>
<path d="M326.423 191.705C326.423 193.194 321.698 194.401 315.87 194.401C310.042 194.401 305.317 193.194 305.317 191.705C305.317 190.217 305.316 187.393 305.317 183.08C308.926 183.08 321.439 180.642 326.423 183.08C326.423 189.549 326.423 191.139 326.423 191.705Z" fill="white" stroke="#AFB4C8" stroke-miterlimit="10"/>
<path d="M326.423 187.932C326.423 189.42 321.698 190.627 315.87 190.627C310.041 190.627 305.316 189.42 305.316 187.932" stroke="#AFB4C8" stroke-miterlimit="10" stroke-linecap="round" stroke-dasharray="0.1 2"/>
<ellipse cx="315.867" cy="183.08" rx="10.5532" ry="2.69536" fill="white" stroke="#AFB4C8" stroke-miterlimit="10"/>
<path d="M307.167 198.109V210.901M324.839 198.62V211.412" stroke="#AFB4C8" stroke-miterlimit="10" stroke-linecap="round" stroke-dasharray="0.1 2"/>
<ellipse cx="254.153" cy="122.854" rx="66.9695" ry="11.4882" fill="white" stroke="#AFB4C8"/>
<path d="M303.448 118.877C303.448 122.538 281.585 125.505 254.616 125.505C227.647 125.505 205.784 122.538 205.784 118.877C205.784 118.247 205.785 117.994 205.784 115.784C211.607 113.008 232.292 112.25 254.616 112.25C276.94 112.25 297.625 113.45 303.448 116.226C303.448 117.552 303.448 118.247 303.448 118.877Z" fill="white" stroke="#AFB4C8"/>
<ellipse cx="254.618" cy="116.226" rx="48.8319" ry="6.62783" fill="white" stroke="#AFB4C8"/>
<path d="M288.569 114.901C288.569 117.341 273.369 119.319 254.619 119.319C235.87 119.319 220.67 117.341 220.67 114.901C220.67 112.46 220.668 109.157 220.668 99.8777C233.4 99.8777 272.71 96.7148 288.569 101.203C288.569 106.947 288.569 114.118 288.569 114.901Z" fill="white" stroke="#AFB4C8"/>
<path d="M254.153 107.831C280.865 107.831 302.52 103.854 302.52 98.949V82.2034H205.786L205.786 98.949C205.786 103.854 227.441 107.831 254.153 107.831Z" fill="white" stroke="#AFB4C8" stroke-miterlimit="10"/>
<ellipse cx="254.153" cy="82.2034" rx="48.3668" ry="6.18598" fill="white" stroke="#AFB4C8"/>
<path d="M220.408 84.0201L220.348 83.6156L220.408 84.0201L232.678 84.0201L232.613 83.5752L232.678 84.0201C232.907 84.0201 233.127 83.981 233.325 83.9055L238.965 81.7533C239.466 81.5624 239.772 81.1588 239.772 80.6913L239.772 71.6076C239.772 70.8135 238.909 70.1151 237.928 70.1151L214.615 70.1151C213.786 70.1151 213.162 70.6202 213.162 71.2913L213.159 80.4649L213.704 80.5173L213.159 80.4649C213.158 81.0258 213.598 81.568 214.255 81.8189L219.66 83.8812C219.899 83.9725 220.155 84.0201 220.408 84.0201Z" fill="white" stroke="#AFB4C8" stroke-miterlimit="10"/>
<path d="M220.23 67.9082C220.027 67.9082 219.831 67.9389 219.65 67.9988L215.082 69.5157C213.778 69.9487 213.974 71.5159 215.392 71.9865L219.719 73.4235C219.933 73.4946 220.158 73.5312 220.38 73.5312L232.708 73.5312C232.911 73.5312 233.108 73.5005 233.288 73.4406L237.857 71.9236C239.161 71.4907 238.964 69.9235 237.547 69.4529L233.219 68.0159C233.005 67.9448 232.781 67.9082 232.559 67.9082L220.23 67.9082Z" fill="white" stroke="#AFB4C8" stroke-miterlimit="10"/>
<path d="M233.9 69.9937C233.9 70.7756 230.547 71.4094 226.409 71.4094C222.272 71.4094 218.918 70.7756 218.918 69.9937C218.918 69.2119 218.918 61.5828 218.918 59.3178C221.48 59.3178 230.362 58.0374 233.9 59.3177C233.9 62.7152 233.9 69.6961 233.9 69.9937Z" fill="white" stroke="#AFB4C8" stroke-miterlimit="10"/>
<path d="M233.9 66.2444C233.9 67.0262 230.546 67.66 226.409 67.66C222.272 67.66 218.918 67.0262 218.918 66.2444" stroke="#AFB4C8" stroke-miterlimit="10" stroke-linecap="round" stroke-dasharray="0.1 2"/>
<path d="M233.9 62.7095C233.9 63.4914 230.546 64.1252 226.409 64.1252C222.272 64.1252 218.918 63.4914 218.918 62.7095" stroke="#AFB4C8" stroke-miterlimit="10" stroke-linecap="round" stroke-dasharray="0.1 2"/>
<ellipse cx="226.408" cy="59.2777" rx="7.49104" ry="1.41563" fill="white" stroke="#AFB4C8" stroke-miterlimit="10"/>
<path d="M219.74 73.3663V81.8635M232.762 73.7062V82.2034" stroke="#AFB4C8" stroke-miterlimit="10" stroke-linecap="round" stroke-dasharray="0.1 2"/>
<path d="M274.352 84.5383L274.293 84.1338L274.352 84.5383L286.622 84.5383L286.557 84.0934L286.622 84.5383C286.851 84.5383 287.071 84.4992 287.269 84.4237L292.91 82.2715C293.41 82.0806 293.717 81.677 293.717 81.2095L293.717 72.1258C293.717 71.3317 292.854 70.6333 291.872 70.6333L268.56 70.6333C267.731 70.6333 267.106 71.1384 267.106 71.8095L267.103 80.9831L267.648 81.0355L267.103 80.9831C267.103 81.544 267.542 82.0862 268.199 82.3371L273.604 84.3994C273.844 84.4907 274.1 84.5383 274.352 84.5383Z" fill="white" stroke="#AFB4C8" stroke-miterlimit="10"/>
<path d="M274.174 68.4264C273.972 68.4264 273.775 68.4571 273.595 68.517L269.026 70.034C267.722 70.467 267.919 72.0342 269.336 72.5048L273.664 73.9417C273.878 74.0128 274.102 74.0495 274.324 74.0495L286.653 74.0495C286.856 74.0495 287.052 74.0187 287.232 73.9589L291.801 72.4419C293.105 72.0089 292.909 70.4417 291.491 69.9711L287.164 68.5342C286.949 68.4631 286.725 68.4264 286.503 68.4264L274.174 68.4264Z" fill="white" stroke="#AFB4C8" stroke-miterlimit="10"/>
<path d="M287.848 70.512C287.848 71.2938 284.494 71.9276 280.357 71.9276C276.219 71.9276 272.866 71.2938 272.866 70.512C272.866 69.7301 272.865 62.101 272.865 59.836C275.428 59.836 284.309 58.5556 287.848 59.8359C287.848 63.2335 287.848 70.2143 287.848 70.512Z" fill="white" stroke="#AFB4C8" stroke-miterlimit="10"/>
<path d="M287.847 66.7626C287.847 67.5444 284.493 68.1782 280.356 68.1782C276.219 68.1782 272.865 67.5444 272.865 66.7626" stroke="#AFB4C8" stroke-miterlimit="10" stroke-linecap="round" stroke-dasharray="0.1 2"/>
<path d="M287.847 63.2278C287.847 64.0096 284.493 64.6434 280.356 64.6434C276.219 64.6434 272.865 64.0096 272.865 63.2278" stroke="#AFB4C8" stroke-miterlimit="10" stroke-linecap="round" stroke-dasharray="0.1 2"/>
<ellipse cx="280.353" cy="59.7959" rx="7.49104" ry="1.41563" fill="white" stroke="#AFB4C8" stroke-miterlimit="10"/>
<path d="M273.685 74.25V82.7472M286.706 74.5899V83.0871" stroke="#AFB4C8" stroke-miterlimit="10" stroke-linecap="round" stroke-dasharray="0.1 2"/>
<path d="M263.453 81.3635C263.453 83.7802 256.012 83.9719 253.222 83.9719C250.431 83.9719 242.991 83.7802 242.991 81.3635C242.991 78.9468 242.99 65.899 242.99 56.7098C247.176 53.1748 258.674 52.265 263.453 56.71C263.453 62.3985 263.453 80.5879 263.453 81.3635Z" fill="white" stroke="#AFB4C8"/>
<path d="M262.027 57.0182C262.027 59.1369 257.841 59.8609 253.277 59.8609C248.713 59.8609 244.527 58.9181 244.527 56.7994C244.527 54.6806 244.526 21.7298 244.526 13.6736C247.626 13.6736 258.138 13.4306 262.027 14.1355C262.027 19.1226 262.027 56.3382 262.027 57.0182Z" fill="white" stroke="#AFB4C8"/>
<path d="M253.276 15.0974C255.577 15.0974 257.672 14.9412 259.202 14.6846C259.964 14.557 260.609 14.4007 261.075 14.2159C261.306 14.1244 261.522 14.0148 261.689 13.8777C261.851 13.7455 262.04 13.5245 262.04 13.2117C262.04 12.899 261.851 12.6779 261.689 12.5457C261.522 12.4087 261.306 12.299 261.075 12.2076C260.609 12.0227 259.964 11.8665 259.202 11.7388C257.672 11.4822 255.577 11.3261 253.276 11.3261C250.975 11.3261 248.88 11.4822 247.35 11.7388C246.588 11.8665 245.943 12.0227 245.477 12.2076C245.246 12.299 245.03 12.4087 244.863 12.5457C244.701 12.6779 244.512 12.899 244.512 13.2117C244.512 13.5245 244.701 13.7455 244.863 13.8777C245.03 14.0148 245.246 14.1244 245.477 14.2159C245.943 14.4007 246.588 14.557 247.35 14.6846C248.88 14.9412 250.975 15.0974 253.276 15.0974Z" fill="white" stroke="#AFB4C8" stroke-miterlimit="10"/>
<path d="M261.54 23.8906C261.54 24.9109 258.046 25.7381 253.735 25.7381C249.424 25.7381 245.012 24.9109 245.012 23.8906" stroke="#AFB4C8" stroke-miterlimit="10" stroke-linecap="round" stroke-dasharray="0.1 2"/>
<path d="M261.54 28.7263C261.54 29.7467 258.046 30.5738 253.735 30.5738C249.424 30.5738 245.012 29.7467 245.012 28.7263" stroke="#AFB4C8" stroke-miterlimit="10" stroke-linecap="round" stroke-dasharray="0.1 2"/>
<path d="M261.54 34.4858C261.54 35.5061 258.046 36.3333 253.735 36.3333C249.424 36.3333 245.012 35.5061 245.012 34.4858" stroke="#AFB4C8" stroke-miterlimit="10" stroke-linecap="round" stroke-dasharray="0.1 2"/>
<path d="M261.54 39.43C261.54 40.4504 258.046 41.2775 253.735 41.2775C249.424 41.2775 245.012 40.4504 245.012 39.43" stroke="#AFB4C8" stroke-miterlimit="10" stroke-linecap="round" stroke-dasharray="0.1 2"/>
<path d="M261.54 45.081C261.54 46.1013 258.046 46.9285 253.735 46.9285C249.424 46.9285 245.012 46.1013 245.012 45.081" stroke="#AFB4C8" stroke-miterlimit="10" stroke-linecap="round" stroke-dasharray="0.1 2"/>
<path d="M261.54 50.949C261.54 51.9693 258.046 52.7965 253.735 52.7965C249.424 52.7965 245.012 51.9693 245.012 50.949" stroke="#AFB4C8" stroke-miterlimit="10" stroke-linecap="round" stroke-dasharray="0.1 2"/>
<path d="M229.503 502.46V489.154M252.291 490.971V494.506M276.94 502.46V487.932" stroke="#AFB4C8"/>
<path d="M169.511 457.832C156.799 449.29 130.817 422.661 128.585 384.484" stroke="#AFB4C8" stroke-width="1.5" stroke-miterlimit="10" stroke-linecap="round" stroke-dasharray="0.1 4"/>
<path d="M179.926 192.279C179.099 192.279 178.425 192.964 178.424 193.805L178.42 205.591C178.42 206.156 178.73 206.672 179.225 206.927L187.464 211.176C187.671 211.283 187.901 211.338 188.134 211.338L205.631 211.338C205.866 211.338 206.098 211.282 206.309 211.173L214.532 206.933C215.037 206.672 215.356 206.145 215.356 205.572L215.356 193.777C215.356 192.948 214.698 192.279 213.882 192.279L179.926 192.279Z" fill="white" stroke="#AFB4C8" stroke-miterlimit="10"/>
<path d="M188.121 188.078L188.117 188.582L188.121 188.078C187.914 188.078 187.708 188.122 187.517 188.207L179.73 191.702C178.544 192.234 178.531 193.939 179.709 194.468L187.513 197.97C187.701 198.054 187.904 198.098 188.111 198.098L205.664 198.098C205.872 198.098 206.078 198.054 206.268 197.968L214.055 194.474C215.242 193.941 215.255 192.236 214.076 191.707L206.273 188.205C206.085 188.121 205.881 188.078 205.675 188.078L188.121 188.078Z" fill="white" stroke="#AFB4C8" stroke-miterlimit="10"/>
<path d="M207.368 191.705C207.368 193.194 202.643 194.401 196.814 194.401C190.986 194.401 186.261 193.194 186.261 191.705C186.261 190.217 186.26 187.393 186.261 183.08C189.871 183.08 202.383 180.642 207.368 183.08C207.368 189.549 207.368 191.139 207.368 191.705Z" fill="white" stroke="#AFB4C8" stroke-miterlimit="10"/>
<path d="M207.367 187.932C207.367 189.42 202.642 190.627 196.814 190.627C190.986 190.627 186.261 189.42 186.261 187.932" stroke="#AFB4C8" stroke-miterlimit="10" stroke-linecap="round" stroke-dasharray="0.1 2"/>
<ellipse cx="196.812" cy="183.08" rx="10.5532" ry="2.69536" fill="white" stroke="#AFB4C8" stroke-miterlimit="10"/>
<path d="M188.112 198.109V210.901M205.785 198.62V211.412" stroke="#AFB4C8" stroke-miterlimit="10" stroke-linecap="round" stroke-dasharray="0.1 2"/>
</svg>
