<svg width="109" height="171" viewBox="0 0 109 171" fill="none" xmlns="http://www.w3.org/2000/svg">
<rect x="2.5" y="119.5" width="9" height="48" fill="white" stroke="#AFB4C8"/>
<rect x="-0.5" y="0.5" width="2" height="28" transform="matrix(-1 0 0 1 2 129)" fill="white" stroke="#AFB4C8"/>
<path d="M17.5 150.966V136.034L11.5 130.186V156.814L17.5 150.966Z" fill="white" stroke="#AFB4C8"/>
<rect x="17.5" y="136.5" width="22" height="14" fill="white" stroke="#AFB4C8"/>
<rect x="35.5" y="121.5" width="39" height="43" fill="white" stroke="#AFB4C8"/>
<rect x="41.5" y="133.5" width="27" height="23" fill="white" stroke="#AFB4C8"/>
<rect x="0.5" y="-0.5" width="39" height="7" transform="matrix(1 0 0 -1 35 128)" fill="white" stroke="#AFB4C8"/>
<rect x="0.5" y="-0.5" width="25" height="9" transform="matrix(1 0 0 -1 42 121)" fill="white" stroke="#AFB4C8"/>
<path d="M37.5 45C37.5 44.1716 38.1716 43.5 39 43.5H71C71.8284 43.5 72.5 44.1716 72.5 45V92.5H37.5V45Z" fill="white" stroke="#AFB4C8"/>
<path d="M38.5275 43.5C38.7762 41.25 40.6837 39.5 43 39.5H67C69.3163 39.5 71.2238 41.25 71.4725 43.5H38.5275Z" fill="white" stroke="#AFB4C8"/>
<rect x="0.5" y="-0.5" width="71" height="10" transform="matrix(1 0 0 -1 19 112)" fill="white" stroke="#AFB4C8"/>
<rect x="0.5" y="-0.5" width="71" height="10" transform="matrix(1 0 0 -1 19 102)" fill="white" stroke="#AFB4C8"/>
<rect x="38.5" y="117.5" width="8" height="4" fill="white" stroke="#AFB4C8"/>
<rect x="40.5" y="117.5" width="4" height="4" fill="white" stroke="#AFB4C8"/>
<rect x="49.5" y="35.5" width="12" height="4" fill="white" stroke="#AFB4C8"/>
<rect x="52.5" y="35.5" width="6" height="4" fill="white" stroke="#AFB4C8"/>
<rect x="38.5" y="164.5" width="8" height="4" fill="white" stroke="#AFB4C8"/>
<rect x="40.5" y="164.5" width="4" height="4" fill="white" stroke="#AFB4C8"/>
<rect x="63.5" y="164.5" width="8" height="4" fill="white" stroke="#AFB4C8"/>
<rect x="65.5" y="164.5" width="4" height="4" fill="white" stroke="#AFB4C8"/>
<rect x="63.5" y="117.5" width="8" height="4" fill="white" stroke="#AFB4C8"/>
<rect x="65.5" y="117.5" width="4" height="4" fill="white" stroke="#AFB4C8"/>
<path d="M18 146.5H35" stroke="#AFB4C8"/>
<rect x="-0.5" y="0.5" width="9" height="48" transform="matrix(-1 0 0 1 106 119)" fill="white" stroke="#AFB4C8"/>
<rect x="106.5" y="129.5" width="2" height="28" fill="white" stroke="#AFB4C8"/>
<path d="M91.5 150.966V136.034L97.5 130.186V156.814L91.5 150.966Z" fill="white" stroke="#AFB4C8"/>
<rect x="-0.5" y="0.5" width="17" height="14" transform="matrix(-1 0 0 1 91 136)" fill="white" stroke="#AFB4C8"/>
<path d="M91.5 146.5H74.5" stroke="#AFB4C8"/>
<path d="M47 139.5L63 139.5" stroke="#AFB4C8"/>
<path d="M47 142.5L63 142.5" stroke="#AFB4C8"/>
<path d="M47 145.5L63 145.5" stroke="#AFB4C8"/>
<path d="M47 148.5H58" stroke="#AFB4C8"/>
<rect x="40.5" y="168.5" width="4" height="2" fill="white" stroke="#AFB4C8"/>
<rect x="65.5" y="168.5" width="4" height="2" fill="white" stroke="#AFB4C8"/>
<rect x="40.5" y="115.5" width="4" height="2" fill="white" stroke="#AFB4C8"/>
<rect x="22.5" y="88.5" width="8" height="4" fill="white" stroke="#AFB4C8"/>
<rect x="24.5" y="88.5" width="4" height="4" fill="white" stroke="#AFB4C8"/>
<rect x="24.5" y="86.5" width="4" height="2" fill="white" stroke="#AFB4C8"/>
<rect x="40.5" y="88.5" width="8" height="4" fill="white" stroke="#AFB4C8"/>
<rect x="42.5" y="88.5" width="4" height="4" fill="white" stroke="#AFB4C8"/>
<rect x="42.5" y="86.5" width="4" height="2" fill="white" stroke="#AFB4C8"/>
<rect x="61.5" y="88.5" width="8" height="4" fill="white" stroke="#AFB4C8"/>
<rect x="63.5" y="88.5" width="4" height="4" fill="white" stroke="#AFB4C8"/>
<rect x="51.5" y="0.5" width="8" height="4" fill="white" stroke="#AFB4C8"/>
<rect x="53.5" y="0.5" width="4" height="4" fill="white" stroke="#AFB4C8"/>
<rect x="63.5" y="86.5" width="4" height="2" fill="white" stroke="#AFB4C8"/>
<rect x="79.5" y="88.5" width="8" height="4" fill="white" stroke="#AFB4C8"/>
<rect x="81.5" y="88.5" width="4" height="4" fill="white" stroke="#AFB4C8"/>
<rect x="81.5" y="86.5" width="4" height="2" fill="white" stroke="#AFB4C8"/>
<rect x="65.5" y="115.5" width="4" height="2" fill="white" stroke="#AFB4C8"/>
<rect x="52.5" y="4.5" width="6" height="31" fill="white" stroke="#AFB4C8"/>
<path d="M45.5 44L45.5 86" stroke="#AFB4C8"/>
</svg>
