<svg width="80" height="170" viewBox="0 0 80 170" fill="none" xmlns="http://www.w3.org/2000/svg">
<rect x="24.5" y="65.5" width="31" height="34" fill="white" stroke="#AFB4C8"/>
<rect x="24.5" y="135.5" width="31" height="34" fill="white" stroke="#AFB4C8"/>
<rect x="0.5" y="-0.5" width="39" height="8" transform="matrix(1 0 0 -1 20 65)" fill="white" stroke="#AFB4C8"/>
<rect x="0.5" y="-0.5" width="39" height="8" transform="matrix(1 0 0 -1 20 65)" fill="white" stroke="#AFB4C8"/>
<rect x="0.5" y="-0.5" width="39" height="4" transform="matrix(1 0 0 -1 20 36)" fill="white" stroke="#AFB4C8"/>
<rect x="0.5" y="-0.5" width="33" height="14" transform="matrix(1 0 0 -1 23 32)" fill="white" stroke="#AFB4C8"/>
<rect x="23.5" y="16.5" width="33" height="3" fill="white" stroke="#AFB4C8"/>
<rect x="32.5" y="13.5" width="15" height="3" fill="white" stroke="#AFB4C8"/>
<rect x="0.5" y="22.5" width="23" height="4" fill="white" stroke="#AFB4C8"/>
<rect x="50.5" y="14.5" width="4" height="2" fill="white" stroke="#AFB4C8"/>
<rect x="25.5" y="14.5" width="4" height="2" fill="white" stroke="#AFB4C8"/>
<circle cx="40" cy="119" r="39.5" fill="white" stroke="#AFB4C8"/>
<path d="M55.5 74.6469C50.7331 72.9422 45.496 72 40 72C34.504 72 29.2669 72.9422 24.5 74.6469" stroke="#AFB4C8"/>
<circle cx="40" cy="119" r="23.5" fill="white" stroke="#AFB4C8"/>
<circle cx="40" cy="119" r="15.5" fill="white" stroke="#AFB4C8"/>
<circle cx="40" cy="119" r="11.5" fill="#F6F6F6" stroke="#AFB4C8"/>
<path d="M26.3532 92.9145C26.8184 91.6145 26.1416 90.1836 24.8416 89.7184C23.5416 89.2533 22.1107 89.93 21.6455 91.23C21.1804 92.53 21.8571 93.961 23.1571 94.4261C24.4571 94.8913 25.8881 94.2145 26.3532 92.9145Z" fill="white" stroke="#AFB4C8"/>
<path d="M15.1892 104.678C15.6543 103.378 14.9775 101.947 13.6775 101.481C12.3775 101.016 10.9466 101.693 10.4814 102.993C10.0163 104.293 10.6931 105.724 11.9931 106.189C13.2931 106.654 14.724 105.978 15.1892 104.678Z" fill="white" stroke="#AFB4C8"/>
<path d="M11.1892 119.678C11.6543 118.378 10.9775 116.947 9.67753 116.481C8.37752 116.016 6.94659 116.693 6.48144 117.993C6.01629 119.293 6.69308 120.724 7.99308 121.189C9.29308 121.654 10.724 120.978 11.1892 119.678Z" fill="white" stroke="#AFB4C8"/>
<path d="M53.4827 92.9145C53.0176 91.6145 53.6943 90.1836 54.9943 89.7184C56.2943 89.2533 57.7253 89.93 58.1904 91.23C58.6556 92.53 57.9788 93.961 56.6788 94.4261C55.3788 94.8913 53.9479 94.2145 53.4827 92.9145Z" fill="white" stroke="#AFB4C8"/>
<path d="M64.6468 104.678C64.1816 103.378 64.8584 101.947 66.1584 101.481C67.4584 101.016 68.8893 101.693 69.3545 102.993C69.8196 104.293 69.1429 105.724 67.8429 106.189C66.5429 106.654 65.1119 105.978 64.6468 104.678Z" fill="white" stroke="#AFB4C8"/>
<path d="M69.6468 119.678C69.1816 118.378 69.8584 116.947 71.1584 116.481C72.4584 116.016 73.8893 116.693 74.3545 117.993C74.8196 119.293 74.1429 120.724 72.8429 121.189C71.5429 121.654 70.1119 120.978 69.6468 119.678Z" fill="white" stroke="#AFB4C8"/>
<path d="M42.1892 88.6776C42.6543 87.3776 41.9775 85.9466 40.6775 85.4815C39.3775 85.0163 37.9466 85.6931 37.4814 86.9931C37.0163 88.2931 37.6931 89.724 38.9931 90.1892C40.2931 90.6543 41.724 89.9776 42.1892 88.6776Z" fill="white" stroke="#AFB4C8"/>
<path d="M53.4827 145.756C53.0176 147.056 53.6943 148.487 54.9943 148.952C56.2943 149.417 57.7253 148.741 58.1904 147.441C58.6556 146.141 57.9788 144.71 56.6788 144.245C55.3788 143.779 53.9479 144.456 53.4827 145.756Z" fill="white" stroke="#AFB4C8"/>
<path d="M64.6468 133.993C64.1816 135.293 64.8584 136.724 66.1584 137.189C67.4584 137.654 68.8893 136.978 69.3545 135.678C69.8196 134.378 69.1429 132.947 67.8429 132.481C66.5429 132.016 65.1119 132.693 64.6468 133.993Z" fill="white" stroke="#AFB4C8"/>
<path d="M26.3532 145.756C26.8184 147.056 26.1416 148.487 24.8416 148.952C23.5416 149.417 22.1107 148.741 21.6455 147.441C21.1804 146.141 21.8571 144.71 23.1571 144.245C24.4571 143.779 25.8881 144.456 26.3532 145.756Z" fill="white" stroke="#AFB4C8"/>
<path d="M15.1892 133.993C15.6543 135.293 14.9775 136.724 13.6775 137.189C12.3775 137.654 10.9466 136.978 10.4814 135.678C10.0163 134.378 10.6931 132.947 11.9931 132.481C13.2931 132.016 14.724 132.693 15.1892 133.993Z" fill="white" stroke="#AFB4C8"/>
<path d="M37.6468 149.993C37.1816 151.293 37.8584 152.724 39.1584 153.189C40.4584 153.654 41.8893 152.978 42.3545 151.678C42.8196 150.378 42.1429 148.947 40.8429 148.481C39.5429 148.016 38.1119 148.693 37.6468 149.993Z" fill="white" stroke="#AFB4C8"/>
<rect x="14.5" y="36.5" width="51" height="21" rx="3.5" fill="white" stroke="#AFB4C8"/>
<rect x="17.5" y="39.5" width="45" height="15" rx="1.5" fill="#F6F6F6" stroke="#AFB4C8"/>
<rect x="30.5" y="46.5" width="19" height="11" fill="white" stroke="#AFB4C8"/>
<rect x="30.5" y="54.5" width="19" height="3" fill="#F6F6F6" stroke="#AFB4C8"/>
<rect x="38.5" y="54.5" width="3" height="3" fill="white" stroke="#AFB4C8"/>
<rect x="22.5" y="51.5" width="5" height="3" fill="white" stroke="#AFB4C8"/>
<rect x="52.5" y="51.5" width="5" height="3" fill="white" stroke="#AFB4C8"/>
<rect x="52.5" y="51.5" width="5" height="3" fill="white" stroke="#AFB4C8"/>
<rect x="36.5" y="43.5" width="7" height="3" fill="white" stroke="#AFB4C8"/>
<rect x="38.5" y="43.5" width="3" height="3" fill="white" stroke="#AFB4C8"/>
<rect x="21.5" y="39.5" width="7" height="3" fill="white" stroke="#AFB4C8"/>
<rect x="23.5" y="39.5" width="3" height="3" fill="white" stroke="#AFB4C8"/>
<rect x="51.5" y="39.5" width="7" height="3" fill="white" stroke="#AFB4C8"/>
<rect x="53.5" y="39.5" width="3" height="3" fill="white" stroke="#AFB4C8"/>
<rect x="0.5" y="-0.5" width="19" height="3" transform="matrix(1 0 0 -1 20 32)" fill="white" stroke="#AFB4C8"/>
<rect x="0.5" y="-0.5" width="19" height="3" transform="matrix(1 0 0 -1 40 32)" fill="white" stroke="#AFB4C8"/>
<rect x="43.5" y="32.5" width="7" height="3" transform="rotate(-180 43.5 32.5)" fill="white" stroke="#AFB4C8"/>
<circle cx="29.5" cy="24.5" r="2" fill="white" stroke="#AFB4C8"/>
<circle cx="50.5" cy="24.5" r="2" fill="white" stroke="#AFB4C8"/>
</svg>
