<svg width="261" height="227" viewBox="0 0 261 227" fill="none" xmlns="http://www.w3.org/2000/svg">
<path d="M185.143 110.33C183.818 110.645 182.464 111.101 181.087 111.702C165.319 118.591 152.537 142.048 152.537 164.095C152.537 174.449 155.356 182.65 159.979 187.724" stroke="#AFB4C8" stroke-width="0.451239" stroke-miterlimit="10"/>
<path d="M167.917 211.609C151.394 211.347 139.446 194.989 139.446 169.572C139.446 138.004 157.877 104.417 180.612 94.5539C185.657 92.3656 190.489 91.5288 194.955 91.8964C198.847 92.2167 202.462 93.4517 205.696 95.5041" stroke="#AFB4C8" stroke-width="0.451239" stroke-miterlimit="10" stroke-linecap="square"/>
<path d="M145.679 206.109C132.253 202.502 123.049 187.161 123.049 164.841C123.049 133.241 141.499 99.6203 164.258 89.7469C169.762 87.3591 175.013 86.5788 179.813 87.2152" stroke="#AFB4C8" stroke-width="0.676859" stroke-miterlimit="10" stroke-linecap="round" stroke-dasharray="0.05 1.8"/>
<path d="M161.98 210.421L124.947 200.273C111.64 196.642 102.525 181.4 102.525 159.248C102.525 139.633 109.289 119.87 120.164 104.918" stroke="#AFB4C8" stroke-width="0.451239" stroke-miterlimit="10"/>
<path d="M113.831 109.375C105.51 123.401 99.8958 141.518 99.8958 158.298C100.507 171.825 104.397 183.389 110.605 190.759" stroke="#AFB4C8" stroke-width="0.676859" stroke-miterlimit="10" stroke-linecap="round" stroke-dasharray="0.05 1.8"/>
<path d="M93.7494 103.013C85.7523 116.499 80.7258 133.181 80.7258 149.312C80.7258 166.045 86.1342 178.678 94.656 185.02C94.656 185.02 96.8126 186.846 99.1616 188.216" stroke="#AFB4C8" stroke-width="0.676859" stroke-miterlimit="10" stroke-linecap="round" stroke-dasharray="0.05 1.8"/>
<path d="M83.8895 180.283C74.8271 175 68.9421 162.67 68.9421 145.878C68.9421 126.689 76.6279 106.658 87.9585 93.1491L89.7168 91.8127" stroke="#AFB4C8" stroke-width="0.676859" stroke-miterlimit="10" stroke-linecap="round" stroke-dasharray="0.05 1.8"/>
<path d="M52.0153 157.659C45.9428 153.028 42.0986 143.939 42.0986 131.936C42.0986 110.056 54.8738 86.7762 70.6325 79.9396C72.7007 79.0424 74.7174 78.4729 76.6606 78.2102" stroke="#AFB4C8" stroke-width="0.676859" stroke-miterlimit="10" stroke-linecap="round" stroke-dasharray="0.05 1.8"/>
<path d="M89.0558 80.8045L78.5014 77.9432L75.5817 77.019C72.241 76.5235 68.5724 77.0404 64.7229 78.7106C49.2015 85.4442 36.6189 108.374 36.6187 129.925C36.6187 143.453 41.577 153.223 49.1082 156.956C49.1082 156.956 55.6453 158.442 60.4412 162.338C65.2371 166.234 83.8555 180.514 86.476 182.182C90.1551 184.523 97.3377 188.067 102.122 189.016C106.906 189.965 108.942 190.07 108.942 190.07" stroke="#AFB4C8" stroke-width="0.451239" stroke-miterlimit="10"/>
<path d="M57.8324 160.722C40.1772 168.409 25.8647 154.697 25.8647 130.096C25.8647 105.494 40.1772 79.3196 57.8324 71.6328C68.1578 67.1372 77.34 69.9609 83.1843 78.0015" stroke="#AFB4C8" stroke-width="0.676859" stroke-miterlimit="10" stroke-linecap="round" stroke-dasharray="0.05 1.8"/>
<path d="M68.9437 169.869C65.1361 172.991 61.123 175.518 56.9778 177.316C32.3691 187.992 12.4197 168.948 12.4197 134.779C12.4197 100.611 32.3691 64.2574 56.978 53.5815C72.3526 46.9116 85.9084 51.842 93.917 64.8136" stroke="#AFB4C8" stroke-width="0.451239" stroke-miterlimit="10" stroke-linecap="round"/>
<path d="M35.4394 178.964L21.0273 175.186C8.95399 169.251 1 153.624 1 131.968C1 97.5415 21.1001 60.9134 45.8947 50.1566C52.6183 47.2397 58.9966 46.5248 64.7225 47.7185L79.1455 51.8197" stroke="#AFB4C8" stroke-width="0.451239" stroke-miterlimit="10"/>
<path d="M100.138 188.52C100.138 188.52 101.377 190.652 101.512 192.315" stroke="#AFB4C8" stroke-width="0.451239" stroke-miterlimit="10" stroke-linecap="round" stroke-dasharray="0.05 0.9"/>
<path d="M96.8696 187.386C96.8696 187.386 98.0056 191.864 97.6011 195.028C97.1965 198.193 107.906 206.047 122.846 206.297C137.786 206.546 143.411 205.301 143.411 205.301" stroke="#AFB4C8" stroke-width="0.451239" stroke-miterlimit="10"/>
<path d="M97.4749 190.628C97.4749 190.628 99.3546 192.37 104.074 192.876C108.794 193.383 113.973 195.598 113.973 195.598" stroke="#AFB4C8" stroke-width="0.451239" stroke-miterlimit="10"/>
<path d="M113.341 193.073C113.341 193.073 114.362 199.964 120.141 202.622C125.92 205.28 129.696 206.296 129.696 206.296" stroke="#AFB4C8" stroke-width="0.451239" stroke-miterlimit="10"/>
<path d="M135.011 203.171L134.146 206.297" stroke="#AFB4C8" stroke-width="0.451239" stroke-miterlimit="10" stroke-linecap="round" stroke-dasharray="0.05 0.9"/>
<path d="M122.846 203.635L123.898 200.086" stroke="#AFB4C8" stroke-width="0.451239" stroke-miterlimit="10" stroke-linecap="round" stroke-dasharray="0.05 0.9"/>
<path d="M146.095 206.178C146.095 206.178 134.145 209.014 124.84 208.824C115.603 208.635 108.389 205.421 108.389 205.421C108.389 205.421 107.378 203.634 105.164 202.113" stroke="#AFB4C8" stroke-width="0.451239" stroke-miterlimit="10" stroke-linejoin="round"/>
<path d="M111.992 192.415C105.424 189.835 97.6724 170.122 97.6724 156.215C97.6724 140.559 102.976 123.834 110.548 110.548" stroke="#AFB4C8" stroke-width="0.451239" stroke-miterlimit="10" stroke-linecap="square"/>
<path d="M89.1108 78.0525L89.3762 90.1035C89.3762 90.1035 90.5051 100.612 101.326 105.956C104.209 107.38 108.626 108.461 110.745 108.456C112.71 108.451 114.188 106.178 114.593 105.545C114.998 104.912 116.787 102.288 124.033 101.031C135.225 99.0897 151.835 92.7198 151.835 92.7198L166.613 86.1516L171.07 83.8058" stroke="#AFB4C8" stroke-width="0.451239" stroke-miterlimit="10"/>
<path d="M89.3764 87.0028C89.3764 87.0028 87.084 91.2427 88.7022 94.7867C90.3204 98.3306 93.6162 105.059 100.839 108.461C107.412 111.557 112.804 111.245 114.728 108.461C116.187 106.35 117.475 105.479 123.572 104.168C131.584 102.444 151.432 95.5144 154.104 94.2156C155.416 93.5777 170.378 87.4457 172.355 85.041L197.347 92.112" stroke="#AFB4C8" stroke-width="0.451239" stroke-miterlimit="10"/>
<path d="M155.381 57.7354C162.303 60.1915 166.62 63.6629 166.62 67.5112C166.62 74.9559 150.466 80.9909 130.539 80.9909C110.613 80.9909 94.459 74.9559 94.459 67.5112C94.459 63.6299 98.8497 60.1319 105.877 57.6724" stroke="#AFB4C8" stroke-width="0.451239" stroke-miterlimit="10" stroke-linecap="round"/>
<path d="M94.2561 66.1824V75.0737C94.2561 82.6406 110.476 88.7747 130.483 88.7747C149.619 88.7747 165.289 83.1638 166.619 76.0548V66.9418" stroke="#AFB4C8" stroke-width="0.451239" stroke-miterlimit="10" stroke-linecap="round"/>
<path d="M166.621 71.6675C168.916 73.4238 170.193 75.373 170.193 77.4251C170.193 85.1615 152.043 91.4331 129.652 91.4331C107.262 91.4331 89.1108 85.1615 89.1108 77.4251C89.1108 75.0468 90.8261 72.8071 93.8525 70.8452" stroke="#AFB4C8" stroke-width="0.451239" stroke-miterlimit="10" stroke-linecap="round"/>
<path d="M105.877 50.6145V65.0244C104.55 66.0124 104.221 67.0987 104.221 68.239C104.221 72.8 115.961 76.4975 130.443 76.4975C144.925 76.4975 156.665 72.8 156.665 68.239C156.665 67.0987 156.335 66.0124 155.008 65.0244V52.1333" stroke="#AFB4C8" stroke-width="0.451239" stroke-miterlimit="10" stroke-linecap="round"/>
<path d="M154.777 65.9626C154.777 70.2081 143.85 73.6497 130.37 73.6497C116.89 73.6497 105.962 70.2081 105.962 65.9626" stroke="#AFB4C8" stroke-width="0.676859" stroke-miterlimit="10" stroke-linecap="round" stroke-dasharray="0.05 1.8"/>
<path d="M138.461 7.56554C155.159 8.71698 167.764 13.9248 167.764 20.1751C167.764 27.27 151.522 33.0218 131.487 33.0218C111.452 33.0218 95.21 27.2702 95.21 20.1751C95.21 13.9191 107.837 8.70768 124.559 7.5625" stroke="#AFB4C8" stroke-width="0.451239" stroke-miterlimit="10"/>
<path d="M167.764 27.0098C167.764 34.1047 151.522 39.8565 131.487 39.8565C111.452 39.8565 95.21 34.1049 95.21 27.0098" stroke="#AFB4C8" stroke-width="0.676859" stroke-miterlimit="10" stroke-linecap="round" stroke-dasharray="0.05 1.8"/>
<path d="M167.764 37.8313C167.764 44.9262 151.522 50.678 131.487 50.678C111.452 50.678 95.21 44.9264 95.21 37.8313" stroke="#AFB4C8" stroke-width="0.676859" stroke-miterlimit="10" stroke-linecap="round" stroke-dasharray="0.05 1.8"/>
<path d="M95.21 20.175V39.7297C95.21 46.8247 111.452 52.5764 131.487 52.5764C151.522 52.5764 167.764 46.8249 167.764 39.7297V20.175" stroke="#AFB4C8" stroke-width="0.451239" stroke-miterlimit="10"/>
<path d="M130.684 57.1028C139.816 57.1028 149.545 55.4127 154.304 52.2604C157.345 50.2462 160.118 48.4301 161.216 47.2119" stroke="#AFB4C8" stroke-width="0.451239" stroke-miterlimit="10" stroke-linecap="round"/>
<path d="M132.168 57.1028C123.036 57.1028 113.307 55.4127 108.548 52.2604C105.507 50.2462 102.499 48.1954 101.4 46.9773" stroke="#AFB4C8" stroke-width="0.451239" stroke-miterlimit="10" stroke-linecap="round"/>
<path d="M130.761 59.3809C138.71 59.3809 147.177 57.6135 151.32 55.1926C152.756 54.353 153.944 53.5051 154.882 52.7556" stroke="#AFB4C8" stroke-width="0.451239" stroke-miterlimit="10" stroke-linecap="round"/>
<path d="M132.053 59.3808C124.104 59.3808 115.637 58.0826 111.494 55.6616C108.848 54.1147 107.046 52.5395 106.09 51.6038" stroke="#AFB4C8" stroke-width="0.451239" stroke-miterlimit="10" stroke-linecap="round"/>
<path d="M138.676 11.7857C148.367 12.895 155.384 16.1468 155.384 19.9852C155.384 24.7385 144.624 28.5917 131.35 28.5917C118.077 28.5917 107.316 24.7385 107.316 19.9852C107.316 16.0773 114.589 12.7779 124.552 11.7278" stroke="#AFB4C8" stroke-width="0.451239" stroke-miterlimit="10" stroke-linecap="round"/>
<path d="M124.416 17.6917C122.641 18.3273 121.544 19.2053 121.544 20.1751C121.544 22.1148 125.935 23.6872 131.351 23.6872C136.767 23.6872 141.158 22.1148 141.158 20.1751C141.158 19.3021 140.269 18.5036 138.797 17.8893" stroke="#AFB4C8" stroke-width="0.451239" stroke-miterlimit="10" stroke-linecap="round"/>
<path d="M127.941 6.25247V22.5797L124.705 19.5421V3.21484L127.941 6.25247Z" stroke="#AFB4C8" stroke-width="0.451239" stroke-miterlimit="10"/>
<path d="M129.081 22.7697L137.854 21.8204V5.49316L129.157 6.44242V22.7697H127.943" stroke="#AFB4C8" stroke-width="0.451239" stroke-miterlimit="10" stroke-linecap="round" stroke-dasharray="0.05 0.9"/>
<path d="M124.705 3.21481L125.919 1.94926L134.751 1L137.853 4.22748L138.662 4.92347V21.2507L137.853 21.8203" stroke="#AFB4C8" stroke-width="0.451239" stroke-miterlimit="10"/>
<mask id="mask0" mask-type="alpha" maskUnits="userSpaceOnUse" x="15" y="53" width="82" height="125">
<path fill-rule="evenodd" clip-rule="evenodd" d="M66.8807 65.5145C69.17 64.5061 71.0261 61.0718 71.0261 57.844C71.0261 54.6164 69.1702 52.8172 66.8807 53.8256C64.5914 54.834 62.7353 58.2683 62.7353 61.4961C62.7353 64.7239 64.5914 66.5229 66.8807 65.5145ZM52.0435 66.2634C52.0435 69.4912 50.1875 72.9255 47.8982 73.9339C45.6089 74.9423 43.7528 73.1433 43.7528 69.9155C43.7528 66.6877 45.6089 63.2535 47.8982 62.2451C50.1877 61.2367 52.0435 63.0356 52.0435 66.2634ZM34.7762 87.5652C34.7762 90.793 32.9202 94.2271 30.6309 95.2357C28.3415 96.2443 26.4855 94.4451 26.4855 91.2173C26.4855 87.9895 28.3415 84.5554 30.6309 83.5468C32.9202 82.5382 34.7762 84.3374 34.7762 87.5652ZM88.0142 64.1616C88.0142 67.3894 86.1581 70.8236 83.8688 71.832C81.5793 72.8406 79.7234 71.0415 79.7234 67.8136C79.7234 64.5858 81.5795 61.1516 83.8688 60.1432C86.1581 59.1348 88.0142 60.9338 88.0142 64.1616ZM92.486 119.407C94.7754 118.398 96.6315 114.964 96.6315 111.737C96.6315 108.509 94.7754 106.71 92.486 107.718C90.1967 108.727 88.3406 112.161 88.3406 115.389C88.3406 118.616 90.1967 120.416 92.486 119.407ZM86.2488 139.765C86.2488 142.993 84.3927 146.427 82.1034 147.435C79.8139 148.444 77.958 146.645 77.958 143.417C77.958 140.189 79.8141 136.755 82.1034 135.746C84.3927 134.738 86.2488 136.537 86.2488 139.765ZM65.0979 168.756C67.3872 167.747 69.2433 164.313 69.2433 161.085C69.2433 157.857 67.3875 156.058 65.0979 157.067C62.8086 158.076 60.9525 161.51 60.9525 164.738C60.9525 167.965 62.8086 169.764 65.0979 168.756ZM50.0024 169.4C50.0024 172.628 48.1464 176.062 45.8571 177.07C43.5677 178.079 41.7117 176.28 41.7117 173.052C41.7117 169.824 43.5677 166.39 45.8571 165.382C48.1464 164.373 50.0024 166.172 50.0024 169.4ZM29.6632 170.946C31.9525 169.937 33.8086 166.503 33.8086 163.275C33.8086 160.048 31.9525 158.248 29.6632 159.257C27.3739 160.266 25.5178 163.7 25.5178 166.927C25.5178 170.155 27.3739 171.954 29.6632 170.946ZM24.3018 143.837C24.3018 147.064 22.4457 150.498 20.1564 151.507C17.8671 152.516 16.011 150.716 16.011 147.489C16.011 144.261 17.8671 140.827 20.1564 139.818C22.4457 138.81 24.3018 140.609 24.3018 143.837ZM21.105 123.777C23.3943 122.768 25.2504 119.334 25.2504 116.106C25.2506 112.878 23.3945 111.079 21.105 112.088C18.8157 113.096 16.9596 116.53 16.9596 119.758C16.9596 122.986 18.8154 124.785 21.105 123.777Z" fill="#CED2DC"/>
<path d="M66.8807 53.8256L66.7897 53.6191L66.7897 53.6191L66.8807 53.8256ZM47.8982 73.9339L47.9891 74.1404L47.8982 73.9339ZM47.8982 62.2451L47.8072 62.0386L47.8072 62.0386L47.8982 62.2451ZM30.6309 83.5468L30.7218 83.7533L30.6309 83.5468ZM83.8688 71.832L83.7779 71.6255L83.7778 71.6255L83.8688 71.832ZM83.8688 60.1432L83.9598 60.3497L83.8688 60.1432ZM92.486 119.407L92.577 119.613L92.486 119.407ZM92.486 107.718L92.3951 107.512L92.486 107.718ZM82.1034 147.435L82.1944 147.642L82.1944 147.642L82.1034 147.435ZM82.1034 135.746L82.1944 135.953L82.1034 135.746ZM65.0979 157.067L65.1889 157.273H65.1889L65.0979 157.067ZM45.8571 165.382L45.7661 165.175L45.8571 165.382ZM29.6632 159.257L29.5722 159.051H29.5722L29.6632 159.257ZM20.1564 151.507L20.2474 151.714H20.2474L20.1564 151.507ZM20.1564 139.818L20.2474 140.025H20.2474L20.1564 139.818ZM25.2504 116.106L25.0247 116.106V116.106H25.2504ZM21.105 123.777L21.1959 123.983L21.1959 123.983L21.105 123.777ZM21.105 112.088L21.014 111.881L21.014 111.881L21.105 112.088ZM70.8005 57.844C70.8005 59.417 70.3475 61.0459 69.6134 62.4042C68.8775 63.7659 67.873 64.8308 66.7897 65.308L66.9716 65.7209C68.1777 65.1897 69.2459 64.0332 70.0104 62.6188C70.7767 61.2009 71.2517 59.4988 71.2517 57.844H70.8005ZM66.9716 54.0321C68.0401 53.5615 68.9765 53.7507 69.6549 54.4083C70.3467 55.0788 70.8005 56.2674 70.8005 57.844H71.2517C71.2517 56.193 70.7776 54.8681 69.969 54.0843C69.1471 53.2875 68.0108 53.0813 66.7897 53.6191L66.9716 54.0321ZM62.9609 61.4961C62.9609 59.9231 63.4139 58.2941 64.148 56.9358C64.8839 55.5741 65.8884 54.5093 66.9716 54.0321L66.7897 53.6191C65.5837 54.1504 64.5154 55.3068 63.751 56.7213C62.9847 58.1392 62.5097 59.8413 62.5097 61.4961H62.9609ZM66.7897 65.308C65.7214 65.7786 64.7849 65.5894 64.1065 64.9318C63.4148 64.2613 62.9609 63.0728 62.9609 61.4961H62.5097C62.5097 63.1472 62.9838 64.472 63.7924 65.2558C64.6144 66.0526 65.7507 66.2587 66.9716 65.7209L66.7897 65.308ZM47.9891 74.1404C49.1952 73.6091 50.2634 72.4527 51.0278 71.0382C51.7941 69.6203 52.2691 67.9182 52.2691 66.2634H51.8179C51.8179 67.8364 51.3649 69.4654 50.6309 70.8237C49.895 72.1854 48.8905 73.2502 47.8072 73.7274L47.9891 74.1404ZM43.5272 69.9155C43.5272 71.5666 44.0014 72.8915 44.81 73.6753C45.6319 74.472 46.7682 74.6782 47.9891 74.1404L47.8072 73.7274C46.7389 74.198 45.8025 74.0089 45.1241 73.3513C44.4323 72.6807 43.9785 71.4922 43.9785 69.9155H43.5272ZM47.8072 62.0386C46.6012 62.5698 45.533 63.7263 44.7685 65.1407C44.0023 66.5586 43.5272 68.2607 43.5272 69.9155H43.9785C43.9785 68.3425 44.4314 66.7136 45.1655 65.3553C45.9014 63.9936 46.9059 62.9287 47.9891 62.4515L47.8072 62.0386ZM52.2691 66.2634C52.2691 64.6123 51.795 63.2875 50.9865 62.5037C50.1645 61.7069 49.0283 61.5008 47.8072 62.0386L47.9891 62.4515C49.0576 61.9809 49.994 62.1701 50.6724 62.8277C51.3641 63.4982 51.8179 64.6867 51.8179 66.2634H52.2691ZM30.7218 95.4421C31.9279 94.9108 32.9961 93.7544 33.7605 92.3399C34.5268 90.922 35.0019 89.22 35.0019 87.5652H34.5506C34.5506 89.1382 34.0976 90.7671 33.3636 92.1254C32.6276 93.487 31.6232 94.5519 30.5399 95.0292L30.7218 95.4421ZM26.2599 91.2173C26.2599 92.8684 26.734 94.1933 27.5427 94.9771C28.3646 95.7739 29.5009 95.98 30.7218 95.4421L30.5399 95.0292C29.4715 95.4999 28.5351 95.3107 27.8567 94.6531C27.165 93.9826 26.7111 92.794 26.7111 91.2173H26.2599ZM30.5399 83.3404C29.3339 83.8717 28.2656 85.0281 27.5012 86.4426C26.7349 87.8604 26.2599 89.5625 26.2599 91.2173H26.7111C26.7111 89.6443 27.1641 88.0154 27.8982 86.6571C28.6341 85.2954 29.6386 84.2305 30.7218 83.7533L30.5399 83.3404ZM35.0019 87.5652C35.0019 85.9141 34.5277 84.5892 33.7191 83.8054C32.8971 83.0086 31.7609 82.8024 30.5399 83.3404L30.7218 83.7533C31.7902 83.2826 32.7266 83.4717 33.405 84.1294C34.0968 84.7999 34.5506 85.9885 34.5506 87.5652H35.0019ZM83.9598 72.0385C85.1658 71.5073 86.234 70.3508 86.9985 68.9363C87.7648 67.5185 88.2398 65.8163 88.2398 64.1616H87.7886C87.7886 65.7346 87.3356 67.3635 86.6015 68.7218C85.8656 70.0835 84.8611 71.1484 83.7779 71.6255L83.9598 72.0385ZM79.4978 67.8136C79.4978 69.4648 79.9719 70.7896 80.7805 71.5735C81.6024 72.3703 82.7387 72.5764 83.9598 72.0385L83.7778 71.6255C82.7094 72.0962 81.7729 71.9071 81.0946 71.2495C80.4028 70.5789 79.949 69.3903 79.949 67.8136H79.4978ZM83.7779 59.9367C82.5718 60.468 81.5036 61.6244 80.7391 63.0389C79.9728 64.4568 79.4978 66.1589 79.4978 67.8136H79.949C79.949 66.2406 80.402 64.6117 81.1361 63.2534C81.872 61.8917 82.8765 60.8268 83.9598 60.3497L83.7779 59.9367ZM88.2398 64.1616C88.2398 62.5105 87.7656 61.1856 86.957 60.4018C86.1351 59.6051 84.9988 59.3989 83.7779 59.9367L83.9598 60.3497C85.0281 59.8791 85.9645 60.0682 86.643 60.7258C87.3347 61.3963 87.7886 62.5849 87.7886 64.1616H88.2398ZM96.4059 111.737C96.4059 113.31 95.9529 114.938 95.2188 116.297C94.4829 117.658 93.4784 118.723 92.3951 119.2L92.577 119.613C93.7831 119.082 94.8513 117.926 95.6158 116.511C96.382 115.093 96.8571 113.391 96.8571 111.737H96.4059ZM92.577 107.925C93.6454 107.454 94.5818 107.643 95.2602 108.301C95.952 108.971 96.4059 110.16 96.4059 111.737H96.8571C96.8571 110.085 96.3829 108.761 95.5743 107.977C94.7523 107.18 93.6161 106.974 92.3951 107.512L92.577 107.925ZM88.5662 115.389C88.5662 113.816 89.0192 112.187 89.7533 110.828C90.4892 109.467 91.4937 108.402 92.577 107.925L92.3951 107.512C91.189 108.043 90.1208 109.199 89.3563 110.614C88.59 112.032 88.115 113.734 88.115 115.389H88.5662ZM92.3951 119.2C91.3267 119.671 90.3903 119.482 89.7119 118.824C89.0201 118.154 88.5662 116.965 88.5662 115.389H88.115C88.115 117.04 88.5892 118.365 89.3978 119.148C90.2197 119.945 91.356 120.151 92.577 119.613L92.3951 119.2ZM82.1944 147.642C83.4004 147.11 84.4686 145.954 85.2331 144.539C85.9994 143.122 86.4744 141.419 86.4744 139.765H86.0232C86.0232 141.338 85.5702 142.967 84.8361 144.325C84.1002 145.687 83.0957 146.751 82.0124 147.229L82.1944 147.642ZM77.7324 143.417C77.7324 145.068 78.2065 146.393 79.0151 147.177C79.837 147.973 80.9733 148.18 82.1944 147.642L82.0124 147.229C80.944 147.699 80.0075 147.51 79.3292 146.853C78.6374 146.182 78.1836 144.993 78.1836 143.417H77.7324ZM82.0124 135.54C80.8064 136.071 79.7382 137.228 78.9737 138.642C78.2074 140.06 77.7324 141.762 77.7324 143.417H78.1836C78.1836 141.844 78.6366 140.215 79.3707 138.857C80.1066 137.495 81.1111 136.43 82.1944 135.953L82.0124 135.54ZM86.4744 139.765C86.4744 138.114 86.0002 136.789 85.1916 136.005C84.3697 135.208 83.2334 135.002 82.0124 135.54L82.1944 135.953C83.2627 135.482 84.1991 135.671 84.8776 136.329C85.5693 136.999 86.0232 138.188 86.0232 139.765H86.4744ZM69.0177 161.085C69.0177 162.658 68.5647 164.287 67.8306 165.645C67.0947 167.007 66.0902 168.072 65.007 168.549L65.1889 168.962C66.3949 168.431 67.4631 167.274 68.2276 165.86C68.9939 164.442 69.4689 162.74 69.4689 161.085H69.0177ZM65.1889 157.273C66.2574 156.803 67.1938 156.992 67.8721 157.649C68.5639 158.32 69.0177 159.509 69.0177 161.085H69.4689C69.4689 159.434 68.9948 158.109 68.1862 157.325C67.3643 156.529 66.228 156.323 65.0069 156.861L65.1889 157.273ZM61.1782 164.738C61.1782 163.164 61.6311 161.536 62.3652 160.177C63.1011 158.816 64.1056 157.751 65.1889 157.273L65.007 156.861C63.8009 157.392 62.7327 158.548 61.9682 159.963C61.202 161.381 60.7269 163.083 60.7269 164.738H61.1782ZM65.007 168.549C63.9386 169.02 63.0022 168.831 62.3238 168.173C61.632 167.503 61.1782 166.314 61.1782 164.738H60.7269C60.7269 166.389 61.2011 167.713 62.0097 168.497C62.8316 169.294 63.9679 169.5 65.1889 168.962L65.007 168.549ZM45.948 177.277C47.1541 176.746 48.2223 175.589 48.9867 174.175C49.753 172.757 50.2281 171.055 50.2281 169.4H49.7768C49.7768 170.973 49.3238 172.602 48.5898 173.96C47.8538 175.322 46.8494 176.387 45.7661 176.864L45.948 177.277ZM41.4861 173.052C41.4861 174.703 41.9602 176.028 42.7688 176.812C43.5908 177.609 44.7271 177.815 45.948 177.277L45.7661 176.864C44.6977 177.335 43.7613 177.145 43.0829 176.488C42.3912 175.817 41.9373 174.629 41.9373 173.052H41.4861ZM45.7661 165.175C44.5601 165.707 43.4918 166.863 42.7274 168.277C41.9611 169.695 41.4861 171.397 41.4861 173.052H41.9373C41.9373 171.479 42.3903 169.85 43.1244 168.492C43.8603 167.13 44.8648 166.065 45.948 165.588L45.7661 165.175ZM50.2281 169.4C50.2281 167.749 49.7539 166.424 48.9453 165.64C48.1233 164.844 46.9871 164.637 45.7661 165.175L45.948 165.588C47.0164 165.118 47.9528 165.307 48.6312 165.964C49.323 166.635 49.7768 167.823 49.7768 169.4H50.2281ZM33.5829 163.275C33.5829 164.848 33.13 166.477 32.3959 167.836C31.66 169.197 30.6555 170.262 29.5722 170.739L29.7541 171.152C30.9602 170.621 32.0284 169.465 32.7929 168.05C33.5591 166.632 34.0342 164.93 34.0342 163.275H33.5829ZM29.7541 159.463C30.8225 158.993 31.7589 159.182 32.4373 159.84C33.1291 160.51 33.5829 161.699 33.5829 163.275H34.0342C34.0342 161.624 33.56 160.299 32.7514 159.516C31.9295 158.719 30.7932 158.513 29.5722 159.051L29.7541 159.463ZM25.7434 166.927C25.7434 165.354 26.1964 163.726 26.9305 162.367C27.6664 161.006 28.6709 159.941 29.7542 159.463L29.5722 159.051C28.3662 159.582 27.298 160.738 26.5335 162.153C25.7672 163.571 25.2922 165.273 25.2922 166.927H25.7434ZM29.5722 170.739C28.5039 171.21 27.5674 171.021 26.889 170.363C26.1973 169.693 25.7434 168.504 25.7434 166.927H25.2922C25.2922 168.579 25.7664 169.903 26.575 170.687C27.3969 171.484 28.5332 171.69 29.7541 171.152L29.5722 170.739ZM20.2474 151.714C21.4534 151.182 22.5216 150.026 23.2861 148.611C24.0524 147.193 24.5274 145.491 24.5274 143.837H24.0762C24.0762 145.41 23.6232 147.038 22.8891 148.397C22.1532 149.758 21.1487 150.823 20.0654 151.301L20.2474 151.714ZM15.7854 147.489C15.7854 149.14 16.2595 150.465 17.0682 151.249C17.8901 152.045 19.0264 152.251 20.2474 151.714L20.0654 151.301C18.9971 151.771 18.0606 151.582 17.3822 150.925C16.6905 150.254 16.2366 149.065 16.2366 147.489H15.7854ZM20.0654 139.612C18.8594 140.143 17.7911 141.3 17.0267 142.714C16.2604 144.132 15.7854 145.834 15.7854 147.489H16.2366C16.2366 145.916 16.6896 144.287 17.4237 142.929C18.1596 141.567 19.1641 140.502 20.2474 140.025L20.0654 139.612ZM24.5274 143.837C24.5274 142.185 24.0532 140.861 23.2446 140.077C22.4227 139.28 21.2864 139.074 20.0654 139.612L20.2474 140.025C21.3157 139.554 22.2521 139.743 22.9306 140.401C23.6223 141.071 24.0762 142.26 24.0762 143.837H24.5274ZM25.0247 116.106C25.0247 117.679 24.5718 119.308 23.8377 120.666C23.1018 122.028 22.0973 123.093 21.014 123.57L21.1959 123.983C22.402 123.452 23.4702 122.295 24.2347 120.881C25.0009 119.463 25.476 117.761 25.476 116.106H25.0247ZM21.1959 112.294C22.2644 111.824 23.2009 112.013 23.8793 112.67C24.571 113.341 25.0248 114.529 25.0247 116.106L25.476 116.106C25.4761 114.455 25.002 113.13 24.1934 112.346C23.3714 111.55 22.2351 111.343 21.014 111.881L21.1959 112.294ZM17.1852 119.758C17.1852 118.185 17.6382 116.556 18.3723 115.198C19.1082 113.836 20.1127 112.772 21.1959 112.294L21.014 111.881C19.808 112.413 18.7397 113.569 17.9753 114.984C17.209 116.401 16.734 118.103 16.734 119.758H17.1852ZM21.014 123.57C19.9455 124.041 19.0091 123.852 18.3307 123.194C17.639 122.524 17.1852 121.335 17.1852 119.758H16.734C16.734 121.409 17.2081 122.734 18.0167 123.518C18.8386 124.315 19.9749 124.521 21.1959 123.983L21.014 123.57Z" fill="#CED2DC"/>
</mask>
<g mask="url(#mask0)">
<path d="M33.8384 87.089C33.8384 90.3168 31.9823 93.7508 29.693 94.7594C27.4037 95.768 25.5476 93.9689 25.5476 90.7411C25.5476 87.5132 27.4037 84.0792 29.693 83.0706C31.9823 82.062 33.8384 83.8611 33.8384 87.089Z" stroke="#AFB4C8" stroke-width="0.270744" stroke-miterlimit="10"/>
<path d="M51.1056 65.7871C51.1056 69.0149 49.2496 72.4492 46.9603 73.4576C44.671 74.466 42.8149 72.667 42.8149 69.4392C42.8149 66.2114 44.671 62.7772 46.9603 61.7688C49.2498 60.7604 51.1056 62.5593 51.1056 65.7871Z" stroke="#AFB4C8" stroke-width="0.270744" stroke-miterlimit="10"/>
<path d="M70.0882 57.3677C70.0882 60.5955 68.2321 64.0297 65.9428 65.0381C63.6534 66.0465 61.7974 64.2476 61.7974 61.0198C61.7974 57.792 63.6534 54.3577 65.9428 53.3493C68.2323 52.3409 70.0882 54.1401 70.0882 57.3677Z" stroke="#AFB4C8" stroke-width="0.270744" stroke-miterlimit="10"/>
<path d="M87.0762 63.6853C87.0762 66.9131 85.2201 70.3474 82.9308 71.3558C80.6413 72.3644 78.7854 70.5652 78.7854 67.3374C78.7854 64.1096 80.6415 60.6753 82.9308 59.6669C85.2201 58.6585 87.0762 60.4575 87.0762 63.6853Z" stroke="#AFB4C8" stroke-width="0.270744" stroke-miterlimit="10"/>
<path d="M49.0644 168.924C49.0644 172.151 47.2084 175.586 44.9191 176.594C42.6297 177.603 40.7737 175.804 40.7737 172.576C40.7737 169.348 42.6297 165.914 44.9191 164.905C47.2084 163.897 49.0644 165.696 49.0644 168.924Z" stroke="#AFB4C8" stroke-width="0.270744" stroke-miterlimit="10"/>
<path d="M32.8706 162.799C32.8706 166.027 31.0145 169.461 28.7252 170.469C26.4359 171.478 24.5798 169.679 24.5798 166.451C24.5798 163.223 26.4359 159.789 28.7252 158.781C31.0145 157.772 32.8706 159.571 32.8706 162.799Z" stroke="#AFB4C8" stroke-width="0.270744" stroke-miterlimit="10"/>
<path d="M23.3638 143.36C23.3638 146.588 21.5077 150.022 19.2184 151.031C16.9291 152.039 15.073 150.24 15.073 147.012C15.073 143.784 16.9291 140.35 19.2184 139.342C21.5077 138.333 23.3638 140.132 23.3638 143.36Z" stroke="#AFB4C8" stroke-width="0.270744" stroke-miterlimit="10"/>
<path d="M24.3123 115.63C24.3123 118.858 22.4562 122.292 20.1669 123.3C17.8773 124.309 16.0215 122.51 16.0215 119.282C16.0215 116.054 17.8775 112.62 20.1669 111.611C22.4564 110.603 24.3125 112.402 24.3123 115.63Z" stroke="#AFB4C8" stroke-width="0.270744" stroke-miterlimit="10"/>
</g>
<path d="M66.8807 53.8256L66.7897 53.6191L66.7897 53.6191L66.8807 53.8256ZM47.8982 73.9339L47.9891 74.1404L47.8982 73.9339ZM47.8982 62.2451L47.8072 62.0386L47.8072 62.0386L47.8982 62.2451ZM30.6309 83.5468L30.7218 83.7533L30.6309 83.5468ZM83.8688 71.832L83.7779 71.6255L83.7778 71.6255L83.8688 71.832ZM83.8688 60.1432L83.9598 60.3497L83.8688 60.1432ZM45.8571 165.382L45.7661 165.175L45.8571 165.382ZM29.6632 159.257L29.5722 159.051H29.5722L29.6632 159.257ZM20.1564 151.507L20.2474 151.714H20.2474L20.1564 151.507ZM20.1564 139.818L20.2474 140.025H20.2474L20.1564 139.818ZM25.2504 116.106L25.0247 116.106V116.106H25.2504ZM21.105 123.777L21.1959 123.983L21.1959 123.983L21.105 123.777ZM21.105 112.088L21.014 111.881L21.014 111.881L21.105 112.088ZM65.0979 168.756L65.1889 168.962L65.0979 168.756ZM70.8005 57.844C70.8005 59.417 70.3475 61.0459 69.6134 62.4042C68.8775 63.7659 67.873 64.8308 66.7897 65.308L66.9716 65.7209C68.1777 65.1897 69.2459 64.0332 70.0104 62.6188C70.7767 61.2009 71.2517 59.4988 71.2517 57.844H70.8005ZM66.9716 54.0321C68.0401 53.5615 68.9765 53.7507 69.6549 54.4083C70.3467 55.0788 70.8005 56.2674 70.8005 57.844H71.2517C71.2517 56.193 70.7776 54.8681 69.969 54.0843C69.1471 53.2875 68.0108 53.0813 66.7897 53.6191L66.9716 54.0321ZM62.9609 61.4961C62.9609 59.9231 63.4139 58.2941 64.148 56.9358C64.8839 55.5741 65.8884 54.5093 66.9716 54.0321L66.7897 53.6191C65.5837 54.1504 64.5154 55.3068 63.751 56.7213C62.9847 58.1392 62.5097 59.8413 62.5097 61.4961H62.9609ZM66.7897 65.308C65.7214 65.7786 64.7849 65.5894 64.1065 64.9318C63.4148 64.2613 62.9609 63.0728 62.9609 61.4961H62.5097C62.5097 63.1472 62.9838 64.472 63.7924 65.2558C64.6144 66.0526 65.7507 66.2587 66.9716 65.7209L66.7897 65.308ZM47.9891 74.1404C49.1952 73.6091 50.2634 72.4527 51.0278 71.0382C51.7941 69.6203 52.2691 67.9182 52.2691 66.2634H51.8179C51.8179 67.8364 51.3649 69.4654 50.6309 70.8237C49.895 72.1854 48.8905 73.2502 47.8072 73.7274L47.9891 74.1404ZM43.5272 69.9155C43.5272 71.5666 44.0014 72.8915 44.81 73.6753C45.6319 74.472 46.7682 74.6782 47.9891 74.1404L47.8072 73.7274C46.7389 74.198 45.8025 74.0089 45.1241 73.3513C44.4323 72.6807 43.9785 71.4922 43.9785 69.9155H43.5272ZM47.8072 62.0386C46.6012 62.5698 45.533 63.7263 44.7685 65.1407C44.0023 66.5586 43.5272 68.2607 43.5272 69.9155H43.9785C43.9785 68.3425 44.4314 66.7136 45.1655 65.3553C45.9014 63.9936 46.9059 62.9287 47.9891 62.4515L47.8072 62.0386ZM52.2691 66.2634C52.2691 64.6123 51.795 63.2875 50.9865 62.5037C50.1645 61.7069 49.0283 61.5008 47.8072 62.0386L47.9891 62.4515C49.0576 61.9809 49.994 62.1701 50.6724 62.8277C51.3641 63.4982 51.8179 64.6867 51.8179 66.2634H52.2691ZM30.7218 95.4421C31.9279 94.9108 32.9961 93.7544 33.7605 92.3399C34.5268 90.922 35.0019 89.22 35.0019 87.5652H34.5506C34.5506 89.1382 34.0976 90.7671 33.3636 92.1254C32.6276 93.487 31.6232 94.5519 30.5399 95.0292L30.7218 95.4421ZM26.2599 91.2173C26.2599 92.8684 26.734 94.1933 27.5427 94.9771C28.3646 95.7739 29.5009 95.98 30.7218 95.4421L30.5399 95.0292C29.4715 95.4999 28.5351 95.3107 27.8567 94.6531C27.165 93.9826 26.7111 92.794 26.7111 91.2173H26.2599ZM30.5399 83.3404C29.3339 83.8717 28.2656 85.0281 27.5012 86.4426C26.7349 87.8604 26.2599 89.5625 26.2599 91.2173H26.7111C26.7111 89.6443 27.1641 88.0154 27.8982 86.6571C28.6341 85.2954 29.6386 84.2305 30.7218 83.7533L30.5399 83.3404ZM35.0019 87.5652C35.0019 85.9141 34.5277 84.5892 33.7191 83.8054C32.8971 83.0086 31.7609 82.8024 30.5399 83.3404L30.7218 83.7533C31.7902 83.2826 32.7266 83.4717 33.405 84.1294C34.0968 84.7999 34.5506 85.9885 34.5506 87.5652H35.0019ZM83.9598 72.0385C85.1658 71.5073 86.234 70.3508 86.9985 68.9363C87.7648 67.5185 88.2398 65.8163 88.2398 64.1616H87.7886C87.7886 65.7346 87.3356 67.3635 86.6015 68.7218C85.8656 70.0835 84.8611 71.1484 83.7779 71.6255L83.9598 72.0385ZM79.4978 67.8136C79.4978 69.4648 79.9719 70.7896 80.7805 71.5735C81.6024 72.3703 82.7387 72.5764 83.9598 72.0385L83.7778 71.6255C82.7094 72.0962 81.7729 71.9071 81.0946 71.2495C80.4028 70.5789 79.949 69.3903 79.949 67.8136H79.4978ZM83.7779 59.9367C82.5718 60.468 81.5036 61.6244 80.7391 63.0389C79.9728 64.4568 79.4978 66.1589 79.4978 67.8136H79.949C79.949 66.2406 80.402 64.6117 81.1361 63.2534C81.872 61.8917 82.8765 60.8268 83.9598 60.3497L83.7779 59.9367ZM88.2398 64.1616C88.2398 62.5105 87.7656 61.1856 86.957 60.4018C86.1351 59.6051 84.9988 59.3989 83.7779 59.9367L83.9598 60.3497C85.0281 59.8791 85.9645 60.0682 86.643 60.7258C87.3347 61.3963 87.7886 62.5849 87.7886 64.1616H88.2398ZM45.948 177.277C47.1541 176.746 48.2223 175.589 48.9867 174.175C49.753 172.757 50.2281 171.055 50.2281 169.4H49.7768C49.7768 170.973 49.3238 172.602 48.5898 173.96C47.8538 175.322 46.8494 176.387 45.7661 176.864L45.948 177.277ZM41.4861 173.052C41.4861 174.703 41.9602 176.028 42.7688 176.812C43.5908 177.609 44.7271 177.815 45.948 177.277L45.7661 176.864C44.6977 177.335 43.7613 177.145 43.0829 176.488C42.3912 175.817 41.9373 174.629 41.9373 173.052H41.4861ZM45.7661 165.175C44.5601 165.707 43.4918 166.863 42.7274 168.277C41.9611 169.695 41.4861 171.397 41.4861 173.052H41.9373C41.9373 171.479 42.3903 169.85 43.1244 168.492C43.8603 167.13 44.8648 166.065 45.948 165.588L45.7661 165.175ZM50.2281 169.4C50.2281 167.749 49.7539 166.424 48.9453 165.64C48.1233 164.844 46.9871 164.637 45.7661 165.175L45.948 165.588C47.0164 165.118 47.9528 165.307 48.6312 165.964C49.323 166.635 49.7768 167.823 49.7768 169.4H50.2281ZM33.5829 163.275C33.5829 164.848 33.13 166.477 32.3959 167.836C31.66 169.197 30.6555 170.262 29.5722 170.739L29.7541 171.152C30.9602 170.621 32.0284 169.465 32.7929 168.05C33.5591 166.632 34.0342 164.93 34.0342 163.275H33.5829ZM29.7541 159.463C30.8225 158.993 31.7589 159.182 32.4373 159.84C33.1291 160.51 33.5829 161.699 33.5829 163.275H34.0342C34.0342 161.624 33.56 160.299 32.7514 159.516C31.9295 158.719 30.7932 158.513 29.5722 159.051L29.7541 159.463ZM25.7434 166.927C25.7434 165.354 26.1964 163.726 26.9305 162.367C27.6664 161.006 28.6709 159.941 29.7542 159.463L29.5722 159.051C28.3662 159.582 27.298 160.738 26.5335 162.153C25.7672 163.571 25.2922 165.273 25.2922 166.927H25.7434ZM29.5722 170.739C28.5039 171.21 27.5674 171.021 26.889 170.363C26.1973 169.693 25.7434 168.504 25.7434 166.927H25.2922C25.2922 168.579 25.7664 169.903 26.575 170.687C27.3969 171.484 28.5332 171.69 29.7541 171.152L29.5722 170.739ZM20.2474 151.714C21.4534 151.182 22.5216 150.026 23.2861 148.611C24.0524 147.193 24.5274 145.491 24.5274 143.837H24.0762C24.0762 145.41 23.6232 147.038 22.8891 148.397C22.1532 149.758 21.1487 150.823 20.0654 151.301L20.2474 151.714ZM15.7854 147.489C15.7854 149.14 16.2595 150.465 17.0682 151.249C17.8901 152.045 19.0264 152.251 20.2474 151.714L20.0654 151.301C18.9971 151.771 18.0606 151.582 17.3822 150.925C16.6905 150.254 16.2366 149.065 16.2366 147.489H15.7854ZM20.0654 139.612C18.8594 140.143 17.7911 141.3 17.0267 142.714C16.2604 144.132 15.7854 145.834 15.7854 147.489H16.2366C16.2366 145.916 16.6896 144.287 17.4237 142.929C18.1596 141.567 19.1641 140.502 20.2474 140.025L20.0654 139.612ZM24.5274 143.837C24.5274 142.185 24.0532 140.861 23.2446 140.077C22.4227 139.28 21.2864 139.074 20.0654 139.612L20.2474 140.025C21.3157 139.554 22.2521 139.743 22.9306 140.401C23.6223 141.071 24.0762 142.26 24.0762 143.837H24.5274ZM25.0247 116.106C25.0247 117.679 24.5718 119.308 23.8377 120.666C23.1018 122.028 22.0973 123.093 21.014 123.57L21.1959 123.983C22.402 123.452 23.4702 122.295 24.2347 120.881C25.0009 119.463 25.476 117.761 25.476 116.106H25.0247ZM21.1959 112.294C22.2644 111.824 23.2009 112.013 23.8793 112.67C24.571 113.341 25.0248 114.529 25.0247 116.106L25.476 116.106C25.4761 114.455 25.002 113.13 24.1934 112.346C23.3714 111.55 22.2351 111.343 21.014 111.881L21.1959 112.294ZM17.1852 119.758C17.1852 118.185 17.6382 116.556 18.3723 115.198C19.1082 113.836 20.1127 112.772 21.1959 112.294L21.014 111.881C19.808 112.413 18.7397 113.569 17.9753 114.984C17.209 116.401 16.734 118.103 16.734 119.758H17.1852ZM21.014 123.57C19.9455 124.041 19.0091 123.852 18.3307 123.194C17.639 122.524 17.1852 121.335 17.1852 119.758H16.734C16.734 121.409 17.2081 122.734 18.0167 123.518C18.8386 124.315 19.9749 124.521 21.1959 123.983L21.014 123.57ZM65.007 168.549C63.9386 169.02 63.0022 168.831 62.3238 168.173C61.632 167.503 61.1782 166.314 61.1782 164.738H60.7269C60.7269 166.389 61.2011 167.713 62.0097 168.497C62.8316 169.294 63.9679 169.5 65.1889 168.962L65.007 168.549ZM66.7884 167.168C66.2449 167.792 65.6385 168.271 65.007 168.549L65.1889 168.962C65.8955 168.651 66.5533 168.125 67.1288 167.464L66.7884 167.168ZM61.1782 164.738C61.1782 164.206 61.2299 163.667 61.3272 163.134L60.8833 163.053C60.7815 163.611 60.7269 164.177 60.7269 164.738H61.1782Z" fill="#AFB4C8"/>
<path d="M148.605 147.27L152.464 148.336C152.7 148.401 152.841 148.643 152.782 148.881L149.839 160.651L145.603 159.388L143.036 155.491L144.591 149.403L148.605 147.27Z" fill="white" stroke="#AFB4C8" stroke-width="0.451239" stroke-miterlimit="10"/>
<path d="M148.017 157.034L143.477 155.725" stroke="#AFB4C8" stroke-width="0.451239" stroke-miterlimit="10" stroke-linecap="round" stroke-dasharray="0.05 0.9"/>
<path d="M149.185 150.935L144.644 149.626" stroke="#AFB4C8" stroke-width="0.451239" stroke-miterlimit="10" stroke-linecap="round" stroke-dasharray="0.05 0.9"/>
<path d="M152.539 148.774C152.745 148.665 153 148.73 153.128 148.924L155.469 152.479L153.914 158.566L149.9 160.7L147.334 156.802L148.888 150.715L152.539 148.774Z" fill="white" stroke="#AFB4C8" stroke-width="0.451239" stroke-miterlimit="10"/>
<path d="M147.666 173.073L151.525 174.14C151.761 174.205 151.902 174.446 151.843 174.684L148.9 186.455L144.664 185.192L142.097 181.294L143.652 175.207L147.666 173.073Z" fill="white" stroke="#AFB4C8" stroke-width="0.451239" stroke-miterlimit="10"/>
<path d="M147.078 182.838L142.538 181.529" stroke="#AFB4C8" stroke-width="0.451239" stroke-miterlimit="10" stroke-linecap="round" stroke-dasharray="0.05 0.9"/>
<path d="M148.246 176.738L143.705 175.43" stroke="#AFB4C8" stroke-width="0.451239" stroke-miterlimit="10" stroke-linecap="round" stroke-dasharray="0.05 0.9"/>
<path d="M151.6 174.578C151.806 174.468 152.061 174.533 152.189 174.728L154.53 178.282L152.975 184.37L148.961 186.503L146.395 182.606L147.949 176.518L151.6 174.578Z" fill="white" stroke="#AFB4C8" stroke-width="0.451239" stroke-miterlimit="10"/>
<path d="M156.111 190.901L159.971 191.967C160.207 192.033 160.348 192.274 160.289 192.512L157.346 204.283L153.11 203.02L150.543 199.122L152.097 193.035L156.111 190.901Z" fill="white" stroke="#AFB4C8" stroke-width="0.451239" stroke-miterlimit="10"/>
<path d="M155.524 200.665L150.983 199.357" stroke="#AFB4C8" stroke-width="0.451239" stroke-miterlimit="10" stroke-linecap="round" stroke-dasharray="0.05 0.9"/>
<path d="M156.691 194.566L152.15 193.258" stroke="#AFB4C8" stroke-width="0.451239" stroke-miterlimit="10" stroke-linecap="round" stroke-dasharray="0.05 0.9"/>
<path d="M160.046 192.406C160.252 192.296 160.507 192.361 160.635 192.556L162.976 196.11L161.421 202.197L157.407 204.331L154.84 200.434L156.395 194.346L160.046 192.406Z" fill="white" stroke="#AFB4C8" stroke-width="0.451239" stroke-miterlimit="10"/>
<path d="M157.518 121.466L161.377 122.532C161.613 122.598 161.754 122.839 161.695 123.077L158.752 134.848L154.516 133.584L151.95 129.687L153.504 123.6L157.518 121.466Z" fill="white" stroke="#AFB4C8" stroke-width="0.451239" stroke-miterlimit="10"/>
<path d="M156.931 131.23L152.39 129.922" stroke="#AFB4C8" stroke-width="0.451239" stroke-miterlimit="10" stroke-linecap="round" stroke-dasharray="0.05 0.9"/>
<path d="M158.098 125.131L153.557 123.823" stroke="#AFB4C8" stroke-width="0.451239" stroke-miterlimit="10" stroke-linecap="round" stroke-dasharray="0.05 0.9"/>
<path d="M161.453 122.97C161.658 122.861 161.913 122.926 162.041 123.121L164.382 126.675L162.828 132.762L158.814 134.896L156.247 130.999L157.801 124.911L161.453 122.97Z" fill="white" stroke="#AFB4C8" stroke-width="0.451239" stroke-miterlimit="10"/>
<path d="M173.939 102.231L177.799 103.297C178.035 103.362 178.176 103.604 178.116 103.841L175.173 115.612L170.938 114.349L168.371 110.452L169.925 104.364L173.939 102.231Z" fill="white" stroke="#AFB4C8" stroke-width="0.451239" stroke-miterlimit="10"/>
<path d="M173.352 111.995L168.811 110.686" stroke="#AFB4C8" stroke-width="0.451239" stroke-miterlimit="10" stroke-linecap="round" stroke-dasharray="0.05 0.9"/>
<path d="M174.519 105.896L169.979 104.587" stroke="#AFB4C8" stroke-width="0.451239" stroke-miterlimit="10" stroke-linecap="round" stroke-dasharray="0.05 0.9"/>
<path d="M177.874 103.735C178.08 103.626 178.335 103.691 178.463 103.885L180.804 107.44L179.249 113.527L175.235 115.661L172.668 111.763L174.223 105.676L177.874 103.735Z" fill="white" stroke="#AFB4C8" stroke-width="0.451239" stroke-miterlimit="10"/>
<path d="M192.236 93.786L196.096 94.8523C196.332 94.9175 196.473 95.1591 196.413 95.3967L193.47 107.168L189.235 105.904L186.668 102.007L188.222 95.9196L192.236 93.786Z" fill="white" stroke="#AFB4C8" stroke-width="0.451239" stroke-miterlimit="10"/>
<path d="M191.649 103.55L187.108 102.241" stroke="#AFB4C8" stroke-width="0.451239" stroke-miterlimit="10" stroke-linecap="round" stroke-dasharray="0.05 0.9"/>
<path d="M192.816 97.4511L188.275 96.1423" stroke="#AFB4C8" stroke-width="0.451239" stroke-miterlimit="10" stroke-linecap="round" stroke-dasharray="0.05 0.9"/>
<path d="M196.171 95.2903C196.376 95.181 196.631 95.2461 196.759 95.4406L199.1 98.995L197.546 105.082L193.532 107.216L190.965 103.318L192.519 97.2311L196.171 95.2903Z" fill="white" stroke="#AFB4C8" stroke-width="0.451239" stroke-miterlimit="10"/>
<path d="M198.48 226.473L184.101 223.56C169.421 219.741 159.34 203.047 159.34 178.711C159.34 144.408 179.368 107.912 204.073 97.1943C210.026 94.6119 215.707 93.7615 220.901 94.4384L233.803 97.427" fill="white"/>
<path d="M198.48 226.473L184.101 223.56C169.421 219.741 159.34 203.047 159.34 178.711C159.34 144.408 179.368 107.912 204.073 97.1943C210.026 94.6119 215.707 93.7615 220.901 94.4384L233.803 97.427" stroke="#AFB4C8" stroke-width="0.451239" stroke-miterlimit="10"/>
<path d="M170.193 76.8394V81.3502C170.193 83.1495 171.423 84.7565 173.251 85.2967C173.276 85.3039 173.301 85.3111 173.326 85.3183" stroke="#AFB4C8" stroke-width="0.451239" stroke-miterlimit="10"/>
<mask id="mask1" mask-type="alpha" maskUnits="userSpaceOnUse" x="174" y="100" width="83" height="124">
<path fill-rule="evenodd" clip-rule="evenodd" d="M229.735 105.358C229.735 108.537 227.879 111.92 225.59 112.913C223.3 113.906 221.444 112.134 221.444 108.955C221.444 105.776 223.3 102.394 225.59 101.401C227.879 100.408 229.735 102.18 229.735 105.358ZM206.605 121.204C208.895 120.211 210.751 116.829 210.751 113.65C210.751 110.471 208.895 108.7 206.605 109.693C204.316 110.686 202.46 114.068 202.46 117.247C202.46 120.426 204.316 122.198 206.605 121.204ZM189.338 142.183C191.627 141.19 193.484 137.808 193.484 134.629C193.484 131.45 191.627 129.678 189.338 130.672C187.049 131.665 185.193 135.047 185.193 138.226C185.193 141.405 187.049 143.177 189.338 142.183ZM242.576 119.134C244.865 118.141 246.721 114.759 246.721 111.58C246.721 108.401 244.865 106.63 242.576 107.623C240.287 108.616 238.431 111.998 238.431 115.177C238.431 118.356 240.287 120.128 242.576 119.134ZM256.111 130.785C256.111 133.964 254.255 137.346 251.966 138.339C249.676 139.332 247.82 137.56 247.82 134.382C247.82 131.203 249.676 127.821 251.966 126.827C254.255 125.834 256.111 127.606 256.111 130.785ZM251.193 165.988C253.483 164.995 255.339 161.613 255.339 158.434C255.339 155.255 253.483 153.483 251.193 154.477C248.904 155.47 247.048 158.852 247.048 162.031C247.048 165.21 248.904 166.982 251.193 165.988ZM244.956 186.037C244.956 189.216 243.1 192.598 240.811 193.592C238.521 194.585 236.665 192.813 236.665 189.634C236.665 186.455 238.521 183.073 240.811 182.08C243.1 181.087 244.956 182.858 244.956 186.037ZM223.805 214.589C226.095 213.596 227.951 210.214 227.951 207.035C227.951 203.856 226.095 202.084 223.805 203.077C221.516 204.071 219.66 207.453 219.66 210.632C219.66 213.81 221.516 215.582 223.805 214.589ZM208.711 215.223C208.711 218.402 206.855 221.784 204.566 222.778C202.277 223.771 200.421 221.999 200.421 218.82C200.421 215.641 202.277 212.259 204.566 211.266C206.855 210.273 208.711 212.045 208.711 215.223ZM188.37 216.746C190.66 215.753 192.516 212.37 192.516 209.192C192.516 206.013 190.66 204.241 188.37 205.234C186.081 206.228 184.225 209.609 184.225 212.788C184.225 215.967 186.081 217.739 188.37 216.746ZM183.009 190.048C183.009 193.226 181.153 196.608 178.864 197.602C176.574 198.595 174.718 196.823 174.718 193.644C174.718 190.465 176.574 187.083 178.864 186.09C181.153 185.097 183.009 186.869 183.009 190.048ZM179.812 170.292C182.102 169.298 183.958 165.916 183.958 162.737C183.958 159.559 182.102 157.787 179.812 158.78C177.523 159.773 175.667 163.155 175.667 166.334C175.667 169.513 177.523 171.285 179.812 170.292Z" fill="#CED2DC"/>
<path d="M225.59 101.401L225.5 101.194L225.5 101.194L225.59 101.401ZM206.605 121.204L206.516 120.997L206.605 121.204ZM206.605 109.693L206.516 109.486L206.516 109.486L206.605 109.693ZM189.338 130.672L189.248 130.465L189.338 130.672ZM242.576 119.134L242.486 118.927L242.486 118.927L242.576 119.134ZM242.576 107.623L242.666 107.83L242.576 107.623ZM251.966 138.339L252.056 138.546L252.056 138.546L251.966 138.339ZM251.966 126.827L252.056 127.034L251.966 126.827ZM251.193 165.988L251.104 165.781L251.193 165.988ZM251.193 154.477L251.283 154.684L251.193 154.477ZM240.811 193.592L240.9 193.799H240.9L240.811 193.592ZM240.811 182.08L240.721 181.873L240.811 182.08ZM223.805 214.589L223.715 214.382L223.805 214.589ZM223.805 203.077L223.895 203.284L223.895 203.284L223.805 203.077ZM204.566 222.778L204.476 222.571L204.566 222.778ZM204.566 211.266L204.656 211.473L204.566 211.266ZM188.37 216.746L188.46 216.953L188.37 216.746ZM188.37 205.234L188.281 205.027L188.37 205.234ZM178.864 197.602L178.953 197.809L178.864 197.602ZM178.864 186.09L178.774 185.883H178.774L178.864 186.09ZM183.958 162.737L183.732 162.737V162.737H183.958ZM179.812 170.292L179.902 170.499H179.902L179.812 170.292ZM179.812 158.78L179.722 158.573L179.722 158.573L179.812 158.78ZM225.679 113.12C226.885 112.597 227.954 111.458 228.719 110.064C229.485 108.667 229.961 106.989 229.961 105.358H229.509C229.509 106.906 229.057 108.51 228.323 109.847C227.588 111.187 226.583 112.236 225.5 112.706L225.679 113.12ZM221.219 108.955C221.219 110.583 221.693 111.889 222.503 112.662C223.325 113.446 224.46 113.649 225.679 113.12L225.5 112.706C224.43 113.17 223.493 112.983 222.814 112.335C222.123 111.675 221.67 110.506 221.67 108.955H221.219ZM225.5 101.194C224.294 101.717 223.226 102.856 222.461 104.25C221.694 105.647 221.219 107.324 221.219 108.955H221.67C221.67 107.407 222.123 105.804 222.856 104.467C223.592 103.127 224.596 102.078 225.679 101.608L225.5 101.194ZM229.961 105.358C229.961 103.731 229.486 102.425 228.677 101.652C227.855 100.867 226.72 100.665 225.5 101.194L225.679 101.608C226.749 101.144 227.687 101.331 228.365 101.978C229.056 102.638 229.509 103.807 229.509 105.358H229.961ZM210.525 113.65C210.525 115.198 210.073 116.801 209.339 118.138C208.603 119.479 207.599 120.527 206.516 120.997L206.695 121.411C207.901 120.888 208.97 119.749 209.734 118.355C210.501 116.958 210.976 115.281 210.976 113.65H210.525ZM206.695 109.9C207.765 109.436 208.703 109.623 209.381 110.27C210.072 110.93 210.525 112.099 210.525 113.65H210.976C210.976 112.023 210.502 110.716 209.692 109.944C208.871 109.159 207.736 108.957 206.516 109.486L206.695 109.9ZM202.686 117.247C202.686 115.699 203.138 114.096 203.872 112.759C204.608 111.418 205.612 110.37 206.695 109.9L206.516 109.486C205.31 110.009 204.241 111.148 203.476 112.542C202.71 113.939 202.234 115.616 202.234 117.247H202.686ZM206.516 120.997C205.446 121.461 204.508 121.275 203.83 120.627C203.139 119.967 202.686 118.798 202.686 117.247H202.234C202.234 118.875 202.709 120.181 203.519 120.953C204.34 121.738 205.476 121.94 206.695 121.411L206.516 120.997ZM193.258 134.629C193.258 136.177 192.805 137.78 192.072 139.117C191.336 140.458 190.332 141.506 189.248 141.976L189.428 142.39C190.634 141.867 191.702 140.728 192.467 139.334C193.234 137.937 193.709 136.26 193.709 134.629H193.258ZM189.428 130.879C190.498 130.415 191.435 130.601 192.114 131.249C192.805 131.909 193.258 133.078 193.258 134.629H193.709C193.709 133.002 193.234 131.695 192.425 130.923C191.603 130.138 190.468 129.935 189.248 130.465L189.428 130.879ZM185.418 138.226C185.418 136.678 185.871 135.075 186.605 133.738C187.34 132.397 188.344 131.349 189.428 130.879L189.248 130.465C188.043 130.988 186.974 132.127 186.209 133.521C185.443 134.918 184.967 136.595 184.967 138.226H185.418ZM189.248 141.976C188.179 142.44 187.241 142.254 186.563 141.606C185.872 140.946 185.418 139.777 185.418 138.226H184.967C184.967 139.853 185.442 141.16 186.251 141.932C187.073 142.717 188.208 142.92 189.428 142.39L189.248 141.976ZM246.496 111.58C246.496 113.128 246.043 114.731 245.309 116.068C244.574 117.409 243.57 118.457 242.486 118.927L242.666 119.341C243.872 118.818 244.94 117.679 245.705 116.286C246.472 114.889 246.947 113.211 246.947 111.58H246.496ZM242.666 107.83C243.735 107.366 244.673 107.553 245.351 108.2C246.043 108.86 246.496 110.029 246.496 111.58H246.947C246.947 109.953 246.472 108.646 245.663 107.874C244.841 107.089 243.706 106.887 242.486 107.416L242.666 107.83ZM238.656 115.177C238.656 113.629 239.109 112.026 239.843 110.689C240.578 109.348 241.582 108.3 242.666 107.83L242.486 107.416C241.281 107.939 240.212 109.078 239.447 110.472C238.68 111.869 238.205 113.546 238.205 115.177H238.656ZM242.486 118.927C241.417 119.392 240.479 119.205 239.801 118.557C239.11 117.897 238.656 116.728 238.656 115.177H238.205C238.205 116.805 238.68 118.111 239.489 118.883C240.311 119.668 241.446 119.871 242.666 119.341L242.486 118.927ZM252.056 138.546C253.261 138.023 254.33 136.884 255.095 135.49C255.861 134.093 256.337 132.416 256.337 130.785H255.885C255.885 132.333 255.433 133.936 254.699 135.273C253.964 136.613 252.96 137.662 251.876 138.132L252.056 138.546ZM247.595 134.382C247.595 136.009 248.069 137.315 248.879 138.088C249.701 138.873 250.836 139.075 252.056 138.546L251.876 138.132C250.806 138.596 249.869 138.409 249.19 137.762C248.499 137.102 248.046 135.933 248.046 134.382H247.595ZM251.876 126.62C250.67 127.144 249.602 128.282 248.837 129.676C248.07 131.073 247.595 132.751 247.595 134.382H248.046C248.046 132.834 248.499 131.23 249.232 129.893C249.968 128.553 250.972 127.504 252.056 127.034L251.876 126.62ZM256.337 130.785C256.337 129.157 255.862 127.851 255.053 127.078C254.231 126.294 253.096 126.091 251.876 126.62L252.056 127.034C253.125 126.57 254.063 126.757 254.741 127.405C255.432 128.065 255.885 129.234 255.885 130.785H256.337ZM255.113 158.434C255.113 159.982 254.661 161.585 253.927 162.922C253.191 164.262 252.187 165.311 251.104 165.781L251.283 166.195C252.489 165.672 253.557 164.533 254.322 163.139C255.089 161.742 255.564 160.065 255.564 158.434H255.113ZM251.283 154.684C252.353 154.219 253.29 154.406 253.969 155.054C254.66 155.714 255.113 156.883 255.113 158.434H255.564C255.564 156.806 255.09 155.5 254.28 154.728C253.458 153.943 252.323 153.74 251.104 154.27L251.283 154.684ZM247.273 162.031C247.273 160.483 247.726 158.88 248.46 157.543C249.195 156.202 250.2 155.154 251.283 154.684L251.104 154.27C249.898 154.793 248.829 155.932 248.064 157.326C247.298 158.723 246.822 160.4 246.822 162.031H247.273ZM251.104 165.781C250.034 166.245 249.096 166.058 248.418 165.411C247.727 164.751 247.273 163.582 247.273 162.031H246.822C246.822 163.658 247.297 164.965 248.106 165.737C248.928 166.522 250.063 166.724 251.283 166.195L251.104 165.781ZM240.9 193.799C242.106 193.275 243.175 192.136 243.94 190.743C244.706 189.346 245.182 187.668 245.182 186.037H244.73C244.73 187.585 244.278 189.188 243.544 190.525C242.809 191.866 241.804 192.914 240.721 193.385L240.9 193.799ZM236.44 189.634C236.44 191.262 236.914 192.568 237.724 193.341C238.546 194.125 239.681 194.328 240.9 193.799L240.721 193.385C239.651 193.849 238.714 193.662 238.035 193.014C237.344 192.354 236.891 191.185 236.891 189.634H236.44ZM240.721 181.873C239.515 182.396 238.447 183.535 237.682 184.929C236.915 186.326 236.44 188.003 236.44 189.634H236.891C236.891 188.086 237.344 186.483 238.077 185.146C238.813 183.806 239.817 182.757 240.9 182.287L240.721 181.873ZM245.182 186.037C245.182 184.41 244.707 183.103 243.898 182.331C243.076 181.546 241.941 181.344 240.721 181.873L240.9 182.287C241.97 181.823 242.908 182.01 243.586 182.657C244.277 183.317 244.73 184.486 244.73 186.037H245.182ZM227.725 207.035C227.725 208.583 227.272 210.186 226.539 211.523C225.803 212.863 224.799 213.912 223.715 214.382L223.895 214.796C225.101 214.273 226.169 213.134 226.934 211.74C227.701 210.343 228.176 208.666 228.176 207.035H227.725ZM223.895 203.284C224.965 202.82 225.902 203.007 226.581 203.655C227.272 204.314 227.725 205.483 227.725 207.035H228.176C228.176 205.407 227.702 204.101 226.892 203.328C226.07 202.544 224.935 202.341 223.715 202.87L223.895 203.284ZM219.885 210.632C219.885 209.084 220.338 207.481 221.072 206.143C221.807 204.803 222.811 203.755 223.895 203.284L223.715 202.87C222.51 203.394 221.441 204.533 220.676 205.926C219.91 207.323 219.434 209.001 219.434 210.632H219.885ZM223.715 214.382C222.646 214.846 221.708 214.659 221.03 214.012C220.339 213.352 219.885 212.183 219.885 210.632H219.434C219.434 212.259 219.909 213.565 220.718 214.338C221.54 215.123 222.675 215.325 223.895 214.796L223.715 214.382ZM204.656 222.985C205.862 222.461 206.93 221.322 207.695 219.929C208.462 218.532 208.937 216.854 208.937 215.223H208.486C208.486 216.771 208.033 218.374 207.299 219.712C206.564 221.052 205.56 222.1 204.476 222.571L204.656 222.985ZM200.195 218.82C200.195 220.448 200.67 221.754 201.479 222.527C202.301 223.311 203.436 223.514 204.656 222.985L204.476 222.571C203.407 223.035 202.469 222.848 201.791 222.2C201.1 221.541 200.646 220.372 200.646 218.82H200.195ZM204.476 211.059C203.271 211.582 202.202 212.721 201.437 214.115C200.67 215.512 200.195 217.189 200.195 218.82H200.646C200.646 217.272 201.099 215.669 201.833 214.332C202.568 212.992 203.572 211.943 204.656 211.473L204.476 211.059ZM208.937 215.223C208.937 213.596 208.462 212.29 207.653 211.517C206.831 210.732 205.696 210.53 204.476 211.059L204.656 211.473C205.725 211.009 206.663 211.196 207.341 211.843C208.032 212.503 208.486 213.672 208.486 215.223H208.937ZM192.29 209.192C192.29 210.74 191.838 212.343 191.104 213.68C190.368 215.02 189.364 216.069 188.281 216.539L188.46 216.953C189.666 216.43 190.735 215.291 191.499 213.897C192.266 212.5 192.741 210.823 192.741 209.192H192.29ZM188.46 205.441C189.53 204.977 190.467 205.164 191.146 205.812C191.837 206.471 192.29 207.64 192.29 209.192H192.741C192.741 207.564 192.267 206.258 191.457 205.485C190.635 204.7 189.5 204.498 188.281 205.027L188.46 205.441ZM184.451 212.788C184.451 211.24 184.903 209.637 185.637 208.3C186.373 206.96 187.377 205.911 188.46 205.441L188.281 205.027C187.075 205.55 186.006 206.689 185.241 208.083C184.475 209.48 183.999 211.157 183.999 212.788H184.451ZM188.281 216.539C187.211 217.003 186.273 216.816 185.595 216.168C184.904 215.509 184.451 214.34 184.451 212.788H183.999C183.999 214.416 184.474 215.722 185.283 216.495C186.105 217.279 187.241 217.482 188.46 216.953L188.281 216.539ZM178.953 197.809C180.159 197.286 181.228 196.147 181.993 194.753C182.759 193.356 183.235 191.679 183.235 190.048H182.783C182.783 191.595 182.331 193.199 181.597 194.536C180.862 195.876 179.857 196.925 178.774 197.395L178.953 197.809ZM174.493 193.644C174.493 195.272 174.967 196.578 175.777 197.351C176.599 198.136 177.734 198.338 178.953 197.809L178.774 197.395C177.704 197.859 176.767 197.672 176.088 197.024C175.397 196.365 174.944 195.196 174.944 193.644H174.493ZM178.774 185.883C177.568 186.406 176.5 187.545 175.735 188.939C174.968 190.336 174.493 192.013 174.493 193.644H174.944C174.944 192.096 175.397 190.493 176.13 189.156C176.866 187.816 177.87 186.767 178.953 186.297L178.774 185.883ZM183.235 190.048C183.235 188.42 182.76 187.114 181.951 186.341C181.129 185.556 179.994 185.354 178.774 185.883L178.953 186.297C180.023 185.833 180.961 186.02 181.639 186.667C182.33 187.327 182.783 188.496 182.783 190.048H183.235ZM183.732 162.737C183.732 164.285 183.279 165.889 182.546 167.226C181.81 168.566 180.806 169.615 179.722 170.085L179.902 170.499C181.108 169.975 182.176 168.836 182.941 167.443C183.708 166.046 184.183 164.368 184.183 162.737H183.732ZM179.902 158.987C180.972 158.523 181.909 158.71 182.588 159.357C183.279 160.017 183.732 161.186 183.732 162.737L184.183 162.737C184.183 161.11 183.709 159.804 182.899 159.031C182.077 158.246 180.942 158.044 179.722 158.573L179.902 158.987ZM175.892 166.334C175.892 164.786 176.345 163.183 177.079 161.846C177.814 160.506 178.818 159.457 179.902 158.987L179.722 158.573C178.517 159.096 177.448 160.235 176.683 161.629C175.917 163.026 175.441 164.703 175.441 166.334H175.892ZM179.722 170.085C178.653 170.549 177.715 170.362 177.037 169.714C176.346 169.055 175.892 167.885 175.892 166.334H175.441C175.441 167.962 175.916 169.268 176.725 170.041C177.547 170.825 178.682 171.028 179.902 170.499L179.722 170.085Z" fill="#CED2DC"/>
</mask>
<g mask="url(#mask1)">
<path d="M192.545 134.16C192.545 137.339 190.689 140.721 188.4 141.714C186.11 142.708 184.254 140.936 184.254 137.757C184.254 134.578 186.11 131.196 188.4 130.203C190.689 129.209 192.545 130.981 192.545 134.16Z" stroke="#AFB4C8" stroke-width="0.270744" stroke-miterlimit="10"/>
<path d="M209.812 113.181C209.812 116.36 207.956 119.742 205.667 120.735C203.378 121.728 201.522 119.957 201.522 116.778C201.522 113.599 203.378 110.217 205.667 109.223C207.957 108.23 209.812 110.002 209.812 113.181Z" stroke="#AFB4C8" stroke-width="0.270744" stroke-miterlimit="10"/>
<path d="M228.795 104.889C228.795 108.068 226.939 111.45 224.65 112.443C222.36 113.436 220.504 111.665 220.504 108.486C220.504 105.307 222.36 101.925 224.65 100.932C226.939 99.9386 228.795 101.71 228.795 104.889Z" stroke="#AFB4C8" stroke-width="0.270744" stroke-miterlimit="10"/>
<path d="M245.783 111.111C245.783 114.29 243.927 117.672 241.638 118.665C239.348 119.659 237.492 117.887 237.492 114.708C237.492 111.529 239.348 108.147 241.638 107.154C243.927 106.161 245.783 107.932 245.783 111.111Z" stroke="#AFB4C8" stroke-width="0.270744" stroke-miterlimit="10"/>
<path d="M255.174 130.316C255.174 133.495 253.318 136.877 251.028 137.87C248.739 138.863 246.883 137.091 246.883 133.912C246.883 130.734 248.739 127.351 251.028 126.358C253.318 125.365 255.174 127.137 255.174 130.316Z" stroke="#AFB4C8" stroke-width="0.270744" stroke-miterlimit="10"/>
<path d="M254.4 157.965C254.4 161.144 252.544 164.526 250.255 165.519C247.965 166.512 246.109 164.74 246.109 161.561C246.109 158.383 247.965 155.001 250.255 154.007C252.544 153.014 254.4 154.786 254.4 157.965Z" stroke="#AFB4C8" stroke-width="0.270744" stroke-miterlimit="10"/>
<path d="M244.018 185.568C244.018 188.747 242.162 192.129 239.872 193.122C237.583 194.115 235.727 192.344 235.727 189.165C235.727 185.986 237.583 182.604 239.872 181.611C242.162 180.617 244.018 182.389 244.018 185.568Z" stroke="#AFB4C8" stroke-width="0.270744" stroke-miterlimit="10"/>
<path d="M227.012 206.565C227.012 209.744 225.156 213.126 222.867 214.12C220.577 215.113 218.721 213.341 218.721 210.162C218.721 206.983 220.577 203.601 222.867 202.608C225.156 201.615 227.012 203.387 227.012 206.565Z" stroke="#AFB4C8" stroke-width="0.270744" stroke-miterlimit="10"/>
<path d="M207.771 214.754C207.771 217.933 205.915 221.315 203.626 222.308C201.337 223.302 199.48 221.53 199.48 218.351C199.48 215.172 201.337 211.79 203.626 210.797C205.915 209.804 207.771 211.575 207.771 214.754Z" stroke="#AFB4C8" stroke-width="0.270744" stroke-miterlimit="10"/>
<path d="M191.577 208.722C191.577 211.901 189.721 215.284 187.432 216.277C185.143 217.27 183.287 215.498 183.287 212.319C183.287 209.14 185.143 205.758 187.432 204.765C189.721 203.772 191.577 205.544 191.577 208.722Z" stroke="#AFB4C8" stroke-width="0.270744" stroke-miterlimit="10"/>
<path d="M182.071 189.578C182.071 192.757 180.215 196.139 177.925 197.132C175.636 198.126 173.78 196.354 173.78 193.175C173.78 189.996 175.636 186.614 177.925 185.621C180.215 184.627 182.071 186.399 182.071 189.578Z" stroke="#AFB4C8" stroke-width="0.270744" stroke-miterlimit="10"/>
<path d="M183.019 162.268C183.019 165.447 181.163 168.829 178.874 169.822C176.584 170.816 174.728 169.044 174.728 165.865C174.728 162.686 176.584 159.304 178.874 158.311C181.163 157.317 183.019 159.089 183.019 162.268Z" stroke="#AFB4C8" stroke-width="0.270744" stroke-miterlimit="10"/>
</g>
<path d="M225.59 101.401L225.5 101.194L225.5 101.194L225.59 101.401ZM206.605 121.204L206.516 120.997L206.605 121.204ZM206.605 109.693L206.516 109.486L206.516 109.486L206.605 109.693ZM189.338 130.672L189.248 130.465L189.338 130.672ZM242.576 119.134L242.486 118.927L242.486 118.927L242.576 119.134ZM242.576 107.623L242.666 107.83L242.576 107.623ZM251.966 138.339L252.056 138.546L252.056 138.546L251.966 138.339ZM251.966 126.827L252.056 127.034L251.966 126.827ZM251.193 165.988L251.104 165.781L251.193 165.988ZM251.193 154.477L251.283 154.684L251.193 154.477ZM240.811 193.592L240.9 193.799H240.9L240.811 193.592ZM240.811 182.08L240.721 181.873L240.811 182.08ZM223.805 214.589L223.715 214.382L223.805 214.589ZM223.805 203.077L223.895 203.284L223.895 203.284L223.805 203.077ZM204.566 222.778L204.476 222.571L204.566 222.778ZM204.566 211.266L204.656 211.473L204.566 211.266ZM188.37 216.746L188.46 216.953L188.37 216.746ZM188.37 205.234L188.281 205.027L188.37 205.234ZM178.864 197.602L178.953 197.809L178.864 197.602ZM178.864 186.09L178.774 185.883H178.774L178.864 186.09ZM183.958 162.737L183.732 162.737V162.737H183.958ZM179.812 170.292L179.902 170.499H179.902L179.812 170.292ZM179.812 158.78L179.722 158.573L179.722 158.573L179.812 158.78ZM225.679 113.12C226.885 112.597 227.954 111.458 228.719 110.064C229.485 108.667 229.961 106.989 229.961 105.358H229.509C229.509 106.906 229.057 108.51 228.323 109.847C227.588 111.187 226.583 112.236 225.5 112.706L225.679 113.12ZM221.219 108.955C221.219 110.583 221.693 111.889 222.503 112.662C223.325 113.446 224.46 113.649 225.679 113.12L225.5 112.706C224.43 113.17 223.493 112.983 222.814 112.335C222.123 111.675 221.67 110.506 221.67 108.955H221.219ZM225.5 101.194C224.294 101.717 223.226 102.856 222.461 104.25C221.694 105.647 221.219 107.324 221.219 108.955H221.67C221.67 107.407 222.123 105.804 222.856 104.467C223.592 103.127 224.596 102.078 225.679 101.608L225.5 101.194ZM229.961 105.358C229.961 103.731 229.486 102.425 228.677 101.652C227.855 100.867 226.72 100.665 225.5 101.194L225.679 101.608C226.749 101.144 227.687 101.331 228.365 101.978C229.056 102.638 229.509 103.807 229.509 105.358H229.961ZM210.525 113.65C210.525 115.198 210.073 116.801 209.339 118.138C208.603 119.479 207.599 120.527 206.516 120.997L206.695 121.411C207.901 120.888 208.97 119.749 209.734 118.355C210.501 116.958 210.976 115.281 210.976 113.65H210.525ZM206.695 109.9C207.765 109.436 208.703 109.623 209.381 110.27C210.072 110.93 210.525 112.099 210.525 113.65H210.976C210.976 112.023 210.502 110.716 209.692 109.944C208.871 109.159 207.736 108.957 206.516 109.486L206.695 109.9ZM202.686 117.247C202.686 115.699 203.138 114.096 203.872 112.759C204.608 111.418 205.612 110.37 206.695 109.9L206.516 109.486C205.31 110.009 204.241 111.148 203.476 112.542C202.71 113.939 202.234 115.616 202.234 117.247H202.686ZM206.516 120.997C205.446 121.461 204.508 121.275 203.83 120.627C203.139 119.967 202.686 118.798 202.686 117.247H202.234C202.234 118.875 202.709 120.181 203.519 120.953C204.34 121.738 205.476 121.94 206.695 121.411L206.516 120.997ZM193.258 134.629C193.258 136.177 192.805 137.78 192.072 139.117C191.336 140.458 190.332 141.506 189.248 141.976L189.428 142.39C190.634 141.867 191.702 140.728 192.467 139.334C193.234 137.937 193.709 136.26 193.709 134.629H193.258ZM189.428 130.879C190.498 130.415 191.435 130.601 192.114 131.249C192.805 131.909 193.258 133.078 193.258 134.629H193.709C193.709 133.002 193.234 131.695 192.425 130.923C191.603 130.138 190.468 129.935 189.248 130.465L189.428 130.879ZM185.418 138.226C185.418 136.678 185.871 135.075 186.605 133.738C187.34 132.397 188.344 131.349 189.428 130.879L189.248 130.465C188.043 130.988 186.974 132.127 186.209 133.521C185.443 134.918 184.967 136.595 184.967 138.226H185.418ZM189.248 141.976C188.179 142.44 187.241 142.254 186.563 141.606C185.872 140.946 185.418 139.777 185.418 138.226H184.967C184.967 139.853 185.442 141.16 186.251 141.932C187.073 142.717 188.208 142.92 189.428 142.39L189.248 141.976ZM246.496 111.58C246.496 113.128 246.043 114.731 245.309 116.068C244.574 117.409 243.57 118.457 242.486 118.927L242.666 119.341C243.872 118.818 244.94 117.679 245.705 116.286C246.472 114.889 246.947 113.211 246.947 111.58H246.496ZM242.666 107.83C243.735 107.366 244.673 107.553 245.351 108.2C246.043 108.86 246.496 110.029 246.496 111.58H246.947C246.947 109.953 246.472 108.646 245.663 107.874C244.841 107.089 243.706 106.887 242.486 107.416L242.666 107.83ZM238.656 115.177C238.656 113.629 239.109 112.026 239.843 110.689C240.578 109.348 241.582 108.3 242.666 107.83L242.486 107.416C241.281 107.939 240.212 109.078 239.447 110.472C238.68 111.869 238.205 113.546 238.205 115.177H238.656ZM242.486 118.927C241.417 119.392 240.479 119.205 239.801 118.557C239.11 117.897 238.656 116.728 238.656 115.177H238.205C238.205 116.805 238.68 118.111 239.489 118.883C240.311 119.668 241.446 119.871 242.666 119.341L242.486 118.927ZM252.056 138.546C253.261 138.023 254.33 136.884 255.095 135.49C255.861 134.093 256.337 132.416 256.337 130.785H255.885C255.885 132.333 255.433 133.936 254.699 135.273C253.964 136.613 252.96 137.662 251.876 138.132L252.056 138.546ZM247.595 134.382C247.595 136.009 248.069 137.315 248.879 138.088C249.701 138.873 250.836 139.075 252.056 138.546L251.876 138.132C250.806 138.596 249.869 138.409 249.19 137.762C248.499 137.102 248.046 135.933 248.046 134.382H247.595ZM251.876 126.62C250.67 127.144 249.602 128.282 248.837 129.676C248.07 131.073 247.595 132.751 247.595 134.382H248.046C248.046 132.834 248.499 131.23 249.232 129.893C249.968 128.553 250.972 127.504 252.056 127.034L251.876 126.62ZM256.337 130.785C256.337 129.157 255.862 127.851 255.053 127.078C254.231 126.294 253.096 126.091 251.876 126.62L252.056 127.034C253.125 126.57 254.063 126.757 254.741 127.405C255.432 128.065 255.885 129.234 255.885 130.785H256.337ZM255.113 158.434C255.113 159.982 254.661 161.585 253.927 162.922C253.191 164.262 252.187 165.311 251.104 165.781L251.283 166.195C252.489 165.672 253.557 164.533 254.322 163.139C255.089 161.742 255.564 160.065 255.564 158.434H255.113ZM251.283 154.684C252.353 154.219 253.29 154.406 253.969 155.054C254.66 155.714 255.113 156.883 255.113 158.434H255.564C255.564 156.806 255.09 155.5 254.28 154.728C253.458 153.943 252.323 153.74 251.104 154.27L251.283 154.684ZM247.273 162.031C247.273 160.483 247.726 158.88 248.46 157.543C249.195 156.202 250.2 155.154 251.283 154.684L251.104 154.27C249.898 154.793 248.829 155.932 248.064 157.326C247.298 158.723 246.822 160.4 246.822 162.031H247.273ZM251.104 165.781C250.034 166.245 249.096 166.058 248.418 165.411C247.727 164.751 247.273 163.582 247.273 162.031H246.822C246.822 163.658 247.297 164.965 248.106 165.737C248.928 166.522 250.063 166.724 251.283 166.195L251.104 165.781ZM240.9 193.799C242.106 193.275 243.175 192.136 243.94 190.743C244.706 189.346 245.182 187.668 245.182 186.037H244.73C244.73 187.585 244.278 189.188 243.544 190.525C242.809 191.866 241.804 192.914 240.721 193.385L240.9 193.799ZM236.44 189.634C236.44 191.262 236.914 192.568 237.724 193.341C238.546 194.125 239.681 194.328 240.9 193.799L240.721 193.385C239.651 193.849 238.714 193.662 238.035 193.014C237.344 192.354 236.891 191.185 236.891 189.634H236.44ZM240.721 181.873C239.515 182.396 238.447 183.535 237.682 184.929C236.915 186.326 236.44 188.003 236.44 189.634H236.891C236.891 188.086 237.344 186.483 238.077 185.146C238.813 183.806 239.817 182.757 240.9 182.287L240.721 181.873ZM245.182 186.037C245.182 184.41 244.707 183.103 243.898 182.331C243.076 181.546 241.941 181.344 240.721 181.873L240.9 182.287C241.97 181.823 242.908 182.01 243.586 182.657C244.277 183.317 244.73 184.486 244.73 186.037H245.182ZM227.725 207.035C227.725 208.583 227.272 210.186 226.539 211.523C225.803 212.863 224.799 213.912 223.715 214.382L223.895 214.796C225.101 214.273 226.169 213.134 226.934 211.74C227.701 210.343 228.176 208.666 228.176 207.035H227.725ZM223.895 203.284C224.965 202.82 225.902 203.007 226.581 203.655C227.272 204.314 227.725 205.483 227.725 207.035H228.176C228.176 205.407 227.702 204.101 226.892 203.328C226.07 202.544 224.935 202.341 223.715 202.87L223.895 203.284ZM219.885 210.632C219.885 209.084 220.338 207.481 221.072 206.143C221.807 204.803 222.811 203.755 223.895 203.284L223.715 202.87C222.51 203.394 221.441 204.533 220.676 205.926C219.91 207.323 219.434 209.001 219.434 210.632H219.885ZM223.715 214.382C222.646 214.846 221.708 214.659 221.03 214.012C220.339 213.352 219.885 212.183 219.885 210.632H219.434C219.434 212.259 219.909 213.565 220.718 214.338C221.54 215.123 222.675 215.325 223.895 214.796L223.715 214.382ZM204.656 222.985C205.862 222.461 206.93 221.322 207.695 219.929C208.462 218.532 208.937 216.854 208.937 215.223H208.486C208.486 216.771 208.033 218.374 207.299 219.712C206.564 221.052 205.56 222.1 204.476 222.571L204.656 222.985ZM200.195 218.82C200.195 220.448 200.67 221.754 201.479 222.527C202.301 223.311 203.436 223.514 204.656 222.985L204.476 222.571C203.407 223.035 202.469 222.848 201.791 222.2C201.1 221.541 200.646 220.372 200.646 218.82H200.195ZM204.476 211.059C203.271 211.582 202.202 212.721 201.437 214.115C200.67 215.512 200.195 217.189 200.195 218.82H200.646C200.646 217.272 201.099 215.669 201.833 214.332C202.568 212.992 203.572 211.943 204.656 211.473L204.476 211.059ZM208.937 215.223C208.937 213.596 208.462 212.29 207.653 211.517C206.831 210.732 205.696 210.53 204.476 211.059L204.656 211.473C205.725 211.009 206.663 211.196 207.341 211.843C208.032 212.503 208.486 213.672 208.486 215.223H208.937ZM192.29 209.192C192.29 210.74 191.838 212.343 191.104 213.68C190.368 215.02 189.364 216.069 188.281 216.539L188.46 216.953C189.666 216.43 190.735 215.291 191.499 213.897C192.266 212.5 192.741 210.823 192.741 209.192H192.29ZM188.46 205.441C189.53 204.977 190.467 205.164 191.146 205.812C191.837 206.471 192.29 207.64 192.29 209.192H192.741C192.741 207.564 192.267 206.258 191.457 205.485C190.635 204.7 189.5 204.498 188.281 205.027L188.46 205.441ZM184.451 212.788C184.451 211.24 184.903 209.637 185.637 208.3C186.373 206.96 187.377 205.911 188.46 205.441L188.281 205.027C187.075 205.55 186.006 206.689 185.241 208.083C184.475 209.48 183.999 211.157 183.999 212.788H184.451ZM188.281 216.539C187.211 217.003 186.273 216.816 185.595 216.168C184.904 215.509 184.451 214.34 184.451 212.788H183.999C183.999 214.416 184.474 215.722 185.283 216.495C186.105 217.279 187.241 217.482 188.46 216.953L188.281 216.539ZM178.953 197.809C180.159 197.286 181.228 196.147 181.993 194.753C182.759 193.356 183.235 191.679 183.235 190.048H182.783C182.783 191.595 182.331 193.199 181.597 194.536C180.862 195.876 179.857 196.925 178.774 197.395L178.953 197.809ZM174.493 193.644C174.493 195.272 174.967 196.578 175.777 197.351C176.599 198.136 177.734 198.338 178.953 197.809L178.774 197.395C177.704 197.859 176.767 197.672 176.088 197.024C175.397 196.365 174.944 195.196 174.944 193.644H174.493ZM178.774 185.883C177.568 186.406 176.5 187.545 175.735 188.939C174.968 190.336 174.493 192.013 174.493 193.644H174.944C174.944 192.096 175.397 190.493 176.13 189.156C176.866 187.816 177.87 186.767 178.953 186.297L178.774 185.883ZM183.235 190.048C183.235 188.42 182.76 187.114 181.951 186.341C181.129 185.556 179.994 185.354 178.774 185.883L178.953 186.297C180.023 185.833 180.961 186.02 181.639 186.667C182.33 187.327 182.783 188.496 182.783 190.048H183.235ZM183.732 162.737C183.732 164.285 183.279 165.889 182.546 167.226C181.81 168.566 180.806 169.615 179.722 170.085L179.902 170.499C181.108 169.975 182.176 168.836 182.941 167.443C183.708 166.046 184.183 164.368 184.183 162.737H183.732ZM179.902 158.987C180.972 158.523 181.909 158.71 182.588 159.357C183.279 160.017 183.732 161.186 183.732 162.737L184.183 162.737C184.183 161.11 183.709 159.804 182.899 159.031C182.077 158.246 180.942 158.044 179.722 158.573L179.902 158.987ZM175.892 166.334C175.892 164.786 176.345 163.183 177.079 161.846C177.814 160.506 178.818 159.457 179.902 158.987L179.722 158.573C178.517 159.096 177.448 160.235 176.683 161.629C175.917 163.026 175.441 164.703 175.441 166.334H175.892ZM179.722 170.085C178.653 170.549 177.715 170.362 177.037 169.714C176.346 169.055 175.892 167.885 175.892 166.334H175.441C175.441 167.962 175.916 169.268 176.725 170.041C177.547 170.825 178.682 171.028 179.902 170.499L179.722 170.085Z" fill="#AFB4C8"/>
<path d="M211.698 143.213L214.308 143.865" stroke="#AFB4C8" stroke-width="0.451239" stroke-miterlimit="10" stroke-linecap="round" stroke-dasharray="0.05 0.9"/>
<path d="M188.651 131.471L191.26 132.123" stroke="#AFB4C8" stroke-width="0.451239" stroke-miterlimit="10" stroke-linecap="round" stroke-dasharray="0.05 0.9"/>
<path d="M187.345 133.21L192.564 134.515" stroke="#AFB4C8" stroke-width="0.451239" stroke-miterlimit="10" stroke-linecap="round" stroke-dasharray="0.05 0.9"/>
<path d="M186.041 134.95L188.65 135.602" stroke="#AFB4C8" stroke-width="0.451239" stroke-miterlimit="10" stroke-linecap="round" stroke-dasharray="0.05 0.9"/>
<path d="M20.1255 113.205L22.7349 113.857" stroke="#AFB4C8" stroke-width="0.451239" stroke-miterlimit="10" stroke-linecap="round" stroke-dasharray="0.05 0.9"/>
<path d="M18.8198 114.944L24.0387 116.249" stroke="#AFB4C8" stroke-width="0.451239" stroke-miterlimit="10" stroke-linecap="round" stroke-dasharray="0.05 0.9"/>
<path d="M17.5156 116.684L20.125 117.336" stroke="#AFB4C8" stroke-width="0.451239" stroke-miterlimit="10" stroke-linecap="round" stroke-dasharray="0.05 0.9"/>
<path d="M18.8193 141.473L21.4287 142.126" stroke="#AFB4C8" stroke-width="0.451239" stroke-miterlimit="10" stroke-linecap="round" stroke-dasharray="0.05 0.9"/>
<path d="M17.5137 143.213L22.7325 144.518" stroke="#AFB4C8" stroke-width="0.451239" stroke-miterlimit="10" stroke-linecap="round" stroke-dasharray="0.05 0.9"/>
<path d="M16.2095 144.953L18.8189 145.605" stroke="#AFB4C8" stroke-width="0.451239" stroke-miterlimit="10" stroke-linecap="round" stroke-dasharray="0.05 0.9"/>
<path d="M205.828 110.595L208.437 111.248" stroke="#AFB4C8" stroke-width="0.451239" stroke-miterlimit="10" stroke-linecap="round" stroke-dasharray="0.05 0.9"/>
<path d="M204.522 112.335L209.741 113.64" stroke="#AFB4C8" stroke-width="0.451239" stroke-miterlimit="10" stroke-linecap="round" stroke-dasharray="0.05 0.9"/>
<path d="M203.218 114.075L205.827 114.727" stroke="#AFB4C8" stroke-width="0.451239" stroke-miterlimit="10" stroke-linecap="round" stroke-dasharray="0.05 0.9"/>
<path d="M224.965 102.332L227.574 102.985" stroke="#AFB4C8" stroke-width="0.451239" stroke-miterlimit="10" stroke-linecap="round" stroke-dasharray="0.05 0.9"/>
<path d="M223.659 104.072L228.878 105.376" stroke="#AFB4C8" stroke-width="0.451239" stroke-miterlimit="10" stroke-linecap="round" stroke-dasharray="0.05 0.9"/>
<path d="M222.355 105.812L224.964 106.464" stroke="#AFB4C8" stroke-width="0.451239" stroke-miterlimit="10" stroke-linecap="round" stroke-dasharray="0.05 0.9"/>
<path d="M241.925 108.421L244.534 109.073" stroke="#AFB4C8" stroke-width="0.451239" stroke-miterlimit="10" stroke-linecap="round" stroke-dasharray="0.05 0.9"/>
<path d="M240.619 110.16L245.838 111.465" stroke="#AFB4C8" stroke-width="0.451239" stroke-miterlimit="10" stroke-linecap="round" stroke-dasharray="0.05 0.9"/>
<path d="M239.315 111.9L241.924 112.552" stroke="#AFB4C8" stroke-width="0.451239" stroke-miterlimit="10" stroke-linecap="round" stroke-dasharray="0.05 0.9"/>
<path d="M251.058 127.557L253.667 128.209" stroke="#AFB4C8" stroke-width="0.451239" stroke-miterlimit="10" stroke-linecap="round" stroke-dasharray="0.05 0.9"/>
<path d="M249.752 129.296L254.971 130.601" stroke="#AFB4C8" stroke-width="0.451239" stroke-miterlimit="10" stroke-linecap="round" stroke-dasharray="0.05 0.9"/>
<path d="M248.448 131.036L251.057 131.688" stroke="#AFB4C8" stroke-width="0.451239" stroke-miterlimit="10" stroke-linecap="round" stroke-dasharray="0.05 0.9"/>
<path d="M178.864 160.174L181.474 160.827" stroke="#AFB4C8" stroke-width="0.451239" stroke-miterlimit="10" stroke-linecap="round" stroke-dasharray="0.05 0.9"/>
<path d="M177.559 161.914L182.777 163.219" stroke="#AFB4C8" stroke-width="0.451239" stroke-miterlimit="10" stroke-linecap="round" stroke-dasharray="0.05 0.9"/>
<path d="M176.254 163.654L178.864 164.306" stroke="#AFB4C8" stroke-width="0.451239" stroke-miterlimit="10" stroke-linecap="round" stroke-dasharray="0.05 0.9"/>
<path d="M177.993 187.138L180.603 187.791" stroke="#AFB4C8" stroke-width="0.451239" stroke-miterlimit="10" stroke-linecap="round" stroke-dasharray="0.05 0.9"/>
<path d="M176.688 188.878L181.906 190.182" stroke="#AFB4C8" stroke-width="0.451239" stroke-miterlimit="10" stroke-linecap="round" stroke-dasharray="0.05 0.9"/>
<path d="M175.383 190.617L177.993 191.27" stroke="#AFB4C8" stroke-width="0.451239" stroke-miterlimit="10" stroke-linecap="round" stroke-dasharray="0.05 0.9"/>
<path d="M187.561 205.839L190.171 206.491" stroke="#AFB4C8" stroke-width="0.451239" stroke-miterlimit="10" stroke-linecap="round" stroke-dasharray="0.05 0.9"/>
<path d="M186.255 207.578L191.474 208.883" stroke="#AFB4C8" stroke-width="0.451239" stroke-miterlimit="10" stroke-linecap="round" stroke-dasharray="0.05 0.9"/>
<path d="M184.951 209.318L187.561 209.97" stroke="#AFB4C8" stroke-width="0.451239" stroke-miterlimit="10" stroke-linecap="round" stroke-dasharray="0.05 0.9"/>
<path d="M203.652 212.363L206.262 213.015" stroke="#AFB4C8" stroke-width="0.451239" stroke-miterlimit="10" stroke-linecap="round" stroke-dasharray="0.05 0.9"/>
<path d="M202.347 214.102L207.566 215.407" stroke="#AFB4C8" stroke-width="0.451239" stroke-miterlimit="10" stroke-linecap="round" stroke-dasharray="0.05 0.9"/>
<path d="M201.042 215.842L203.652 216.494" stroke="#AFB4C8" stroke-width="0.451239" stroke-miterlimit="10" stroke-linecap="round" stroke-dasharray="0.05 0.9"/>
<path d="M222.789 204.534L225.399 205.187" stroke="#AFB4C8" stroke-width="0.451239" stroke-miterlimit="10" stroke-linecap="round" stroke-dasharray="0.05 0.9"/>
<path d="M221.484 206.274L226.702 207.578" stroke="#AFB4C8" stroke-width="0.451239" stroke-miterlimit="10" stroke-linecap="round" stroke-dasharray="0.05 0.9"/>
<path d="M220.179 208.013L222.789 208.666" stroke="#AFB4C8" stroke-width="0.451239" stroke-miterlimit="10" stroke-linecap="round" stroke-dasharray="0.05 0.9"/>
<path d="M239.75 184.529L242.36 185.181" stroke="#AFB4C8" stroke-width="0.451239" stroke-miterlimit="10" stroke-linecap="round" stroke-dasharray="0.05 0.9"/>
<path d="M238.445 186.268L243.663 187.573" stroke="#AFB4C8" stroke-width="0.451239" stroke-miterlimit="10" stroke-linecap="round" stroke-dasharray="0.05 0.9"/>
<path d="M237.14 188.008L239.75 188.66" stroke="#AFB4C8" stroke-width="0.451239" stroke-miterlimit="10" stroke-linecap="round" stroke-dasharray="0.05 0.9"/>
<path d="M250.188 155.39L252.797 156.043" stroke="#AFB4C8" stroke-width="0.451239" stroke-miterlimit="10" stroke-linecap="round" stroke-dasharray="0.05 0.9"/>
<path d="M248.882 157.13L254.101 158.435" stroke="#AFB4C8" stroke-width="0.451239" stroke-miterlimit="10" stroke-linecap="round" stroke-dasharray="0.05 0.9"/>
<path d="M247.578 158.87L250.187 159.522" stroke="#AFB4C8" stroke-width="0.451239" stroke-miterlimit="10" stroke-linecap="round" stroke-dasharray="0.05 0.9"/>
<path d="M249.559 148.312C249.559 173.104 235.084 199.482 217.228 207.228C199.372 214.975 184.897 201.156 184.897 176.364C184.897 151.572 199.372 125.194 217.228 117.448C235.084 109.701 249.559 123.52 249.559 148.312Z" stroke="#AFB4C8" stroke-width="0.451239" stroke-miterlimit="10" stroke-linecap="round" stroke-dasharray="0.05 0.9"/>
<path d="M251.059 148.781C251.059 173.573 236.584 199.951 218.728 207.697C200.872 215.444 186.397 201.625 186.397 176.833C186.397 152.041 200.872 125.663 218.728 117.917C236.584 110.17 251.059 123.989 251.059 148.781Z" fill="white" stroke="#AFB4C8" stroke-width="0.451239" stroke-miterlimit="10"/>
<mask id="mask2" mask-type="alpha" maskUnits="userSpaceOnUse" x="198" y="132" width="42" height="60">
<path d="M239.475 153.38C239.475 168.996 230.358 185.611 219.111 190.49C207.864 195.369 198.746 186.666 198.746 171.05C198.746 155.433 207.864 138.819 219.111 133.939C230.358 129.06 239.475 137.764 239.475 153.38Z" fill="white"/>
</mask>
<g mask="url(#mask2)">
<path d="M225.169 149.876C225.169 165.492 216.051 182.107 204.804 186.986C193.557 191.866 184.44 183.162 184.44 167.546C184.44 151.93 193.557 135.315 204.804 130.436C216.051 125.556 225.169 134.26 225.169 149.876Z" stroke="#AFB4C8" stroke-width="0.451239" stroke-miterlimit="10"/>
</g>
<path d="M239.475 153.38C239.475 168.996 230.358 185.611 219.111 190.49C207.864 195.369 198.746 186.666 198.746 171.05C198.746 155.433 207.864 138.819 219.111 133.939C230.358 129.06 239.475 137.764 239.475 153.38Z" stroke="#AFB4C8" stroke-width="0.451239" stroke-miterlimit="10"/>
<path d="M210.948 191.477C212.928 191.51 215.042 190.973 217.236 190.021C228.483 185.141 237.6 168.527 237.6 152.911C237.6 142.824 233.797 135.622 228.072 133.1" stroke="#AFB4C8" stroke-width="0.451239" stroke-miterlimit="10"/>
<path d="M199.806 161.727L221.269 167.785" stroke="#E0E1E4" stroke-width="0.676859" stroke-miterlimit="10" stroke-linecap="round" stroke-dasharray="0.05 1.8"/>
<path d="M215.374 136.272L223.146 138.462" stroke="#E0E1E4" stroke-width="0.676859" stroke-miterlimit="10" stroke-linecap="round" stroke-dasharray="0.05 1.8"/>
<path d="M212.589 138.462L224.318 141.512" stroke="#AFB4C8" stroke-width="0.451239" stroke-miterlimit="10"/>
<path d="M209.774 140.808L215.48 142.421" stroke="#E0E1E4" stroke-width="0.676859" stroke-miterlimit="10" stroke-linecap="round" stroke-dasharray="0.05 1.8"/>
<path d="M199.218 168.081L218.711 173.415" stroke="#E0E1E4" stroke-width="0.676859" stroke-miterlimit="10" stroke-linecap="round" stroke-dasharray="0.05 1.8"/>
<path d="M259.988 142.479C259.988 176.676 240.022 213.06 215.393 223.745C190.764 234.43 170.798 215.37 170.798 181.173C170.798 146.976 190.764 110.593 215.393 99.9077C240.023 89.2227 259.988 108.283 259.988 142.479Z" stroke="#AFB4C8" stroke-width="0.451239" stroke-miterlimit="10"/>
</svg>
