<svg width="118" height="170" viewBox="0 0 118 170" fill="none" xmlns="http://www.w3.org/2000/svg">
<path d="M101.5 114.5L96.5 120.5" stroke="#AFB4C8"/>
<rect x="2.5" y="60.5" width="9" height="64" fill="white" stroke="#AFB4C8"/>
<rect x="-0.5" y="0.5" width="2" height="38" transform="matrix(-1 0 0 1 2 74)" fill="white" stroke="#AFB4C8"/>
<rect x="-0.5" y="0.5" width="3" height="44" transform="matrix(-1 0 0 1 14 71)" fill="white" stroke="#AFB4C8"/>
<rect x="-0.5" y="0.5" width="9" height="64" transform="matrix(-1 0 0 1 115 60)" fill="white" stroke="#AFB4C8"/>
<rect x="115.5" y="74.5" width="2" height="38" fill="white" stroke="#AFB4C8"/>
<rect x="103.5" y="71.5" width="3" height="44" fill="white" stroke="#AFB4C8"/>
<path d="M81.2356 73.8727C89.99 73.0274 98.221 73.0009 103.5 73V114.832C103.311 114.779 103.086 114.717 102.831 114.649C102.026 114.436 100.919 114.167 99.7156 113.946C98.5142 113.724 97.2037 113.548 95.9944 113.524C94.8001 113.5 93.6375 113.622 92.7764 114.053C92.2147 114.334 91.7981 114.7 91.632 115.234C91.4731 115.745 91.5815 116.296 91.7785 116.854C91.9781 117.419 92.3058 118.089 92.6925 118.87C92.7194 118.925 92.7467 118.98 92.7743 119.035C93.1066 119.706 93.4867 120.473 93.891 121.364L54.977 154.86C46.6671 148.628 38.5879 137.852 32.5444 128.54C29.4891 123.833 26.9635 119.514 25.2017 116.373C24.321 114.802 23.6314 113.526 23.1622 112.643C22.9277 112.202 22.7482 111.859 22.6276 111.626C22.5673 111.51 22.5217 111.422 22.4912 111.362L22.457 111.295L22.4485 111.279L22.4464 111.275L22.4459 111.274C22.4458 111.274 22.4458 111.274 22 111.5L22.4458 111.274L22.2001 110.79L21.738 111.074L15.3585 115H14.5V72.9369C21.7521 72.0073 39.9923 72.1662 54.7671 79.9425L54.9867 80.058L55.2114 79.9531C62.6337 76.4894 72.1911 74.746 81.2356 73.8727Z" fill="white" stroke="#AFB4C8"/>
<rect x="97.3678" y="121.621" width="9" height="58" transform="rotate(53.2093 97.3678 121.621)" fill="white" stroke="#AFB4C8"/>
<path d="M96.2777 120.16L93.5812 119.46L50.6739 151.548L49.8649 154.943L50.9224 156.357L97.3705 121.621L96.2777 120.16Z" fill="white" stroke="#AFB4C8"/>
<rect x="-0.699861" y="-0.100967" width="4" height="58" transform="matrix(-0.598894 -0.800829 -0.800828 0.598894 104.656 131.532)" fill="white" stroke="#AFB4C8"/>
<rect x="-0.699861" y="-0.100967" width="3" height="7" transform="matrix(-0.598894 -0.800828 -0.800829 0.598893 104.05 135.731)" fill="white" stroke="#AFB4C8"/>
<rect x="-0.699861" y="-0.100967" width="3" height="3" transform="matrix(-0.598893 -0.800829 -0.800828 0.598894 102.449 136.929)" fill="white" stroke="#AFB4C8"/>
<rect x="-0.699861" y="-0.100967" width="3" height="7" transform="matrix(-0.598893 -0.800829 -0.800828 0.598895 86.429 148.907)" fill="white" stroke="#AFB4C8"/>
<rect x="-0.699861" y="-0.100967" width="3" height="3" transform="matrix(-0.598894 -0.800829 -0.800829 0.598894 84.8275 150.105)" fill="white" stroke="#AFB4C8"/>
<rect x="-0.699861" y="-0.100967" width="3" height="7" transform="matrix(-0.598894 -0.800828 -0.800829 0.598894 68.0111 162.681)" fill="white" stroke="#AFB4C8"/>
<rect x="-0.699861" y="-0.100967" width="3" height="3" transform="matrix(-0.598894 -0.800829 -0.800828 0.598894 66.4095 163.879)" fill="white" stroke="#AFB4C8"/>
<path d="M22.4976 111.5C22.4976 111.5 18.4977 95.5 48.4976 84.5" stroke="#AFB4C8"/>
<path d="M93.5009 119.5C93.5009 119.5 79.2463 111.443 69.0625 102.5" stroke="#AFB4C8"/>
<path d="M79 89.5V91.5H89.5V93L94 90.5L89.5 88V89.5H79Z" stroke="#AFB4C8"/>
<rect x="37" y="98" width="17" height="1" fill="#AFB4C8"/>
<rect x="37" y="101" width="17" height="1" fill="#AFB4C8"/>
<rect x="37" y="104" width="13" height="1" fill="#AFB4C8"/>
</svg>
