<svg width="40" height="40" viewBox="0 0 40 40" fill="none" xmlns="http://www.w3.org/2000/svg">
<mask id="path-1-inside-1" fill="white">
<path fill-rule="evenodd" clip-rule="evenodd" d="M31.4 14.1L35 15V21L31.4 21.9C31.325 22.125 31.2125 22.35 31.1 22.575C30.9875 22.8 30.875 23.025 30.8 23.25L32.75 26.55L28.55 30.75L25.25 28.8C24.8 29.1 24.35 29.25 23.9 29.4L23 33H17L16.1 29.4C15.875 29.325 15.65 29.2125 15.425 29.1C15.2 28.9875 14.975 28.875 14.75 28.8L11.45 30.75L7.25 26.55L9.2 23.25C8.9 22.8 8.75 22.35 8.6 21.9L5 21V15L8.6 14.1C8.675 13.875 8.7875 13.65 8.9 13.425C9.0125 13.2 9.125 12.975 9.2 12.75L7.25 9.45L11.45 5.25L14.75 7.2C15.2 7.05 15.65 6.9 16.1 6.6L17 3H23L23.9 6.6C24.125 6.675 24.35 6.7875 24.575 6.9C24.8 7.0125 25.025 7.125 25.25 7.2L28.55 5.25L32.75 9.45L30.8 12.75C31.1 13.2 31.25 13.65 31.4 14.1ZM20 25C23.866 25 27 21.866 27 18C27 14.134 23.866 11 20 11C16.134 11 13 14.134 13 18C13 21.866 16.134 25 20 25Z"/>
</mask>
<path fill-rule="evenodd" clip-rule="evenodd" d="M31.4 14.1L35 15V21L31.4 21.9C31.325 22.125 31.2125 22.35 31.1 22.575C30.9875 22.8 30.875 23.025 30.8 23.25L32.75 26.55L28.55 30.75L25.25 28.8C24.8 29.1 24.35 29.25 23.9 29.4L23 33H17L16.1 29.4C15.875 29.325 15.65 29.2125 15.425 29.1C15.2 28.9875 14.975 28.875 14.75 28.8L11.45 30.75L7.25 26.55L9.2 23.25C8.9 22.8 8.75 22.35 8.6 21.9L5 21V15L8.6 14.1C8.675 13.875 8.7875 13.65 8.9 13.425C9.0125 13.2 9.125 12.975 9.2 12.75L7.25 9.45L11.45 5.25L14.75 7.2C15.2 7.05 15.65 6.9 16.1 6.6L17 3H23L23.9 6.6C24.125 6.675 24.35 6.7875 24.575 6.9C24.8 7.0125 25.025 7.125 25.25 7.2L28.55 5.25L32.75 9.45L30.8 12.75C31.1 13.2 31.25 13.65 31.4 14.1ZM20 25C23.866 25 27 21.866 27 18C27 14.134 23.866 11 20 11C16.134 11 13 14.134 13 18C13 21.866 16.134 25 20 25Z" fill="white"/>
<path d="M35 15H36V14.2192L35.2425 14.0299L35 15ZM31.4 14.1L30.4513 14.4162L30.6249 14.937L31.1575 15.0701L31.4 14.1ZM35 21L35.2425 21.9701L36 21.7808V21H35ZM31.4 21.9L31.1575 20.9299L30.6249 21.063L30.4513 21.5838L31.4 21.9ZM31.1 22.575L31.9944 23.0222L31.9944 23.0222L31.1 22.575ZM30.8 23.25L29.8513 22.9338L29.7072 23.3663L29.9391 23.7587L30.8 23.25ZM32.75 26.55L33.4571 27.2571L34.0054 26.7088L33.6109 26.0413L32.75 26.55ZM28.55 30.75L28.0413 31.6109L28.7088 32.0054L29.2571 31.4571L28.55 30.75ZM25.25 28.8L25.7587 27.9391L25.2179 27.6195L24.6953 27.9679L25.25 28.8ZM23.9 29.4L23.5838 28.4513L23.063 28.6249L22.9299 29.1575L23.9 29.4ZM23 33V34H23.7808L23.9701 33.2425L23 33ZM17 33L16.0299 33.2425L16.2192 34H17V33ZM16.1 29.4L17.0701 29.1575L16.937 28.6249L16.4162 28.4513L16.1 29.4ZM14.75 28.8L15.0662 27.8513L14.6337 27.7072L14.2413 27.9391L14.75 28.8ZM11.45 30.75L10.7429 31.4571L11.2912 32.0054L11.9587 31.6109L11.45 30.75ZM7.25 26.55L6.38907 26.0413L5.99461 26.7088L6.54289 27.2571L7.25 26.55ZM9.2 23.25L10.0609 23.7587L10.3805 23.2179L10.0321 22.6953L9.2 23.25ZM8.6 21.9L9.54868 21.5838L9.37509 21.063L8.84254 20.9299L8.6 21.9ZM5 21H4V21.7808L4.75746 21.9701L5 21ZM5 15L4.75746 14.0299L4 14.2192V15H5ZM8.6 14.1L8.84254 15.0701L9.37509 14.937L9.54868 14.4162L8.6 14.1ZM9.2 12.75L10.1487 13.0662L10.2928 12.6337L10.0609 12.2413L9.2 12.75ZM7.25 9.45L6.54289 8.74289L5.99461 9.29118L6.38907 9.95873L7.25 9.45ZM11.45 5.25L11.9587 4.38907L11.2912 3.99461L10.7429 4.54289L11.45 5.25ZM14.75 7.2L14.2413 8.06093L14.6337 8.29284L15.0662 8.14868L14.75 7.2ZM16.1 6.6L16.6547 7.43205L16.9764 7.2176L17.0701 6.84254L16.1 6.6ZM17 3V2H16.2192L16.0299 2.75746L17 3ZM23 3L23.9701 2.75746L23.7808 2H23V3ZM23.9 6.6L22.9299 6.84254L23.063 7.37509L23.5838 7.54868L23.9 6.6ZM24.575 6.9L25.0222 6.00557L25.0222 6.00557L24.575 6.9ZM25.25 7.2L24.9338 8.14868L25.3663 8.29284L25.7587 8.06093L25.25 7.2ZM28.55 5.25L29.2571 4.54289L28.7088 3.99461L28.0413 4.38907L28.55 5.25ZM32.75 9.45L33.6109 9.95873L34.0054 9.29118L33.4571 8.74289L32.75 9.45ZM30.8 12.75L29.9391 12.2413L29.6195 12.7821L29.968 13.3047L30.8 12.75ZM35.2425 14.0299L31.6425 13.1299L31.1575 15.0701L34.7575 15.9701L35.2425 14.0299ZM36 21V15H34V21H36ZM31.6425 22.8701L35.2425 21.9701L34.7575 20.0299L31.1575 20.9299L31.6425 22.8701ZM31.9944 23.0222C32.1002 22.8107 32.2471 22.5209 32.3487 22.2162L30.4513 21.5838C30.4029 21.7291 30.3248 21.8893 30.2056 22.1278L31.9944 23.0222ZM31.7487 23.5662C31.7971 23.4209 31.8752 23.2607 31.9944 23.0222L30.2056 22.1278C30.0998 22.3393 29.9529 22.6291 29.8513 22.9338L31.7487 23.5662ZM33.6109 26.0413L31.6609 22.7413L29.9391 23.7587L31.8891 27.0587L33.6109 26.0413ZM29.2571 31.4571L33.4571 27.2571L32.0429 25.8429L27.8429 30.0429L29.2571 31.4571ZM24.7413 29.6609L28.0413 31.6109L29.0587 29.8891L25.7587 27.9391L24.7413 29.6609ZM24.2162 30.3487C24.6567 30.2019 25.2286 30.0161 25.8047 29.6321L24.6953 27.9679C24.3714 28.1839 24.0433 28.2981 23.5838 28.4513L24.2162 30.3487ZM23.9701 33.2425L24.8701 29.6425L22.9299 29.1575L22.0299 32.7575L23.9701 33.2425ZM17 34H23V32H17V34ZM15.1299 29.6425L16.0299 33.2425L17.9701 32.7575L17.0701 29.1575L15.1299 29.6425ZM14.9778 29.9944C15.1893 30.1002 15.4791 30.2471 15.7838 30.3487L16.4162 28.4513C16.2709 28.4029 16.1107 28.3248 15.8722 28.2056L14.9778 29.9944ZM14.4338 29.7487C14.5791 29.7971 14.7393 29.8752 14.9778 29.9944L15.8722 28.2056C15.6607 28.0998 15.3709 27.9529 15.0662 27.8513L14.4338 29.7487ZM11.9587 31.6109L15.2587 29.6609L14.2413 27.9391L10.9413 29.8891L11.9587 31.6109ZM6.54289 27.2571L10.7429 31.4571L12.1571 30.0429L7.95711 25.8429L6.54289 27.2571ZM8.33907 22.7413L6.38907 26.0413L8.11093 27.0587L10.0609 23.7587L8.33907 22.7413ZM7.65132 22.2162C7.79815 22.6567 7.98389 23.2286 8.36795 23.8047L10.0321 22.6953C9.81611 22.3714 9.70185 22.0433 9.54868 21.5838L7.65132 22.2162ZM4.75746 21.9701L8.35746 22.8701L8.84254 20.9299L5.24254 20.0299L4.75746 21.9701ZM4 15V21H6V15H4ZM8.35746 13.1299L4.75746 14.0299L5.24254 15.9701L8.84254 15.0701L8.35746 13.1299ZM8.00557 12.9778C7.89984 13.1893 7.75286 13.4791 7.65132 13.7838L9.54868 14.4162C9.59714 14.2709 9.67516 14.1107 9.79443 13.8722L8.00557 12.9778ZM8.25132 12.4338C8.20286 12.5791 8.12484 12.7393 8.00557 12.9778L9.79443 13.8722C9.90016 13.6607 10.0471 13.3709 10.1487 13.0662L8.25132 12.4338ZM6.38907 9.95873L8.33907 13.2587L10.0609 12.2413L8.11093 8.94127L6.38907 9.95873ZM10.7429 4.54289L6.54289 8.74289L7.95711 10.1571L12.1571 5.95711L10.7429 4.54289ZM15.2587 6.33907L11.9587 4.38907L10.9413 6.11093L14.2413 8.06093L15.2587 6.33907ZM15.5453 5.76795C15.2214 5.98389 14.8933 6.09815 14.4338 6.25132L15.0662 8.14868C15.5067 8.00185 16.0786 7.81611 16.6547 7.43205L15.5453 5.76795ZM16.0299 2.75746L15.1299 6.35746L17.0701 6.84254L17.9701 3.24254L16.0299 2.75746ZM23 2H17V4H23V2ZM24.8701 6.35746L23.9701 2.75746L22.0299 3.24254L22.9299 6.84254L24.8701 6.35746ZM25.0222 6.00557C24.8107 5.89984 24.5209 5.75286 24.2162 5.65132L23.5838 7.54868C23.7291 7.59714 23.8893 7.67516 24.1278 7.79443L25.0222 6.00557ZM25.5662 6.25132C25.4209 6.20286 25.2607 6.12484 25.0222 6.00557L24.1278 7.79443C24.3393 7.90016 24.6291 8.04714 24.9338 8.14868L25.5662 6.25132ZM28.0413 4.38907L24.7413 6.33907L25.7587 8.06093L29.0587 6.11093L28.0413 4.38907ZM33.4571 8.74289L29.2571 4.54289L27.8429 5.95711L32.0429 10.1571L33.4571 8.74289ZM31.6609 13.2587L33.6109 9.95873L31.8891 8.94127L29.9391 12.2413L31.6609 13.2587ZM32.3487 13.7838C32.2019 13.3433 32.0161 12.7714 31.6321 12.1953L29.968 13.3047C30.1839 13.6286 30.2981 13.9567 30.4513 14.4162L32.3487 13.7838ZM26 18C26 21.3137 23.3137 24 20 24V26C24.4183 26 28 22.4183 28 18H26ZM20 12C23.3137 12 26 14.6863 26 18H28C28 13.5817 24.4183 10 20 10V12ZM14 18C14 14.6863 16.6863 12 20 12V10C15.5817 10 12 13.5817 12 18H14ZM20 24C16.6863 24 14 21.3137 14 18H12C12 22.4183 15.5817 26 20 26V24Z" fill="#AFB4C8" mask="url(#path-1-inside-1)"/>
<circle cx="20" cy="18" r="1.5" fill="white" stroke="#AFB4C8"/>
<path d="M21 17L23.5 14.5" stroke="#AFB4C8"/>
</svg>
