<svg width="40" height="40" viewBox="0 0 40 40" fill="none" xmlns="http://www.w3.org/2000/svg">
<path d="M21.2749 21.1601C21.2749 21.2866 21.1733 21.5663 20.8213 21.9609C20.488 22.3345 19.9892 22.7438 19.3542 23.1242C18.0846 23.8847 16.3255 24.4964 14.3875 24.4964C12.4625 24.4964 10.7067 23.8137 9.42983 23.0111C8.79208 22.6102 8.2868 22.1874 7.94761 21.8207C7.77758 21.6369 7.65741 21.4759 7.5827 21.3469C7.51585 21.2316 7.50302 21.1722 7.50057 21.1608C7.50005 21.1584 7.5 21.1582 7.5 21.1601C7.5 16.4539 10.6627 12.8322 14.3875 12.8322C18.1122 12.8322 21.2749 16.4539 21.2749 21.1601Z" fill="#F5F7F8" stroke="#AFB4C8"/>
<rect x="10.0908" y="6.5" width="8.49815" height="8.49815" rx="4.24908" fill="#F5F7F8" stroke="#AFB4C8"/>
<path d="M32.4995 21.1601C32.4995 21.2866 32.398 21.5663 32.0459 21.9609C31.7126 22.3345 31.2138 22.7438 30.5789 23.1242C29.3092 23.8847 27.5502 24.4964 25.6121 24.4964C23.6871 24.4964 21.9313 23.8137 20.6544 23.0111C20.0167 22.6102 19.5114 22.1874 19.1722 21.8207C19.0022 21.6369 18.882 21.4759 18.8073 21.3469C18.7405 21.2316 18.7276 21.1722 18.7252 21.1608C18.7247 21.1584 18.7246 21.1582 18.7246 21.1601C18.7246 16.4539 21.8873 12.8322 25.6121 12.8322C29.3368 12.8322 32.4995 16.4539 32.4995 21.1601Z" fill="#F5F7F8" stroke="#AFB4C8"/>
<rect x="21.3154" y="6.5" width="8.49815" height="8.49815" rx="4.24908" fill="#F5F7F8" stroke="#AFB4C8"/>
<path d="M28.0869 27.1959C28.0869 27.3944 27.9384 27.7645 27.5014 28.2544C27.0831 28.7232 26.4614 29.2325 25.6745 29.7039C24.1011 30.6464 21.9222 31.4041 19.5205 31.4041C17.1319 31.4041 14.9564 30.5574 13.3757 29.5638C12.586 29.0674 11.9578 28.5424 11.5337 28.0838C11.3211 27.8541 11.168 27.6497 11.0709 27.4822C10.9675 27.3037 10.9541 27.2122 10.9541 27.1959C10.9541 21.377 14.8685 16.8616 19.5205 16.8616C24.1726 16.8616 28.0869 21.377 28.0869 27.1959Z" fill="white" stroke="#AFB4C8"/>
<rect x="14.4082" y="9.09039" width="10.2251" height="10.2251" rx="5.11255" fill="white" stroke="#AFB4C8"/>
</svg>
