<svg width="118" height="170" viewBox="0 0 118 170" fill="none" xmlns="http://www.w3.org/2000/svg">
<rect x="106.5" y="101.5" width="11" height="3" fill="white" stroke="#AFB4C8"/>
<rect x="57.5" y="57.5" width="11" height="3" transform="rotate(-90 57.5 57.5)" fill="white" stroke="#AFB4C8"/>
<rect x="0.5" y="101.5" width="11" height="3" fill="white" stroke="#AFB4C8"/>
<path d="M30.5 164.5V140.5L33.5 141V161.5H47.5V164.5H30.5Z" fill="white" stroke="#AFB4C8"/>
<path d="M89 164.5V140.5L86 141V161.5H72V164.5H89Z" fill="white" stroke="#AFB4C8"/>
<circle cx="59" cy="102" r="49.5" fill="white" stroke="#AFB4C8"/>
<circle cx="59" cy="102" r="41.5" fill="white" stroke="#AFB4C8"/>
<circle cx="59" cy="102" r="34.5" fill="#F6F6F6" stroke="#AFB4C8"/>
<circle cx="59" cy="102" r="21.5" fill="#F6F6F6" stroke="#AFB4C8"/>
<rect x="57.5" y="72.5" width="3" height="59" fill="white" stroke="#AFB4C8"/>
<rect x="32.7025" y="88.549" width="3" height="59" transform="rotate(-60 32.7025 88.549)" fill="white" stroke="#AFB4C8"/>
<rect x="0.683013" y="0.183013" width="3" height="59" transform="matrix(0.5 0.866025 0.866025 -0.5 32.2025 114.951)" fill="white" stroke="#AFB4C8"/>
<circle cx="59" cy="102" r="17.5" fill="white" stroke="#AFB4C8"/>
<circle cx="59" cy="102" r="13.5" fill="white" stroke="#AFB4C8"/>
<circle cx="59" cy="93" r="1.5" fill="white" stroke="#AFB4C8"/>
<circle cx="51" cy="97" r="1.5" fill="white" stroke="#AFB4C8"/>
<circle cx="67" cy="97" r="1.5" fill="white" stroke="#AFB4C8"/>
<circle r="1.5" transform="matrix(1 0 0 -1 59 111)" fill="white" stroke="#AFB4C8"/>
<circle r="1.5" transform="matrix(1 0 0 -1 51 106)" fill="white" stroke="#AFB4C8"/>
<circle r="1.5" transform="matrix(1 0 0 -1 67 106)" fill="white" stroke="#AFB4C8"/>
<rect x="17.5" y="164.5" width="83" height="5" fill="white" stroke="#AFB4C8"/>
</svg>
