<svg width="110" height="170" viewBox="0 0 110 170" fill="none" xmlns="http://www.w3.org/2000/svg">
<path d="M37.2837 35.8003L35.5294 66.5H74.4706L72.7163 35.8003C72.6105 33.9479 71.0775 32.5 69.222 32.5H40.778C38.9225 32.5 37.3895 33.9479 37.2837 35.8003Z" fill="white" stroke="#AFB4C8"/>
<rect x="29.5" y="68.5" width="51" height="42" fill="white" stroke="#AFB4C8"/>
<rect x="0.5" y="-0.5" width="59" height="3" transform="matrix(1 0 0 -1 25 68)" fill="white" stroke="#AFB4C8"/>
<circle cx="55" cy="82" r="22.5" fill="white" stroke="#AFB4C8"/>
<circle cx="55" cy="82" r="19.5" fill="white" stroke="#AFB4C8"/>
<path d="M42.2664 87.94L42.5327 88.4918L64.3204 78.6556L63.5213 77.0001L42.2664 87.94Z" fill="#AFB4C8"/>
<circle cx="55" cy="82" r="2.5" fill="white" stroke="#AFB4C8"/>
<circle cx="55" cy="82" r="0.5" fill="white" stroke="#AFB4C8"/>
<circle cx="51.5" cy="94.5" r="2" fill="white" stroke="#AFB4C8"/>
<circle cx="58.5" cy="94.5" r="2" fill="white" stroke="#AFB4C8"/>
<rect x="51" y="74" width="8" height="1" fill="#AFB4C8"/>
<rect x="51" y="72" width="8" height="1" fill="#AFB4C8"/>
<rect x="80.5" y="80.5" width="5" height="13" fill="white" stroke="#AFB4C8"/>
<rect x="80.5" y="84.5" width="5" height="5" fill="white" stroke="#AFB4C8"/>
<rect x="91.5" y="82.5" width="7" height="9" fill="white" stroke="#AFB4C8"/>
<rect x="85.5" y="83.5" width="6" height="7" fill="white" stroke="#AFB4C8"/>
<path d="M96 80.5H109C109.276 80.5 109.5 80.7239 109.5 81V93C109.5 93.2761 109.276 93.5 109 93.5H96C95.1716 93.5 94.5 92.8284 94.5 92V82C94.5 81.1716 95.1716 80.5 96 80.5Z" fill="white" stroke="#AFB4C8"/>
<path d="M95 86.5H109" stroke="#AFB4C8"/>
<rect x="-0.5" y="0.5" width="5" height="13" transform="matrix(-1 0 0 1 29 80)" fill="white" stroke="#AFB4C8"/>
<rect x="-0.5" y="0.5" width="5" height="5" transform="matrix(-1 0 0 1 29 84)" fill="white" stroke="#AFB4C8"/>
<rect x="-0.5" y="0.5" width="7" height="9" transform="matrix(-1 0 0 1 18 82)" fill="white" stroke="#AFB4C8"/>
<rect x="18.5" y="83.5" width="6" height="7" fill="white" stroke="#AFB4C8"/>
<path d="M14 80.5H1C0.723858 80.5 0.5 80.7239 0.5 81V93C0.5 93.2761 0.723858 93.5 1 93.5H14C14.8284 93.5 15.5 92.8284 15.5 92V82C15.5 81.1716 14.8284 80.5 14 80.5Z" fill="white" stroke="#AFB4C8"/>
<path d="M15 86.5H1" stroke="#AFB4C8"/>
<path d="M37.2999 153.187L35.5213 110.5H74.4787L72.7001 153.187C72.5997 155.598 70.6164 157.5 68.204 157.5H41.796C39.3836 157.5 37.4003 155.598 37.2999 153.187Z" fill="white" stroke="#AFB4C8"/>
<rect x="32.5" y="110.5" width="8" height="4" fill="white" stroke="#AFB4C8"/>
<rect x="34.5" y="110.5" width="4" height="4" fill="white" stroke="#AFB4C8"/>
<rect x="34.5" y="114.5" width="4" height="2" fill="white" stroke="#AFB4C8"/>
<rect x="69.5" y="110.5" width="8" height="4" fill="white" stroke="#AFB4C8"/>
<rect x="71.5" y="110.5" width="4" height="4" fill="white" stroke="#AFB4C8"/>
<rect x="71.5" y="114.5" width="4" height="2" fill="white" stroke="#AFB4C8"/>
<path d="M66 110.5H80.5V107.5H29.5V110.5H44H44.5V111V113C44.5 113.276 44.7239 113.5 45 113.5H65C65.2761 113.5 65.5 113.276 65.5 113V111V110.5H66Z" fill="white" stroke="#AFB4C8"/>
<path d="M48.55 157.5H61.45C61.2184 158.641 60.2095 159.5 59 159.5H51C49.7905 159.5 48.7816 158.641 48.55 157.5Z" fill="white" stroke="#AFB4C8"/>
<path d="M46.5 119V152" stroke="#AFB4C8" stroke-linecap="round"/>
<path d="M63.5 119V152" stroke="#AFB4C8" stroke-linecap="round"/>
<path d="M42 30.5H68C68.8284 30.5 69.5 31.1716 69.5 32V32.5H40.5V32C40.5 31.1716 41.1716 30.5 42 30.5Z" fill="white" stroke="#AFB4C8"/>
<path d="M43 20.5H67C67.8284 20.5 68.5 21.1716 68.5 22V30.5H41.5V22C41.5 21.1716 42.1716 20.5 43 20.5Z" fill="white" stroke="#AFB4C8"/>
<path d="M45 22.5H51C51.8284 22.5 52.5 23.1716 52.5 24V30.5H43.5V24C43.5 23.1716 44.1716 22.5 45 22.5Z" fill="white" stroke="#AFB4C8"/>
<path d="M59 22.5H65C65.8284 22.5 66.5 23.1716 66.5 24V30.5H57.5V24C57.5 23.1716 58.1716 22.5 59 22.5Z" fill="white" stroke="#AFB4C8"/>
<path d="M51 3.5H59C62.5899 3.5 65.5 6.41015 65.5 10V20.5H44.5V10C44.5 6.41015 47.4101 3.5 51 3.5Z" fill="white" stroke="#AFB4C8"/>
<rect x="45.5" y="40.5" width="19" height="13" fill="white" stroke="#AFB4C8"/>
<path d="M50 45.5H59.5" stroke="#AFB4C8"/>
<path d="M50 48.5H59.5" stroke="#AFB4C8"/>
<rect x="48.5" y="164.5" width="13" height="5" fill="white" stroke="#AFB4C8"/>
<rect x="51.5" y="159.5" width="7" height="2" fill="white" stroke="#AFB4C8"/>
<rect x="52.5" y="161.5" width="5" height="3" fill="white" stroke="#AFB4C8"/>
</svg>
