<svg width="40" height="40" viewBox="0 0 40 40" fill="none" xmlns="http://www.w3.org/2000/svg">
<path d="M30.4999 22.967C30.4999 24.6227 29.3486 26.4997 27.3344 27.9892C25.337 29.4663 22.5657 30.5 19.5 30.5C16.4344 30.5 13.663 29.4663 11.6657 27.9892C9.65151 26.4997 8.50013 24.6227 8.50013 22.967C8.50013 21.6142 8.50006 21.4961 8.50002 21.378C8.49996 21.1684 8.49998 20.9588 8.50063 13.8443C8.50067 13.4716 8.67075 13.0944 9.06024 12.7145C9.45446 12.33 10.0508 11.9678 10.8299 11.6514C12.3861 11.0193 14.564 10.6129 16.9791 10.5202C21.7454 10.3374 27.2301 11.3811 30.5 14.0765L30.4999 22.967Z" fill="white" stroke="#AFB4C8" stroke-linecap="round"/>
<path d="M30.5 14C30.5 15.9998 29.3354 17.8626 27.3462 19.2464C25.3588 20.6289 22.5863 21.5 19.5 21.5C16.4137 21.5 13.6412 20.6289 11.6538 19.2464C9.66461 17.8626 8.5 15.9998 8.5 14C8.5 12.0002 9.66461 10.1374 11.6538 8.7536C13.6412 7.37106 16.4137 6.5 19.5 6.5C22.5863 6.5 25.3588 7.37106 27.3462 8.7536C29.3354 10.1374 30.5 12.0002 30.5 14Z" fill="white" stroke="#AFB4C8" stroke-linecap="round"/>
<mask id="mask0" mask-type="alpha" maskUnits="userSpaceOnUse" x="9" y="7" width="21" height="14">
<path d="M29.5 14C29.5 15.7138 28.458 17.3266 26.6473 18.5337C24.84 19.7385 22.3145 20.5 19.5 20.5C16.6854 20.5 14.16 19.7385 12.3527 18.5337C10.542 17.3266 9.5 15.7138 9.5 14C9.5 12.2862 10.542 10.6734 12.3527 9.46628C14.16 8.26145 16.6854 7.5 19.5 7.5C22.3145 7.5 24.84 8.26145 26.6473 9.46628C28.458 10.6734 29.5 12.2862 29.5 14Z" fill="white" stroke="#AFB4C8" stroke-linecap="round"/>
</mask>
<g mask="url(#mask0)">
<path d="M30.5 20C30.5 21.9998 29.3354 23.8626 27.3462 25.2464C25.3588 26.6289 22.5863 27.5 19.5 27.5C16.4137 27.5 13.6412 26.6289 11.6538 25.2464C9.66461 23.8626 8.5 21.9998 8.5 20C8.5 18.0002 9.66461 16.1374 11.6538 14.7536C13.6412 13.3711 16.4137 12.5 19.5 12.5C22.5863 12.5 25.3588 13.3711 27.3462 14.7536C29.3354 16.1374 30.5 18.0002 30.5 20Z" fill="#F5F7F8" stroke="#AFB4C8" stroke-linecap="round"/>
</g>
<path d="M14.6957 22L13 21L13.5652 18H23.7391H26.5L25.5 20L24.3043 21.5L21.4783 24.5V27.5L21 32H17.5217V29L16.9565 25.5L14.6957 22Z" fill="#F5F7F8"/>
<mask id="path-6-inside-1" fill="white">
<path fill-rule="evenodd" clip-rule="evenodd" d="M33 8H36V17V21H33H30V17H33V8Z"/>
</mask>
<path fill-rule="evenodd" clip-rule="evenodd" d="M33 8H36V17V21H33H30V17H33V8Z" fill="#F5F7F8"/>
<path d="M36 8H37V7H36V8ZM33 8V7H32V8H33ZM36 21V22H37V21H36ZM30 21H29V22H30V21ZM30 17V16H29V17H30ZM33 17V18H34V17H33ZM36 7H33V9H36V7ZM37 17V8H35V17H37ZM35 17V21H37V17H35ZM36 20H33V22H36V20ZM33 20H30V22H33V20ZM31 21V17H29V21H31ZM30 18H33V16H30V18ZM32 8V17H34V8H32Z" fill="#AFB4C8" mask="url(#path-6-inside-1)"/>
<mask id="path-8-inside-2" fill="white">
<path fill-rule="evenodd" clip-rule="evenodd" d="M3 8H6V17H9V21H6H3V17V8Z"/>
</mask>
<path fill-rule="evenodd" clip-rule="evenodd" d="M3 8H6V17H9V21H6H3V17V8Z" fill="#F5F7F8"/>
<path d="M6 8H7V7H6V8ZM3 8V7H2V8H3ZM6 17H5V18H6V17ZM9 17H10V16H9V17ZM9 21V22H10V21H9ZM3 21H2V22H3V21ZM6 7H3V9H6V7ZM7 17V8H5V17H7ZM6 18H9V16H6V18ZM8 17V21H10V17H8ZM9 20H6V22H9V20ZM6 20H3V22H6V20ZM4 21V17H2V21H4ZM2 8V17H4V8H2Z" fill="#AFB4C8" mask="url(#path-8-inside-2)"/>
<path d="M13 20V20C15.7774 21.543 17.5 24.4705 17.5 27.6478V35" stroke="#AFB4C8"/>
<path d="M26 20V20C23.2226 21.543 21.5 24.4705 21.5 27.6478V35" stroke="#AFB4C8"/>
</svg>
