<svg width="98" height="59" viewBox="0 0 98 59" fill="none" xmlns="http://www.w3.org/2000/svg">
<rect x="29" width="30" height="30" fill="#EDF1F2"/>
<path d="M29.5 59C33.374 59 37.2101 58.237 40.7892 56.7544C44.3683 55.2719 47.6203 53.099 50.3596 50.3596C53.099 47.6203 55.2719 44.3683 56.7544 40.7892C58.237 37.2101 59 33.374 59 29.5L48.5919 29.5C48.5919 32.0072 48.0981 34.4898 47.1386 36.8061C46.1791 39.1225 44.7728 41.2272 43 43C41.2272 44.7728 39.1225 46.1791 36.8061 47.1386C34.4898 48.0981 32.0072 48.5919 29.5 48.5919L29.5 59Z" fill="#EDF1F2"/>
<rect x="68" width="30" height="30" fill="#EDF1F2"/>
<path d="M68.5 59C72.374 59 76.2101 58.237 79.7892 56.7544C83.3683 55.2719 86.6203 53.099 89.3596 50.3596C92.099 47.6203 94.2719 44.3683 95.7544 40.7892C97.237 37.2101 98 33.374 98 29.5L87.5919 29.5C87.5919 32.0072 87.0981 34.4898 86.1386 36.8061C85.1791 39.1225 83.7728 41.2272 82 43C80.2272 44.7728 78.1225 46.1791 75.8061 47.1386C73.4898 48.0981 71.0072 48.5919 68.5 48.5919L68.5 59Z" fill="#EDF1F2"/>
</svg>
