<svg width="109" height="170" viewBox="0 0 109 170" fill="none" xmlns="http://www.w3.org/2000/svg">
<rect x="2.5" y="118.5" width="9" height="48" fill="white" stroke="#AFB4C8"/>
<rect x="-0.5" y="0.5" width="2" height="28" transform="matrix(-1 0 0 1 2 128)" fill="white" stroke="#AFB4C8"/>
<path d="M17.5 149.966V135.034L11.5 129.186V155.814L17.5 149.966Z" fill="white" stroke="#AFB4C8"/>
<rect x="17.5" y="135.5" width="22" height="14" fill="white" stroke="#AFB4C8"/>
<rect x="35.5" y="120.5" width="39" height="43" fill="white" stroke="#AFB4C8"/>
<rect x="41.5" y="132.5" width="27" height="23" fill="white" stroke="#AFB4C8"/>
<rect x="0.5" y="-0.5" width="39" height="7" transform="matrix(1 0 0 -1 35 127)" fill="white" stroke="#AFB4C8"/>
<rect x="0.5" y="-0.5" width="25" height="9" transform="matrix(1 0 0 -1 42 120)" fill="white" stroke="#AFB4C8"/>
<path d="M39 42.5H71C71.8284 42.5 72.5 43.1716 72.5 44V91.5H37.5V44C37.5 43.1716 38.1716 42.5 39 42.5Z" fill="white" stroke="#AFB4C8"/>
<path d="M43 38.5H67C69.3163 38.5 71.2238 40.25 71.4725 42.5H38.5275C38.7762 40.25 40.6837 38.5 43 38.5Z" fill="white" stroke="#AFB4C8"/>
<rect x="0.5" y="-0.5" width="71" height="10" transform="matrix(1 0 0 -1 19 111)" fill="white" stroke="#AFB4C8"/>
<rect x="0.5" y="-0.5" width="71" height="10" transform="matrix(1 0 0 -1 19 101)" fill="white" stroke="#AFB4C8"/>
<rect x="38.5" y="116.5" width="8" height="4" fill="white" stroke="#AFB4C8"/>
<rect x="40.5" y="116.5" width="4" height="4" fill="white" stroke="#AFB4C8"/>
<rect x="49.5" y="34.5" width="12" height="4" fill="white" stroke="#AFB4C8"/>
<rect x="52.5" y="34.5" width="6" height="4" fill="white" stroke="#AFB4C8"/>
<rect x="38.5" y="163.5" width="8" height="4" fill="white" stroke="#AFB4C8"/>
<rect x="40.5" y="163.5" width="4" height="4" fill="white" stroke="#AFB4C8"/>
<rect x="63.5" y="163.5" width="8" height="4" fill="white" stroke="#AFB4C8"/>
<rect x="65.5" y="163.5" width="4" height="4" fill="white" stroke="#AFB4C8"/>
<rect x="63.5" y="116.5" width="8" height="4" fill="white" stroke="#AFB4C8"/>
<rect x="65.5" y="116.5" width="4" height="4" fill="white" stroke="#AFB4C8"/>
<path d="M18 145.5H35" stroke="#AFB4C8"/>
<rect x="-0.5" y="0.5" width="9" height="48" transform="matrix(-1 0 0 1 106 118)" fill="white" stroke="#AFB4C8"/>
<rect x="106.5" y="128.5" width="2" height="28" fill="white" stroke="#AFB4C8"/>
<path d="M91.5 149.966V135.034L97.5 129.186V155.814L91.5 149.966Z" fill="white" stroke="#AFB4C8"/>
<rect x="-0.5" y="0.5" width="17" height="14" transform="matrix(-1 0 0 1 91 135)" fill="white" stroke="#AFB4C8"/>
<path d="M91.5 145.5H74.5" stroke="#AFB4C8"/>
<path d="M47 138.5L63 138.5" stroke="#AFB4C8"/>
<path d="M47 141.5L63 141.5" stroke="#AFB4C8"/>
<path d="M47 144.5L63 144.5" stroke="#AFB4C8"/>
<path d="M47 147.5H58" stroke="#AFB4C8"/>
<rect x="40.5" y="167.5" width="4" height="2" fill="white" stroke="#AFB4C8"/>
<rect x="65.5" y="167.5" width="4" height="2" fill="white" stroke="#AFB4C8"/>
<rect x="40.5" y="114.5" width="4" height="2" fill="white" stroke="#AFB4C8"/>
<rect x="22.5" y="87.5" width="8" height="4" fill="white" stroke="#AFB4C8"/>
<rect x="24.5" y="87.5" width="4" height="4" fill="white" stroke="#AFB4C8"/>
<rect x="24.5" y="85.5" width="4" height="2" fill="white" stroke="#AFB4C8"/>
<rect x="40.5" y="87.5" width="8" height="4" fill="white" stroke="#AFB4C8"/>
<rect x="42.5" y="87.5" width="4" height="4" fill="white" stroke="#AFB4C8"/>
<rect x="42.5" y="85.5" width="4" height="2" fill="white" stroke="#AFB4C8"/>
<rect x="61.5" y="87.5" width="8" height="4" fill="white" stroke="#AFB4C8"/>
<rect x="63.5" y="87.5" width="4" height="4" fill="white" stroke="#AFB4C8"/>
<rect x="63.5" y="85.5" width="4" height="2" fill="white" stroke="#AFB4C8"/>
<rect x="79.5" y="87.5" width="8" height="4" fill="white" stroke="#AFB4C8"/>
<rect x="81.5" y="87.5" width="4" height="4" fill="white" stroke="#AFB4C8"/>
<rect x="81.5" y="85.5" width="4" height="2" fill="white" stroke="#AFB4C8"/>
<rect x="65.5" y="114.5" width="4" height="2" fill="white" stroke="#AFB4C8"/>
<rect x="52.5" y="3.5" width="6" height="31" fill="white" stroke="#AFB4C8"/>
<path d="M45.5 43L45.5 85" stroke="#AFB4C8"/>
<rect x="51.5" y="0.5" width="8" height="4" fill="white" stroke="#AFB4C8"/>
<rect x="53.5" y="0.5" width="4" height="4" fill="white" stroke="#AFB4C8"/>
</svg>
