<svg width="134" height="170" viewBox="0 0 134 170" fill="none" xmlns="http://www.w3.org/2000/svg">
<rect x="54.5" y="62.5" width="23" height="17" fill="white" stroke="#AFB4C8"/>
<rect x="46.5" y="42.5" width="39" height="13" fill="white" stroke="#AFB4C8"/>
<rect x="46.5" y="42.5" width="39" height="4" fill="white" stroke="#AFB4C8"/>
<rect x="63.5" y="31.5" width="2" height="11" fill="white" stroke="#AFB4C8"/>
<rect x="65.5" y="31.5" width="3" height="11" fill="white" stroke="#AFB4C8"/>
<rect x="0.5" y="-0.5" width="5" height="2" transform="matrix(1 0 0 -1 63 31)" fill="white" stroke="#AFB4C8"/>
<path d="M46.5 55.5H85.5V55.7731L77.8121 62.5H54.1879L46.5 55.7731V55.5Z" fill="white" stroke="#AFB4C8"/>
<path d="M49.5594 163L49.5586 152.493L81.442 152.066V163C81.442 164.381 80.3227 165.5 78.942 165.5H52.0594C50.6788 165.5 49.5595 164.381 49.5594 163Z" fill="white" stroke="#AFB4C8"/>
<rect x="0.5" y="-0.5" width="26" height="2" transform="matrix(1 0 0 -1 52 167)" fill="white" stroke="#AFB4C8"/>
<rect x="2.5" y="87.5" width="12" height="68" fill="white" stroke="#AFB4C8"/>
<rect x="-0.5" y="0.5" width="2" height="48" transform="matrix(-1 0 0 1 2 97)" fill="white" stroke="#AFB4C8"/>
<rect x="-0.5" y="0.5" width="12" height="68" transform="matrix(-1 0 0 1 131 88)" fill="white" stroke="#AFB4C8"/>
<rect x="131.5" y="100.5" width="2" height="44" fill="white" stroke="#AFB4C8"/>
<rect x="107.5" y="100.5" width="12" height="44" fill="white" stroke="#AFB4C8"/>
<rect x="107.5" y="94.5" width="3" height="7" fill="white" stroke="#AFB4C8"/>
<rect x="107.5" y="96.5" width="3" height="3" fill="white" stroke="#AFB4C8"/>
<rect x="107.5" y="106.5" width="3" height="7" fill="white" stroke="#AFB4C8"/>
<rect x="107.5" y="108.5" width="3" height="3" fill="white" stroke="#AFB4C8"/>
<rect x="107.5" y="118.5" width="3" height="7" fill="white" stroke="#AFB4C8"/>
<rect x="107.5" y="120.5" width="3" height="3" fill="white" stroke="#AFB4C8"/>
<rect x="107.5" y="130.5" width="3" height="7" fill="white" stroke="#AFB4C8"/>
<rect x="107.5" y="132.5" width="3" height="3" fill="white" stroke="#AFB4C8"/>
<rect x="107.5" y="142.5" width="3" height="7" fill="white" stroke="#AFB4C8"/>
<rect x="107.5" y="144.5" width="3" height="3" fill="white" stroke="#AFB4C8"/>
<path d="M19.5 144.382V99.618L14.5 97.7241V146.276L19.5 144.382Z" fill="white" stroke="#AFB4C8"/>
<mask id="path-26-inside-1" fill="white">
<path fill-rule="evenodd" clip-rule="evenodd" d="M30.1987 95.8983C39.2217 92.8735 47.4567 90.1129 57.4922 90.1129H72.9922C76.4236 90.1129 81.8544 90.3437 87.7413 90.5938C94.7079 90.8898 102.313 91.2129 108 91.2129V114.18V130.046V153.013C102.313 153.013 94.7079 153.924 87.7413 154.758C81.8544 155.463 76.4236 156.113 72.9922 156.113H64.5H57.4922C48.4603 156.113 40.8868 153.044 32.8847 149.8C28.4899 148.019 23.9659 146.186 19 144.78C19.0005 141.35 19.0006 135.274 19.0005 129.48L19 129.48C19 129.48 19.0002 126.393 19.0003 122.113C19.0002 117.833 19 114.746 19 114.746L19.0005 114.746C19.0006 108.952 19.0005 102.876 19 99.4462C22.9611 98.3245 26.6412 97.0909 30.1987 95.8983Z"/>
</mask>
<path fill-rule="evenodd" clip-rule="evenodd" d="M30.1987 95.8983C39.2217 92.8735 47.4567 90.1129 57.4922 90.1129H72.9922C76.4236 90.1129 81.8544 90.3437 87.7413 90.5938C94.7079 90.8898 102.313 91.2129 108 91.2129V114.18V130.046V153.013C102.313 153.013 94.7079 153.924 87.7413 154.758C81.8544 155.463 76.4236 156.113 72.9922 156.113H64.5H57.4922C48.4603 156.113 40.8868 153.044 32.8847 149.8C28.4899 148.019 23.9659 146.186 19 144.78C19.0005 141.35 19.0006 135.274 19.0005 129.48L19 129.48C19 129.48 19.0002 126.393 19.0003 122.113C19.0002 117.833 19 114.746 19 114.746L19.0005 114.746C19.0006 108.952 19.0005 102.876 19 99.4462C22.9611 98.3245 26.6412 97.0909 30.1987 95.8983Z" fill="white"/>
<path d="M30.1987 95.8983L30.5165 96.8465L30.5165 96.8465L30.1987 95.8983ZM87.7413 90.5938L87.6989 91.5929L87.6989 91.5929L87.7413 90.5938ZM108 91.2129H109V90.2129H108V91.2129ZM108 153.013V154.013H109V153.013H108ZM87.7413 154.758L87.6225 153.765L87.6225 153.765L87.7413 154.758ZM32.8847 149.8L33.2603 148.874L33.2603 148.874L32.8847 149.8ZM19 144.78L18 144.779L17.9999 145.536L18.7275 145.742L19 144.78ZM19.0005 129.48L20.0005 129.48L20.0005 128.487L19.0078 128.48L19.0005 129.48ZM19 129.48L18 129.48L17.9999 130.472L18.9927 130.48L19 129.48ZM19.0003 122.113L20.0003 122.113L20.0003 122.113L19.0003 122.113ZM19 114.746L18.9927 113.746L17.9999 113.754L18 114.746L19 114.746ZM19.0005 114.746L19.0078 115.746L20.0005 115.739L20.0005 114.746L19.0005 114.746ZM19 99.4462L18.7275 98.4841L17.9999 98.6901L18 99.4464L19 99.4462ZM57.4922 89.1129C47.2712 89.1129 38.8895 91.9302 29.8808 94.9502L30.5165 96.8465C39.5539 93.8169 47.6422 91.1129 57.4922 91.1129V89.1129ZM72.9922 89.1129H57.4922V91.1129H72.9922V89.1129ZM87.7838 89.5947C81.9076 89.345 76.4503 89.1129 72.9922 89.1129V91.1129C76.397 91.1129 81.8013 91.3423 87.6989 91.5929L87.7838 89.5947ZM108 90.2129C102.339 90.2129 94.7579 89.891 87.7838 89.5947L87.6989 91.5929C94.6579 91.8886 102.287 92.2129 108 92.2129V90.2129ZM109 114.18V91.2129H107V114.18H109ZM107 114.18V130.046H109V114.18H107ZM107 130.046V153.013H109V130.046H107ZM108 152.013C102.24 152.013 94.5675 152.933 87.6225 153.765L87.8602 155.751C94.8483 154.914 102.386 154.013 108 154.013V152.013ZM87.6225 153.765C81.7053 154.473 76.3486 155.113 72.9922 155.113V157.113C76.4986 157.113 82.0035 156.452 87.8602 155.751L87.6225 153.765ZM72.9922 155.113H64.5V157.113H72.9922V155.113ZM64.5 155.113H57.4922V157.113H64.5V155.113ZM57.4922 155.113C48.6838 155.113 41.2844 152.126 33.2603 148.874L32.509 150.727C40.4891 153.961 48.2369 157.113 57.4922 157.113V155.113ZM33.2603 148.874C28.8715 147.095 24.2987 145.241 19.2725 143.817L18.7275 145.742C23.633 147.131 28.1083 148.944 32.509 150.727L33.2603 148.874ZM20 144.78C20.0005 141.35 20.0006 135.274 20.0005 129.48L18.0005 129.48C18.0006 135.274 18.0005 141.35 18 144.779L20 144.78ZM18.9927 130.48L18.9932 130.48L19.0078 128.48L19.0073 128.48L18.9927 130.48ZM18.0003 122.113C18.0003 124.253 18.0002 126.095 18.0001 127.401C18.0001 128.055 18 128.574 18 128.93C18 129.108 18 129.246 18 129.339C18 129.385 18 129.42 18 129.444C18 129.456 18 129.465 18 129.471C18 129.474 18 129.476 18 129.477C18 129.478 18 129.479 18 129.479C18 129.479 18 129.479 18 129.479C18 129.479 18 129.479 18 129.479C18 129.48 18 129.48 19 129.48C20 129.48 20 129.48 20 129.48C20 129.48 20 129.48 20 129.479C20 129.479 20 129.479 20 129.479C20 129.479 20 129.478 20 129.477C20 129.476 20 129.474 20 129.471C20 129.465 20 129.456 20 129.444C20 129.42 20 129.385 20 129.339C20 129.246 20 129.109 20 128.93C20 128.574 20.0001 128.055 20.0001 127.401C20.0002 126.095 20.0003 124.253 20.0003 122.113L18.0003 122.113ZM20.0003 122.113C20.0003 119.973 20.0002 118.131 20.0001 116.824C20.0001 116.171 20 115.652 20 115.295C20 115.117 20 114.98 20 114.887C20 114.841 20 114.806 20 114.782C20 114.77 20 114.761 20 114.755C20 114.752 20 114.75 20 114.748C20 114.748 20 114.747 20 114.747C20 114.747 20 114.746 20 114.746C20 114.746 20 114.746 20 114.746C20 114.746 20 114.746 19 114.746C18 114.746 18 114.746 18 114.746C18 114.746 18 114.746 18 114.746C18 114.747 18 114.747 18 114.747C18 114.747 18 114.748 18 114.749C18 114.75 18 114.752 18 114.755C18 114.761 18 114.77 18 114.782C18 114.806 18 114.841 18 114.887C18 114.98 18 115.117 18 115.295C18 115.652 18.0001 116.171 18.0001 116.825C18.0002 118.131 18.0003 119.973 18.0003 122.113L20.0003 122.113ZM19.0073 115.746L19.0078 115.746L18.9932 113.746L18.9927 113.746L19.0073 115.746ZM18 99.4464C18.0005 102.876 18.0006 108.952 18.0005 114.746L20.0005 114.746C20.0006 108.952 20.0005 102.876 20 99.4461L18 99.4464ZM29.8808 94.9502C26.3207 96.1436 22.6624 97.3698 18.7275 98.4841L19.2725 100.408C23.2599 99.2793 26.9616 98.0382 30.5165 96.8465L29.8808 94.9502Z" fill="#AFB4C8" mask="url(#path-26-inside-1)"/>
<rect x="53.5" y="167.5" width="5" height="2" fill="white" stroke="#AFB4C8"/>
<rect x="51.5" y="77.5" width="5" height="2" fill="white" stroke="#AFB4C8"/>
<rect x="59.5" y="77.5" width="5" height="2" fill="white" stroke="#AFB4C8"/>
<rect x="67.5" y="77.5" width="5" height="2" fill="white" stroke="#AFB4C8"/>
<rect x="75.5" y="77.5" width="5" height="2" fill="white" stroke="#AFB4C8"/>
<rect x="62.5" y="167.5" width="5" height="2" fill="white" stroke="#AFB4C8"/>
<rect x="71.5" y="167.5" width="5" height="2" fill="white" stroke="#AFB4C8"/>
<path d="M46.5002 89.1057L46.5005 85.5H85.4948L85.4572 89.1349C85.441 90.6932 84.6198 92.1322 83.2863 92.9388L76.056 97.3119C69.8514 101.065 62.0769 101.065 55.8723 97.3119L48.6713 92.9565C47.3235 92.1413 46.5001 90.6808 46.5002 89.1057Z" fill="white" stroke="#AFB4C8"/>
<rect x="64" y="100" width="1" height="56" fill="#AFB4C8"/>
<rect x="67" y="100" width="1" height="56" fill="#AFB4C8"/>
<rect x="91" y="91" width="1" height="63" fill="#AFB4C8"/>
<rect x="39" y="93" width="1" height="59" fill="#AFB4C8"/>
<rect x="48.5" y="79.5" width="35" height="6" fill="white" stroke="#AFB4C8"/>
</svg>
