<svg width="110" height="170" viewBox="0 0 110 170" fill="none" xmlns="http://www.w3.org/2000/svg">
<rect x="40.5" y="25.5" width="29" height="35" fill="white" stroke="#AFB4C8"/>
<path d="M40.5 44.5L36 60.5H43.5V45.5C43.5 44.9477 43.0523 44.5 42.5 44.5H40.5Z" fill="white" stroke="#AFB4C8"/>
<path d="M69.5 44.5L74 60.5H66.5V45.5C66.5 44.9477 66.9477 44.5 67.5 44.5H69.5Z" fill="white" stroke="#AFB4C8"/>
<path d="M72.5 69V90.5H37.5V69V68.7324L37.2774 68.584L34.5 66.7324V61.4258V60.5H47C47.2761 60.5 47.5 60.7239 47.5 61V63C47.5 63.8284 48.1716 64.5 49 64.5H61C61.8284 64.5 62.5 63.8284 62.5 63V61C62.5 60.7239 62.7239 60.5 63 60.5H75.5V66.7324L72.7226 68.584L72.5 68.7324V69Z" fill="white" stroke="#AFB4C8"/>
<rect x="37.5" y="81.5" width="35" height="9" fill="white" stroke="#AFB4C8"/>
<path d="M101.5 120V129" stroke="black"/>
<rect x="-0.5" y="0.5" width="15" height="6" transform="matrix(-1 0 0 1 99 121)" fill="white" stroke="#AFB4C8"/>
<path d="M99.5 128.276V120.724L103.5 117.954V131.046L99.5 128.276Z" fill="white" stroke="#AFB4C8"/>
<rect x="-0.5" y="0.5" width="13" height="6" transform="matrix(-1 0 0 1 93 121)" fill="white" stroke="#AFB4C8"/>
<rect x="-0.5" y="0.5" width="3" height="26" transform="matrix(-1 0 0 1 106 111)" fill="white" stroke="#AFB4C8"/>
<rect x="106.5" y="117.5" width="2" height="14" fill="white" stroke="#AFB4C8"/>
<path d="M7.5 120V129" stroke="black"/>
<rect x="9.5" y="121.5" width="15" height="6" fill="white" stroke="#AFB4C8"/>
<path d="M9.5 128.276V120.724L5.5 117.954V131.046L9.5 128.276Z" fill="white" stroke="#AFB4C8"/>
<rect x="15.5" y="121.5" width="13" height="6" fill="white" stroke="#AFB4C8"/>
<path d="M29 103.5H25.5V98V96.5H78H83.5V103.5H80H79.5V104V131.5H29.5V104V103.5H29Z" fill="white" stroke="#AFB4C8"/>
<rect x="0.5" y="-0.5" width="54" height="6" transform="matrix(1 0 0 -1 27 96)" fill="white" stroke="#AFB4C8"/>
<rect x="29.5" y="86.5" width="8" height="4" fill="white" stroke="#AFB4C8"/>
<rect x="31.5" y="86.5" width="4" height="4" fill="white" stroke="#AFB4C8"/>
<rect x="31.5" y="84.5" width="4" height="2" fill="white" stroke="#AFB4C8"/>
<rect x="43.5" y="86.5" width="8" height="4" fill="white" stroke="#AFB4C8"/>
<rect x="45.5" y="86.5" width="4" height="4" fill="white" stroke="#AFB4C8"/>
<rect x="45.5" y="84.5" width="4" height="2" fill="white" stroke="#AFB4C8"/>
<path d="M69 57.5H71C71.2761 57.5 71.5 57.7239 71.5 58V60.5H68.5V58C68.5 57.7239 68.7239 57.5 69 57.5Z" fill="white" stroke="#AFB4C8"/>
<path d="M39 57.5H41C41.2761 57.5 41.5 57.7239 41.5 58V60.5H38.5V58C38.5 57.7239 38.7239 57.5 39 57.5Z" fill="white" stroke="#AFB4C8"/>
<rect x="58.5" y="86.5" width="8" height="4" fill="white" stroke="#AFB4C8"/>
<rect x="60.5" y="86.5" width="4" height="4" fill="white" stroke="#AFB4C8"/>
<rect x="60.5" y="84.5" width="4" height="2" fill="white" stroke="#AFB4C8"/>
<rect x="72.5" y="86.5" width="8" height="4" fill="white" stroke="#AFB4C8"/>
<rect x="74.5" y="86.5" width="4" height="4" fill="white" stroke="#AFB4C8"/>
<rect x="74.5" y="84.5" width="4" height="2" fill="white" stroke="#AFB4C8"/>
<circle cx="55" cy="136" r="33.5" fill="white" stroke="#AFB4C8"/>
<path d="M32.3649 127.853C32.8301 126.553 32.1533 125.122 30.8533 124.657C29.5533 124.192 28.1224 124.868 27.6572 126.168C27.1921 127.468 27.8689 128.899 29.1689 129.365C30.4689 129.83 31.8998 129.153 32.3649 127.853Z" fill="white" stroke="#AFB4C8"/>
<path d="M33.3649 147.913C33.8301 146.613 33.1533 145.182 31.8533 144.717C30.5533 144.252 29.1224 144.928 28.6572 146.228C28.1921 147.528 28.8689 148.959 30.1689 149.424C31.4689 149.89 32.8998 149.213 33.3649 147.913Z" fill="white" stroke="#AFB4C8"/>
<path d="M46.029 112.832C46.4942 111.532 45.8174 110.101 44.5174 109.635C43.2174 109.17 41.7864 109.847 41.3213 111.147C40.8561 112.447 41.5329 113.878 42.8329 114.343C44.1329 114.808 45.5639 114.132 46.029 112.832Z" fill="white" stroke="#AFB4C8"/>
<path d="M47.3649 160.832C47.8301 159.532 47.1533 158.101 45.8533 157.635C44.5533 157.17 43.1224 157.847 42.6572 159.147C42.1921 160.447 42.8689 161.878 44.1689 162.343C45.4689 162.808 46.8998 162.132 47.3649 160.832Z" fill="white" stroke="#AFB4C8"/>
<path d="M77.4827 127.853C77.0176 126.553 77.6943 125.122 78.9943 124.657C80.2943 124.192 81.7253 124.868 82.1904 126.168C82.6556 127.468 81.9788 128.899 80.6788 129.365C79.3788 129.83 77.9479 129.153 77.4827 127.853Z" fill="white" stroke="#AFB4C8"/>
<path d="M76.4827 147.913C76.0176 146.613 76.6943 145.182 77.9943 144.717C79.2943 144.252 80.7253 144.928 81.1904 146.228C81.6556 147.528 80.9788 148.959 79.6788 149.424C78.3788 149.89 76.9479 149.213 76.4827 147.913Z" fill="white" stroke="#AFB4C8"/>
<path d="M62.6351 112.832C62.1699 111.532 62.8467 110.101 64.1467 109.635C65.4467 109.17 66.8776 109.847 67.3428 111.147C67.8079 112.447 67.1311 113.878 65.8311 114.343C64.5311 114.808 63.1002 114.132 62.6351 112.832Z" fill="white" stroke="#AFB4C8"/>
<path d="M62.6351 160.853C62.1699 159.553 62.8467 158.122 64.1467 157.657C65.4467 157.192 66.8776 157.868 67.3428 159.168C67.8079 160.468 67.1311 161.899 65.8311 162.365C64.5311 162.83 63.1002 162.153 62.6351 160.853Z" fill="white" stroke="#AFB4C8"/>
<circle cx="55" cy="136" r="19.5" fill="white" stroke="#AFB4C8"/>
<circle cx="55" cy="136" r="12.5" fill="white" stroke="#AFB4C8"/>
<circle cx="55" cy="136" r="9.5" fill="#F6F6F6" stroke="#AFB4C8"/>
<rect x="2.5" y="111.5" width="3" height="26" fill="white" stroke="#AFB4C8"/>
<rect x="-0.5" y="0.5" width="2" height="14" transform="matrix(-1 0 0 1 2 117)" fill="white" stroke="#AFB4C8"/>
<path d="M7.5 70V79" stroke="black"/>
<rect x="9.5" y="71.5" width="15" height="6" fill="white" stroke="#AFB4C8"/>
<path d="M9.5 78.2765V70.7235L5.5 67.9543V81.0457L9.5 78.2765Z" fill="white" stroke="#AFB4C8"/>
<rect x="15.5" y="71.5" width="22" height="6" fill="white" stroke="#AFB4C8"/>
<rect x="2.5" y="61.5" width="3" height="26" fill="white" stroke="#AFB4C8"/>
<rect x="-0.5" y="0.5" width="2" height="14" transform="matrix(-1 0 0 1 2 67)" fill="white" stroke="#AFB4C8"/>
<path d="M102.5 70V79" stroke="black"/>
<rect x="-0.5" y="0.5" width="16" height="6" transform="matrix(-1 0 0 1 101 71)" fill="white" stroke="#AFB4C8"/>
<path d="M100.5 78.2765V70.7235L104.5 67.9543V81.0457L100.5 78.2765Z" fill="white" stroke="#AFB4C8"/>
<rect x="-0.5" y="0.5" width="22" height="6" transform="matrix(-1 0 0 1 94 71)" fill="white" stroke="#AFB4C8"/>
<rect x="-0.5" y="0.5" width="3" height="26" transform="matrix(-1 0 0 1 107 61)" fill="white" stroke="#AFB4C8"/>
<rect x="107.5" y="67.5" width="2" height="14" fill="white" stroke="#AFB4C8"/>
<rect x="46.5" y="44.5" width="17" height="20" rx="0.5" fill="#F6F6F6" stroke="#AFB4C8"/>
<rect x="49.5" y="53.5" width="11" height="4" fill="white" stroke="#AFB4C8"/>
<rect x="51.5" y="49.5" width="7" height="4" fill="white" stroke="#AFB4C8"/>
<rect x="53.5" y="49.5" width="3" height="4" fill="white" stroke="#AFB4C8"/>
<rect x="53.5" y="47.5" width="3" height="2" fill="white" stroke="#AFB4C8"/>
<rect x="53.5" y="57.5" width="3" height="7" fill="white" stroke="#AFB4C8"/>
<rect x="24.5" y="15.5" width="60" height="6" rx="3" fill="white" stroke="#AFB4C8"/>
<rect x="46.5" y="25.5" width="17" height="14" fill="white" stroke="#AFB4C8"/>
<rect x="42.5" y="21.5" width="24" height="2" fill="white" stroke="#AFB4C8"/>
<rect x="48.5" y="13.5" width="13" height="2" fill="white" stroke="#AFB4C8"/>
<rect x="51.5" y="11.5" width="7" height="2" fill="white" stroke="#AFB4C8"/>
<rect x="46.5" y="23.5" width="17" height="2" fill="white" stroke="#AFB4C8"/>
<rect x="37.5" y="32.5" width="3" height="3" fill="white" stroke="#AFB4C8"/>
<rect x="69.5" y="32.5" width="3" height="3" fill="white" stroke="#AFB4C8"/>
</svg>
