<svg width="161" height="170" viewBox="0 0 161 170" fill="none" xmlns="http://www.w3.org/2000/svg">
<path d="M110.033 67.5L88.5 74.9708L66.9666 67.5H110.033Z" fill="white" stroke="#AFB4C8"/>
<rect x="77.5" y="74.5" width="22" height="6" fill="white" stroke="#AFB4C8"/>
<path d="M77.6937 74.5L80.3604 66.5H96.6396L99.3063 74.5H77.6937Z" fill="white" stroke="#AFB4C8"/>
<rect x="77.5" y="74.5" width="22" height="2" fill="white" stroke="#AFB4C8"/>
<rect x="52.5" y="89.5" width="71" height="47" fill="white" stroke="#AFB4C8"/>
<path d="M123.5 95.5H151C151.828 95.5 152.5 96.1716 152.5 97V129C152.5 129.828 151.828 130.5 151 130.5H123.5V95.5Z" fill="white" stroke="#AFB4C8"/>
<path d="M123.5 122.5H152.5V129C152.5 129.828 151.828 130.5 151 130.5H123.5V122.5Z" fill="white" stroke="#AFB4C8"/>
<path d="M123.5 95.5H151C151.828 95.5 152.5 96.1716 152.5 97V103.5H123.5V95.5Z" fill="white" stroke="#AFB4C8"/>
<rect x="52.5" y="152.5" width="71" height="17" fill="white" stroke="#AFB4C8"/>
<rect x="52.5" y="165.5" width="71" height="4" fill="white" stroke="#AFB4C8"/>
<rect x="72.5" y="136.5" width="31" height="16" fill="white" stroke="#AFB4C8"/>
<rect x="75.5" y="141.5" width="25" height="11" fill="#F6F6F6" stroke="#AFB4C8"/>
<rect x="121.5" y="89.5" width="2" height="47" fill="white" stroke="#AFB4C8"/>
<path d="M62 96.5H85C85.2761 96.5 85.5 96.7239 85.5 97V131C85.5 131.276 85.2761 131.5 85 131.5H62C61.7239 131.5 61.5 131.276 61.5 131V97C61.5 96.7239 61.7239 96.5 62 96.5Z" fill="white" stroke="#AFB4C8"/>
<path d="M66 103.5H66.5V103V96.5H73.5H80.5V103V103.5H81H85.5V114.5V124.5H81H80.5V125V131.5H73.5H66.5V125V124.5H66H61.5V114.5V103.5H66Z" fill="white" stroke="#AFB4C8"/>
<rect x="100.5" y="125.5" width="15" height="8" fill="white" stroke="#AFB4C8"/>
<circle cx="108" cy="112" r="8.5" fill="white" stroke="#AFB4C8"/>
<circle cx="108" cy="112" r="5.5" fill="white" stroke="#AFB4C8"/>
<path d="M106.757 95.971L157.441 86.4047C158.589 86.1878 159.677 87.0035 159.79 88.1672C159.89 89.1925 159.191 90.1245 158.179 90.3156L107.496 99.8819C106.347 100.099 105.259 99.2831 105.146 98.1194C105.046 97.0941 105.745 96.162 106.757 95.971Z" fill="white" stroke="#AFB4C8"/>
<rect x="0.5" y="-0.5" width="7" height="4" transform="matrix(1 0 0 -1 84 145)" fill="white" stroke="#AFB4C8"/>
<rect x="0.5" y="-0.5" width="3" height="4" transform="matrix(1 0 0 -1 86 145)" fill="white" stroke="#AFB4C8"/>
<rect x="0.5" y="-0.5" width="3" height="2" transform="matrix(1 0 0 -1 86 147)" fill="white" stroke="#AFB4C8"/>
<circle cx="64" cy="100" r="1" fill="#AFB4C8"/>
<circle cx="83" cy="100" r="1" fill="#AFB4C8"/>
<circle cx="64" cy="128" r="1" fill="#AFB4C8"/>
<circle cx="83" cy="128" r="1" fill="#AFB4C8"/>
<rect x="25.5" y="99.5" width="27" height="25" fill="white" stroke="#AFB4C8"/>
<rect x="49.5" y="99.5" width="3" height="31" fill="white" stroke="#AFB4C8"/>
<circle cx="22.5" cy="111.5" r="22" fill="white" stroke="#AFB4C8"/>
<circle cx="22.5" cy="111.5" r="17" fill="white" stroke="#AFB4C8"/>
<path d="M37 104C33.3917 105.581 31 108.349 31 111.5C31 114.651 33.3917 117.419 37 119" stroke="#AFB4C8" stroke-linecap="round"/>
<rect x="34.5" y="109.5" width="7" height="4" rx="1.5" fill="white" stroke="#AFB4C8"/>
<path d="M8 104C11.6083 105.581 14 108.349 14 111.5C14 114.651 11.6083 117.419 8 119" stroke="#AFB4C8" stroke-linecap="round"/>
<rect x="-0.5" y="0.5" width="7" height="4" rx="1.5" transform="matrix(-1 0 0 1 9 109)" fill="white" stroke="#AFB4C8"/>
<rect x="16.5" y="102.5" width="12" height="4" fill="#F6F6F6" stroke="#AFB4C8"/>
<rect x="66.5" y="80.5" width="44" height="5" fill="white" stroke="#AFB4C8"/>
<rect x="72.5" y="85.5" width="32" height="4" fill="white" stroke="#AFB4C8"/>
<rect x="69.5" y="78.5" width="4" height="2" fill="white" stroke="#AFB4C8"/>
<rect x="86.5" y="78.5" width="4" height="2" fill="white" stroke="#AFB4C8"/>
<rect x="103.5" y="78.5" width="4" height="2" fill="white" stroke="#AFB4C8"/>
<rect x="84.5" y="66.5" width="8" height="6" fill="white" stroke="#AFB4C8"/>
<rect x="86.5" y="66.5" width="4" height="6" fill="white" stroke="#AFB4C8"/>
<path d="M148.838 54.499L109.812 62.7072C108.712 62.9386 108.019 64.0314 108.279 65.1253C108.529 66.1801 109.574 66.8431 110.635 66.62L149.661 58.4117C150.761 58.1803 151.454 57.0876 151.195 55.9937C150.944 54.9389 149.899 54.2759 148.838 54.499Z" fill="white" stroke="#AFB4C8"/>
<path d="M31.4491 54.526L68.485 62.6873C69.5759 62.9277 70.2583 64.0151 70.0003 65.102C69.7482 66.1643 68.6906 66.8279 67.6244 66.593L30.5884 58.4316C29.4976 58.1912 28.8152 57.1038 29.0731 56.017C29.3253 54.9547 30.3829 54.291 31.4491 54.526Z" fill="white" stroke="#AFB4C8"/>
<rect x="63.5" y="59.5" width="51" height="9" rx="0.5" fill="white" stroke="#AFB4C8"/>
<rect x="86.5" y="51.5" width="4" height="14" rx="2" fill="white" stroke="#AFB4C8"/>
<rect x="71" y="107" width="1" height="15" fill="#AFB4C8"/>
<rect x="75" y="107" width="1" height="15" fill="#AFB4C8"/>
</svg>
