<svg width="22" height="15" viewBox="0 0 22 15" fill="none" xmlns="http://www.w3.org/2000/svg">
<path d="M20.9943 2.60464C20.7544 1.72701 20.0476 1.03581 19.1502 0.801238C17.5234 0.375 11.0006 0.375 11.0006 0.375C11.0006 0.375 4.47772 0.375 2.85098 0.801238C1.95352 1.03584 1.2467 1.72701 1.0068 2.60464C0.570923 4.19541 0.570923 7.5144 0.570923 7.5144C0.570923 7.5144 0.570923 10.8334 1.0068 12.4242C1.2467 13.3018 1.95352 13.9642 2.85098 14.1988C4.47772 14.625 11.0006 14.625 11.0006 14.625C11.0006 14.625 17.5234 14.625 19.1502 14.1988C20.0476 13.9642 20.7544 13.3018 20.9943 12.4242C21.4302 10.8334 21.4302 7.5144 21.4302 7.5144C21.4302 7.5144 21.4302 4.19541 20.9943 2.60464ZM8.86721 10.5278V4.50101L14.319 7.51447L8.86721 10.5278Z" fill="#AFB4C8"/>
</svg>
