<svg width="576" height="502" viewBox="0 0 576 502" fill="none" xmlns="http://www.w3.org/2000/svg">
<path d="M69.7224 184.986L454.277 303.079" stroke="#94A0B7" stroke-width="1.5" stroke-miterlimit="10" stroke-linecap="round" stroke-dasharray="0.1 6"/>
<path d="M87.0707 397.479L47.5551 387.841L41.2905 384.468L35.0258 379.649L28.7611 373.866L22.0146 366.156L15.7499 356.036L11.4128 347.844L7.07574 334.833L4.18435 321.822L2.73866 309.774L1.29297 296.281L1.77487 283.27L2.73866 268.813L4.18435 258.211L6.11195 246.164L9.00333 235.08L12.8585 221.587L16.7137 210.503L21.0508 201.829L24.4241 192.673L31.6525 178.698L38.3991 167.614L44.6638 158.458L53.8198 146.893L61.0483 139.182L68.2767 131.954L76.9509 124.243L84.6613 118.461L94.7811 113.16L102.973 109.305L111.166 105.931L121.767 103.522L133.333 103.04L142.489 104.486L159.837 109.305L173.33 113.16L180.559 116.533L189.233 122.316L198.389 130.508L205.618 139.664L208.027 145.447L211.4 141.11L216.701 135.327L223.93 130.508L233.568 126.653L234.05 110.75L223.93 103.04L221.038 101.112L215.256 96.7753L211.4 91.9563L209.955 88.1012V47.6218V43.2847L210.918 38.4657L216.219 32.201L223.93 27.3821L235.495 22.5631L248.025 19.1898L266.819 16.2984L275.493 15.3346V5.21476L278.384 2.80528L297.66 0.877686L306.816 10.0337V15.3346L316.936 16.2984L330.911 18.7079L342.477 21.5993L351.633 24.9726L359.343 28.8277L365.608 33.1648L369.463 38.4657L370.908 43.7666V88.5831L369.463 92.4382L366.571 96.2934L362.716 99.1848L357.415 102.558L353.078 105.931L342.958 113.642V126.653L349.705 129.062L357.415 132.918L362.716 137.255L366.571 142.074L368.499 146.893V157.494L372.836 161.831L375.246 166.169L376.209 171.469V179.18L377.173 183.035L380.065 186.408L383.438 187.854L415.725 197.492L459.578 210.985L465.36 209.539L475.48 207.612H486.564L494.756 209.539L514.514 213.876L528.007 217.732L535.236 221.587L541.018 225.924L549.211 233.152L555.475 240.863L564.149 255.802L568.968 268.813L572.342 282.306L574.751 298.209V312.184V331.941L571.378 354.109L566.559 373.385L557.403 400.853L546.319 423.502L535.236 441.814L527.043 453.38L519.815 461.572L510.659 470.728L498.129 481.33L485.118 490.004L474.035 495.305L462.951 499.16L451.385 500.606H441.747L427.772 498.196L411.388 495.305L397.895 490.968L387.293 484.703L379.583 477.474L370.908 467.355H365.608L355.97 465.427L350.187 463.018L322.719 455.307L314.526 457.235L295.251 460.126L275.011 461.572L262 460.126L248.988 457.235L239.35 453.861L237.905 451.934L234.05 447.597L221.038 439.405L216.219 434.104L215.256 431.212V423.502L214.292 414.346L200.317 408.081L181.041 395.07L153.091 373.385L147.308 379.167L132.851 388.805L118.876 395.07L102.01 397.479H87.0707Z" fill="white"/>
<path d="M409.404 243.166C406.467 243.865 403.466 244.874 400.414 246.207C365.471 261.473 337.144 313.457 337.144 362.316C337.144 385.261 343.391 403.436 353.636 414.68" stroke="#AFB4C8" stroke-miterlimit="10"/>
<path d="M371.227 467.611C334.609 467.032 308.131 430.779 308.131 374.452C308.131 304.495 348.976 230.063 399.361 208.204C410.54 203.355 421.249 201.5 431.146 202.315C439.772 203.025 447.782 205.762 454.949 210.31" stroke="#AFB4C8" stroke-miterlimit="10" stroke-linecap="square"/>
<path d="M321.944 455.424C292.19 447.431 271.792 413.432 271.792 363.969C271.792 293.94 312.68 219.432 363.116 197.551C375.313 192.26 386.952 190.531 397.589 191.941" stroke="#AFB4C8" stroke-width="1.5" stroke-miterlimit="10" stroke-linecap="round" stroke-dasharray="0.1 4"/>
<path d="M358.074 464.978L276.004 442.49C246.514 434.444 226.313 400.666 226.313 351.574C226.313 308.104 241.304 264.307 265.405 231.172" stroke="#AFB4C8" stroke-miterlimit="10"/>
<path d="M251.369 241.049C232.929 272.134 220.487 312.282 220.487 349.47C221.841 379.447 230.463 405.074 244.22 421.407" stroke="#AFB4C8" stroke-width="1.5" stroke-miterlimit="10" stroke-linecap="round" stroke-dasharray="0.1 4"/>
<path d="M206.865 226.951C189.142 256.837 178.003 293.806 178.003 329.556C178.003 366.638 189.989 394.633 208.874 408.688C208.874 408.688 213.653 412.734 218.859 415.77" stroke="#AFB4C8" stroke-width="1.5" stroke-miterlimit="10" stroke-linecap="round" stroke-dasharray="0.1 4"/>
<path d="M185.013 398.191C164.929 386.482 151.887 359.157 151.887 321.945C151.887 279.42 168.92 235.029 194.03 205.091L197.927 202.129" stroke="#AFB4C8" stroke-width="1.5" stroke-miterlimit="10" stroke-linecap="round" stroke-dasharray="0.1 4"/>
<path d="M114.377 348.052C100.92 337.789 92.4004 317.648 92.4004 291.048C92.4004 242.559 120.712 190.968 155.635 175.817C160.218 173.829 164.687 172.567 168.994 171.985" stroke="#AFB4C8" stroke-width="1.5" stroke-miterlimit="10" stroke-linecap="round" stroke-dasharray="0.1 4"/>
<path d="M196.462 177.734L173.072 171.393L166.602 169.345C159.198 168.247 151.068 169.392 142.537 173.094C108.14 188.016 80.2555 238.83 80.2551 286.59C80.2551 316.571 91.2433 338.221 107.933 346.494C107.933 346.494 122.42 349.787 133.049 358.422C143.677 367.056 184.938 398.702 190.745 402.398C198.898 407.587 214.816 415.44 225.418 417.544C236.019 419.648 240.532 419.878 240.532 419.878" stroke="#AFB4C8" stroke-miterlimit="10"/>
<path d="M127.268 354.842C88.1419 371.876 56.4237 341.489 56.4237 286.969C56.4237 232.45 88.1419 174.444 127.268 157.409C150.15 147.446 170.499 153.704 183.451 171.523" stroke="#AFB4C8" stroke-width="1.5" stroke-miterlimit="10" stroke-linecap="round" stroke-dasharray="0.1 4"/>
<path d="M151.891 375.111C143.453 382.03 134.559 387.63 125.373 391.615C70.8373 415.275 26.627 373.07 26.627 297.349C26.627 221.628 70.8373 141.064 125.374 117.404C159.446 102.623 189.487 113.55 207.235 142.296" stroke="#AFB4C8" stroke-miterlimit="10" stroke-linecap="round"/>
<path d="M77.6418 395.268L45.7027 386.894C18.9468 373.741 1.31985 339.111 1.31985 291.118C1.31985 214.825 45.8641 133.653 100.812 109.814C115.712 103.35 129.847 101.766 142.537 104.411L174.5 113.5" stroke="#AFB4C8" stroke-miterlimit="10"/>
<path d="M221.024 416.444C221.024 416.444 223.768 421.17 224.067 424.855" stroke="#AFB4C8" stroke-miterlimit="10" stroke-linecap="round" stroke-dasharray="0.1 2"/>
<path d="M213.776 413.932C213.776 413.932 216.294 423.855 215.397 430.867C214.501 437.88 238.235 455.287 271.344 455.839C304.452 456.392 316.918 453.633 316.918 453.633" stroke="#AFB4C8" stroke-miterlimit="10"/>
<path d="M215.119 421.116C215.119 421.116 219.284 424.977 229.744 426.099C240.203 427.221 251.679 432.13 251.679 432.13" stroke="#AFB4C8" stroke-miterlimit="10"/>
<path d="M250.28 426.535C250.28 426.535 252.543 441.806 265.35 447.696C278.157 453.587 286.524 455.839 286.524 455.839" stroke="#AFB4C8" stroke-miterlimit="10"/>
<path d="M298.301 448.914L296.385 455.839" stroke="#AFB4C8" stroke-miterlimit="10" stroke-linecap="round" stroke-dasharray="0.1 2"/>
<path d="M271.346 449.941L273.678 442.077" stroke="#AFB4C8" stroke-miterlimit="10" stroke-linecap="round" stroke-dasharray="0.1 2"/>
<path d="M322.868 455.577C322.868 455.577 296.385 461.861 275.765 461.44C255.294 461.023 239.307 453.899 239.307 453.899C239.307 453.899 237.065 449.94 232.16 446.568" stroke="#AFB4C8" stroke-miterlimit="10" stroke-linejoin="round"/>
<path d="M247.292 425.077C232.736 419.359 215.557 375.673 215.557 344.852C215.557 310.157 227.311 273.092 244.091 243.649" stroke="#AFB4C8" stroke-miterlimit="10" stroke-linecap="square"/>
<path d="M196.583 171.635L197.171 198.342C197.171 198.342 199.672 221.63 223.652 233.473C230.041 236.629 239.83 239.024 244.526 239.013C248.88 239.003 252.158 233.964 253.054 232.562C253.951 231.16 257.916 225.344 273.973 222.559C298.777 218.257 335.586 204.14 335.586 204.14L368.337 189.584L378.214 184.386" stroke="#AFB4C8" stroke-miterlimit="10"/>
<path d="M197.17 191.47C197.17 191.47 192.09 200.866 195.676 208.72C199.262 216.574 206.566 231.486 222.572 239.023C237.141 245.885 249.089 245.193 253.353 239.023C256.586 234.346 259.441 232.416 272.953 229.509C290.708 225.69 334.693 210.333 340.614 207.455C343.523 206.041 376.68 192.452 381.06 187.123L436.447 202.793" stroke="#AFB4C8" stroke-miterlimit="10"/>
<path d="M343.447 126.61C358.787 132.053 368.353 139.746 368.353 148.275C368.353 164.773 332.554 178.147 288.394 178.147C244.235 178.147 208.436 164.773 208.436 148.275C208.436 139.673 218.166 131.921 233.739 126.47" stroke="#AFB4C8" stroke-miterlimit="10" stroke-linecap="round"/>
<path d="M207.988 145.33V165.034C207.988 181.803 243.932 195.397 288.272 195.397C330.678 195.397 365.406 182.962 368.353 167.208V147.013" stroke="#AFB4C8" stroke-miterlimit="10" stroke-linecap="round"/>
<path d="M368.355 157.485C373.441 161.377 376.271 165.697 376.271 170.245C376.271 187.39 336.047 201.288 286.427 201.288C236.807 201.288 196.583 187.39 196.583 170.245C196.583 164.974 200.384 160.011 207.091 155.663" stroke="#AFB4C8" stroke-miterlimit="10" stroke-linecap="round"/>
<path d="M233.739 110.829V142.763C230.799 144.953 230.069 147.36 230.069 149.887C230.069 159.995 256.086 168.189 288.18 168.189C320.273 168.189 346.291 159.995 346.291 149.887C346.291 147.36 345.561 144.953 342.621 142.763V114.195" stroke="#AFB4C8" stroke-miterlimit="10" stroke-linecap="round"/>
<path d="M342.109 144.843C342.109 154.251 317.892 161.878 288.018 161.878C258.145 161.878 233.928 154.251 233.928 144.843" stroke="#AFB4C8" stroke-width="1.5" stroke-miterlimit="10" stroke-linecap="round" stroke-dasharray="0.1 4"/>
<path d="M305.951 15.4276C342.957 17.9794 370.891 29.5205 370.891 43.3719C370.891 59.0951 334.897 71.8417 290.496 71.8417C246.096 71.8417 210.102 59.0956 210.102 43.3719C210.102 29.5079 238.086 17.9588 275.143 15.4209" stroke="#AFB4C8" stroke-miterlimit="10"/>
<path d="M370.891 58.5183C370.891 74.2416 334.897 86.9881 290.496 86.9881C246.096 86.9881 210.102 74.242 210.102 58.5183" stroke="#AFB4C8" stroke-width="1.5" stroke-miterlimit="10" stroke-linecap="round" stroke-dasharray="0.1 4"/>
<path d="M370.891 82.5C370.891 98.2233 334.897 110.97 290.496 110.97C246.096 110.97 210.102 98.2237 210.102 82.5" stroke="#AFB4C8" stroke-width="1.5" stroke-miterlimit="10" stroke-linecap="round" stroke-dasharray="0.1 4"/>
<path d="M210.102 43.3718V86.7074C210.102 102.431 246.096 115.177 290.496 115.177C334.897 115.177 370.891 102.431 370.891 86.7074V43.3718" stroke="#AFB4C8" stroke-miterlimit="10"/>
<path d="M288.714 125.208C308.952 125.208 330.512 121.462 341.059 114.477C347.798 110.013 353.944 105.988 356.378 103.289" stroke="#AFB4C8" stroke-miterlimit="10" stroke-linecap="round"/>
<path d="M292.002 125.208C271.764 125.208 250.204 121.463 239.657 114.477C232.917 110.013 226.251 105.468 223.817 102.769" stroke="#AFB4C8" stroke-miterlimit="10" stroke-linecap="round"/>
<path d="M288.886 130.256C306.501 130.256 325.266 126.34 334.446 120.975C337.63 119.114 340.262 117.235 342.341 115.574" stroke="#AFB4C8" stroke-miterlimit="10" stroke-linecap="round"/>
<path d="M291.751 130.256C274.136 130.256 255.371 127.379 246.191 122.014C240.325 118.586 236.332 115.095 234.214 113.021" stroke="#AFB4C8" stroke-miterlimit="10" stroke-linecap="round"/>
<path d="M306.424 24.7802C327.901 27.2385 343.452 34.4449 343.452 42.9513C343.452 53.4852 319.606 62.0244 290.19 62.0244C260.774 62.0244 236.928 53.4852 236.928 42.9513C236.928 34.2909 253.046 26.9789 275.125 24.6519" stroke="#AFB4C8" stroke-miterlimit="10" stroke-linecap="round"/>
<path d="M274.824 37.8682C270.89 39.2768 268.458 41.2227 268.458 43.3718C268.458 47.6704 278.189 51.1549 290.192 51.1549C302.195 51.1549 311.926 47.6704 311.926 43.3718C311.926 41.437 309.955 39.6676 306.693 38.3062" stroke="#AFB4C8" stroke-miterlimit="10" stroke-linecap="round"/>
<path d="M282.637 12.5176V48.7007L275.465 41.969V5.78589L282.637 12.5176Z" stroke="#AFB4C8" stroke-miterlimit="10"/>
<path d="M285.16 49.1217L304.603 47.0181V10.835L285.328 12.9386V49.1217H282.638" stroke="#AFB4C8" stroke-miterlimit="10" stroke-linecap="round" stroke-dasharray="0.1 2"/>
<path d="M275.465 5.78596L278.155 2.98135L297.729 0.877686L304.602 8.03016L306.395 9.57256V45.7557L304.602 47.0179" stroke="#AFB4C8" stroke-miterlimit="10"/>
<mask id="mask0" mask-type="alpha" maskUnits="userSpaceOnUse" x="34" y="116" width="180" height="277">
<path fill-rule="evenodd" clip-rule="evenodd" d="M147.321 143.849C152.394 141.615 156.508 134.004 156.508 126.851C156.508 119.698 152.395 115.711 147.321 117.945C142.248 120.18 138.134 127.791 138.134 134.944C138.134 142.097 142.248 146.084 147.321 143.849ZM114.441 145.509C114.441 152.662 110.328 160.273 105.255 162.508C100.181 164.742 96.068 160.756 96.068 153.603C96.068 146.449 100.181 138.839 105.255 136.604C110.328 134.369 114.441 138.356 114.441 145.509ZM76.1718 192.716C76.1718 199.87 72.0586 207.48 66.9852 209.715C61.9118 211.95 57.7986 207.963 57.7986 200.81C57.7986 193.657 61.9118 186.046 66.9852 183.811C72.0586 181.576 76.1718 185.563 76.1718 192.716ZM194.155 140.851C194.155 148.004 190.042 155.615 184.968 157.85C179.894 160.085 175.782 156.098 175.782 148.945C175.782 141.791 179.895 134.181 184.968 131.946C190.042 129.711 194.155 133.698 194.155 140.851ZM204.064 263.282C209.138 261.046 213.251 253.436 213.251 246.283C213.251 239.13 209.138 235.143 204.064 237.378C198.991 239.613 194.878 247.223 194.878 254.376C194.878 261.53 198.991 265.517 204.064 263.282ZM190.244 308.397C190.244 315.55 186.131 323.16 181.058 325.395C175.984 327.631 171.871 323.643 171.871 316.49C171.871 309.337 175.984 301.727 181.058 299.491C186.131 297.256 190.244 301.244 190.244 308.397ZM143.371 372.644C148.444 370.409 152.557 362.799 152.557 355.646C152.557 348.492 148.445 344.505 143.371 346.741C138.297 348.976 134.184 356.586 134.184 363.739C134.184 370.892 138.297 374.879 143.371 372.644ZM109.919 374.072C109.919 381.225 105.806 388.835 100.732 391.071C95.6587 393.306 91.5455 389.319 91.5455 382.166C91.5455 375.013 95.6587 367.402 100.732 365.167C105.806 362.932 109.919 366.919 109.919 374.072ZM64.8421 377.498C69.9155 375.263 74.0287 367.652 74.0287 360.499C74.0287 353.346 69.9155 349.359 64.8421 351.594C59.7686 353.829 55.6554 361.439 55.6554 368.593C55.6554 375.746 59.7686 379.732 64.8421 377.498ZM52.9609 317.421C52.9609 324.574 48.8476 332.184 43.7742 334.419C38.7007 336.654 34.5875 332.667 34.5875 325.514C34.5875 318.361 38.7007 310.751 43.7742 308.515C48.8476 306.28 52.9609 310.267 52.9609 317.421ZM45.8749 272.965C50.9483 270.73 55.0616 263.12 55.0616 255.967C55.062 248.813 50.9488 244.826 45.8749 247.061C40.8015 249.297 36.6882 256.907 36.6882 264.06C36.6882 271.213 40.801 275.2 45.8749 272.965Z" fill="#CED2DC"/>
<path d="M147.321 143.849L147.523 144.307L147.321 143.849ZM147.321 117.945L147.119 117.488L147.119 117.488L147.321 117.945ZM105.255 162.508L105.456 162.965L105.255 162.508ZM105.255 136.604L105.053 136.146L105.053 136.146L105.255 136.604ZM66.9852 209.715L66.7836 209.257H66.7836L66.9852 209.715ZM66.9852 183.811L66.7836 183.354H66.7836L66.9852 183.811ZM184.968 157.85L184.767 157.392L184.767 157.392L184.968 157.85ZM184.968 131.946L184.767 131.488L184.968 131.946ZM204.064 263.282L203.863 262.824L204.064 263.282ZM204.064 237.378L204.266 237.835L204.064 237.378ZM181.058 325.395L181.259 325.853H181.259L181.058 325.395ZM181.058 299.491L180.856 299.034L181.058 299.491ZM143.371 372.644L143.169 372.187L143.371 372.644ZM143.371 346.741L143.572 347.198L143.572 347.198L143.371 346.741ZM100.732 391.071L100.531 390.613L100.732 391.071ZM100.732 365.167L100.934 365.625L100.732 365.167ZM64.8421 377.498L64.6405 377.04H64.6405L64.8421 377.498ZM64.8421 351.594L64.6405 351.136L64.8421 351.594ZM43.7742 334.419L43.9758 334.877H43.9758L43.7742 334.419ZM43.7742 308.515L43.5726 308.058H43.5726L43.7742 308.515ZM55.0616 255.967L54.5616 255.967V255.967H55.0616ZM45.8749 272.965L46.0765 273.423H46.0765L45.8749 272.965ZM45.8749 247.061L45.6733 246.604H45.6733L45.8749 247.061ZM156.008 126.851C156.008 130.337 155.004 133.947 153.377 136.957C151.746 139.974 149.52 142.334 147.119 143.392L147.523 144.307C150.195 143.13 152.563 140.567 154.257 137.432C155.955 134.29 157.008 130.518 157.008 126.851H156.008ZM147.523 118.403C149.89 117.36 151.966 117.779 153.469 119.237C155.002 120.723 156.008 123.357 156.008 126.851H157.008C157.008 123.192 155.957 120.256 154.165 118.519C152.344 116.753 149.825 116.296 147.119 117.488L147.523 118.403ZM138.634 134.944C138.634 131.458 139.638 127.848 141.265 124.838C142.896 121.82 145.122 119.46 147.523 118.403L147.119 117.488C144.447 118.665 142.079 121.228 140.385 124.363C138.687 127.505 137.634 131.277 137.634 134.944H138.634ZM147.119 143.392C144.752 144.435 142.677 144.015 141.173 142.558C139.64 141.072 138.634 138.438 138.634 134.944H137.634C137.634 138.603 138.685 141.539 140.477 143.276C142.299 145.042 144.817 145.499 147.523 144.307L147.119 143.392ZM105.456 162.965C108.129 161.788 110.496 159.225 112.19 156.091C113.888 152.948 114.941 149.176 114.941 145.509H113.941C113.941 148.995 112.937 152.605 111.311 155.615C109.68 158.633 107.454 160.993 105.053 162.05L105.456 162.965ZM95.568 153.603C95.568 157.262 96.6188 160.198 98.4108 161.935C100.232 163.7 102.75 164.157 105.456 162.965L105.053 162.05C102.685 163.093 100.61 162.674 99.1068 161.217C97.5738 159.731 96.568 157.097 96.568 153.603H95.568ZM105.053 136.146C102.38 137.324 100.013 139.886 98.3189 143.021C96.6207 146.163 95.568 149.935 95.568 153.603H96.568C96.568 150.117 97.5719 146.507 99.1987 143.497C100.83 140.479 103.056 138.119 105.456 137.062L105.053 136.146ZM114.941 145.509C114.941 141.85 113.89 138.914 112.099 137.177C110.277 135.411 107.759 134.955 105.053 136.146L105.456 137.062C107.824 136.019 109.899 136.438 111.403 137.895C112.935 139.381 113.941 142.015 113.941 145.509H114.941ZM67.1868 210.173C69.8595 208.995 72.2268 206.432 73.9209 203.298C75.6191 200.156 76.6718 196.384 76.6718 192.716H75.6718C75.6718 196.202 74.668 199.812 73.0412 202.822C71.4103 205.84 69.1843 208.2 66.7836 209.257L67.1868 210.173ZM57.2986 200.81C57.2986 204.469 58.3494 207.405 60.1413 209.142C61.9629 210.908 64.481 211.365 67.1868 210.173L66.7836 209.257C64.416 210.301 62.3408 209.881 60.8373 208.424C59.3043 206.938 58.2986 204.304 58.2986 200.81H57.2986ZM66.7836 183.354C64.1109 184.531 61.7436 187.094 60.0495 190.229C58.3513 193.371 57.2986 197.143 57.2986 200.81H58.2986C58.2986 197.324 59.3024 193.714 60.9292 190.704C62.5601 187.686 64.7861 185.326 67.1868 184.269L66.7836 183.354ZM76.6718 192.716C76.6718 189.057 75.621 186.121 73.8291 184.384C72.0075 182.618 69.4894 182.162 66.7836 183.354L67.1868 184.269C69.5544 183.226 71.6296 183.645 73.133 185.102C74.666 186.588 75.6718 189.222 75.6718 192.716H76.6718ZM185.17 158.307C187.843 157.13 190.21 154.567 191.904 151.433C193.602 148.29 194.655 144.518 194.655 140.851H193.655C193.655 144.337 192.651 147.947 191.024 150.957C189.393 153.975 187.167 156.335 184.767 157.392L185.17 158.307ZM175.282 148.945C175.282 152.604 176.332 155.54 178.124 157.277C179.946 159.043 182.464 159.499 185.17 158.307L184.767 157.392C182.399 158.435 180.324 158.016 178.82 156.559C177.287 155.073 176.282 152.439 176.282 148.945H175.282ZM184.767 131.488C182.094 132.666 179.727 135.228 178.033 138.363C176.334 141.505 175.282 145.277 175.282 148.945H176.282C176.282 145.459 177.285 141.849 178.912 138.839C180.543 135.821 182.769 133.461 185.17 132.404L184.767 131.488ZM194.655 140.851C194.655 137.192 193.604 134.256 191.812 132.519C189.991 130.753 187.472 130.297 184.767 131.488L185.17 132.404C187.537 131.361 189.613 131.78 191.116 133.237C192.649 134.723 193.655 137.357 193.655 140.851H194.655ZM212.751 246.283C212.751 249.769 211.747 253.379 210.121 256.389C208.49 259.406 206.264 261.766 203.863 262.824L204.266 263.739C206.939 262.562 209.306 259.999 211 256.864C212.699 253.722 213.751 249.95 213.751 246.283H212.751ZM204.266 237.835C206.634 236.792 208.709 237.211 210.212 238.669C211.745 240.155 212.751 242.789 212.751 246.283H213.751C213.751 242.624 212.7 239.688 210.908 237.951C209.087 236.185 206.569 235.728 203.863 236.92L204.266 237.835ZM195.378 254.376C195.378 250.89 196.382 247.281 198.008 244.271C199.639 241.253 201.865 238.893 204.266 237.835L203.863 236.92C201.19 238.098 198.823 240.66 197.129 243.795C195.43 246.937 194.378 250.709 194.378 254.376H195.378ZM203.863 262.824C201.495 263.867 199.42 263.448 197.917 261.991C196.384 260.505 195.378 257.871 195.378 254.376H194.378C194.378 258.035 195.429 260.972 197.221 262.709C199.042 264.474 201.56 264.931 204.266 263.739L203.863 262.824ZM181.259 325.853C183.932 324.675 186.299 322.113 187.993 318.978C189.691 315.836 190.744 312.064 190.744 308.397H189.744C189.744 311.883 188.74 315.492 187.114 318.503C185.483 321.52 183.257 323.88 180.856 324.938L181.259 325.853ZM171.371 316.49C171.371 320.149 172.422 323.085 174.214 324.822C176.035 326.588 178.553 327.045 181.259 325.853L180.856 324.938C178.488 325.981 176.413 325.562 174.91 324.104C173.377 322.618 172.371 319.984 172.371 316.49H171.371ZM180.856 299.034C178.183 300.211 175.816 302.774 174.122 305.909C172.424 309.051 171.371 312.823 171.371 316.49H172.371C172.371 313.004 173.375 309.394 175.002 306.384C176.632 303.367 178.858 301.007 181.259 299.949L180.856 299.034ZM190.744 308.397C190.744 304.738 189.693 301.802 187.901 300.064C186.08 298.299 183.562 297.842 180.856 299.034L181.259 299.949C183.627 298.906 185.702 299.325 187.205 300.782C188.738 302.269 189.744 304.903 189.744 308.397H190.744ZM152.057 355.646C152.057 359.132 151.053 362.741 149.427 365.751C147.796 368.769 145.57 371.129 143.169 372.187L143.572 373.102C146.245 371.924 148.612 369.361 150.306 366.227C152.005 363.085 153.057 359.313 153.057 355.646H152.057ZM143.572 347.198C145.94 346.155 148.015 346.574 149.519 348.031C151.052 349.517 152.057 352.151 152.057 355.646H153.057C153.057 351.987 152.007 349.05 150.215 347.313C148.393 345.548 145.875 345.091 143.169 346.283L143.572 347.198ZM134.684 363.739C134.684 360.253 135.688 356.644 137.315 353.634C138.946 350.616 141.172 348.256 143.572 347.198L143.169 346.283C140.496 347.461 138.129 350.023 136.435 353.158C134.737 356.3 133.684 360.072 133.684 363.739H134.684ZM143.169 372.187C140.801 373.23 138.726 372.811 137.223 371.353C135.69 369.867 134.684 367.233 134.684 363.739H133.684C133.684 367.398 134.735 370.334 136.527 372.071C138.348 373.837 140.866 374.294 143.572 373.102L143.169 372.187ZM100.934 391.528C103.606 390.351 105.974 387.788 107.668 384.653C109.366 381.511 110.419 377.739 110.419 374.072H109.419C109.419 377.558 108.415 381.168 106.788 384.178C105.157 387.195 102.931 389.555 100.531 390.613L100.934 391.528ZM91.0455 382.166C91.0455 385.825 92.0963 388.761 93.8883 390.498C95.7098 392.263 98.2279 392.72 100.934 391.528L100.531 390.613C98.1629 391.656 96.0877 391.237 94.5843 389.78C93.0513 388.294 92.0455 385.66 92.0455 382.166H91.0455ZM100.531 364.71C97.8578 365.887 95.4905 368.45 93.7964 371.584C92.0983 374.727 91.0455 378.499 91.0455 382.166H92.0455C92.0455 378.68 93.0494 375.07 94.6762 372.06C96.307 369.042 98.5331 366.682 100.934 365.625L100.531 364.71ZM110.419 374.072C110.419 370.413 109.368 367.477 107.576 365.74C105.754 363.975 103.236 363.518 100.531 364.71L100.934 365.625C103.301 364.582 105.377 365.001 106.88 366.458C108.413 367.944 109.419 370.578 109.419 374.072H110.419ZM73.5287 360.499C73.5287 363.985 72.5248 367.595 70.898 370.605C69.2672 373.623 67.0411 375.983 64.6405 377.04L65.0436 377.955C67.7164 376.778 70.0837 374.215 71.7778 371.081C73.476 367.938 74.5287 364.166 74.5287 360.499H73.5287ZM65.0436 352.052C67.4113 351.008 69.4865 351.428 70.9899 352.885C72.5229 354.371 73.5287 357.005 73.5287 360.499H74.5287C74.5287 356.84 73.4779 353.904 71.6859 352.167C69.8644 350.401 67.3463 349.944 64.6405 351.136L65.0436 352.052ZM56.1554 368.593C56.1554 365.107 57.1593 361.497 58.7861 358.487C60.417 355.469 62.643 353.109 65.0436 352.052L64.6405 351.136C61.9677 352.314 59.6004 354.877 57.9063 358.011C56.2082 361.153 55.1554 364.925 55.1554 368.593H56.1554ZM64.6405 377.04C62.2729 378.083 60.1976 377.664 58.6942 376.207C57.1612 374.721 56.1554 372.087 56.1554 368.593H55.1554C55.1554 372.252 56.2062 375.188 57.9982 376.925C59.8197 378.69 62.3378 379.147 65.0436 377.955L64.6405 377.04ZM43.9758 334.877C46.6485 333.699 49.0158 331.136 50.7099 328.002C52.4081 324.86 53.4609 321.088 53.4609 317.421H52.4609C52.4609 320.907 51.457 324.516 49.8302 327.526C48.1993 330.544 45.9733 332.904 43.5726 333.962L43.9758 334.877ZM34.0875 325.514C34.0875 329.173 35.1383 332.109 36.9303 333.846C38.7518 335.612 41.27 336.069 43.9758 334.877L43.5726 333.962C41.205 335.005 39.1297 334.586 37.6263 333.128C36.0933 331.642 35.0875 329.008 35.0875 325.514H34.0875ZM43.5726 308.058C40.8998 309.235 38.5325 311.798 36.8384 314.933C35.1402 318.075 34.0875 321.847 34.0875 325.514H35.0875C35.0875 322.028 36.0913 318.418 37.7181 315.408C39.349 312.391 41.5751 310.031 43.9758 308.973L43.5726 308.058ZM53.4609 317.421C53.4609 313.761 52.4101 310.825 50.6181 309.088C48.7965 307.323 46.2784 306.866 43.5726 308.058L43.9758 308.973C46.3434 307.93 48.4186 308.349 49.9221 309.806C51.4551 311.292 52.4609 313.926 52.4609 317.421H53.4609ZM54.5616 255.967C54.5616 259.453 53.5577 263.062 51.9309 266.072C50.3 269.09 48.074 271.45 45.6733 272.508L46.0765 273.423C48.7493 272.245 51.1166 269.682 52.8107 266.548C54.5088 263.406 55.5616 259.634 55.5616 255.967H54.5616ZM46.0765 247.519C48.4444 246.476 50.5197 246.895 52.0231 248.352C53.5561 249.838 54.5618 252.472 54.5616 255.967L55.5616 255.967C55.5618 252.308 54.5111 249.371 52.7191 247.634C50.8976 245.869 48.3794 245.412 45.6733 246.604L46.0765 247.519ZM37.1882 264.06C37.1882 260.574 38.1921 256.964 39.8189 253.954C41.4498 250.937 43.6758 248.577 46.0765 247.519L45.6733 246.604C43.0006 247.781 40.6333 250.344 38.9392 253.479C37.241 256.621 36.1882 260.393 36.1882 264.06H37.1882ZM45.6733 272.508C43.3055 273.551 41.2303 273.132 39.7269 271.674C38.1939 270.188 37.1882 267.554 37.1882 264.06H36.1882C36.1882 267.719 37.2389 270.655 39.0309 272.392C40.8524 274.158 43.3705 274.615 46.0765 273.423L45.6733 272.508Z" fill="#CED2DC"/>
</mask>
<g mask="url(#mask0)">
<path d="M74.0933 191.661C74.0933 198.814 69.9801 206.424 64.9067 208.66C59.8333 210.895 55.72 206.908 55.72 199.754C55.72 192.601 59.8333 184.991 64.9067 182.756C69.9801 180.521 74.0933 184.508 74.0933 191.661Z" stroke="#AFB4C8" stroke-width="0.6" stroke-miterlimit="10"/>
<path d="M112.363 144.453C112.363 151.607 108.249 159.217 103.176 161.452C98.1027 163.687 93.9895 159.7 93.9895 152.547C93.9895 145.394 98.1027 137.783 103.176 135.548C108.25 133.314 112.363 137.3 112.363 144.453Z" stroke="#AFB4C8" stroke-width="0.6" stroke-miterlimit="10"/>
<path d="M154.429 125.795C154.429 132.948 150.316 140.559 145.242 142.794C140.169 145.028 136.056 141.042 136.056 133.888C136.056 126.735 140.169 119.125 145.242 116.89C150.316 114.655 154.429 118.642 154.429 125.795Z" stroke="#AFB4C8" stroke-width="0.6" stroke-miterlimit="10"/>
<path d="M192.076 139.795C192.076 146.949 187.963 154.559 182.89 156.794C177.816 159.029 173.703 155.042 173.703 147.889C173.703 140.736 177.816 133.125 182.89 130.89C187.963 128.656 192.076 132.642 192.076 139.795Z" stroke="#AFB4C8" stroke-width="0.6" stroke-miterlimit="10"/>
<path d="M107.84 373.016C107.84 380.169 103.727 387.78 98.6536 390.015C93.5802 392.25 89.467 388.263 89.467 381.11C89.467 373.957 93.5802 366.346 98.6536 364.112C103.727 361.877 107.84 365.863 107.84 373.016Z" stroke="#AFB4C8" stroke-width="0.6" stroke-miterlimit="10"/>
<path d="M71.9502 359.443C71.9502 366.596 67.8369 374.207 62.7635 376.442C57.6901 378.677 53.5769 374.69 53.5769 367.537C53.5769 360.384 57.6901 352.773 62.7635 350.538C67.8369 348.303 71.9502 352.29 71.9502 359.443Z" stroke="#AFB4C8" stroke-width="0.6" stroke-miterlimit="10"/>
<path d="M50.8824 316.365C50.8824 323.518 46.7691 331.128 41.6957 333.363C36.6222 335.599 32.5089 331.611 32.5089 324.458C32.5089 317.305 36.6222 309.695 41.6957 307.46C46.7691 305.224 50.8824 309.212 50.8824 316.365Z" stroke="#AFB4C8" stroke-width="0.6" stroke-miterlimit="10"/>
<path d="M52.9831 254.911C52.9831 262.064 48.8698 269.674 43.7964 271.91C38.7225 274.145 34.6097 270.158 34.6097 263.004C34.6097 255.851 38.723 248.241 43.7964 246.006C48.8703 243.771 52.9835 247.758 52.9831 254.911Z" stroke="#AFB4C8" stroke-width="0.6" stroke-miterlimit="10"/>
</g>
<path d="M147.321 143.849L147.523 144.307L147.321 143.849ZM147.321 117.945L147.119 117.488L147.119 117.488L147.321 117.945ZM105.255 162.508L105.456 162.965L105.255 162.508ZM105.255 136.604L105.053 136.146L105.053 136.146L105.255 136.604ZM66.9852 209.715L66.7836 209.257H66.7836L66.9852 209.715ZM66.9852 183.811L66.7836 183.354H66.7836L66.9852 183.811ZM184.968 157.85L184.767 157.392L184.767 157.392L184.968 157.85ZM184.968 131.946L184.767 131.488L184.968 131.946ZM100.732 391.071L100.531 390.613L100.732 391.071ZM100.732 365.167L100.934 365.625L100.732 365.167ZM64.8421 377.498L64.6405 377.04H64.6405L64.8421 377.498ZM64.8421 351.594L64.6405 351.136L64.8421 351.594ZM43.7742 334.419L43.9758 334.877H43.9758L43.7742 334.419ZM43.7742 308.515L43.5726 308.058H43.5726L43.7742 308.515ZM55.0616 255.967L54.5616 255.967V255.967H55.0616ZM45.8749 272.965L46.0765 273.423H46.0765L45.8749 272.965ZM45.8749 247.061L45.6733 246.604H45.6733L45.8749 247.061ZM143.371 372.644L143.169 372.187L143.371 372.644ZM156.008 126.851C156.008 130.337 155.004 133.947 153.377 136.957C151.746 139.974 149.52 142.334 147.119 143.392L147.523 144.307C150.195 143.13 152.563 140.567 154.257 137.432C155.955 134.29 157.008 130.518 157.008 126.851H156.008ZM147.523 118.403C149.89 117.36 151.966 117.779 153.469 119.237C155.002 120.723 156.008 123.357 156.008 126.851H157.008C157.008 123.192 155.957 120.256 154.165 118.519C152.344 116.753 149.825 116.296 147.119 117.488L147.523 118.403ZM138.634 134.944C138.634 131.458 139.638 127.848 141.265 124.838C142.896 121.82 145.122 119.46 147.523 118.403L147.119 117.488C144.447 118.665 142.079 121.228 140.385 124.363C138.687 127.505 137.634 131.277 137.634 134.944H138.634ZM147.119 143.392C144.752 144.435 142.677 144.015 141.173 142.558C139.64 141.072 138.634 138.438 138.634 134.944H137.634C137.634 138.603 138.685 141.539 140.477 143.276C142.299 145.042 144.817 145.499 147.523 144.307L147.119 143.392ZM105.456 162.965C108.129 161.788 110.496 159.225 112.19 156.091C113.888 152.948 114.941 149.176 114.941 145.509H113.941C113.941 148.995 112.937 152.605 111.311 155.615C109.68 158.633 107.454 160.993 105.053 162.05L105.456 162.965ZM95.568 153.603C95.568 157.262 96.6188 160.198 98.4108 161.935C100.232 163.7 102.75 164.157 105.456 162.965L105.053 162.05C102.685 163.093 100.61 162.674 99.1068 161.217C97.5738 159.731 96.568 157.097 96.568 153.603H95.568ZM105.053 136.146C102.38 137.324 100.013 139.886 98.3189 143.021C96.6207 146.163 95.568 149.935 95.568 153.603H96.568C96.568 150.117 97.5719 146.507 99.1987 143.497C100.83 140.479 103.056 138.119 105.456 137.062L105.053 136.146ZM114.941 145.509C114.941 141.85 113.89 138.914 112.099 137.177C110.277 135.411 107.759 134.955 105.053 136.146L105.456 137.062C107.824 136.019 109.899 136.438 111.403 137.895C112.935 139.381 113.941 142.015 113.941 145.509H114.941ZM67.1868 210.173C69.8595 208.995 72.2268 206.432 73.9209 203.298C75.6191 200.156 76.6718 196.384 76.6718 192.716H75.6718C75.6718 196.202 74.668 199.812 73.0412 202.822C71.4103 205.84 69.1843 208.2 66.7836 209.257L67.1868 210.173ZM57.2986 200.81C57.2986 204.469 58.3494 207.405 60.1413 209.142C61.9629 210.908 64.481 211.365 67.1868 210.173L66.7836 209.257C64.416 210.301 62.3408 209.881 60.8373 208.424C59.3043 206.938 58.2986 204.304 58.2986 200.81H57.2986ZM66.7836 183.354C64.1109 184.531 61.7436 187.094 60.0495 190.229C58.3513 193.371 57.2986 197.143 57.2986 200.81H58.2986C58.2986 197.324 59.3024 193.714 60.9292 190.704C62.5601 187.686 64.7861 185.326 67.1868 184.269L66.7836 183.354ZM76.6718 192.716C76.6718 189.057 75.621 186.121 73.8291 184.384C72.0075 182.618 69.4894 182.162 66.7836 183.354L67.1868 184.269C69.5544 183.226 71.6296 183.645 73.133 185.102C74.666 186.588 75.6718 189.222 75.6718 192.716H76.6718ZM185.17 158.307C187.843 157.13 190.21 154.567 191.904 151.433C193.602 148.29 194.655 144.518 194.655 140.851H193.655C193.655 144.337 192.651 147.947 191.024 150.957C189.393 153.975 187.167 156.335 184.767 157.392L185.17 158.307ZM175.282 148.945C175.282 152.604 176.332 155.54 178.124 157.277C179.946 159.043 182.464 159.499 185.17 158.307L184.767 157.392C182.399 158.435 180.324 158.016 178.82 156.559C177.287 155.073 176.282 152.439 176.282 148.945H175.282ZM184.767 131.488C182.094 132.666 179.727 135.228 178.033 138.363C176.334 141.505 175.282 145.277 175.282 148.945H176.282C176.282 145.459 177.285 141.849 178.912 138.839C180.543 135.821 182.769 133.461 185.17 132.404L184.767 131.488ZM194.655 140.851C194.655 137.192 193.604 134.256 191.812 132.519C189.991 130.753 187.472 130.297 184.767 131.488L185.17 132.404C187.537 131.361 189.613 131.78 191.116 133.237C192.649 134.723 193.655 137.357 193.655 140.851H194.655ZM100.934 391.528C103.606 390.351 105.974 387.788 107.668 384.653C109.366 381.511 110.419 377.739 110.419 374.072H109.419C109.419 377.558 108.415 381.168 106.788 384.178C105.157 387.195 102.931 389.555 100.531 390.613L100.934 391.528ZM91.0455 382.166C91.0455 385.825 92.0963 388.761 93.8883 390.498C95.7098 392.263 98.2279 392.72 100.934 391.528L100.531 390.613C98.1629 391.656 96.0877 391.237 94.5843 389.78C93.0513 388.294 92.0455 385.66 92.0455 382.166H91.0455ZM100.531 364.71C97.8578 365.887 95.4905 368.45 93.7964 371.584C92.0983 374.727 91.0455 378.499 91.0455 382.166H92.0455C92.0455 378.68 93.0494 375.07 94.6762 372.06C96.307 369.042 98.5331 366.682 100.934 365.625L100.531 364.71ZM110.419 374.072C110.419 370.413 109.368 367.477 107.576 365.74C105.754 363.975 103.236 363.518 100.531 364.71L100.934 365.625C103.301 364.582 105.377 365.001 106.88 366.458C108.413 367.944 109.419 370.578 109.419 374.072H110.419ZM73.5287 360.499C73.5287 363.985 72.5248 367.595 70.898 370.605C69.2672 373.623 67.0411 375.983 64.6405 377.04L65.0436 377.955C67.7164 376.778 70.0837 374.215 71.7778 371.081C73.476 367.938 74.5287 364.166 74.5287 360.499H73.5287ZM65.0436 352.052C67.4113 351.008 69.4865 351.428 70.9899 352.885C72.5229 354.371 73.5287 357.005 73.5287 360.499H74.5287C74.5287 356.84 73.4779 353.904 71.6859 352.167C69.8644 350.401 67.3463 349.944 64.6405 351.136L65.0436 352.052ZM56.1554 368.593C56.1554 365.107 57.1593 361.497 58.7861 358.487C60.417 355.469 62.643 353.109 65.0436 352.052L64.6405 351.136C61.9677 352.314 59.6004 354.877 57.9063 358.011C56.2082 361.153 55.1554 364.925 55.1554 368.593H56.1554ZM64.6405 377.04C62.2729 378.083 60.1976 377.664 58.6942 376.207C57.1612 374.721 56.1554 372.087 56.1554 368.593H55.1554C55.1554 372.252 56.2062 375.188 57.9982 376.925C59.8197 378.69 62.3378 379.147 65.0436 377.955L64.6405 377.04ZM43.9758 334.877C46.6485 333.699 49.0158 331.136 50.7099 328.002C52.4081 324.86 53.4609 321.088 53.4609 317.421H52.4609C52.4609 320.907 51.457 324.516 49.8302 327.526C48.1993 330.544 45.9733 332.904 43.5726 333.962L43.9758 334.877ZM34.0875 325.514C34.0875 329.173 35.1383 332.109 36.9303 333.846C38.7518 335.612 41.27 336.069 43.9758 334.877L43.5726 333.962C41.205 335.005 39.1297 334.586 37.6263 333.128C36.0933 331.642 35.0875 329.008 35.0875 325.514H34.0875ZM43.5726 308.058C40.8998 309.235 38.5325 311.798 36.8384 314.933C35.1402 318.075 34.0875 321.847 34.0875 325.514H35.0875C35.0875 322.028 36.0913 318.418 37.7181 315.408C39.349 312.391 41.5751 310.031 43.9758 308.973L43.5726 308.058ZM53.4609 317.421C53.4609 313.761 52.4101 310.825 50.6181 309.088C48.7965 307.323 46.2784 306.866 43.5726 308.058L43.9758 308.973C46.3434 307.93 48.4186 308.349 49.9221 309.806C51.4551 311.292 52.4609 313.926 52.4609 317.421H53.4609ZM54.5616 255.967C54.5616 259.453 53.5577 263.062 51.9309 266.072C50.3 269.09 48.074 271.45 45.6733 272.508L46.0765 273.423C48.7493 272.245 51.1166 269.682 52.8107 266.548C54.5088 263.406 55.5616 259.634 55.5616 255.967H54.5616ZM46.0765 247.519C48.4444 246.476 50.5197 246.895 52.0231 248.352C53.5561 249.838 54.5618 252.472 54.5616 255.967L55.5616 255.967C55.5618 252.308 54.5111 249.371 52.7191 247.634C50.8976 245.869 48.3794 245.412 45.6733 246.604L46.0765 247.519ZM37.1882 264.06C37.1882 260.574 38.1921 256.964 39.8189 253.954C41.4498 250.937 43.6758 248.577 46.0765 247.519L45.6733 246.604C43.0006 247.781 40.6333 250.344 38.9392 253.479C37.241 256.621 36.1882 260.393 36.1882 264.06H37.1882ZM45.6733 272.508C43.3055 273.551 41.2303 273.132 39.7269 271.674C38.1939 270.188 37.1882 267.554 37.1882 264.06H36.1882C36.1882 267.719 37.2389 270.655 39.0309 272.392C40.8524 274.158 43.3705 274.615 46.0765 273.423L45.6733 272.508ZM143.169 372.187C140.801 373.23 138.726 372.811 137.223 371.353C135.69 369.867 134.684 367.233 134.684 363.739H133.684C133.684 367.398 134.735 370.334 136.527 372.071C138.348 373.837 140.866 374.294 143.572 373.102L143.169 372.187ZM147.117 369.125C145.912 370.51 144.569 371.57 143.169 372.187L143.572 373.102C145.138 372.412 146.596 371.248 147.871 369.781L147.117 369.125ZM134.684 363.739C134.684 362.561 134.799 361.367 135.014 360.185L134.031 360.006C133.805 361.242 133.684 362.496 133.684 363.739H134.684Z" fill="#AFB4C8"/>
<path d="M328.43 325.029L336.983 327.392C337.506 327.537 337.818 328.072 337.687 328.598L331.164 354.684L321.778 351.885L316.089 343.247L319.534 329.757L328.43 325.029Z" fill="white" stroke="#AFB4C8" stroke-miterlimit="10"/>
<path d="M327.127 346.668L317.064 343.767" stroke="#AFB4C8" stroke-miterlimit="10" stroke-linecap="round" stroke-dasharray="0.1 2"/>
<path d="M329.714 333.152L319.651 330.251" stroke="#AFB4C8" stroke-miterlimit="10" stroke-linecap="round" stroke-dasharray="0.1 2"/>
<path d="M337.146 328.363C337.602 328.12 338.167 328.265 338.451 328.696L343.638 336.573L340.194 350.063L331.298 354.791L325.61 346.154L329.054 332.664L337.146 328.363Z" fill="white" stroke="#AFB4C8" stroke-miterlimit="10"/>
<path d="M326.35 382.213L334.904 384.576C335.427 384.72 335.739 385.256 335.607 385.782L329.085 411.868L319.699 409.068L314.01 400.431L317.455 386.941L326.35 382.213Z" fill="white" stroke="#AFB4C8" stroke-miterlimit="10"/>
<path d="M325.048 403.851L314.985 400.951" stroke="#AFB4C8" stroke-miterlimit="10" stroke-linecap="round" stroke-dasharray="0.1 2"/>
<path d="M327.635 390.335L317.572 387.435" stroke="#AFB4C8" stroke-miterlimit="10" stroke-linecap="round" stroke-dasharray="0.1 2"/>
<path d="M335.067 385.546C335.522 385.304 336.088 385.448 336.371 385.879L341.559 393.756L338.115 407.246L329.219 411.975L323.53 403.337L326.975 389.847L335.067 385.546Z" fill="white" stroke="#AFB4C8" stroke-miterlimit="10"/>
<path d="M345.066 421.721L353.619 424.084C354.143 424.229 354.455 424.764 354.323 425.291L347.801 451.376L338.414 448.577L332.726 439.94L336.171 426.45L345.066 421.721Z" fill="white" stroke="#AFB4C8" stroke-miterlimit="10"/>
<path d="M343.764 443.36L333.701 440.46" stroke="#AFB4C8" stroke-miterlimit="10" stroke-linecap="round" stroke-dasharray="0.1 2"/>
<path d="M346.351 429.844L336.288 426.944" stroke="#AFB4C8" stroke-miterlimit="10" stroke-linecap="round" stroke-dasharray="0.1 2"/>
<path d="M353.783 425.055C354.238 424.813 354.803 424.957 355.087 425.388L360.275 433.265L356.83 446.755L347.935 451.483L342.246 442.846L345.691 429.356L353.783 425.055Z" fill="white" stroke="#AFB4C8" stroke-miterlimit="10"/>
<path d="M348.186 267.845L356.74 270.208C357.263 270.353 357.575 270.888 357.443 271.415L350.921 297.5L341.535 294.701L335.846 286.064L339.291 272.573L348.186 267.845Z" fill="white" stroke="#AFB4C8" stroke-miterlimit="10"/>
<path d="M346.884 289.484L336.821 286.583" stroke="#AFB4C8" stroke-miterlimit="10" stroke-linecap="round" stroke-dasharray="0.1 2"/>
<path d="M349.471 275.968L339.408 273.067" stroke="#AFB4C8" stroke-miterlimit="10" stroke-linecap="round" stroke-dasharray="0.1 2"/>
<path d="M356.903 271.179C357.358 270.937 357.924 271.081 358.207 271.512L363.395 279.389L359.951 292.879L351.055 297.607L345.366 288.97L348.811 275.48L356.903 271.179Z" fill="white" stroke="#AFB4C8" stroke-miterlimit="10"/>
<path d="M384.575 225.217L393.128 227.58C393.651 227.725 393.963 228.26 393.832 228.787L387.31 254.872L377.923 252.073L372.234 243.436L375.679 229.946L384.575 225.217Z" fill="white" stroke="#AFB4C8" stroke-miterlimit="10"/>
<path d="M383.272 246.856L373.209 243.956" stroke="#AFB4C8" stroke-miterlimit="10" stroke-linecap="round" stroke-dasharray="0.1 2"/>
<path d="M385.859 233.34L375.796 230.439" stroke="#AFB4C8" stroke-miterlimit="10" stroke-linecap="round" stroke-dasharray="0.1 2"/>
<path d="M393.291 228.551C393.747 228.309 394.312 228.453 394.596 228.884L399.783 236.761L396.339 250.251L387.443 254.979L381.755 246.342L385.199 232.852L393.291 228.551Z" fill="white" stroke="#AFB4C8" stroke-miterlimit="10"/>
<path d="M425.123 206.503L433.676 208.866C434.199 209.01 434.512 209.546 434.38 210.072L427.858 236.158L418.471 233.358L412.783 224.721L416.227 211.231L425.123 206.503Z" fill="white" stroke="#AFB4C8" stroke-miterlimit="10"/>
<path d="M423.82 228.141L413.757 225.241" stroke="#AFB4C8" stroke-miterlimit="10" stroke-linecap="round" stroke-dasharray="0.1 2"/>
<path d="M426.408 214.625L416.345 211.725" stroke="#AFB4C8" stroke-miterlimit="10" stroke-linecap="round" stroke-dasharray="0.1 2"/>
<path d="M433.839 209.836C434.295 209.594 434.86 209.738 435.144 210.169L440.332 218.046L436.887 231.536L427.991 236.265L422.303 227.627L425.748 214.137L433.839 209.836Z" fill="white" stroke="#AFB4C8" stroke-miterlimit="10"/>
<path d="M438.957 500.554L407.092 494.096C374.559 485.634 352.219 448.639 352.219 394.705C352.219 318.687 396.602 237.808 451.352 214.055C464.543 208.333 477.133 206.448 488.645 207.948L517.237 214.571" fill="white"/>
<path d="M438.957 500.554L407.092 494.096C374.559 485.634 352.219 448.639 352.219 394.705C352.219 318.687 396.602 237.808 451.352 214.055C464.543 208.333 477.133 206.448 488.645 207.948L517.237 214.571" stroke="#AFB4C8" stroke-miterlimit="10"/>
<path d="M376.27 168.947V178.943C376.27 182.93 378.996 186.492 383.048 187.689C383.103 187.705 383.158 187.721 383.214 187.737" stroke="#AFB4C8" stroke-miterlimit="10"/>
<mask id="mask1" mask-type="alpha" maskUnits="userSpaceOnUse" x="385" y="222" width="183" height="272">
<path fill-rule="evenodd" clip-rule="evenodd" d="M508.221 232.149C508.221 239.193 504.108 246.689 499.035 248.89C493.961 251.09 489.848 247.164 489.848 240.119C489.848 233.075 493.961 225.579 499.035 223.378C504.109 221.178 508.221 225.104 508.221 232.149ZM456.967 267.265C462.041 265.064 466.154 257.569 466.154 250.524C466.154 243.479 462.041 239.553 456.967 241.754C451.894 243.955 447.781 251.45 447.781 258.495C447.781 265.54 451.894 269.466 456.967 267.265ZM418.699 313.757C423.772 311.556 427.885 304.061 427.885 297.016C427.885 289.971 423.772 286.045 418.699 288.246C413.625 290.447 409.512 297.942 409.512 304.987C409.512 312.032 413.625 315.958 418.699 313.757ZM536.681 262.678C541.754 260.477 545.868 252.982 545.868 245.937C545.868 238.892 541.754 234.966 536.681 237.167C531.608 239.368 527.494 246.863 527.494 253.908C527.494 260.952 531.607 264.879 536.681 262.678ZM566.677 288.497C566.677 295.541 562.564 303.036 557.49 305.238C552.416 307.439 548.303 303.512 548.303 296.467C548.303 289.423 552.417 281.927 557.49 279.726C562.564 277.526 566.677 281.452 566.677 288.497ZM555.777 366.512C560.851 364.31 564.964 356.815 564.964 349.771C564.964 342.726 560.851 338.799 555.777 341C550.704 343.202 546.59 350.697 546.59 357.741C546.59 364.786 550.704 368.713 555.777 366.512ZM541.957 410.943C541.957 417.988 537.844 425.482 532.77 427.684C527.696 429.885 523.584 425.958 523.584 418.914C523.584 411.869 527.697 404.374 532.77 402.173C537.844 399.971 541.957 403.898 541.957 410.943ZM495.083 474.216C500.157 472.015 504.27 464.52 504.27 457.475C504.27 450.431 500.157 446.504 495.083 448.706C490.01 450.907 485.897 458.402 485.897 465.447C485.897 472.491 490.01 476.418 495.083 474.216ZM461.632 475.623C461.632 482.667 457.519 490.162 452.446 492.364C447.372 494.565 443.259 490.638 443.259 483.594C443.259 476.549 447.372 469.054 452.446 466.853C457.519 464.652 461.632 468.578 461.632 475.623ZM416.555 478.996C421.628 476.796 425.741 469.3 425.741 462.255C425.741 455.211 421.628 451.284 416.555 453.485C411.481 455.687 407.368 463.181 407.368 470.226C407.368 477.271 411.481 481.197 416.555 478.996ZM404.674 419.83C404.674 426.875 400.56 434.37 395.487 436.571C390.413 438.772 386.3 434.845 386.3 427.801C386.3 420.756 390.413 413.261 395.487 411.06C400.56 408.858 404.674 412.785 404.674 419.83ZM397.59 376.048C402.664 373.847 406.777 366.352 406.777 359.307C406.778 352.263 402.664 348.336 397.59 350.537C392.517 352.738 388.404 360.233 388.404 367.278C388.404 374.323 392.517 378.25 397.59 376.048Z" fill="#CED2DC"/>
<path d="M499.035 223.378L498.836 222.92L498.836 222.92L499.035 223.378ZM456.967 267.265L457.166 267.724L456.967 267.265ZM456.967 241.754L456.768 241.295L456.768 241.295L456.967 241.754ZM418.699 313.757L418.898 314.216L418.699 313.757ZM418.699 288.246L418.5 287.787L418.699 288.246ZM536.681 262.678L536.482 262.219L536.482 262.219L536.681 262.678ZM557.49 305.238L557.689 305.696L557.689 305.696L557.49 305.238ZM557.49 279.726L557.689 280.185L557.49 279.726ZM555.777 341L555.578 340.542L555.777 341ZM532.77 427.684L532.969 428.142L532.969 428.142L532.77 427.684ZM495.083 474.216L494.884 473.758L495.083 474.216ZM495.083 448.706L495.282 449.164H495.282L495.083 448.706ZM452.446 492.364L452.247 491.905H452.247L452.446 492.364ZM452.446 466.853L452.645 467.311L452.446 466.853ZM416.555 478.996L416.356 478.538H416.356L416.555 478.996ZM416.555 453.485L416.356 453.027H416.356L416.555 453.485ZM395.487 436.571L395.686 437.03L395.487 436.571ZM395.487 411.06L395.686 411.518L395.487 411.06ZM406.777 359.307L406.277 359.307V359.307H406.777ZM397.59 376.048L397.789 376.507L397.789 376.507L397.59 376.048ZM397.59 350.537L397.391 350.078L397.391 350.078L397.59 350.537ZM499.234 249.348C501.906 248.189 504.274 245.665 505.969 242.576C507.668 239.48 508.721 235.763 508.721 232.149H507.721C507.721 235.579 506.718 239.132 505.092 242.095C503.462 245.065 501.237 247.389 498.836 248.431L499.234 249.348ZM489.348 240.119C489.348 243.726 490.4 246.621 492.193 248.333C494.015 250.072 496.531 250.521 499.234 249.348L498.836 248.431C496.465 249.459 494.387 249.045 492.884 247.61C491.353 246.148 490.348 243.557 490.348 240.119H489.348ZM498.836 222.92C496.164 224.079 493.795 226.603 492.1 229.692C490.401 232.788 489.348 236.505 489.348 240.119H490.348C490.348 236.689 491.351 233.136 492.977 230.173C494.607 227.203 496.832 224.879 499.234 223.837L498.836 222.92ZM508.721 232.149C508.721 228.542 507.669 225.647 505.876 223.935C504.054 222.196 501.539 221.747 498.836 222.92L499.234 223.837C501.604 222.809 503.682 223.223 505.185 224.658C506.717 226.12 507.721 228.711 507.721 232.149H508.721ZM465.654 250.524C465.654 253.954 464.651 257.507 463.025 260.471C461.395 263.441 459.17 265.765 456.768 266.806L457.166 267.724C459.838 266.565 462.206 264.041 463.901 260.952C465.6 257.856 466.654 254.139 466.654 250.524H465.654ZM457.166 242.213C459.537 241.184 461.615 241.599 463.118 243.034C464.649 244.496 465.654 247.086 465.654 250.524H466.654C466.654 246.917 465.602 244.023 463.809 242.31C461.987 240.571 459.472 240.123 456.768 241.295L457.166 242.213ZM448.281 258.495C448.281 255.065 449.284 251.512 450.91 248.549C452.54 245.578 454.765 243.254 457.166 242.213L456.768 241.295C454.096 242.454 451.728 244.979 450.033 248.067C448.334 251.163 447.281 254.881 447.281 258.495H448.281ZM456.768 266.806C454.398 267.835 452.32 267.421 450.817 265.986C449.285 264.524 448.281 261.933 448.281 258.495H447.281C447.281 262.102 448.333 264.997 450.126 266.709C451.948 268.448 454.463 268.896 457.166 267.724L456.768 266.806ZM427.385 297.016C427.385 300.446 426.382 303.999 424.756 306.962C423.126 309.933 420.901 312.256 418.5 313.298L418.898 314.216C421.57 313.056 423.938 310.532 425.633 307.443C427.332 304.348 428.385 300.631 428.385 297.016H427.385ZM418.898 288.705C421.268 287.676 423.346 288.09 424.849 289.525C426.381 290.987 427.385 293.578 427.385 297.016H428.385C428.385 293.409 427.334 290.514 425.54 288.802C423.718 287.063 421.203 286.614 418.5 287.787L418.898 288.705ZM410.012 304.987C410.012 301.557 411.015 298.004 412.641 295.041C414.271 292.07 416.497 289.746 418.898 288.705L418.5 287.787C415.828 288.947 413.46 291.471 411.765 294.56C410.066 297.655 409.012 301.372 409.012 304.987H410.012ZM418.5 313.298C416.129 314.327 414.052 313.913 412.548 312.478C411.017 311.016 410.012 308.425 410.012 304.987H409.012C409.012 308.594 410.064 311.489 411.858 313.201C413.679 314.94 416.195 315.389 418.898 314.216L418.5 313.298ZM545.368 245.937C545.368 249.367 544.365 252.92 542.739 255.883C541.109 258.854 538.883 261.178 536.482 262.219L536.88 263.137C539.552 261.977 541.92 259.453 543.615 256.364C545.314 253.268 546.368 249.551 546.368 245.937H545.368ZM536.88 237.625C539.25 236.597 541.328 237.011 542.832 238.446C544.363 239.908 545.368 242.499 545.368 245.937H546.368C546.368 242.33 545.316 239.435 543.522 237.723C541.7 235.984 539.185 235.535 536.482 236.708L536.88 237.625ZM527.994 253.908C527.994 250.477 528.997 246.924 530.623 243.961C532.253 240.991 534.479 238.667 536.88 237.625L536.482 236.708C533.81 237.867 531.442 240.391 529.747 243.48C528.048 246.576 526.994 250.293 526.994 253.908H527.994ZM536.482 262.219C534.111 263.248 532.033 262.834 530.53 261.398C528.999 259.936 527.994 257.346 527.994 253.908H526.994C526.994 257.515 528.046 260.409 529.84 262.122C531.661 263.861 534.177 264.309 536.88 263.137L536.482 262.219ZM557.689 305.696C560.361 304.537 562.729 302.013 564.424 298.924C566.123 295.828 567.177 292.111 567.177 288.497H566.177C566.177 291.927 565.174 295.48 563.548 298.443C561.918 301.413 559.692 303.737 557.291 304.779L557.689 305.696ZM547.803 296.467C547.803 300.074 548.855 302.969 550.649 304.681C552.47 306.42 554.986 306.869 557.689 305.696L557.291 304.779C554.921 305.807 552.843 305.393 551.339 303.958C549.808 302.496 548.803 299.905 548.803 296.467H547.803ZM557.291 279.268C554.619 280.427 552.251 282.951 550.556 286.04C548.857 289.136 547.803 292.853 547.803 296.467H548.803C548.803 293.037 549.806 289.484 551.433 286.521C553.062 283.551 555.288 281.227 557.689 280.185L557.291 279.268ZM567.177 288.497C567.177 284.89 566.125 281.995 564.331 280.283C562.51 278.544 559.994 278.095 557.291 279.268L557.689 280.185C560.059 279.157 562.137 279.571 563.641 281.006C565.172 282.468 566.177 285.059 566.177 288.497H567.177ZM564.464 349.771C564.464 353.201 563.461 356.754 561.835 359.717C560.205 362.687 557.98 365.011 555.578 366.053L555.976 366.97C558.648 365.811 561.016 363.287 562.711 360.198C564.41 357.102 565.464 353.385 565.464 349.771H564.464ZM555.976 341.459C558.347 340.431 560.425 340.845 561.928 342.28C563.459 343.742 564.464 346.333 564.464 349.771H565.464C565.464 346.164 564.412 343.269 562.618 341.557C560.797 339.817 558.281 339.369 555.578 340.542L555.976 341.459ZM547.09 357.741C547.09 354.311 548.094 350.758 549.72 347.795C551.35 344.825 553.575 342.501 555.976 341.459L555.578 340.542C552.906 341.701 550.538 344.225 548.843 347.314C547.144 350.41 546.09 354.127 546.09 357.741H547.09ZM555.578 366.053C553.208 367.081 551.13 366.667 549.627 365.232C548.095 363.77 547.09 361.179 547.09 357.741H546.09C546.09 361.348 547.142 364.243 548.936 365.955C550.758 367.694 553.273 368.143 555.976 366.97L555.578 366.053ZM532.969 428.142C535.641 426.983 538.009 424.459 539.704 421.37C541.403 418.274 542.457 414.557 542.457 410.943H541.457C541.457 414.373 540.454 417.926 538.828 420.889C537.198 423.859 534.973 426.183 532.571 427.225L532.969 428.142ZM523.084 418.914C523.084 422.52 524.135 425.415 525.929 427.128C527.751 428.867 530.266 429.315 532.969 428.142L532.571 427.225C530.201 428.254 528.123 427.839 526.619 426.404C525.088 424.942 524.084 422.351 524.084 418.914H523.084ZM532.571 401.714C529.899 402.873 527.531 405.397 525.836 408.486C524.137 411.582 523.084 415.299 523.084 418.914H524.084C524.084 415.483 525.087 411.93 526.713 408.967C528.343 405.997 530.568 403.673 532.969 402.631L532.571 401.714ZM542.457 410.943C542.457 407.336 541.405 404.441 539.611 402.729C537.79 400.99 535.274 400.541 532.571 401.714L532.969 402.631C535.34 401.603 537.418 402.017 538.921 403.452C540.452 404.914 541.457 407.505 541.457 410.943H542.457ZM503.77 457.475C503.77 460.906 502.767 464.459 501.141 467.422C499.511 470.392 497.286 472.716 494.884 473.758L495.282 474.675C497.955 473.516 500.323 470.992 502.018 467.903C503.716 464.807 504.77 461.09 504.77 457.475H503.77ZM495.282 449.164C497.653 448.136 499.731 448.55 501.234 449.985C502.766 451.447 503.77 454.038 503.77 457.475H504.77C504.77 453.869 503.718 450.974 501.925 449.261C500.103 447.522 497.588 447.074 494.884 448.247L495.282 449.164ZM486.397 465.447C486.397 462.016 487.4 458.464 489.026 455.5C490.656 452.53 492.881 450.206 495.282 449.164L494.884 448.247C492.212 449.406 489.844 451.93 488.149 455.019C486.45 458.115 485.397 461.832 485.397 465.447H486.397ZM494.884 473.758C492.514 474.786 490.436 474.372 488.933 472.937C487.401 471.475 486.397 468.884 486.397 465.447H485.397C485.397 469.053 486.449 471.948 488.242 473.66C490.064 475.399 492.579 475.848 495.282 474.675L494.884 473.758ZM452.645 492.822C455.317 491.663 457.685 489.139 459.38 486.05C461.079 482.954 462.132 479.237 462.132 475.623H461.132C461.132 479.053 460.129 482.606 458.503 485.569C456.873 488.539 454.648 490.863 452.247 491.905L452.645 492.822ZM442.759 483.594C442.759 487.201 443.811 490.095 445.605 491.807C447.426 493.546 449.942 493.995 452.645 492.822L452.247 491.905C449.876 492.933 447.799 492.519 446.295 491.084C444.764 489.622 443.759 487.031 443.759 483.594H442.759ZM452.247 466.394C449.575 467.553 447.207 470.077 445.512 473.166C443.813 476.262 442.759 479.979 442.759 483.594H443.759C443.759 480.164 444.762 476.611 446.388 473.647C448.018 470.677 450.243 468.353 452.645 467.311L452.247 466.394ZM462.132 475.623C462.132 472.016 461.08 469.121 459.287 467.409C457.465 465.67 454.95 465.221 452.247 466.394L452.645 467.311C455.015 466.283 457.093 466.697 458.596 468.132C460.128 469.594 461.132 472.185 461.132 475.623H462.132ZM425.241 462.255C425.241 465.686 424.238 469.239 422.612 472.202C420.982 475.172 418.757 477.496 416.356 478.538L416.754 479.455C419.426 478.296 421.794 475.772 423.489 472.683C425.188 469.587 426.241 465.87 426.241 462.255H425.241ZM416.754 453.944C419.124 452.916 421.202 453.33 422.705 454.765C424.237 456.227 425.241 458.818 425.241 462.255H426.241C426.241 458.649 425.189 455.754 423.396 454.041C421.574 452.302 419.059 451.854 416.356 453.027L416.754 453.944ZM407.868 470.226C407.868 466.796 408.871 463.243 410.497 460.28C412.127 457.31 414.352 454.986 416.754 453.944L416.356 453.027C413.684 454.186 411.316 456.71 409.621 459.799C407.922 462.895 406.868 466.612 406.868 470.226H407.868ZM416.356 478.538C413.985 479.566 411.908 479.152 410.404 477.717C408.873 476.255 407.868 473.664 407.868 470.226H406.868C406.868 473.833 407.92 476.728 409.714 478.44C411.535 480.179 414.051 480.628 416.754 479.455L416.356 478.538ZM395.686 437.03C398.358 435.87 400.726 433.346 402.421 430.257C404.12 427.161 405.174 423.444 405.174 419.83H404.174C404.174 423.26 403.171 426.813 401.544 429.776C399.915 432.746 397.689 435.07 395.288 436.112L395.686 437.03ZM385.8 427.801C385.8 431.408 386.852 434.302 388.646 436.015C390.467 437.754 392.983 438.202 395.686 437.03L395.288 436.112C392.918 437.141 390.84 436.727 389.336 435.291C387.805 433.829 386.8 431.239 386.8 427.801H385.8ZM395.288 410.601C392.616 411.76 390.248 414.285 388.553 417.373C386.854 420.469 385.8 424.186 385.8 427.801H386.8C386.8 424.37 387.803 420.818 389.429 417.854C391.059 414.884 393.285 412.56 395.686 411.518L395.288 410.601ZM405.174 419.83C405.174 416.223 404.122 413.328 402.328 411.616C400.506 409.877 397.991 409.428 395.288 410.601L395.686 411.518C398.056 410.49 400.134 410.904 401.638 412.339C403.169 413.801 404.174 416.392 404.174 419.83H405.174ZM406.277 359.307C406.277 362.738 405.274 366.291 403.648 369.254C402.018 372.224 399.793 374.548 397.391 375.59L397.789 376.507C400.462 375.348 402.83 372.824 404.525 369.735C406.224 366.639 407.277 362.922 407.277 359.307H406.277ZM397.789 350.996C400.16 349.967 402.238 350.381 403.741 351.817C405.273 353.279 406.277 355.869 406.277 359.307L407.277 359.307C407.277 355.701 406.225 352.806 404.432 351.093C402.61 349.354 400.095 348.906 397.391 350.078L397.789 350.996ZM388.904 367.278C388.904 363.848 389.907 360.295 391.533 357.332C393.163 354.362 395.388 352.038 397.789 350.996L397.391 350.078C394.719 351.238 392.351 353.762 390.656 356.851C388.957 359.947 387.904 363.664 387.904 367.278H388.904ZM397.391 375.59C395.021 376.618 392.943 376.204 391.44 374.769C389.908 373.307 388.904 370.716 388.904 367.278H387.904C387.904 370.885 388.956 373.78 390.749 375.492C392.571 377.231 395.086 377.68 397.789 376.507L397.391 375.59Z" fill="#CED2DC"/>
</mask>
<g mask="url(#mask1)">
<path d="M425.807 295.976C425.807 303.021 421.694 310.516 416.62 312.717C411.547 314.919 407.434 310.992 407.434 303.947C407.434 296.902 411.547 289.407 416.62 287.206C421.694 285.005 425.807 288.931 425.807 295.976Z" stroke="#AFB4C8" stroke-width="0.6" stroke-miterlimit="10"/>
<path d="M464.076 249.484C464.076 256.529 459.963 264.024 454.89 266.225C449.816 268.426 445.703 264.5 445.703 257.455C445.703 250.41 449.816 242.915 454.89 240.714C459.963 238.513 464.076 242.44 464.076 249.484Z" stroke="#AFB4C8" stroke-width="0.6" stroke-miterlimit="10"/>
<path d="M506.143 231.109C506.143 238.154 502.029 245.649 496.956 247.85C491.883 250.051 487.769 246.124 487.769 239.08C487.769 232.035 491.883 224.539 496.956 222.339C502.03 220.138 506.143 224.064 506.143 231.109Z" stroke="#AFB4C8" stroke-width="0.6" stroke-miterlimit="10"/>
<path d="M543.79 244.897C543.79 251.942 539.677 259.437 534.603 261.638C529.529 263.839 525.417 259.913 525.417 252.868C525.417 245.823 529.53 238.328 534.603 236.127C539.677 233.926 543.79 237.852 543.79 244.897Z" stroke="#AFB4C8" stroke-width="0.6" stroke-miterlimit="10"/>
<path d="M564.599 287.457C564.599 294.502 560.486 301.997 555.412 304.198C550.339 306.399 546.226 302.472 546.226 295.428C546.226 288.383 550.339 280.888 555.412 278.687C560.486 276.486 564.599 280.412 564.599 287.457Z" stroke="#AFB4C8" stroke-width="0.6" stroke-miterlimit="10"/>
<path d="M562.886 348.731C562.886 355.776 558.773 363.271 553.699 365.472C548.626 367.673 544.513 363.746 544.513 356.702C544.513 349.657 548.626 342.162 553.699 339.961C558.773 337.759 562.886 341.686 562.886 348.731Z" stroke="#AFB4C8" stroke-width="0.6" stroke-miterlimit="10"/>
<path d="M539.879 409.903C539.879 416.948 535.766 424.443 530.693 426.644C525.619 428.845 521.506 424.919 521.506 417.874C521.506 410.829 525.619 403.334 530.693 401.133C535.766 398.931 539.879 402.858 539.879 409.903Z" stroke="#AFB4C8" stroke-width="0.6" stroke-miterlimit="10"/>
<path d="M502.192 456.436C502.192 463.48 498.079 470.975 493.006 473.177C487.932 475.378 483.819 471.451 483.819 464.407C483.819 457.362 487.932 449.867 493.006 447.666C498.08 445.464 502.192 449.391 502.192 456.436Z" stroke="#AFB4C8" stroke-width="0.6" stroke-miterlimit="10"/>
<path d="M459.554 474.583C459.554 481.628 455.441 489.123 450.367 491.324C445.294 493.525 441.181 489.598 441.181 482.554C441.181 475.509 445.294 468.014 450.367 465.813C455.441 463.612 459.554 467.538 459.554 474.583Z" stroke="#AFB4C8" stroke-width="0.6" stroke-miterlimit="10"/>
<path d="M423.664 461.216C423.664 468.26 419.55 475.756 414.477 477.957C409.404 480.157 405.29 476.231 405.29 469.186C405.29 462.142 409.404 454.647 414.477 452.445C419.55 450.244 423.664 454.171 423.664 461.216Z" stroke="#AFB4C8" stroke-width="0.6" stroke-miterlimit="10"/>
<path d="M402.596 418.79C402.596 425.835 398.483 433.33 393.409 435.531C388.336 437.732 384.222 433.806 384.222 426.761C384.222 419.716 388.336 412.221 393.409 410.02C398.483 407.819 402.596 411.745 402.596 418.79Z" stroke="#AFB4C8" stroke-width="0.6" stroke-miterlimit="10"/>
<path d="M404.699 358.267C404.699 365.312 400.586 372.807 395.513 375.008C390.439 377.21 386.326 373.283 386.326 366.238C386.326 359.194 390.439 351.699 395.513 349.497C400.587 347.296 404.7 351.223 404.699 358.267Z" stroke="#AFB4C8" stroke-width="0.6" stroke-miterlimit="10"/>
</g>
<path d="M499.035 223.378L498.836 222.92L498.836 222.92L499.035 223.378ZM456.967 267.265L457.166 267.724L456.967 267.265ZM456.967 241.754L456.768 241.295L456.768 241.295L456.967 241.754ZM418.699 313.757L418.898 314.216L418.699 313.757ZM418.699 288.246L418.5 287.787L418.699 288.246ZM536.681 262.678L536.482 262.219L536.482 262.219L536.681 262.678ZM557.49 305.238L557.689 305.696L557.689 305.696L557.49 305.238ZM557.49 279.726L557.689 280.185L557.49 279.726ZM555.777 341L555.578 340.542L555.777 341ZM532.77 427.684L532.969 428.142L532.969 428.142L532.77 427.684ZM495.083 474.216L494.884 473.758L495.083 474.216ZM495.083 448.706L495.282 449.164H495.282L495.083 448.706ZM452.446 492.364L452.247 491.905H452.247L452.446 492.364ZM452.446 466.853L452.645 467.311L452.446 466.853ZM416.555 478.996L416.356 478.538H416.356L416.555 478.996ZM416.555 453.485L416.356 453.027H416.356L416.555 453.485ZM395.487 436.571L395.686 437.03L395.487 436.571ZM395.487 411.06L395.686 411.518L395.487 411.06ZM406.777 359.307L406.277 359.307V359.307H406.777ZM397.59 376.048L397.789 376.507L397.789 376.507L397.59 376.048ZM397.59 350.537L397.391 350.078L397.391 350.078L397.59 350.537ZM499.234 249.348C501.906 248.189 504.274 245.665 505.969 242.576C507.668 239.48 508.721 235.763 508.721 232.149H507.721C507.721 235.579 506.718 239.132 505.092 242.095C503.462 245.065 501.237 247.389 498.836 248.431L499.234 249.348ZM489.348 240.119C489.348 243.726 490.4 246.621 492.193 248.333C494.015 250.072 496.531 250.521 499.234 249.348L498.836 248.431C496.465 249.459 494.387 249.045 492.884 247.61C491.353 246.148 490.348 243.557 490.348 240.119H489.348ZM498.836 222.92C496.164 224.079 493.795 226.603 492.1 229.692C490.401 232.788 489.348 236.505 489.348 240.119H490.348C490.348 236.689 491.351 233.136 492.977 230.173C494.607 227.203 496.832 224.879 499.234 223.837L498.836 222.92ZM508.721 232.149C508.721 228.542 507.669 225.647 505.876 223.935C504.054 222.196 501.539 221.747 498.836 222.92L499.234 223.837C501.604 222.809 503.682 223.223 505.185 224.658C506.717 226.12 507.721 228.711 507.721 232.149H508.721ZM465.654 250.524C465.654 253.954 464.651 257.507 463.025 260.471C461.395 263.441 459.17 265.765 456.768 266.806L457.166 267.724C459.838 266.565 462.206 264.041 463.901 260.952C465.6 257.856 466.654 254.139 466.654 250.524H465.654ZM457.166 242.213C459.537 241.184 461.615 241.599 463.118 243.034C464.649 244.496 465.654 247.086 465.654 250.524H466.654C466.654 246.917 465.602 244.023 463.809 242.31C461.987 240.571 459.472 240.123 456.768 241.295L457.166 242.213ZM448.281 258.495C448.281 255.065 449.284 251.512 450.91 248.549C452.54 245.578 454.765 243.254 457.166 242.213L456.768 241.295C454.096 242.454 451.728 244.979 450.033 248.067C448.334 251.163 447.281 254.881 447.281 258.495H448.281ZM456.768 266.806C454.398 267.835 452.32 267.421 450.817 265.986C449.285 264.524 448.281 261.933 448.281 258.495H447.281C447.281 262.102 448.333 264.997 450.126 266.709C451.948 268.448 454.463 268.896 457.166 267.724L456.768 266.806ZM427.385 297.016C427.385 300.446 426.382 303.999 424.756 306.962C423.126 309.933 420.901 312.256 418.5 313.298L418.898 314.216C421.57 313.056 423.938 310.532 425.633 307.443C427.332 304.348 428.385 300.631 428.385 297.016H427.385ZM418.898 288.705C421.268 287.676 423.346 288.09 424.849 289.525C426.381 290.987 427.385 293.578 427.385 297.016H428.385C428.385 293.409 427.334 290.514 425.54 288.802C423.718 287.063 421.203 286.614 418.5 287.787L418.898 288.705ZM410.012 304.987C410.012 301.557 411.015 298.004 412.641 295.041C414.271 292.07 416.497 289.746 418.898 288.705L418.5 287.787C415.828 288.947 413.46 291.471 411.765 294.56C410.066 297.655 409.012 301.372 409.012 304.987H410.012ZM418.5 313.298C416.129 314.327 414.052 313.913 412.548 312.478C411.017 311.016 410.012 308.425 410.012 304.987H409.012C409.012 308.594 410.064 311.489 411.858 313.201C413.679 314.94 416.195 315.389 418.898 314.216L418.5 313.298ZM545.368 245.937C545.368 249.367 544.365 252.92 542.739 255.883C541.109 258.854 538.883 261.178 536.482 262.219L536.88 263.137C539.552 261.977 541.92 259.453 543.615 256.364C545.314 253.268 546.368 249.551 546.368 245.937H545.368ZM536.88 237.625C539.25 236.597 541.328 237.011 542.832 238.446C544.363 239.908 545.368 242.499 545.368 245.937H546.368C546.368 242.33 545.316 239.435 543.522 237.723C541.7 235.984 539.185 235.535 536.482 236.708L536.88 237.625ZM527.994 253.908C527.994 250.477 528.997 246.924 530.623 243.961C532.253 240.991 534.479 238.667 536.88 237.625L536.482 236.708C533.81 237.867 531.442 240.391 529.747 243.48C528.048 246.576 526.994 250.293 526.994 253.908H527.994ZM536.482 262.219C534.111 263.248 532.033 262.834 530.53 261.398C528.999 259.936 527.994 257.346 527.994 253.908H526.994C526.994 257.515 528.046 260.409 529.84 262.122C531.661 263.861 534.177 264.309 536.88 263.137L536.482 262.219ZM557.689 305.696C560.361 304.537 562.729 302.013 564.424 298.924C566.123 295.828 567.177 292.111 567.177 288.497H566.177C566.177 291.927 565.174 295.48 563.548 298.443C561.918 301.413 559.692 303.737 557.291 304.779L557.689 305.696ZM547.803 296.467C547.803 300.074 548.855 302.969 550.649 304.681C552.47 306.42 554.986 306.869 557.689 305.696L557.291 304.779C554.921 305.807 552.843 305.393 551.339 303.958C549.808 302.496 548.803 299.905 548.803 296.467H547.803ZM557.291 279.268C554.619 280.427 552.251 282.951 550.556 286.04C548.857 289.136 547.803 292.853 547.803 296.467H548.803C548.803 293.037 549.806 289.484 551.433 286.521C553.062 283.551 555.288 281.227 557.689 280.185L557.291 279.268ZM567.177 288.497C567.177 284.89 566.125 281.995 564.331 280.283C562.51 278.544 559.994 278.095 557.291 279.268L557.689 280.185C560.059 279.157 562.137 279.571 563.641 281.006C565.172 282.468 566.177 285.059 566.177 288.497H567.177ZM564.464 349.771C564.464 353.201 563.461 356.754 561.835 359.717C560.205 362.687 557.98 365.011 555.578 366.053L555.976 366.97C558.648 365.811 561.016 363.287 562.711 360.198C564.41 357.102 565.464 353.385 565.464 349.771H564.464ZM555.976 341.459C558.347 340.431 560.425 340.845 561.928 342.28C563.459 343.742 564.464 346.333 564.464 349.771H565.464C565.464 346.164 564.412 343.269 562.618 341.557C560.797 339.817 558.281 339.369 555.578 340.542L555.976 341.459ZM547.09 357.741C547.09 354.311 548.094 350.758 549.72 347.795C551.35 344.825 553.575 342.501 555.976 341.459L555.578 340.542C552.906 341.701 550.538 344.225 548.843 347.314C547.144 350.41 546.09 354.127 546.09 357.741H547.09ZM555.578 366.053C553.208 367.081 551.13 366.667 549.627 365.232C548.095 363.77 547.09 361.179 547.09 357.741H546.09C546.09 361.348 547.142 364.243 548.936 365.955C550.758 367.694 553.273 368.143 555.976 366.97L555.578 366.053ZM532.969 428.142C535.641 426.983 538.009 424.459 539.704 421.37C541.403 418.274 542.457 414.557 542.457 410.943H541.457C541.457 414.373 540.454 417.926 538.828 420.889C537.198 423.859 534.973 426.183 532.571 427.225L532.969 428.142ZM523.084 418.914C523.084 422.52 524.135 425.415 525.929 427.128C527.751 428.867 530.266 429.315 532.969 428.142L532.571 427.225C530.201 428.254 528.123 427.839 526.619 426.404C525.088 424.942 524.084 422.351 524.084 418.914H523.084ZM532.571 401.714C529.899 402.873 527.531 405.397 525.836 408.486C524.137 411.582 523.084 415.299 523.084 418.914H524.084C524.084 415.483 525.087 411.93 526.713 408.967C528.343 405.997 530.568 403.673 532.969 402.631L532.571 401.714ZM542.457 410.943C542.457 407.336 541.405 404.441 539.611 402.729C537.79 400.99 535.274 400.541 532.571 401.714L532.969 402.631C535.34 401.603 537.418 402.017 538.921 403.452C540.452 404.914 541.457 407.505 541.457 410.943H542.457ZM503.77 457.475C503.77 460.906 502.767 464.459 501.141 467.422C499.511 470.392 497.286 472.716 494.884 473.758L495.282 474.675C497.955 473.516 500.323 470.992 502.018 467.903C503.716 464.807 504.77 461.09 504.77 457.475H503.77ZM495.282 449.164C497.653 448.136 499.731 448.55 501.234 449.985C502.766 451.447 503.77 454.038 503.77 457.475H504.77C504.77 453.869 503.718 450.974 501.925 449.261C500.103 447.522 497.588 447.074 494.884 448.247L495.282 449.164ZM486.397 465.447C486.397 462.016 487.4 458.464 489.026 455.5C490.656 452.53 492.881 450.206 495.282 449.164L494.884 448.247C492.212 449.406 489.844 451.93 488.149 455.019C486.45 458.115 485.397 461.832 485.397 465.447H486.397ZM494.884 473.758C492.514 474.786 490.436 474.372 488.933 472.937C487.401 471.475 486.397 468.884 486.397 465.447H485.397C485.397 469.053 486.449 471.948 488.242 473.66C490.064 475.399 492.579 475.848 495.282 474.675L494.884 473.758ZM452.645 492.822C455.317 491.663 457.685 489.139 459.38 486.05C461.079 482.954 462.132 479.237 462.132 475.623H461.132C461.132 479.053 460.129 482.606 458.503 485.569C456.873 488.539 454.648 490.863 452.247 491.905L452.645 492.822ZM442.759 483.594C442.759 487.201 443.811 490.095 445.605 491.807C447.426 493.546 449.942 493.995 452.645 492.822L452.247 491.905C449.876 492.933 447.799 492.519 446.295 491.084C444.764 489.622 443.759 487.031 443.759 483.594H442.759ZM452.247 466.394C449.575 467.553 447.207 470.077 445.512 473.166C443.813 476.262 442.759 479.979 442.759 483.594H443.759C443.759 480.164 444.762 476.611 446.388 473.647C448.018 470.677 450.243 468.353 452.645 467.311L452.247 466.394ZM462.132 475.623C462.132 472.016 461.08 469.121 459.287 467.409C457.465 465.67 454.95 465.221 452.247 466.394L452.645 467.311C455.015 466.283 457.093 466.697 458.596 468.132C460.128 469.594 461.132 472.185 461.132 475.623H462.132ZM425.241 462.255C425.241 465.686 424.238 469.239 422.612 472.202C420.982 475.172 418.757 477.496 416.356 478.538L416.754 479.455C419.426 478.296 421.794 475.772 423.489 472.683C425.188 469.587 426.241 465.87 426.241 462.255H425.241ZM416.754 453.944C419.124 452.916 421.202 453.33 422.705 454.765C424.237 456.227 425.241 458.818 425.241 462.255H426.241C426.241 458.649 425.189 455.754 423.396 454.041C421.574 452.302 419.059 451.854 416.356 453.027L416.754 453.944ZM407.868 470.226C407.868 466.796 408.871 463.243 410.497 460.28C412.127 457.31 414.352 454.986 416.754 453.944L416.356 453.027C413.684 454.186 411.316 456.71 409.621 459.799C407.922 462.895 406.868 466.612 406.868 470.226H407.868ZM416.356 478.538C413.985 479.566 411.908 479.152 410.404 477.717C408.873 476.255 407.868 473.664 407.868 470.226H406.868C406.868 473.833 407.92 476.728 409.714 478.44C411.535 480.179 414.051 480.628 416.754 479.455L416.356 478.538ZM395.686 437.03C398.358 435.87 400.726 433.346 402.421 430.257C404.12 427.161 405.174 423.444 405.174 419.83H404.174C404.174 423.26 403.171 426.813 401.544 429.776C399.915 432.746 397.689 435.07 395.288 436.112L395.686 437.03ZM385.8 427.801C385.8 431.408 386.852 434.302 388.646 436.015C390.467 437.754 392.983 438.202 395.686 437.03L395.288 436.112C392.918 437.141 390.84 436.727 389.336 435.291C387.805 433.829 386.8 431.239 386.8 427.801H385.8ZM395.288 410.601C392.616 411.76 390.248 414.285 388.553 417.373C386.854 420.469 385.8 424.186 385.8 427.801H386.8C386.8 424.37 387.803 420.818 389.429 417.854C391.059 414.884 393.285 412.56 395.686 411.518L395.288 410.601ZM405.174 419.83C405.174 416.223 404.122 413.328 402.328 411.616C400.506 409.877 397.991 409.428 395.288 410.601L395.686 411.518C398.056 410.49 400.134 410.904 401.638 412.339C403.169 413.801 404.174 416.392 404.174 419.83H405.174ZM406.277 359.307C406.277 362.738 405.274 366.291 403.648 369.254C402.018 372.224 399.793 374.548 397.391 375.59L397.789 376.507C400.462 375.348 402.83 372.824 404.525 369.735C406.224 366.639 407.277 362.922 407.277 359.307H406.277ZM397.789 350.996C400.16 349.967 402.238 350.381 403.741 351.817C405.273 353.279 406.277 355.869 406.277 359.307L407.277 359.307C407.277 355.701 406.225 352.806 404.432 351.093C402.61 349.354 400.095 348.906 397.391 350.078L397.789 350.996ZM388.904 367.278C388.904 363.848 389.907 360.295 391.533 357.332C393.163 354.362 395.388 352.038 397.789 350.996L397.391 350.078C394.719 351.238 392.351 353.762 390.656 356.851C388.957 359.947 387.904 363.664 387.904 367.278H388.904ZM397.391 375.59C395.021 376.618 392.943 376.204 391.44 374.769C389.908 373.307 388.904 370.716 388.904 367.278H387.904C387.904 370.885 388.956 373.78 390.749 375.492C392.571 377.231 395.086 377.68 397.789 376.507L397.391 375.59Z" fill="#AFB4C8"/>
<path d="M468.252 316.039L474.035 317.485" stroke="#AFB4C8" stroke-miterlimit="10" stroke-linecap="round" stroke-dasharray="0.1 2"/>
<path d="M417.171 290.016L422.953 291.462" stroke="#AFB4C8" stroke-miterlimit="10" stroke-linecap="round" stroke-dasharray="0.1 2"/>
<path d="M414.279 293.871L425.845 296.763" stroke="#AFB4C8" stroke-miterlimit="10" stroke-linecap="round" stroke-dasharray="0.1 2"/>
<path d="M411.388 297.727L417.171 299.172" stroke="#AFB4C8" stroke-miterlimit="10" stroke-linecap="round" stroke-dasharray="0.1 2"/>
<path d="M43.7 249.537L49.4828 250.983" stroke="#AFB4C8" stroke-miterlimit="10" stroke-linecap="round" stroke-dasharray="0.1 2"/>
<path d="M40.8086 253.392L52.3741 256.283" stroke="#AFB4C8" stroke-miterlimit="10" stroke-linecap="round" stroke-dasharray="0.1 2"/>
<path d="M37.9172 257.247L43.7 258.693" stroke="#AFB4C8" stroke-miterlimit="10" stroke-linecap="round" stroke-dasharray="0.1 2"/>
<path d="M40.8088 312.183L46.5916 313.629" stroke="#AFB4C8" stroke-miterlimit="10" stroke-linecap="round" stroke-dasharray="0.1 2"/>
<path d="M37.9174 316.039L49.483 318.93" stroke="#AFB4C8" stroke-miterlimit="10" stroke-linecap="round" stroke-dasharray="0.1 2"/>
<path d="M35.026 319.894L40.8088 321.339" stroke="#AFB4C8" stroke-miterlimit="10" stroke-linecap="round" stroke-dasharray="0.1 2"/>
<path d="M455.241 243.754L461.024 245.2" stroke="#AFB4C8" stroke-miterlimit="10" stroke-linecap="round" stroke-dasharray="0.1 2"/>
<path d="M452.35 247.609L463.915 250.501" stroke="#AFB4C8" stroke-miterlimit="10" stroke-linecap="round" stroke-dasharray="0.1 2"/>
<path d="M449.458 251.464L455.241 252.91" stroke="#AFB4C8" stroke-miterlimit="10" stroke-linecap="round" stroke-dasharray="0.1 2"/>
<path d="M497.648 225.442L503.431 226.888" stroke="#AFB4C8" stroke-miterlimit="10" stroke-linecap="round" stroke-dasharray="0.1 2"/>
<path d="M494.756 229.297L506.322 232.189" stroke="#AFB4C8" stroke-miterlimit="10" stroke-linecap="round" stroke-dasharray="0.1 2"/>
<path d="M491.865 233.152L497.648 234.598" stroke="#AFB4C8" stroke-miterlimit="10" stroke-linecap="round" stroke-dasharray="0.1 2"/>
<path d="M535.236 238.935L541.019 240.381" stroke="#AFB4C8" stroke-miterlimit="10" stroke-linecap="round" stroke-dasharray="0.1 2"/>
<path d="M532.345 242.79L543.91 245.682" stroke="#AFB4C8" stroke-miterlimit="10" stroke-linecap="round" stroke-dasharray="0.1 2"/>
<path d="M529.453 246.646L535.236 248.091" stroke="#AFB4C8" stroke-miterlimit="10" stroke-linecap="round" stroke-dasharray="0.1 2"/>
<path d="M555.475 281.342L561.258 282.788" stroke="#AFB4C8" stroke-miterlimit="10" stroke-linecap="round" stroke-dasharray="0.1 2"/>
<path d="M552.584 285.197L564.149 288.089" stroke="#AFB4C8" stroke-miterlimit="10" stroke-linecap="round" stroke-dasharray="0.1 2"/>
<path d="M549.692 289.052L555.475 290.498" stroke="#AFB4C8" stroke-miterlimit="10" stroke-linecap="round" stroke-dasharray="0.1 2"/>
<path d="M395.485 353.627L401.268 355.072" stroke="#AFB4C8" stroke-miterlimit="10" stroke-linecap="round" stroke-dasharray="0.1 2"/>
<path d="M392.594 357.482L404.16 360.373" stroke="#AFB4C8" stroke-miterlimit="10" stroke-linecap="round" stroke-dasharray="0.1 2"/>
<path d="M389.703 361.337L395.485 362.783" stroke="#AFB4C8" stroke-miterlimit="10" stroke-linecap="round" stroke-dasharray="0.1 2"/>
<path d="M393.558 413.382L399.341 414.828" stroke="#AFB4C8" stroke-miterlimit="10" stroke-linecap="round" stroke-dasharray="0.1 2"/>
<path d="M390.667 417.237L402.232 420.129" stroke="#AFB4C8" stroke-miterlimit="10" stroke-linecap="round" stroke-dasharray="0.1 2"/>
<path d="M387.775 421.093L393.558 422.538" stroke="#AFB4C8" stroke-miterlimit="10" stroke-linecap="round" stroke-dasharray="0.1 2"/>
<path d="M414.762 454.825L420.545 456.271" stroke="#AFB4C8" stroke-miterlimit="10" stroke-linecap="round" stroke-dasharray="0.1 2"/>
<path d="M411.87 458.68L423.436 461.572" stroke="#AFB4C8" stroke-miterlimit="10" stroke-linecap="round" stroke-dasharray="0.1 2"/>
<path d="M408.979 462.536L414.762 463.981" stroke="#AFB4C8" stroke-miterlimit="10" stroke-linecap="round" stroke-dasharray="0.1 2"/>
<path d="M450.421 469.282L456.204 470.728" stroke="#AFB4C8" stroke-miterlimit="10" stroke-linecap="round" stroke-dasharray="0.1 2"/>
<path d="M447.53 473.137L459.096 476.029" stroke="#AFB4C8" stroke-miterlimit="10" stroke-linecap="round" stroke-dasharray="0.1 2"/>
<path d="M444.639 476.992L450.421 478.438" stroke="#AFB4C8" stroke-miterlimit="10" stroke-linecap="round" stroke-dasharray="0.1 2"/>
<path d="M492.829 451.934L498.612 453.38" stroke="#AFB4C8" stroke-miterlimit="10" stroke-linecap="round" stroke-dasharray="0.1 2"/>
<path d="M489.938 455.789L501.503 458.68" stroke="#AFB4C8" stroke-miterlimit="10" stroke-linecap="round" stroke-dasharray="0.1 2"/>
<path d="M487.047 459.644L492.829 461.09" stroke="#AFB4C8" stroke-miterlimit="10" stroke-linecap="round" stroke-dasharray="0.1 2"/>
<path d="M530.417 407.599L536.2 409.045" stroke="#AFB4C8" stroke-miterlimit="10" stroke-linecap="round" stroke-dasharray="0.1 2"/>
<path d="M527.526 411.454L539.092 414.346" stroke="#AFB4C8" stroke-miterlimit="10" stroke-linecap="round" stroke-dasharray="0.1 2"/>
<path d="M524.635 415.31L530.417 416.755" stroke="#AFB4C8" stroke-miterlimit="10" stroke-linecap="round" stroke-dasharray="0.1 2"/>
<path d="M553.548 343.025L559.331 344.471" stroke="#AFB4C8" stroke-miterlimit="10" stroke-linecap="round" stroke-dasharray="0.1 2"/>
<path d="M550.656 346.88L562.222 349.772" stroke="#AFB4C8" stroke-miterlimit="10" stroke-linecap="round" stroke-dasharray="0.1 2"/>
<path d="M547.765 350.735L553.548 352.181" stroke="#AFB4C8" stroke-miterlimit="10" stroke-linecap="round" stroke-dasharray="0.1 2"/>
<path d="M552.158 327.338C552.158 382.28 520.079 440.737 480.509 457.904C440.938 475.071 408.859 444.448 408.859 389.506C408.859 334.563 440.938 276.107 480.509 258.94C520.079 241.772 552.158 272.396 552.158 327.338Z" stroke="#AFB4C8" stroke-miterlimit="10" stroke-linecap="round" stroke-dasharray="0.1 2"/>
<path d="M555.481 328.378C555.481 383.32 523.403 441.776 483.832 458.944C444.261 476.111 412.183 445.488 412.183 390.545C412.183 335.603 444.261 277.147 483.832 259.979C523.403 242.812 555.481 273.435 555.481 328.378Z" fill="white" stroke="#AFB4C8" stroke-miterlimit="10"/>
<mask id="mask2" mask-type="alpha" maskUnits="userSpaceOnUse" x="439" y="292" width="91" height="132">
<path d="M529.811 338.57C529.811 373.177 509.606 409.997 484.681 420.81C459.757 431.623 439.551 412.335 439.551 377.728C439.551 343.121 459.757 306.3 484.681 295.487C509.606 284.674 529.811 303.963 529.811 338.57Z" fill="white"/>
</mask>
<g mask="url(#mask2)">
<path d="M498.104 330.804C498.104 365.411 477.899 402.232 452.974 413.045C428.049 423.858 407.844 404.569 407.844 369.962C407.844 335.355 428.049 298.535 452.974 287.722C477.899 276.909 498.104 296.197 498.104 330.804Z" stroke="#AFB4C8" stroke-miterlimit="10"/>
</g>
<path d="M529.811 338.57C529.811 373.177 509.606 409.997 484.681 420.81C459.757 431.623 439.551 412.335 439.551 377.728C439.551 343.121 459.757 306.3 484.681 295.487C509.606 284.674 529.811 303.963 529.811 338.57Z" stroke="#AFB4C8" stroke-miterlimit="10"/>
<path d="M466.588 422.998C470.977 423.07 475.66 421.88 480.523 419.771C505.448 408.957 525.653 372.137 525.653 337.53C525.653 315.177 517.224 299.215 504.537 293.627" stroke="#AFB4C8" stroke-miterlimit="10"/>
<path d="M441.896 357.068L489.46 370.492" stroke="#E0E1E4" stroke-width="1.5" stroke-miterlimit="10" stroke-linecap="round" stroke-dasharray="0.1 4"/>
<path d="M476.397 300.656L493.62 305.511" stroke="#E0E1E4" stroke-width="1.5" stroke-miterlimit="10" stroke-linecap="round" stroke-dasharray="0.1 4"/>
<path d="M470.226 305.511L496.219 312.269" stroke="#AFB4C8" stroke-miterlimit="10"/>
<path d="M463.989 310.709L476.633 314.283" stroke="#E0E1E4" stroke-width="1.5" stroke-miterlimit="10" stroke-linecap="round" stroke-dasharray="0.1 4"/>
<path d="M440.595 371.15L483.795 382.969" stroke="#E0E1E4" stroke-width="1.5" stroke-miterlimit="10" stroke-linecap="round" stroke-dasharray="0.1 4"/>
<path d="M575.27 314.413C575.27 390.197 531.023 470.828 476.441 494.507C421.86 518.186 377.613 475.947 377.613 400.163C377.613 324.379 421.86 243.748 476.441 220.069C531.023 196.39 575.27 238.629 575.27 314.413Z" stroke="#AFB4C8" stroke-miterlimit="10"/>
</svg>
