<svg width="26" height="32" viewBox="0 0 26 32" fill="none" xmlns="http://www.w3.org/2000/svg">
<path d="M20 13C20 11.1435 19.2625 9.36301 17.9497 8.05025C16.637 6.7375 14.8565 6 13 6C11.1435 6 9.36301 6.7375 8.05025 8.05025C6.7375 9.36301 6 11.1435 6 13L13 13H20Z" fill="#F5F7F8"/>
<path d="M10 24.6219C4.82432 23.2898 1 18.5915 1 13C1 6.37258 6.37258 1 13 1C19.6274 1 25 6.37258 25 13C25 18.5915 21.1757 23.2898 16 24.6219" stroke="#AFB4C8" stroke-linecap="round"/>
<path d="M13 6C9.13401 6 6 9.13401 6 13C6 14.9587 6.80447 16.7295 8.10102 18C10 20 11 24 11 32" stroke="#AFB4C8"/>
<path d="M13 6C16.866 6 20 9.13401 20 13C20 14.9587 19.1955 16.7295 17.899 18C16 20 15 24 15 32" stroke="#AFB4C8"/>
<path d="M13 22L13 32" stroke="#AFB4C8"/>
<path d="M6.5 13H19.5" stroke="#AFB4C8"/>
</svg>
