<svg width="27" height="24" viewBox="0 0 27 24" fill="none" xmlns="http://www.w3.org/2000/svg">
<path d="M22.5004 13.4971C22.5004 14.7907 21.5781 16.2849 19.9246 17.4833C18.2891 18.6685 16.0164 19.5 13.5005 19.5C10.9846 19.5 8.71196 18.6685 7.07646 17.4833C5.42289 16.2849 4.50059 14.7907 4.50059 13.4971C4.50059 12.4019 4.50054 12.3063 4.50051 12.2107C4.50045 12.0411 4.50048 11.8714 4.50101 6.11206C4.50103 5.84659 4.62354 5.56531 4.93341 5.26914C5.24782 4.96864 5.72943 4.6804 6.36771 4.42636C7.64195 3.91919 9.43142 3.59111 11.421 3.51632C15.3342 3.36921 19.8188 4.20634 22.5005 6.34818L22.5004 13.4971Z" fill="white" stroke="#AFB4C8" stroke-linecap="round"/>
<path d="M22.5005 6.5C22.5005 8.08177 21.5638 9.56954 19.9357 10.6835C18.3099 11.7959 16.0362 12.5 13.5005 12.5C10.9647 12.5 8.69107 11.7959 7.06532 10.6835C5.43716 9.56954 4.50049 8.08177 4.50049 6.5C4.50049 4.91823 5.43716 3.43046 7.06532 2.31646C8.69107 1.2041 10.9647 0.5 13.5005 0.5C16.0362 0.5 18.3099 1.2041 19.9357 2.31646C21.5638 3.43046 22.5005 4.91823 22.5005 6.5Z" fill="white" stroke="#AFB4C8" stroke-linecap="round"/>
<mask id="mask0" mask-type="alpha" maskUnits="userSpaceOnUse" x="5" y="1" width="18" height="11">
<path d="M21.5005 6.5C21.5005 7.79253 20.6903 9.03043 19.2393 9.9693C17.7933 10.9049 15.7657 11.5 13.5005 11.5C11.2353 11.5 9.2077 10.9049 7.76171 9.9693C6.31072 9.03043 5.50049 7.79253 5.50049 6.5C5.50049 5.20747 6.31072 3.96957 7.76171 3.0307C9.2077 2.09505 11.2353 1.5 13.5005 1.5C15.7657 1.5 17.7933 2.09505 19.2393 3.0307C20.6903 3.96957 21.5005 5.20747 21.5005 6.5Z" fill="white" stroke="#AFB4C8" stroke-linecap="round"/>
</mask>
<g mask="url(#mask0)">
<path d="M22.3529 11.0333C22.3529 12.595 21.4436 14.0611 19.8671 15.1578C18.2925 16.2532 16.0902 16.9467 13.6337 16.9467C11.1773 16.9467 8.97496 16.2532 7.40031 15.1578C5.82387 14.0611 4.91455 12.595 4.91455 11.0333C4.91455 9.47169 5.82387 8.00553 7.40031 6.90887C8.97496 5.81346 11.1773 5.12 13.6337 5.12C16.0902 5.12 18.2925 5.81346 19.8671 6.90887C21.4436 8.00553 22.3529 9.47169 22.3529 11.0333Z" fill="#F5F7F8" stroke="#AFB4C8" stroke-linecap="round"/>
</g>
<path d="M9.78269 12.6367L8.42334 11.835L8.87646 9.43H17.0325H19.2458L18.4442 11.0333L17.4857 12.2358L15.2201 14.6408V17.0458L14.8367 20.6533H12.0483V18.2483L11.5952 15.4425L9.78269 12.6367Z" fill="#F5F7F8"/>
<mask id="path-6-inside-1" fill="white">
<path fill-rule="evenodd" clip-rule="evenodd" d="M24.001 1H27.001V9V12H24.001H22.001V9H24.001V1Z"/>
</mask>
<path fill-rule="evenodd" clip-rule="evenodd" d="M24.001 1H27.001V9V12H24.001H22.001V9H24.001V1Z" fill="#F5F7F8"/>
<path d="M27.001 1H28.001V0H27.001V1ZM24.001 1V0H23.001V1H24.001ZM27.001 12V13H28.001V12H27.001ZM22.001 12H21.001V13H22.001V12ZM22.001 9V8H21.001V9H22.001ZM24.001 9V10H25.001V9H24.001ZM27.001 0H24.001V2H27.001V0ZM28.001 9V1H26.001V9H28.001ZM26.001 9V12H28.001V9H26.001ZM27.001 11H24.001V13H27.001V11ZM24.001 11H22.001V13H24.001V11ZM23.001 12V9H21.001V12H23.001ZM22.001 10H24.001V8H22.001V10ZM23.001 1V9H25.001V1H23.001Z" fill="#AFB4C8" mask="url(#path-6-inside-1)"/>
<mask id="path-8-inside-2" fill="white">
<path fill-rule="evenodd" clip-rule="evenodd" d="M0.000488281 1H3.00049V9H5.00049V12H3.00049H0.000488281V9V1Z"/>
</mask>
<path fill-rule="evenodd" clip-rule="evenodd" d="M0.000488281 1H3.00049V9H5.00049V12H3.00049H0.000488281V9V1Z" fill="#F5F7F8"/>
<path d="M3.00049 1H4.00049V0H3.00049V1ZM0.000488281 1V0H-0.999512V1H0.000488281ZM3.00049 9H2.00049V10H3.00049V9ZM5.00049 9H6.00049V8H5.00049V9ZM5.00049 12V13H6.00049V12H5.00049ZM0.000488281 12H-0.999512V13H0.000488281V12ZM3.00049 0H0.000488281V2H3.00049V0ZM4.00049 9V1H2.00049V9H4.00049ZM3.00049 10H5.00049V8H3.00049V10ZM4.00049 9V12H6.00049V9H4.00049ZM5.00049 11H3.00049V13H5.00049V11ZM3.00049 11H0.000488281V13H3.00049V11ZM1.00049 12V9H-0.999512V12H1.00049ZM-0.999512 1V9H1.00049V1H-0.999512Z" fill="#AFB4C8" mask="url(#path-8-inside-2)"/>
<path d="M7.50146 11V11C10.5213 12.2079 12.5015 15.1327 12.5015 18.3852V23.0208" stroke="#AFB4C8"/>
<path d="M19.5005 11L19.1525 11.1392C16.3429 12.263 14.5005 14.9843 14.5005 18.0104V18.0104V23.0208" stroke="#AFB4C8"/>
</svg>
