<svg width="28" height="28" viewBox="0 0 28 28" fill="none" xmlns="http://www.w3.org/2000/svg">
<mask id="path-1-inside-1" fill="white">
<path fill-rule="evenodd" clip-rule="evenodd" d="M11.3349 0H16.6682V2.98295C17.7203 3.23699 18.7151 3.63783 19.6298 4.16255L21.5637 2.2287L25.3349 5.99994L23.5059 7.82892C24.1948 8.88802 24.7114 10.0694 25.0163 11.3334H28V16.6667H25.0163C24.7235 17.8806 24.2354 19.0183 23.587 20.0447L25.57 22.0277L21.7987 25.7989L19.7609 23.7611C18.8105 24.3234 17.7708 24.7509 16.6682 25.0171V28H11.3349V25.0186C10.0698 24.7139 8.88731 24.1969 7.82734 23.5075L5.53591 25.7989L1.76467 22.0277L4.16097 19.6314C3.63573 18.7158 3.23462 17.7199 2.98061 16.6667H0V11.3334H2.98061C3.24679 10.2296 3.67451 9.18889 4.23735 8.23755L1.99974 5.99994L5.77098 2.2287L7.95377 4.4115C8.98104 3.76254 10.1198 3.27411 11.3349 2.98144V0Z"/>
</mask>
<path fill-rule="evenodd" clip-rule="evenodd" d="M11.3349 0H16.6682V2.98295C17.7203 3.23699 18.7151 3.63783 19.6298 4.16255L21.5637 2.2287L25.3349 5.99994L23.5059 7.82892C24.1948 8.88802 24.7114 10.0694 25.0163 11.3334H28V16.6667H25.0163C24.7235 17.8806 24.2354 19.0183 23.587 20.0447L25.57 22.0277L21.7987 25.7989L19.7609 23.7611C18.8105 24.3234 17.7708 24.7509 16.6682 25.0171V28H11.3349V25.0186C10.0698 24.7139 8.88731 24.1969 7.82734 23.5075L5.53591 25.7989L1.76467 22.0277L4.16097 19.6314C3.63573 18.7158 3.23462 17.7199 2.98061 16.6667H0V11.3334H2.98061C3.24679 10.2296 3.67451 9.18889 4.23735 8.23755L1.99974 5.99994L5.77098 2.2287L7.95377 4.4115C8.98104 3.76254 10.1198 3.27411 11.3349 2.98144V0Z" fill="white"/>
<path d="M16.6682 0H17.6682V-1H16.6682V0ZM11.3349 0V-1H10.3349V0H11.3349ZM16.6682 2.98295H15.6682V3.77022L16.4335 3.95501L16.6682 2.98295ZM19.6298 4.16255L19.1322 5.02995L19.7959 5.41069L20.3369 4.86966L19.6298 4.16255ZM21.5637 2.2287L22.2708 1.5216L21.5637 0.81449L20.8566 1.5216L21.5637 2.2287ZM25.3349 5.99994L26.042 6.70705L26.7491 5.99994L26.042 5.29283L25.3349 5.99994ZM23.5059 7.82892L22.7988 7.12182L22.2258 7.69483L22.6676 8.37415L23.5059 7.82892ZM25.0163 11.3334L24.0441 11.5678L24.2288 12.3334H25.0163V11.3334ZM28 11.3334H29V10.3334H28V11.3334ZM28 16.6667V17.6667H29V16.6667H28ZM25.0163 16.6667V15.6667H24.2288L24.0441 16.4323L25.0163 16.6667ZM23.587 20.0447L22.7415 19.5106L22.3146 20.1865L22.8799 20.7518L23.587 20.0447ZM25.57 22.0277L26.2771 22.7348L26.9842 22.0277L26.2771 21.3206L25.57 22.0277ZM21.7987 25.7989L21.0916 26.506L21.7987 27.2131L22.5058 26.506L21.7987 25.7989ZM19.7609 23.7611L20.468 23.054L19.9194 22.5054L19.2517 22.9004L19.7609 23.7611ZM16.6682 25.0171L16.4335 24.045L15.6682 24.2298V25.0171H16.6682ZM16.6682 28V29H17.6682V28H16.6682ZM11.3349 28H10.3349V29H11.3349V28ZM11.3349 25.0186H12.3349V24.2309L11.5691 24.0464L11.3349 25.0186ZM7.82734 23.5075L8.37257 22.6692L7.69325 22.2274L7.12023 22.8004L7.82734 23.5075ZM5.53591 25.7989L4.8288 26.506L5.53591 27.2131L6.24301 26.506L5.53591 25.7989ZM1.76467 22.0277L1.05756 21.3206L0.350457 22.0277L1.05756 22.7348L1.76467 22.0277ZM4.16097 19.6314L4.86808 20.3385L5.40911 19.7975L5.02837 19.1338L4.16097 19.6314ZM2.98061 16.6667L3.95274 16.4323L3.76811 15.6667H2.98061V16.6667ZM0 16.6667H-1V17.6667H0V16.6667ZM0 11.3334V10.3334H-1V11.3334H0ZM2.98061 11.3334V12.3334H3.76811L3.95274 11.5678L2.98061 11.3334ZM4.23735 8.23755L5.09801 8.74674L5.49304 8.07903L4.94446 7.53044L4.23735 8.23755ZM1.99974 5.99994L1.29263 5.29283L0.585526 5.99994L1.29263 6.70705L1.99974 5.99994ZM5.77098 2.2287L6.47808 1.5216L5.77098 0.814489L5.06387 1.5216L5.77098 2.2287ZM7.95377 4.4115L7.24666 5.1186L7.81197 5.68391L8.48785 5.25693L7.95377 4.4115ZM11.3349 2.98144L11.5691 3.95364L12.3349 3.76917V2.98144H11.3349ZM16.6682 -1H11.3349V1H16.6682V-1ZM17.6682 2.98295V0H15.6682V2.98295H17.6682ZM20.1274 3.29515C19.1319 2.72403 18.0487 2.28755 16.903 2.01089L16.4335 3.95501C17.3919 4.18644 18.2984 4.55162 19.1322 5.02995L20.1274 3.29515ZM20.8566 1.5216L18.9227 3.45545L20.3369 4.86966L22.2708 2.93581L20.8566 1.5216ZM26.042 5.29283L22.2708 1.5216L20.8566 2.93581L24.6278 6.70705L26.042 5.29283ZM24.213 8.53603L26.042 6.70705L24.6278 5.29283L22.7988 7.12182L24.213 8.53603ZM25.9884 11.0989C25.6564 9.72238 25.0938 8.43618 24.3442 7.28369L22.6676 8.37415C23.2957 9.33986 23.7665 10.4164 24.0441 11.5678L25.9884 11.0989ZM25.0163 12.3334H28V10.3334H25.0163V12.3334ZM27 11.3334V16.6667H29V11.3334H27ZM28 15.6667H25.0163V17.6667H28V15.6667ZM24.4324 20.5788C25.138 19.4618 25.6696 18.2231 25.9884 16.9011L24.0441 16.4323C23.7775 17.538 23.3327 18.5748 22.7415 19.5106L24.4324 20.5788ZM26.2771 21.3206L24.2941 19.3376L22.8799 20.7518L24.8629 22.7348L26.2771 21.3206ZM22.5058 26.506L26.2771 22.7348L24.8629 21.3206L21.0916 25.0918L22.5058 26.506ZM19.0538 24.4682L21.0916 26.506L22.5058 25.0918L20.468 23.054L19.0538 24.4682ZM16.903 25.9892C18.1037 25.6992 19.2357 25.2338 20.2701 24.6218L19.2517 22.9004C18.3853 23.4131 17.4379 23.8025 16.4335 24.045L16.903 25.9892ZM17.6682 28V25.0171H15.6682V28H17.6682ZM11.3349 29H16.6682V27H11.3349V29ZM10.3349 25.0186V28H12.3349V25.0186H10.3349ZM7.28211 24.3458C8.43554 25.096 9.72291 25.6589 11.1007 25.9908L11.5691 24.0464C10.4166 23.7688 9.33907 23.2978 8.37257 22.6692L7.28211 24.3458ZM6.24301 26.506L8.53445 24.2146L7.12023 22.8004L4.8288 25.0918L6.24301 26.506ZM1.05756 22.7348L4.8288 26.506L6.24301 25.0918L2.47178 21.3206L1.05756 22.7348ZM3.45386 18.9243L1.05756 21.3206L2.47178 22.7348L4.86808 20.3385L3.45386 18.9243ZM2.00848 16.9011C2.2851 18.0481 2.72189 19.1325 3.29357 20.129L5.02837 19.1338C4.54957 18.2992 4.18414 17.3917 3.95274 16.4323L2.00848 16.9011ZM2.98061 15.6667H0V17.6667H2.98061V15.6667ZM1 16.6667V11.3334H-1V16.6667H1ZM0 12.3334H2.98061V10.3334H0V12.3334ZM3.37669 7.72836C2.76412 8.76377 2.29836 9.89693 2.00848 11.0989L3.95274 11.5678C4.19522 10.5623 4.5849 9.61402 5.09801 8.74674L3.37669 7.72836ZM1.29263 6.70705L3.53024 8.94466L4.94446 7.53044L2.70685 5.29283L1.29263 6.70705ZM5.06387 1.5216L1.29263 5.29283L2.70685 6.70705L6.47808 2.93581L5.06387 1.5216ZM8.66088 3.70439L6.47808 1.5216L5.06387 2.93581L7.24666 5.1186L8.66088 3.70439ZM11.1007 2.00924C9.77745 2.32798 8.53759 2.85985 7.41969 3.56607L8.48785 5.25693C9.42448 4.66523 10.4622 4.22024 11.5691 3.95364L11.1007 2.00924ZM10.3349 0V2.98144H12.3349V0H10.3349Z" fill="#AFB4C8" mask="url(#path-1-inside-1)"/>
<circle cx="14" cy="14" r="5.5" fill="white" stroke="#AFB4C8"/>
</svg>
