<svg width="31" height="27" viewBox="0 0 31 27" fill="none" xmlns="http://www.w3.org/2000/svg">
<path d="M24.5332 4.5C24.5332 5.42333 23.6774 6.42576 21.8991 7.22602C20.1677 8.00515 17.7407 8.5 15.0332 8.5C12.3257 8.5 9.89873 8.00515 8.16732 7.22602C6.38897 6.42576 5.5332 5.42333 5.5332 4.5C5.5332 3.57667 6.38897 2.57424 8.16732 1.77398C9.89873 0.994845 12.3257 0.5 15.0332 0.5C17.7407 0.5 20.1677 0.994845 21.8991 1.77398C23.6774 2.57424 24.5332 3.57667 24.5332 4.5Z" fill="white" stroke="#AFB4C8"/>
<path d="M5.5332 16.5V20.5C5.5332 22.9853 10.0626 26 15.0332 26C20.0038 26 24.5332 22.9853 24.5332 20.5V16.5" stroke="#AFB4C8"/>
<path fill-rule="evenodd" clip-rule="evenodd" d="M2.43243 13C1.64197 13 1.00148 13.2421 0.664476 13.5417L0 12.7944C0.569087 12.2884 1.47167 12 2.43243 12C3.3932 12 4.29578 12.2884 4.86487 12.7944L4.86468 12.7946C5.20175 13.0942 5.84213 13.3361 6.63241 13.3361C7.42269 13.3361 8.06307 13.0942 8.40014 12.7946L8.39996 12.7944C8.96905 12.2884 9.87163 12 10.8324 12C11.7932 12 12.6957 12.2884 13.2648 12.7944L13.2646 12.7946C13.6017 13.0942 14.2421 13.3361 15.0324 13.3361C15.8228 13.3361 16.4633 13.094 16.8003 12.7944L17.4648 13.5417C16.8957 14.0477 15.9931 14.3361 15.0324 14.3361C14.0716 14.3361 13.169 14.0477 12.5999 13.5417L12.6001 13.5415C12.2631 13.2419 11.6227 13 10.8324 13C10.0421 13 9.40173 13.2419 9.06467 13.5415L9.06485 13.5417C8.49576 14.0477 7.59318 14.3361 6.63241 14.3361C5.67165 14.3361 4.76907 14.0477 4.19998 13.5417L4.20016 13.5415C3.86309 13.2419 3.22271 13 2.43243 13ZM21.6664 12.7946C22.0035 13.0942 22.6439 13.3361 23.4342 13.3361C24.2244 13.3361 24.8648 13.0942 25.2019 12.7946L25.2017 12.7944C25.7708 12.2884 26.6734 12 27.6341 12C28.5949 12 29.4975 12.2884 30.0666 12.7944L29.4021 13.5417C29.0651 13.2421 28.4246 13 27.6341 13C26.8439 13 26.2035 13.2419 25.8664 13.5415L25.8666 13.5417C25.2975 14.0477 24.3949 14.3361 23.4342 14.3361C22.4734 14.3361 21.5708 14.0477 21.0017 13.5417L21.0019 13.5415C20.6648 13.2419 20.0245 13 19.2342 13C18.4437 13 17.8032 13.2421 17.4662 13.5417L16.8017 12.7944C17.3708 12.2884 18.2734 12 19.2342 12C20.1949 12 21.0975 12.2884 21.6666 12.7944L21.6664 12.7946Z" fill="#AFB4C8"/>
<path fill-rule="evenodd" clip-rule="evenodd" d="M2.43243 16C1.64197 16 1.00148 16.2421 0.664476 16.5417L0 15.7944C0.569087 15.2884 1.47167 15 2.43243 15C3.3932 15 4.29578 15.2884 4.86487 15.7944L4.86468 15.7946C5.20175 16.0942 5.84213 16.3361 6.63241 16.3361C7.42269 16.3361 8.06307 16.0942 8.40014 15.7946L8.39996 15.7944C8.96905 15.2884 9.87163 15 10.8324 15C11.7932 15 12.6957 15.2884 13.2648 15.7944L13.2646 15.7946C13.6017 16.0942 14.2421 16.3361 15.0324 16.3361C15.8228 16.3361 16.4633 16.094 16.8003 15.7944L17.4648 16.5417C16.8957 17.0477 15.9931 17.3361 15.0324 17.3361C14.0716 17.3361 13.169 17.0477 12.5999 16.5417L12.6001 16.5415C12.2631 16.2419 11.6227 16 10.8324 16C10.0421 16 9.40173 16.2419 9.06467 16.5415L9.06485 16.5417C8.49576 17.0477 7.59318 17.3361 6.63241 17.3361C5.67165 17.3361 4.76907 17.0477 4.19998 16.5417L4.20016 16.5415C3.86309 16.2419 3.22271 16 2.43243 16ZM21.6664 15.7946C22.0035 16.0942 22.6439 16.3361 23.4342 16.3361C24.2244 16.3361 24.8648 16.0942 25.2019 15.7946L25.2017 15.7944C25.7708 15.2884 26.6734 15 27.6341 15C28.5949 15 29.4975 15.2884 30.0666 15.7944L29.4021 16.5417C29.0651 16.2421 28.4246 16 27.6341 16C26.8439 16 26.2035 16.2419 25.8664 16.5415L25.8666 16.5417C25.2975 17.0477 24.3949 17.3361 23.4342 17.3361C22.4734 17.3361 21.5708 17.0477 21.0017 16.5417L21.0019 16.5415C20.6648 16.2419 20.0245 16 19.2342 16C18.4437 16 17.8032 16.2421 17.4662 16.5417L16.8017 15.7944C17.3708 15.2884 18.2734 15 19.2342 15C20.1949 15 21.0975 15.2884 21.6666 15.7944L21.6664 15.7946Z" fill="#AFB4C8"/>
<path d="M5.5332 13.5V5M24.5332 5V14" stroke="#AFB4C8"/>
</svg>
