<svg width="32" height="32" viewBox="0 0 32 32" fill="none" xmlns="http://www.w3.org/2000/svg">
<path d="M9.99951 25.5L4.49951 19V12.4357L9.81865 13.1819H21.4428L27.4995 12.4358V19L21.6237 25.5H9.99951Z" fill="#F5F7F8" stroke="#AFB4C8"/>
<path d="M10.2652 18.2652L4.61607 12.6161C4.28443 12.2844 4.30707 11.7402 4.6651 11.4372L10.2758 6.68969C10.4206 6.56721 10.604 6.5 10.7937 6.5H21.2063C21.396 6.5 21.5794 6.56721 21.7242 6.68969L27.3349 11.4372C27.6929 11.7402 27.7156 12.2844 27.3839 12.6161L21.7348 18.2652C21.5845 18.4155 21.3806 18.5 21.1679 18.5H10.8321C10.6194 18.5 10.4155 18.4155 10.2652 18.2652Z" fill="white" stroke="#AFB4C8"/>
<path d="M21.5 12.5C21.5 13.2148 20.9996 13.9544 19.9907 14.543C18.9941 15.1244 17.5842 15.5 16 15.5C14.4158 15.5 13.0059 15.1244 12.0093 14.543C11.0004 13.9544 10.5 13.2148 10.5 12.5C10.5 11.7852 11.0004 11.0456 12.0093 10.457C13.0059 9.87563 14.4158 9.5 16 9.5C17.5842 9.5 18.9941 9.87563 19.9907 10.457C20.9996 11.0456 21.5 11.7852 21.5 12.5Z" fill="#F5F7F8" stroke="#AFB4C8"/>
<path d="M10.5 25V18.1858" stroke="#AFB4C8"/>
<path d="M21.501 25.5V18" stroke="#AFB4C8"/>
</svg>
