<svg width="28" height="31" viewBox="0 0 28 31" fill="none" xmlns="http://www.w3.org/2000/svg">
<path d="M13.6329 17.9492L5.61621 12.7384L13.6329 7.12671L22.0504 12.7384L13.6329 17.9492Z" fill="#F5F7F8"/>
<path d="M4.49805 20.7066V17.5" stroke="#AFB4C8"/>
<path d="M21.998 20.5C21.998 20.7761 22.2219 21 22.498 21C22.7742 21 22.998 20.7761 22.998 20.5H21.998ZM22.998 20.5V18H21.998V20.5H22.998Z" fill="#AFB4C8"/>
<path d="M5.30322 12.7224L13.5798 17.919L22.0505 12.7224" stroke="#AFB4C8" stroke-linecap="round"/>
<path d="M13.6218 17.8778L9.48356 20.4761L1.20703 15.2794L5.21536 12.7384" stroke="#AFB4C8" stroke-linecap="round"/>
<path d="M14.0339 17.9475L18.1722 20.5458L26.4487 15.3492L22.4404 12.8082" stroke="#AFB4C8" stroke-linecap="round"/>
<path d="M13.5 7L9.5 4.5L1.20703 10.0006L5.21536 12.5416" stroke="#AFB4C8" stroke-linecap="round"/>
<path d="M14 7L17.5 4.5L26.0586 9.93085L22.4401 12.4719" stroke="#AFB4C8" stroke-linecap="round"/>
<path d="M5.30322 12.7224L13.633 7.12671L22.4514 12.7224" stroke="#AFB4C8" stroke-linecap="round"/>
<path d="M4.49805 20.5L13.5795 26.0877L22.4511 20.755" stroke="#AFB4C8" stroke-linecap="round"/>
</svg>
