<svg width="32" height="32" viewBox="0 0 32 32" fill="none" xmlns="http://www.w3.org/2000/svg">
<path d="M15.7574 17.4224L16.005 17.5792L16.2628 17.4399L22.5202 14.0575L27.55 16.3232V18.3467L16.025 26.3903L4.5 18.3467V16.3434L10.4448 14.0569L15.7574 17.4224Z" fill="#F5F7F8" stroke="#AFB4C8"/>
<path d="M15.7789 16.8625L16.0382 17.0186L16.2967 16.8612L22.4941 13.0889L27.087 16.0117L16.0359 23.4479L4.91497 16.0104L9.50734 13.088L15.7789 16.8625Z" fill="white" stroke="#AFB4C8"/>
<path d="M16 12.4104L10.5 8.97288V6.78209L15.8018 3.57892L21.5 6.79207V8.97288L16 12.4104Z" fill="#F5F7F8" stroke="#AFB4C8"/>
<path d="M16 9.42115L10.9923 6.5L16 3.57885L21.0077 6.5L16 9.42115Z" fill="white" stroke="#AFB4C8"/>
</svg>
