<svg width="103" height="170" fill="none" xmlns="http://www.w3.org/2000/svg"><rect x="35.5" y="3.5" width="35" height="3" rx="1.5" fill="#fff" stroke="#AFB4C8"/><path fill="#fff" stroke="#AFB4C8" d="M50.5 6.5h5v4h-5z"/><path d="M53.5 166v3.5m-3-3.5v3.5" stroke="#AFB4C8"/><path d="M30.5 131h-15l-5 24h5l22 8.5L58 167l9-3.5 16.5-8.5h8l-3-24h-18v-4l-3.5-3 3.5-5.5H35l2.5 5.5-2.5 3-4.5 4z" fill="#fff"/><path fill="#fff" stroke="#AFB4C8" d="M45.5 15.5h15v11h-15zm3-5h9v5h-9z"/><path d="M48 10.5l-8.5-4m18.5 4l8.5-4" stroke="#AFB4C8"/><path d="M19 38.5h-.5V31a5.5 5.5 0 0 1 5.5-5.5h56a5.5 5.5 0 0 1 5.5 5.5v7.5H19z" fill="#fff" stroke="#AFB4C8"/><path d="M47.5 91v-7m9 7v-7" stroke="#AFB4C8"/><path fill="#fff" stroke="#AFB4C8" d="M50.5 54.5h3v40h-3zm-2 51h7v4h-7zm-19 14v-5h45v5zm0-5v-5h45v5zm-17 4h-10v47h10zm-12 11h2v26h-2zm12 0h2v26h-2z"/><path d="M61.455 151.236C66.984 146.358 80.035 135.68 88 132m-73 23c.83-.836 14.102-4.6 24.472-16.727" stroke="#AFB4C8" stroke-linecap="round"/><path d="M16 154.497c10.069 3.97 21 11.499 34.345 11.499 4.158 0 13.655.411 28.138-6.982 7.448-3.801 7.034-3.874 9.517-3.874m-73-24.462s16.069.41 18.138-1.232c2.069-1.643 3.31-5.339 3.31-5.339l-1.293-4.607H68.5l-1.19 4.607C70.07 127.118 74 133.5 75 140m-4-11l17 2m-49.371 33c-7.143-2.857-9.824-9.362-10.467-15.5" stroke="#AFB4C8"/><path d="M36.5 124.5h31" stroke="#AFB4C8" stroke-linecap="round" stroke-dasharray="0.1 0.1"/><path fill="#fff" stroke="#AFB4C8" d="M32.5 119.5h5v2h-5zm17 0h5v2h-5zm17 0h5v2h-5zm-16-14h3v4h-3zm-19 0h7v4h-7z"/><path fill="#fff" stroke="#AFB4C8" d="M33.5 105.5h3v4h-3zm32 0h7v4h-7z"/><path fill="#fff" stroke="#AFB4C8" d="M67.5 105.5h3v4h-3z"/><path d="M46.5 166v3.5h11V166" stroke="#AFB4C8"/><path fill="#fff" stroke="#AFB4C8" d="M90.5 118.5h10v47h-10zm12 11h-2v26h2zm-12 0h-2v26h2zM66.707 65.599l.013.024.016.023c1.137 1.648 1.764 4.419 1.764 6.402v20.735c0 1.581-1.5 2.978-3.5 2.978H39c-2 0-3.5-1.397-3.5-2.978V71.785c0-1.846.543-4.487 1.532-6.05l.014-.022.012-.024 1.921-3.902c.604-.937 1.769-1.548 3.069-1.548h19.555c1.25 0 2.381.567 3.003 1.451l2.101 3.909zm.481-5.303l-.013-.024-.016-.023c-1.188-1.722-3.304-2.749-5.556-2.749H42.048c-2.338 0-4.523 1.106-5.68 2.936l-.015.022-.011.024-1.922 3.903c-1.274 2.03-1.92 5.147-1.92 7.4v20.998c0 3.22 2.978 5.717 6.5 5.717h26c3.522 0 6.5-2.496 6.5-5.717V72.048c0-2.427-.75-5.708-2.21-7.841l-2.102-3.91z"/><path fill="#fff" stroke="#AFB4C8" d="M41.5 94.5h21v5h-21zm4-3h13v3h-13zm0-5h13v2h-13zm.1-13.5l1.668-2.5h9.464L58.4 73l-1.667 2.5h-9.464L45.6 73zm-4.1 29.5h21v-3h-21z"/><path d="M45 102.5c1.167 2.333 2 5.5 0 7m14.207-7c-1.167 2.333-2 5.5 0 7" stroke="#AFB4C8"/><circle cx="49" cy="73" r="1" fill="#AFB4C8"/><circle cx="55" cy="73" r="1" fill="#AFB4C8"/><path d="M39 39.5h-.5V55a5.5 5.5 0 0 0 5.5 5.5h16a5.5 5.5 0 0 0 5.5-5.5V39.5H39z" fill="#fff" stroke="#AFB4C8"/><path fill="#fff" stroke="#AFB4C8" d="M32.5 48.5h39v-7h-39z"/><path d="M19 30.5h-.5V38a5.5 5.5 0 0 0 5.5 5.5h56a5.5 5.5 0 0 0 5.5-5.5v-7.5H19z" fill="#fff" stroke="#AFB4C8"/><path fill="#fff" stroke="#AFB4C8" d="M16.5 31.5h71v2h-71zm0-2h71v2h-71zm24-9h24v5h-24z"/></svg>