<svg width="134" height="141" fill="none" xmlns="http://www.w3.org/2000/svg"><path fill="#fff" stroke="#AFB4C8" d="M54.5 33.5h23v17h-23zm-8-20h39v13h-39z"/><path fill="#fff" stroke="#AFB4C8" d="M46.5 13.5h39v4h-39zm17-11h2v11h-2zm2 0h3v11h-3zm-2 0h5v-2h-5zm-17 24h39v.273L77.812 33.5H54.188L46.5 26.773V26.5zM49.56 134l-.001-10.507 31.883-.427V134a2.5 2.5 0 0 1-2.5 2.5H52.059a2.5 2.5 0 0 1-2.5-2.5zm2.94 4.5h26v-2h-26zm-50-80h12v68h-12zm0 10h-2v48h2zm129-9h-12v68h12zm0 12h2v44h-2zm-24 0h12v44h-12z"/><path fill="#fff" stroke="#AFB4C8" d="M107.5 65.5h3v7h-3z"/><path fill="#fff" stroke="#AFB4C8" d="M107.5 67.5h3v3h-3zm0 10h3v7h-3z"/><path fill="#fff" stroke="#AFB4C8" d="M107.5 79.5h3v3h-3zm0 10h3v7h-3z"/><path fill="#fff" stroke="#AFB4C8" d="M107.5 91.5h3v3h-3zm0 10h3v7h-3z"/><path fill="#fff" stroke="#AFB4C8" d="M107.5 103.5h3v3h-3zm0 10h3v7h-3z"/><path fill="#fff" stroke="#AFB4C8" d="M107.5 115.5h3v3h-3zm-88-.118V70.618l-5-1.894v48.552l5-1.894z"/><mask id="a" fill="#fff"><path fill-rule="evenodd" clip-rule="evenodd" d="M30.199 66.898c9.023-3.024 17.258-5.785 27.293-5.785h15.5c3.432 0 8.862.23 14.75.48 6.966.297 14.571.62 20.258.62v61.8c-5.687 0-13.292.911-20.259 1.745-5.887.705-11.317 1.355-14.749 1.355h-15.5c-9.032 0-16.605-3.069-24.607-6.313-4.395-1.781-8.92-3.614-13.885-5.02V70.446c3.961-1.121 7.641-2.355 11.199-3.548z"/></mask><path fill-rule="evenodd" clip-rule="evenodd" d="M30.199 66.898c9.023-3.024 17.258-5.785 27.293-5.785h15.5c3.432 0 8.862.23 14.75.48 6.966.297 14.571.62 20.258.62v61.8c-5.687 0-13.292.911-20.259 1.745-5.887.705-11.317 1.355-14.749 1.355h-15.5c-9.032 0-16.605-3.069-24.607-6.313-4.395-1.781-8.92-3.614-13.885-5.02V70.446c3.961-1.121 7.641-2.355 11.199-3.548z" fill="#fff"/><path d="M30.199 66.898l.317.949-.317-.949zm57.542-5.304l-.042.999.042-1zm20.259.619h1v-1h-1v1zm0 61.8v1h1v-1h-1zm-20.259 1.745l-.118-.993.118.993zM32.885 120.8l.375-.926-.375.926zM19 115.78l-1-.001v.757l.727.206.273-.962zm0-15.3h1v-.993l-.992-.007-.008 1zm0 0h-1v.992l.993.008.007-1zm0-7.367h1-1zm0-7.367l-.007-1-.993.008v.992h1zm0 0l.008 1L20 86.74v-.993h-1zm0-15.3l-.273-.962-.727.206v.756h1zm38.492-10.333c-10.22 0-18.602 2.817-27.611 5.837l.636 1.897c9.037-3.03 17.125-5.734 26.975-5.734v-2zm15.5 0h-15.5v2h15.5v-2zm14.792.482c-5.876-.25-11.334-.482-14.792-.482v2c3.405 0 8.81.23 14.707.48l.085-1.998zm20.216.618c-5.661 0-13.242-.322-20.216-.618l-.085 1.998c6.959.296 14.588.62 20.301.62v-2zm1 23.967V62.213h-2V85.18h2zm-2 0v15.866h2V85.18h-2zm0 15.866v22.967h2v-22.967h-2zm1 21.967c-5.76 0-13.433.92-20.377 1.752l.237 1.986c6.988-.837 14.526-1.738 20.14-1.738v-2zm-20.377 1.752c-5.918.708-11.274 1.348-14.63 1.348v2c3.506 0 9.01-.661 14.867-1.362l-.237-1.986zm-14.63 1.348H64.5v2h8.492v-2zm-8.493 0h-7.008v2H64.5v-2zm-7.008 0c-8.808 0-16.208-2.987-24.232-6.239l-.751 1.853c7.98 3.234 15.728 6.386 24.983 6.386v-2zm-24.232-6.239c-4.388-1.779-8.961-3.633-13.987-5.057l-.546 1.925c4.906 1.389 9.381 3.202 13.782 4.985l.751-1.853zM20 115.78v-15.3h-2v15.299l2 .001zm-1.007-14.3l.015-2-.015 2zM18 93.113v7.366l1 .001h1v-7.367h-2zm2 0v-7.366h-2v7.366h2zm-.993-6.367l-.014-2 .014 2zM18 70.446v15.3h2v-15.3h-2zm11.88-4.496c-3.56 1.194-7.218 2.42-11.152 3.534l.544 1.924c3.988-1.129 7.69-2.37 11.245-3.561l-.636-1.897z" fill="#AFB4C8" mask="url(#a)"/><path fill="#fff" stroke="#AFB4C8" d="M53.5 138.5h5v2h-5zm-2-90h5v2h-5zm8 0h5v2h-5zm8 0h5v2h-5zm8 0h5v2h-5zm-13 90h5v2h-5zm9 0h5v2h-5zm-25-78.394V56.5h38.995l-.038 3.635a4.5 4.5 0 0 1-2.17 3.804l-7.231 4.373a19.5 19.5 0 0 1-20.184 0l-7.2-4.355a4.5 4.5 0 0 1-2.172-3.851z"/><path fill="#AFB4C8" d="M64 71h1v56h-1zm3 0h1v56h-1zm24-9h1v63h-1zm-52 2h1v59h-1z"/><path fill="#fff" stroke="#AFB4C8" d="M48.5 50.5h35v6h-35z"/></svg>