<svg width="109" height="170" fill="none" xmlns="http://www.w3.org/2000/svg"><path fill="#fff" stroke="#AFB4C8" d="M2.5 118.5h9v48h-9zm0 10h-2v28h2zm15 21.466v-14.932l-6-5.848v26.628l6-5.848zm0-14.466h22v14h-22z"/><path fill="#fff" stroke="#AFB4C8" d="M35.5 120.5h39v43h-39z"/><path fill="#fff" stroke="#AFB4C8" d="M41.5 132.5h27v23h-27zm-6-5h39v-7h-39zm7-7h25v-9h-25zm-3.5-78h32a1.5 1.5 0 0 1 1.5 1.5v47.5h-35V44a1.5 1.5 0 0 1 1.5-1.5zm4-4h24a4.5 4.5 0 0 1 4.472 4H38.528a4.5 4.5 0 0 1 4.472-4zm-23.5 73h71v-10h-71zm0-10h71v-10h-71z"/><path fill="#fff" stroke="#AFB4C8" d="M38.5 116.5h8v4h-8z"/><path fill="#fff" stroke="#AFB4C8" d="M40.5 116.5h4v4h-4zm9-82h12v4h-12z"/><path fill="#fff" stroke="#AFB4C8" d="M52.5 34.5h6v4h-6zm-14 129h8v4h-8z"/><path fill="#fff" stroke="#AFB4C8" d="M40.5 163.5h4v4h-4zm23 0h8v4h-8z"/><path fill="#fff" stroke="#AFB4C8" d="M65.5 163.5h4v4h-4zm-2-47h8v4h-8z"/><path fill="#fff" stroke="#AFB4C8" d="M65.5 116.5h4v4h-4z"/><path d="M18 145.5h17" stroke="#AFB4C8"/><path fill="#fff" stroke="#AFB4C8" d="M106.5 118.5h-9v48h9zm0 10h2v28h-2zm-15 21.466v-14.932l6-5.848v26.628l-6-5.848zm0-14.466h-17v14h17z"/><path d="M91.5 145.5h-17m-27.5-7h16m-16 3h16m-16 3h16m-16 3h11" stroke="#AFB4C8"/><path fill="#fff" stroke="#AFB4C8" d="M40.5 167.5h4v2h-4zm25 0h4v2h-4zm-25-53h4v2h-4zm-18-27h8v4h-8z"/><path fill="#fff" stroke="#AFB4C8" d="M24.5 87.5h4v4h-4zm0-2h4v2h-4zm16 2h8v4h-8z"/><path fill="#fff" stroke="#AFB4C8" d="M42.5 87.5h4v4h-4zm0-2h4v2h-4zm19 2h8v4h-8z"/><path fill="#fff" stroke="#AFB4C8" d="M63.5 87.5h4v4h-4zm0-2h4v2h-4zm16 2h8v4h-8z"/><path fill="#fff" stroke="#AFB4C8" d="M81.5 87.5h4v4h-4zm0-2h4v2h-4zm-16 29h4v2h-4zm-13-111h6v31h-6z"/><path d="M45.5 43v42" stroke="#AFB4C8"/><path fill="#fff" stroke="#AFB4C8" d="M51.5.5h8v4h-8z"/><path fill="#fff" stroke="#AFB4C8" d="M53.5.5h4v4h-4z"/></svg>