<svg width="118" height="124" fill="none" xmlns="http://www.w3.org/2000/svg"><path fill="#fff" stroke="#AFB4C8" d="M106.5 55.5h11v3h-11zm-49-44V.5h3v11zm-57 44h11v3H.5zm30 63v-24l3 .5v20.5h14v3h-17zm58.5 0v-24l-3 .5v20.5H72v3h17z"/><circle cx="59" cy="56" r="49.5" fill="#fff" stroke="#AFB4C8"/><circle cx="59" cy="56" r="41.5" fill="#fff" stroke="#AFB4C8"/><circle cx="59" cy="56" r="34.5" fill="#F6F6F6" stroke="#AFB4C8"/><circle cx="59" cy="56" r="21.5" fill="#F6F6F6" stroke="#AFB4C8"/><path fill="#fff" stroke="#AFB4C8" d="M57.5 26.5h3v59h-3z"/><path fill="#fff" stroke="#AFB4C8" d="M32.703 42.549l1.5-2.599 51.095 29.5-1.5 2.599z"/><path fill="#fff" stroke="#AFB4C8" d="M32.702 69.451l1.5 2.598 51.096-29.5-1.5-2.598z"/><circle cx="59" cy="56" r="17.5" fill="#fff" stroke="#AFB4C8"/><circle cx="59" cy="56" r="13.5" fill="#fff" stroke="#AFB4C8"/><circle cx="59" cy="47" r="1.5" fill="#fff" stroke="#AFB4C8"/><circle cx="51" cy="51" r="1.5" fill="#fff" stroke="#AFB4C8"/><circle cx="67" cy="51" r="1.5" fill="#fff" stroke="#AFB4C8"/><circle r="1.5" transform="matrix(1 0 0 -1 59 65)" fill="#fff" stroke="#AFB4C8"/><circle r="1.5" transform="matrix(1 0 0 -1 51 60)" fill="#fff" stroke="#AFB4C8"/><circle r="1.5" transform="matrix(1 0 0 -1 67 60)" fill="#fff" stroke="#AFB4C8"/><path fill="#fff" stroke="#AFB4C8" d="M17.5 118.5h83v5h-83z"/></svg>