<svg width="110" height="159" fill="none" xmlns="http://www.w3.org/2000/svg"><path fill="#fff" stroke="#AFB4C8" d="M40.5 14.5h29v35h-29z"/><path d="M40.5 33.5l-4.5 16h7.5v-15a1 1 0 0 0-1-1h-2zm29 0l4.5 16h-7.5v-15a1 1 0 0 1 1-1h2zm3 24.5v21.5h-35V57.732l-.223-.148-2.777-1.852V49.5H47a.5.5 0 0 1 .5.5v2a1.5 1.5 0 0 0 1.5 1.5h12a1.5 1.5 0 0 0 1.5-1.5v-2a.5.5 0 0 1 .5-.5h12.5v6.232l-2.777 1.852-.223.148V58z" fill="#fff" stroke="#AFB4C8"/><path fill="#fff" stroke="#AFB4C8" d="M37.5 70.5h35v9h-35z"/><path d="M101.5 109v9" stroke="#000"/><path fill="#fff" stroke="#AFB4C8" d="M99.5 110.5h-15v6h15zm0 6.776v-7.552l4-2.77v13.092l-4-2.77z"/><path fill="#fff" stroke="#AFB4C8" d="M93.5 110.5h-13v6h13zm13-10h-3v26h3zm0 6h2v14h-2z"/><path d="M7.5 109v9" stroke="#000"/><path fill="#fff" stroke="#AFB4C8" d="M9.5 110.5h15v6h-15zm0 6.776v-7.552l-4-2.77v13.092l4-2.77z"/><path fill="#fff" stroke="#AFB4C8" d="M15.5 110.5h13v6h-13z"/><path d="M29 92.5h-3.5v-7h58v7h-4v28h-50v-28H29zm-1.5-7h54v-6h-54zm2-10h8v4h-8z" fill="#fff" stroke="#AFB4C8"/><path fill="#fff" stroke="#AFB4C8" d="M31.5 75.5h4v4h-4zm0-2h4v2h-4zm12 2h8v4h-8z"/><path fill="#fff" stroke="#AFB4C8" d="M45.5 75.5h4v4h-4zm0-2h4v2h-4zm23-26.5a.5.5 0 0 1 .5-.5h2a.5.5 0 0 1 .5.5v2.5h-3V47zm-30 0a.5.5 0 0 1 .5-.5h2a.5.5 0 0 1 .5.5v2.5h-3V47zm20 28.5h8v4h-8z"/><path fill="#fff" stroke="#AFB4C8" d="M60.5 75.5h4v4h-4zm0-2h4v2h-4zm12 2h8v4h-8z"/><path fill="#fff" stroke="#AFB4C8" d="M74.5 75.5h4v4h-4zm0-2h4v2h-4z"/><circle cx="55" cy="125" r="33.5" fill="#fff" stroke="#AFB4C8"/><path d="M32.365 116.853a2.5 2.5 0 1 0-4.707-1.685 2.5 2.5 0 0 0 4.707 1.685zm1 20.06a2.5 2.5 0 1 0-4.707-1.685 2.5 2.5 0 0 0 4.707 1.685zm12.664-35.081a2.5 2.5 0 1 0-4.708-1.685 2.5 2.5 0 0 0 4.708 1.685zm1.336 48a2.501 2.501 0 0 0-4.708-1.685 2.5 2.5 0 0 0 4.708 1.685zm30.117-32.979a2.5 2.5 0 1 1 4.707-1.684 2.5 2.5 0 0 1-4.707 1.684zm-1 20.06a2.5 2.5 0 1 1 4.707-1.684 2.5 2.5 0 0 1-4.707 1.684zm-13.847-35.081a2.5 2.5 0 1 1 4.709-1.685 2.5 2.5 0 0 1-4.709 1.685zm0 48.021a2.5 2.5 0 1 1 4.707-1.685 2.5 2.5 0 0 1-4.707 1.685z" fill="#fff" stroke="#AFB4C8"/><circle cx="55" cy="125" r="19.5" fill="#fff" stroke="#AFB4C8"/><circle cx="55" cy="125" r="12.5" fill="#fff" stroke="#AFB4C8"/><circle cx="55" cy="125" r="9.5" fill="#F6F6F6" stroke="#AFB4C8"/><path fill="#fff" stroke="#AFB4C8" d="M2.5 100.5h3v26h-3zm0 6h-2v14h2z"/><path d="M7.5 59v9" stroke="#000"/><path fill="#fff" stroke="#AFB4C8" d="M9.5 60.5h15v6h-15zm0 6.776v-7.552l-4-2.77v13.092l4-2.77z"/><path fill="#fff" stroke="#AFB4C8" d="M15.5 60.5h22v6h-22zm-13-10h3v26h-3zm0 6h-2v14h2z"/><path d="M102.5 59v9" stroke="#000"/><path fill="#fff" stroke="#AFB4C8" d="M101.5 60.5h-16v6h16z"/><path d="M100.5 67.276v-7.552l4-2.77v13.092l-4-2.77zm-6-6.776h-22v6h22zm13-10h-3v26h3zm0 6h2v14h-2z" fill="#fff" stroke="#AFB4C8"/><rect x="46.5" y="33.5" width="17" height="20" rx=".5" fill="#F6F6F6" stroke="#AFB4C8"/><path fill="#fff" stroke="#AFB4C8" d="M49.5 42.5h11v4h-11zm2-4h7v4h-7z"/><path fill="#fff" stroke="#AFB4C8" d="M53.5 38.5h3v4h-3zm0-2h3v2h-3zm0 10h3v7h-3z"/><rect x="24.5" y="4.5" width="60" height="6" rx="3" fill="#fff" stroke="#AFB4C8"/><path fill="#fff" stroke="#AFB4C8" d="M46.5 14.5h17v14h-17zm-4-4h24v2h-24zm6-8h13v2h-13zm3-2h7v2h-7zm-5 12h17v2h-17zm-9 9h3v3h-3zm32 0h3v3h-3z"/></svg>