<svg width="118" height="110" fill="none" xmlns="http://www.w3.org/2000/svg"><path d="M101.5 54.5l-5 6" stroke="#AFB4C8"/><path fill="#fff" stroke="#AFB4C8" d="M2.5.5h9v64h-9zm0 14h-2v38h2zm12-3h-3v44h3zm101-11h-9v64h9zm0 14h2v38h-2zm-12-3h3v44h-3zm-48.733 8.442l.22.116.224-.105c7.423-3.464 16.98-5.207 26.025-6.08C89.99 13.028 98.22 13 103.5 13v41.832a43.12 43.12 0 0 0-3.784-.886c-1.202-.221-2.512-.398-3.722-.422-1.194-.024-2.356.098-3.218.529-.561.28-.978.647-1.144 1.181-.159.51-.05 1.062.146 1.62.2.565.528 1.235.914 2.016l.082.165c.333.671.713 1.438 1.117 2.33L54.977 94.86c-8.31-6.231-16.39-17.008-22.433-26.32a223.235 223.235 0 0 1-7.342-12.167c-.881-1.57-1.57-2.847-2.04-3.73a120.497 120.497 0 0 1-.67-1.28l-.035-.067-.009-.017-.002-.004v-.001L22 51.5l.446-.226-.246-.484-.462.284L15.358 55H14.5V12.937c7.252-.93 25.492-.77 40.267 7.005z"/><path fill="#fff" stroke="#AFB4C8" d="M97.37 61.621l5.39 7.208-46.448 34.736-5.39-7.208zm0 0l-1.093-1.46-2.697-.7-42.907 32.087-.81 3.395 1.058 1.414L97.37 61.621zm7.786 10.411l-2.395-3.203-46.449 34.736 2.396 3.203z"/><path fill="#fff" stroke="#AFB4C8" d="M104.55 76.231l-1.798-2.402-5.605 4.192 1.796 2.403z"/><path fill="#fff" stroke="#AFB4C8" d="M102.948 77.43l-1.797-2.403-2.402 1.796 1.797 2.403zM86.931 89.407l-1.797-2.402-5.605 4.192 1.796 2.402z"/><path fill="#fff" stroke="#AFB4C8" d="M85.33 90.605l-1.797-2.403L81.13 90l1.797 2.402zm-16.818 12.577l-1.796-2.402-5.606 4.192 1.796 2.402z"/><path fill="#fff" stroke="#AFB4C8" d="M66.91 104.38l-1.796-2.403-2.403 1.796 1.797 2.403z"/><path d="M22.5 51.5s-4-16 26-27m45 35s-14.255-8.057-24.439-17M79 29.5v2h10.5V33l4.5-2.5-4.5-2.5v1.5H79z" stroke="#AFB4C8"/><path fill="#AFB4C8" d="M37 38h17v1H37zm0 3h17v1H37zm0 3h13v1H37z"/></svg>