<svg width="161" height="170" fill="none" xmlns="http://www.w3.org/2000/svg"><path d="M110.033 67.5L88.5 74.97 66.967 67.5h43.066z" fill="#fff" stroke="#AFB4C8"/><path fill="#fff" stroke="#AFB4C8" d="M77.5 74.5h22v6h-22zm.194 0l2.666-8h16.28l2.666 8H77.694z"/><path fill="#fff" stroke="#AFB4C8" d="M77.5 74.5h22v2h-22zm-25 15h71v47h-71zm71 6H151a1.5 1.5 0 0 1 1.5 1.5v32a1.5 1.5 0 0 1-1.5 1.5h-27.5v-35z"/><path d="M123.5 122.5h29v6.5a1.5 1.5 0 0 1-1.5 1.5h-27.5v-8zm0-27H151a1.5 1.5 0 0 1 1.5 1.5v6.5h-29v-8zm-71 57h71v17h-71z" fill="#fff" stroke="#AFB4C8"/><path fill="#fff" stroke="#AFB4C8" d="M52.5 165.5h71v4h-71zm20-29h31v16h-31z"/><path fill="#F6F6F6" stroke="#AFB4C8" d="M75.5 141.5h25v11h-25z"/><path fill="#fff" stroke="#AFB4C8" d="M121.5 89.5h2v47h-2zm-59.5 7h23a.5.5 0 0 1 .5.5v34a.5.5 0 0 1-.5.5H62a.5.5 0 0 1-.5-.5V97a.5.5 0 0 1 .5-.5z"/><path d="M66 103.5h.5v-7h14v7h5v21h-5v7h-14v-7h-5v-21H66zm34.5 22h15v8h-15z" fill="#fff" stroke="#AFB4C8"/><circle cx="108" cy="112" r="8.5" fill="#fff" stroke="#AFB4C8"/><circle cx="108" cy="112" r="5.5" fill="#fff" stroke="#AFB4C8"/><path d="M106.757 95.971l50.684-9.566a1.99 1.99 0 0 1 .738 3.91l-50.683 9.567a1.99 1.99 0 0 1-.739-3.911zM84.5 145.5h7v-4h-7z" fill="#fff" stroke="#AFB4C8"/><path fill="#fff" stroke="#AFB4C8" d="M86.5 145.5h3v-4h-3zm0 2h3v-2h-3z"/><circle cx="64" cy="100" r="1" fill="#AFB4C8"/><circle cx="83" cy="100" r="1" fill="#AFB4C8"/><circle cx="64" cy="128" r="1" fill="#AFB4C8"/><circle cx="83" cy="128" r="1" fill="#AFB4C8"/><path fill="#fff" stroke="#AFB4C8" d="M25.5 99.5h27v25h-27z"/><path fill="#fff" stroke="#AFB4C8" d="M49.5 99.5h3v31h-3z"/><circle cx="22.5" cy="111.5" r="22" fill="#fff" stroke="#AFB4C8"/><circle cx="22.5" cy="111.5" r="17" fill="#fff" stroke="#AFB4C8"/><path d="M37 104c-3.608 1.581-6 4.349-6 7.5s2.392 5.919 6 7.5" stroke="#AFB4C8" stroke-linecap="round"/><rect x="34.5" y="109.5" width="7" height="4" rx="1.5" fill="#fff" stroke="#AFB4C8"/><path d="M8 104c3.608 1.581 6 4.349 6 7.5s-2.392 5.919-6 7.5" stroke="#AFB4C8" stroke-linecap="round"/><rect x="-.5" y=".5" width="7" height="4" rx="1.5" transform="matrix(-1 0 0 1 9 109)" fill="#fff" stroke="#AFB4C8"/><path fill="#F6F6F6" stroke="#AFB4C8" d="M16.5 102.5h12v4h-12z"/><path fill="#fff" stroke="#AFB4C8" d="M66.5 80.5h44v5h-44zm6 5h32v4h-32zm-3-7h4v2h-4zm17 0h4v2h-4zm17 0h4v2h-4zm-19-12h8v6h-8z"/><path fill="#fff" stroke="#AFB4C8" d="M86.5 66.5h4v6h-4zm62.338-12.001l-39.026 8.208a1.999 1.999 0 0 0 .823 3.913l39.026-8.208a2 2 0 0 0-.823-3.913zm-117.388.027l37.035 8.161a2 2 0 1 1-.86 3.906l-37.037-8.161a2 2 0 0 1 .861-3.906z"/><rect x="63.5" y="59.5" width="51" height="9" rx=".5" fill="#fff" stroke="#AFB4C8"/><rect x="86.5" y="51.5" width="4" height="14" rx="2" fill="#fff" stroke="#AFB4C8"/><path fill="#AFB4C8" d="M71 107h1v15h-1zm4 0h1v15h-1z"/></svg>