<svg width="171" height="141" fill="none" xmlns="http://www.w3.org/2000/svg"><path fill="#fff" stroke="#AFB4C8" d="M56.5 135.5h112v5h-112zm-2-66h113v42h-113zm68-57h3v12h-3z"/><path fill="#fff" stroke="#AFB4C8" d="M117.5 20.5h13v10h-13z"/><path fill="#fff" stroke="#AFB4C8" d="M54.5 26.5h70v38h-70z"/><circle cx="124" cy="45" r="20.5" fill="#fff" stroke="#AFB4C8"/><circle cx="124" cy="45" r="15.5" fill="#fff" stroke="#AFB4C8"/><path d="M137.385 38c-3.238 1.476-5.385 4.06-5.385 7 0 2.94 2.147 5.524 5.385 7" stroke="#AFB4C8" stroke-linecap="round"/><rect x="114.5" y="9.5" width="19" height="3" rx="1.5" fill="#fff" stroke="#AFB4C8"/><path fill="#fff" stroke="#AFB4C8" d="M114.5 121.5h2v8h-2z"/><rect x="110.5" y="120.5" width="10" height="2" rx="1" fill="#fff" stroke="#AFB4C8"/><rect x="135.5" y="43.5" width="6" height="3" rx="1.5" fill="#fff" stroke="#AFB4C8"/><path d="M110.615 38c3.238 1.476 5.385 4.06 5.385 7 0 2.94-2.147 5.524-5.385 7" stroke="#AFB4C8" stroke-linecap="round"/><rect x="-.5" y=".5" width="6" height="3" rx="1.5" transform="matrix(-1 0 0 1 112 43)" fill="#fff" stroke="#AFB4C8"/><rect x="119.5" y="38.5" width="9" height="4" rx="1.5" stroke="#AFB4C8"/><path fill="#fff" stroke="#AFB4C8" d="M65.5 22.5h3v118h-3z"/><path fill="#fff" stroke="#AFB4C8" d="M64.5 32.5h5v9h-5zm-1 28.5a1.5 1.5 0 0 1 1.5-1.5h4a1.5 1.5 0 0 1 1.5 1.5v12.5h-7V61zm1-38.5h5v5h-5z"/><circle cx="67" cy="13" r="12.5" fill="#fff" stroke="#AFB4C8"/><circle cx="67" cy="13" r="9.5" fill="#fff" stroke="#AFB4C8"/><path d="M67.097 12.575L64 7" stroke="#AFB4C8"/><circle cx="67" cy="13" r="1.5" fill="#fff" stroke="#AFB4C8"/><path fill="#fff" stroke="#AFB4C8" d="M156.5 22.5h3v118h-3z"/><path fill="#fff" stroke="#AFB4C8" d="M155.5 32.5h5v9h-5zm-1 28.5a1.5 1.5 0 0 1 1.5-1.5h4a1.5 1.5 0 0 1 1.5 1.5v12.5h-7V61zm1-38.5h5v5h-5z"/><circle cx="158" cy="13" r="12.5" fill="#fff" stroke="#AFB4C8"/><circle cx="158" cy="13" r="9.5" fill="#fff" stroke="#AFB4C8"/><path d="M158.097 12.575L155 7" stroke="#AFB4C8"/><circle cx="158" cy="13" r="1.5" fill="#fff" stroke="#AFB4C8"/><path fill="#fff" stroke="#AFB4C8" d="M121.5 83.5h27v-14h-27zm0 0h27v28h-27zm2 28h23v4h-23z"/><path fill="#fff" stroke="#AFB4C8" d="M125.5 83.5h19v-4h-19zm4-4h11v-3h-11z"/><rect x="78.5" y="91.5" width="33" height="23" rx="2.5" fill="#fff" stroke="#AFB4C8"/><path fill="#fff" stroke="#AFB4C8" d="M84.5 96.5h21v6h-21z"/><circle cx="86.009" cy="108" r="1.5" fill="#fff" stroke="#AFB4C8"/><circle cx="95" cy="108" r="1.5" fill="#fff" stroke="#AFB4C8"/><circle cx="104" cy="108" r="1.5" fill="#fff" stroke="#AFB4C8"/><path d="M70 37v.5h12.857c.543 0 1.214.31 1.765.82.556.511.878 1.119.878 1.603V91.5h3V39.923c0-3.015-2.547-5.423-5.643-5.423H70V37zm-5.5 0v.5H50.11c-2.433 0-3.579 1.449-3.579 2.451v52.465H43.5V40.5c0-3.063 2.776-5.93 7.057-5.93H64.5V37zm-8 87.5h20v16h-20zm20 3h75v3h-75z" fill="#fff" stroke="#AFB4C8"/><path fill="#fff" stroke="#AFB4C8" d="M2.5 84.5h119v3H2.5zm109 42h8v5h-8z"/><path fill="#fff" stroke="#AFB4C8" d="M29.5 83.5h25v12h-25zm7 12h13v7h-13z"/><path fill="#fff" stroke="#AFB4C8" d="M32.5 101.5h20v13h-20z"/><path d="M63.5 64.186v-.5H7.195A6.695 6.695 0 0 0 .5 70.38v55.753c0 3.732 3.034 6.367 6.695 6.367h2.478c3.646 0 6.827-2.622 6.827-6.367v-11.151c0-1.847 1.373-3.482 3.084-3.482h12.89v-3h-12.89c-1.843 0-3.377.694-4.445 1.872-1.065 1.174-1.639 2.795-1.639 4.61v11.151c0 .839-.47 1.678-1.22 2.324-.75.646-1.72 1.043-2.607 1.043H7.195c-.885 0-1.819-.395-2.534-1.036-.715-.641-1.161-1.481-1.161-2.331V70.381c0-.864.46-1.843 1.191-2.617.733-.776 1.659-1.264 2.504-1.264H63.5v-2.314z" fill="#fff" stroke="#AFB4C8"/><circle cx="37" cy="111" r="1.5" fill="#fff" stroke="#AFB4C8"/><circle cx="48" cy="111" r="1.5" fill="#fff" stroke="#AFB4C8"/><circle cx="37" cy="105" r="1.5" fill="#fff" stroke="#AFB4C8"/><circle cx="48" cy="105" r="1.5" fill="#fff" stroke="#AFB4C8"/><path d="M53.035 107.549h1.859" stroke="#AFB4C8" stroke-width="2"/><path fill="#fff" stroke="#AFB4C8" d="M147.5 124.5h21v16h-21z"/></svg>