<svg width="572" height="374" fill="none" xmlns="http://www.w3.org/2000/svg"><circle cx="287" cy="187" r="187" fill="#F5F7F8"/><path fill="#fff" stroke="#AFB4C8" d="M510.5 244.5h23v-17h-23zm-8 20h39v-13h-39z"/><path fill="#fff" stroke="#AFB4C8" d="M502.5 264.5h39v-4h-39zm0-13h39v-.273l-7.688-6.727h-23.624l-7.688 6.727v.273zm5-165h29v35h-29z"/><path d="M507.5 105.5l-4.5 16h7.5v-15a1 1 0 0 0-1-1h-2zm29 0l4.5 16h-7.5v-15a1 1 0 0 1 1-1h2zm3 24.5v21.5h-35v-21.768l-.223-.148-2.777-1.852V121.5H514a.5.5 0 0 1 .5.5v2a1.5 1.5 0 0 0 1.5 1.5h12a1.5 1.5 0 0 0 1.5-1.5v-2a.5.5 0 0 1 .5-.5h12.5v6.232l-2.777 1.852-.223.148V130z" fill="#fff" stroke="#AFB4C8"/><path d="M535.5 119a.5.5 0 0 1 .5-.5h2a.5.5 0 0 1 .5.5v2.5h-3V119zm-30 0a.5.5 0 0 1 .5-.5h2a.5.5 0 0 1 .5.5v2.5h-3V119z" fill="#fff" stroke="#AFB4C8"/><rect x="513.5" y="105.5" width="17" height="20" rx=".5" fill="#F6F6F6" stroke="#AFB4C8"/><path fill="#fff" stroke="#AFB4C8" d="M516.5 114.5h11v4h-11zm2-4h7v4h-7z"/><path fill="#fff" stroke="#AFB4C8" d="M520.5 110.5h3v4h-3zm0-2h3v2h-3zm0 10h3v7h-3z"/><rect x="491.5" y="76.5" width="60" height="6" rx="3" fill="#fff" stroke="#AFB4C8"/><path fill="#fff" stroke="#AFB4C8" d="M513.5 86.5h17v14h-17zm-4-4h24v2h-24zm6-8h13v2h-13zm3-2h7v2h-7zm-5 12h17v2h-17zm-9 9h3v3h-3zm32 0h3v3h-3zm-475 111h37v29h-37zm-32 31.5v-10.079l32-.414V236a2.5 2.5 0 0 1-2.5 2.5H32a2.5 2.5 0 0 1-2.5-2.5zm3 6.5h26v-4h-26zm1 0h5v2h-5zm9 0h6v2h-6zm10 0h5v2h-5z"/><rect x="400.5" y="71.5" width="35" height="3" rx="1.5" fill="#fff" stroke="#AFB4C8"/><path fill="#fff" stroke="#AFB4C8" d="M415.5 74.5h5v4h-5zm-5 9h15v11h-15zm3-5h9v5h-9z"/><path d="M413 78.5l-8.5-4m18.5 4l8.5-4" stroke="#AFB4C8"/><path d="M384 106.5h-.5V99a5.5 5.5 0 0 1 5.5-5.5h56a5.5 5.5 0 0 1 5.5 5.5v7.5H384z" fill="#fff" stroke="#AFB4C8"/><path d="M412.5 159v-7m9 7v-7" stroke="#AFB4C8"/><path fill="#fff" stroke="#AFB4C8" d="M415.5 122.5h3v40h-3zm-2 51h7v4h-7zm-19 14v-5h45v5zm0-5v-5h45v5z"/><path fill="#fff" stroke="#AFB4C8" d="M415.5 173.5h3v4h-3zm-19 0h7v4h-7z"/><path fill="#fff" stroke="#AFB4C8" d="M398.5 173.5h3v4h-3zm32 0h7v4h-7z"/><path fill="#fff" stroke="#AFB4C8" d="M432.5 173.5h3v4h-3zm-.793-39.901l.013.024.016.023c1.137 1.648 1.764 4.419 1.764 6.402v20.735c0 1.581-1.499 2.978-3.5 2.978h-26c-2.001 0-3.5-1.397-3.5-2.978v-20.998c0-1.846.543-4.487 1.532-6.05l.014-.022.012-.024 1.921-3.902c.604-.937 1.769-1.548 3.069-1.548h19.555c1.25 0 2.381.567 3.003 1.451l2.101 3.909zm.481-5.303l-.013-.024-.016-.023c-1.188-1.722-3.304-2.749-5.556-2.749h-19.555c-2.338 0-4.523 1.106-5.68 2.936l-.014.022-.012.024-1.922 3.903c-1.274 2.029-1.92 5.147-1.92 7.4v20.998c0 3.221 2.978 5.717 6.5 5.717h26c3.522 0 6.5-2.496 6.5-5.717v-20.735c0-2.427-.749-5.708-2.21-7.842l-2.102-3.91z"/><path fill="#fff" stroke="#AFB4C8" d="M406.5 162.5h21v5h-21zm4-3h13v3h-13zm0-5h13v2h-13zm.101-13.5l1.667-2.5h9.464l1.667 2.5-1.667 2.5h-9.464l-1.667-2.5zm-4.101 29.5h21v-3h-21z"/><path d="M410 170.5c1.167 2.333 2 5.5 0 7m14.207-7c-1.167 2.333-2 5.5 0 7" stroke="#AFB4C8"/><circle cx="414" cy="141" r="1" fill="#AFB4C8"/><circle cx="420" cy="141" r="1" fill="#AFB4C8"/><path d="M404 107.5h-.5V123a5.5 5.5 0 0 0 5.5 5.5h16a5.5 5.5 0 0 0 5.5-5.5v-15.5H404z" fill="#fff" stroke="#AFB4C8"/><path fill="#fff" stroke="#AFB4C8" d="M397.5 116.5h39v-7h-39z"/><path d="M384 98.5h-.5v7.5a5.5 5.5 0 0 0 5.5 5.5h56a5.5 5.5 0 0 0 5.5-5.5v-7.5H384z" fill="#fff" stroke="#AFB4C8"/><path fill="#fff" stroke="#AFB4C8" d="M381.5 99.5h71v2h-71zm0-2h71v2h-71zm24-9h24v5h-24zm-280 195h39v43h-39z"/><path fill="#fff" stroke="#AFB4C8" d="M131.5 295.5h27v23h-27zm-6-5h39v-7h-39zm7-7h25v-30h-25zm-4-169.5a1.5 1.5 0 0 1 1.5-1.5h32a1.5 1.5 0 0 1 1.5 1.5v47.5h-35V114zm1.027-1.5c.249-2.25 2.157-4 4.473-4h24a4.502 4.502 0 0 1 4.473 4h-32.946zm-19.027 69h71v-10h-71zm0-10h71v-10h-71z"/><path fill="#fff" stroke="#AFB4C8" d="M128.5 279.5h8v4h-8z"/><path fill="#fff" stroke="#AFB4C8" d="M130.5 279.5h4v4h-4zm10-175h12v4h-12z"/><path fill="#fff" stroke="#AFB4C8" d="M143.5 104.5h6v4h-6zm10 175h8v4h-8z"/><path fill="#fff" stroke="#AFB4C8" d="M155.5 279.5h4v4h-4zm-57-68h34v14h-34z"/><path d="M111 218.5h18" stroke="#AFB4C8"/><path d="M495.5 222.966v-14.932l6-5.848v26.628l-6-5.848zm0-14.466h-25v14h25z" fill="#fff" stroke="#AFB4C8"/><path d="M495 218.5h-24m-334 83h16m-16 3h16m-16 3h16m-16 3h11" stroke="#AFB4C8"/><path fill="#fff" stroke="#AFB4C8" d="M130.5 277.5h4v2h-4zm-17-120h8v4h-8z"/><path fill="#fff" stroke="#AFB4C8" d="M115.5 157.5h4v4h-4zm0-2h4v2h-4zm16 2h8v4h-8z"/><path fill="#fff" stroke="#AFB4C8" d="M133.5 157.5h4v4h-4zm0-2h4v2h-4zm19 2h8v4h-8z"/><path fill="#fff" stroke="#AFB4C8" d="M154.5 157.5h4v4h-4zm-12-88h8v4h-8z"/><path fill="#fff" stroke="#AFB4C8" d="M144.5 69.5h4v4h-4zm10 86h4v2h-4zm16 2h8v4h-8z"/><path fill="#fff" stroke="#AFB4C8" d="M172.5 157.5h4v4h-4zm0-2h4v2h-4zm-17 122h4v2h-4zm-12-204h6v31h-6z"/><path d="M136.5 113v42" stroke="#AFB4C8"/><path fill="#fff" stroke="#AFB4C8" d="M29.5 122.5h32v81h-32z"/><path fill="#fff" stroke="#AFB4C8" d="M29.5 192.5h32v34h-32zm100-11h31v81h-31zm372-34h41v85h-41z"/><path fill="#fff" stroke="#AFB4C8" d="M25.5 193.5h39v-3h-39z"/><path fill="#fff" stroke="#AFB4C8" d="M25.5 193.5h39v-3h-39zm0-51h39v-3h-39zm0-20h39v-8h-39z"/><path fill="#fff" stroke="#AFB4C8" d="M25.5 122.5h39v-8h-39zm0-29h39v-4h-39zm3-4h33v-14h-33z"/><path fill="#fff" stroke="#AFB4C8" d="M28.5 73.5h33v3h-33zm9-3h15v3h-15zm-32 9h23v4h-23zm50-8h4v2h-4zm-25 0h4v2h-4z"/><rect x="19.5" y="93.5" width="51" height="21" rx="3.5" fill="#fff" stroke="#AFB4C8"/><rect x="22.5" y="96.5" width="45" height="15" rx="1.5" fill="#F6F6F6" stroke="#AFB4C8"/><path fill="#fff" stroke="#AFB4C8" d="M35.5 103.5h19v11h-19z"/><path fill="#F6F6F6" stroke="#AFB4C8" d="M35.5 111.5h19v3h-19z"/><path fill="#fff" stroke="#AFB4C8" d="M43.5 111.5h3v3h-3zm-16-3h5v3h-5zm30 0h5v3h-5z"/><path fill="#fff" stroke="#AFB4C8" d="M57.5 108.5h5v3h-5zm-16-8h7v3h-7z"/><path fill="#fff" stroke="#AFB4C8" d="M43.5 100.5h3v3h-3zm-17-4h7v3h-7z"/><path fill="#fff" stroke="#AFB4C8" d="M28.5 96.5h3v3h-3zm28 0h7v3h-7z"/><path fill="#fff" stroke="#AFB4C8" d="M58.5 96.5h3v3h-3zm-33-7h19v-3h-19zm20 0h19v-3h-19z"/><path fill="#fff" stroke="#AFB4C8" d="M48.5 89.5h-7v-3h7z"/><circle cx="34.5" cy="81.5" r="2" fill="#fff" stroke="#AFB4C8"/><circle cx="55.5" cy="81.5" r="2" fill="#fff" stroke="#AFB4C8"/><path d="M376.5 183.5c0 47.499-38.282 86-85.5 86s-85.5-38.501-85.5-86 38.282-86 85.5-86 85.5 38.501 85.5 86z" fill="#fff" stroke="#AFB4C8"/><path d="M362.5 183.5c0 39.768-32.015 72-71.5 72s-71.5-32.232-71.5-72 32.015-72 71.5-72 71.5 32.232 71.5 72z" fill="#fff" stroke="#AFB4C8"/><path d="M343.5 183.5c0 28.714-23.501 52-52.5 52s-52.5-23.286-52.5-52 23.501-52 52.5-52 52.5 23.286 52.5 52z" fill="#F6F6F6" stroke="#AFB4C8"/><path d="M322.5 183.5c0 18.233-14.558 33-32.5 33s-32.5-14.767-32.5-33 14.558-33 32.5-33 32.5 14.767 32.5 33z" fill="#F6F6F6" stroke="#AFB4C8"/><path fill="#fff" stroke="#AFB4C8" d="M287.5 138.5h5v90h-5z"/><path fill="#fff" stroke="#AFB4C8" d="M249.984 163.379l2.517-4.36 77.516 44.754-2.517 4.36z"/><path fill="#fff" stroke="#AFB4C8" d="M249.984 203.774l2.517 4.36 77.516-44.754-2.517-4.36z"/><path d="M316.5 183.5c0 14.92-11.873 27-26.5 27s-26.5-12.08-26.5-27 11.873-27 26.5-27 26.5 12.08 26.5 27z" fill="#fff" stroke="#AFB4C8"/><path d="M310.5 183.5c0 11.609-9.189 21-20.5 21s-20.5-9.391-20.5-21 9.189-21 20.5-21 20.5 9.391 20.5 21z" fill="#fff" stroke="#AFB4C8"/><circle cx="289.98" cy="169.983" r="2.5" fill="#fff" stroke="#AFB4C8"/><circle cx="277.914" cy="176.017" r="2.5" fill="#fff" stroke="#AFB4C8"/><circle cx="302.051" cy="176.017" r="2.5" fill="#fff" stroke="#AFB4C8"/><circle r="2.5" transform="matrix(1 0 0 -1 289.98 197.17)" fill="#fff" stroke="#AFB4C8"/><circle r="2.5" transform="matrix(1 0 0 -1 277.914 189.627)" fill="#fff" stroke="#AFB4C8"/><circle r="2.5" transform="matrix(1 0 0 -1 302.051 189.627)" fill="#fff" stroke="#AFB4C8"/><path fill="#fff" stroke="#AFB4C8" d="M29.5 150.5h-5v13h5z"/><path fill="#fff" stroke="#AFB4C8" d="M29.5 154.5h-5v5h5zm-11-2h-7v9h7zm0 1h6v7h-6z"/><path d="M15.5 152a1.5 1.5 0 0 0-1.5-1.5H1a.5.5 0 0 0-.5.5v12a.5.5 0 0 0 .5.5h13a1.5 1.5 0 0 0 1.5-1.5v-10z" fill="#fff" stroke="#AFB4C8"/><path d="M15 156.5H1" stroke="#AFB4C8"/><path fill="#fff" stroke="#AFB4C8" d="M61.5 150.5h5v13h-5z"/><path fill="#fff" stroke="#AFB4C8" d="M61.5 154.5h5v5h-5zm11-2h7v9h-7zm0 1h-6v7h6z"/><path d="M75.5 152a1.5 1.5 0 0 1 1.5-1.5h13a.5.5 0 0 1 .5.5v12a.5.5 0 0 1-.5.5H77a1.5 1.5 0 0 1-1.5-1.5v-10z" fill="#fff" stroke="#AFB4C8"/><path d="M76 156.5h14" stroke="#AFB4C8"/><path d="M504.3 310.187l-1.779-42.687h38.958l-1.779 42.687a4.5 4.5 0 0 1-4.496 4.313h-26.408a4.5 4.5 0 0 1-4.496-4.313z" fill="#fff" stroke="#AFB4C8"/><path fill="#fff" stroke="#AFB4C8" d="M499.5 267.5h8v4h-8z"/><path fill="#fff" stroke="#AFB4C8" d="M501.5 267.5h4v4h-4zm0 4h4v2h-4zm35-4h8v4h-8z"/><path fill="#fff" stroke="#AFB4C8" d="M538.5 267.5h4v4h-4zm0 4h4v2h-4z"/><path d="M533 267.5h14.5v-3h-51v3h15v2.5a.5.5 0 0 0 .5.5h20a.5.5 0 0 0 .5-.5v-2.5h.5zm-4.55 47a2.502 2.502 0 0 1-2.45 2h-8a2.502 2.502 0 0 1-2.45-2h12.9z" fill="#fff" stroke="#AFB4C8"/><path d="M513.5 276v33m17-33v33" stroke="#AFB4C8" stroke-linecap="round"/><path d="M543 230.5a1.5 1.5 0 0 0 1.5-1.5v-26a1.5 1.5 0 0 0-1.5-1.5h-.5v29h.5zm10-1a1.5 1.5 0 0 0 1.5-1.5v-24a1.5 1.5 0 0 0-1.5-1.5h-8.5v27h8.5z" fill="#fff" stroke="#AFB4C8"/><path d="M551 227.5a1.5 1.5 0 0 0 1.5-1.5v-6a1.5 1.5 0 0 0-1.5-1.5h-6.5v9h6.5zm0-14a1.5 1.5 0 0 0 1.5-1.5v-6a1.5 1.5 0 0 0-1.5-1.5h-6.5v9h6.5zm14 13a6.5 6.5 0 0 0 6.5-6.5v-8a6.5 6.5 0 0 0-6.5-6.5h-10.5v21H565zm-49.5 95h13v5h-13zm3-5h7v2h-7zm1 2h5v3h-5zm-22-171h49v-4h-49zm-320 52h-12v39h12zm0 6h2v28h-2zm-79 2h3v7h-3z" fill="#fff" stroke="#AFB4C8"/><path fill="#fff" stroke="#AFB4C8" d="M98.5 209.5h3v3h-3zm0 14h3v7h-3z"/><path fill="#fff" stroke="#AFB4C8" d="M98.5 225.5h3v3h-3zm62 6.78v-25.56l5-1.098v27.756l-5-1.098z"/><path fill="#AFB4C8" d="M130 201h-1v35h1z"/><path fill="#fff" stroke="#AFB4C8" d="M82.5 241.5v-45h3v45zm351-40h37v29h-37zm-32-12h32v46h-32z"/><path fill="#fff" stroke="#AFB4C8" d="M397.5 190.5h39v-3h-39z"/><path fill="#fff" stroke="#AFB4C8" d="M397.5 190.5h39v-3h-39zm57 42v-34h3v34zm14 0v-34h3v34zm27-61h53v-10h-53zm0 0h53v2h-53zm2-14h8v4h-8z"/><path fill="#fff" stroke="#AFB4C8" d="M499.5 157.5h4v4h-4zm0-2h4v2h-4zm18 2h8v4h-8z"/><path fill="#fff" stroke="#AFB4C8" d="M519.5 157.5h4v4h-4zm0-2h4v2h-4zm19 2h8v4h-8z"/><path fill="#fff" stroke="#AFB4C8" d="M540.5 157.5h4v4h-4zm0-2h4v2h-4zm-138 95h5v-2h-5zm8 0h5v-2h-5zm8 0h5v-2h-5zm8 0h5v-2h-5zm-29-11.606v3.606h38.995l-.038-3.635a4.5 4.5 0 0 0-2.171-3.804l-7.23-4.373a19.5 19.5 0 0 0-20.184 0l-7.201 4.356a4.5 4.5 0 0 0-2.171 3.85zm2 9.606h35v-6h-35z"/><path fill="#AFB4C8" d="M291 256h1v13h-1zm0-158h1v13h-1z"/></svg>