<svg width="110" height="167" fill="none" xmlns="http://www.w3.org/2000/svg"><path d="M37.284 32.8l-1.755 30.7h38.942l-1.755-30.7a3.5 3.5 0 0 0-3.494-3.3H40.778a3.5 3.5 0 0 0-3.494 3.3zM29.5 65.5h51v42h-51z" fill="#fff" stroke="#AFB4C8"/><path fill="#fff" stroke="#AFB4C8" d="M25.5 65.5h59v-3h-59z"/><circle cx="55" cy="79" r="22.5" fill="#fff" stroke="#AFB4C8"/><circle cx="55" cy="79" r="19.5" fill="#fff" stroke="#AFB4C8"/><path d="M42.266 84.94l.267.552 21.787-9.836L63.521 74 42.266 84.94z" fill="#AFB4C8"/><circle cx="55" cy="79" r="2.5" fill="#fff" stroke="#AFB4C8"/><circle cx="55" cy="79" r=".5" fill="#fff" stroke="#AFB4C8"/><circle cx="51.5" cy="91.5" r="2" fill="#fff" stroke="#AFB4C8"/><circle cx="58.5" cy="91.5" r="2" fill="#fff" stroke="#AFB4C8"/><path fill="#AFB4C8" d="M51 71h8v1h-8zm0-2h8v1h-8z"/><path fill="#fff" stroke="#AFB4C8" d="M80.5 77.5h5v13h-5z"/><path fill="#fff" stroke="#AFB4C8" d="M80.5 81.5h5v5h-5zm11-2h7v9h-7zm-6 1h6v7h-6z"/><path d="M94.5 79a1.5 1.5 0 0 1 1.5-1.5h13a.5.5 0 0 1 .5.5v12a.5.5 0 0 1-.5.5H96a1.5 1.5 0 0 1-1.5-1.5V79z" fill="#fff" stroke="#AFB4C8"/><path d="M95 83.5h14" stroke="#AFB4C8"/><path fill="#fff" stroke="#AFB4C8" d="M29.5 77.5h-5v13h5z"/><path fill="#fff" stroke="#AFB4C8" d="M29.5 81.5h-5v5h5zm-11-2h-7v9h7zm0 1h6v7h-6z"/><path d="M15.5 79a1.5 1.5 0 0 0-1.5-1.5H1a.5.5 0 0 0-.5.5v12a.5.5 0 0 0 .5.5h13a1.5 1.5 0 0 0 1.5-1.5V79z" fill="#fff" stroke="#AFB4C8"/><path d="M15 83.5H1" stroke="#AFB4C8"/><path d="M37.3 150.187L35.52 107.5h38.96l-1.78 42.687a4.5 4.5 0 0 1-4.496 4.313H41.796a4.5 4.5 0 0 1-4.496-4.313z" fill="#fff" stroke="#AFB4C8"/><path fill="#fff" stroke="#AFB4C8" d="M32.5 107.5h8v4h-8z"/><path fill="#fff" stroke="#AFB4C8" d="M34.5 107.5h4v4h-4zm0 4h4v2h-4zm35-4h8v4h-8z"/><path fill="#fff" stroke="#AFB4C8" d="M71.5 107.5h4v4h-4zm0 4h4v2h-4z"/><path d="M66 107.5h14.5v-3h-51v3h15v2.5a.5.5 0 0 0 .5.5h20a.5.5 0 0 0 .5-.5v-2.5h.5zm-4.55 47a2.5 2.5 0 0 1-2.45 2h-8a2.5 2.5 0 0 1-2.45-2h12.9z" fill="#fff" stroke="#AFB4C8"/><path d="M46.5 116v33m17-33v33" stroke="#AFB4C8" stroke-linecap="round"/><path d="M40.5 29a1.5 1.5 0 0 1 1.5-1.5h26a1.5 1.5 0 0 1 1.5 1.5v.5h-29V29zm1-10a1.5 1.5 0 0 1 1.5-1.5h24a1.5 1.5 0 0 1 1.5 1.5v8.5h-27V19z" fill="#fff" stroke="#AFB4C8"/><path d="M43.5 21a1.5 1.5 0 0 1 1.5-1.5h6a1.5 1.5 0 0 1 1.5 1.5v6.5h-9V21zm14 0a1.5 1.5 0 0 1 1.5-1.5h6a1.5 1.5 0 0 1 1.5 1.5v6.5h-9V21zm-13-14A6.5 6.5 0 0 1 51 .5h8A6.5 6.5 0 0 1 65.5 7v10.5h-21V7zm1 30.5h19v13h-19z" fill="#fff" stroke="#AFB4C8"/><path d="M50 42.5h9.5m-9.5 3h9.5" stroke="#AFB4C8"/><path fill="#fff" stroke="#AFB4C8" d="M48.5 161.5h13v5h-13zm3-5h7v2h-7zm1 2h5v3h-5z"/></svg>