<svg width="619" height="557" fill="none" xmlns="http://www.w3.org/2000/svg"><mask id="a" maskUnits="userSpaceOnUse" x="279" y="0" width="340" height="557"><path fill-rule="evenodd" clip-rule="evenodd" d="M279 56.5l7-19.5h26V0h43v37h30.5v96.5h42v23h68v94h-14v26H546v7.325c.135.031.269.063.404.096 36.88 8.875 62.501 43.915 69.904 88.579h1.192v8.654c2.146 19.468.924 40.482-4.2 61.775-17.953 74.606-77.012 124.378-131.911 111.167-15.618-3.759-29.217-12.209-40.268-24.096H412.5L282 448.5v-380l-3-12z" fill="#C4C4C4"/></mask><g mask="url(#a)" stroke="#C6CADA" stroke-width="1.2" stroke-miterlimit="10" stroke-linecap="round" stroke-dasharray="0.1 6"><path d="M272 455h415.558M272 449h415.558M272 443h415.558M272 437h415.558M272 431h415.558M272 425h415.558M272 419h415.558M272 413h415.558M272 407h415.558M272 401h415.558M272 395h415.558M272 521h415.558M272 551h415.558M272 545h415.558M272 539h415.558M272 533h415.558M272 527h415.558M272 515h415.558M272 509h415.558M272 503h415.558M272 497h415.558M272 491h415.558M272 485h415.558M272 479h415.558M272 473h415.558M272 467h415.558M272 461h415.558M272 389h415.558M272 383h415.558M272 377h415.558M272 371h415.558M272 365h415.558M272 359h415.558M272 353h415.558M272 347h415.558M272 341h415.558M272 335h415.558M272 329h415.558M272 323h415.558M272 317h415.558M272 311h415.558M272 305h415.558M272 299h415.558M272 293h415.558M272 287h415.558M272 281h415.558M272 275h415.558M272 269h415.558M272 263h415.558M272 257h415.558M272 251h415.558M272 245h415.558M272 239h415.558M272 233h415.558M272 227h415.558M272 221h415.558M272 215h415.558M272 209h415.558M272 203h415.558M272 197h415.558M272 191h415.558M272 185h415.558M272 179h415.558M272 173h415.558M272 167h415.558M272 161h415.558M272 155h415.558M272 149h415.558M272 143h415.558M272 137h415.558M272 131h415.558M272 125h415.558M272 119h415.558M272 113h415.558M272 107h415.558M272 101h415.558M272 95h415.558M272 89h415.558M272 83h415.558M272 77h415.558M272 71h415.558M272 65h415.558M272 59h415.558M272 53h415.558M272 47h415.558M272 41h415.558M272 35h415.558M272 29h415.558M272 23h415.558M272 17h415.558M272 11h415.558M272 5h415.558"/></g><path d="M202.065 149.135v-7.914l104.175-2.972v10.886l6.976 3.093 2.325 2.651v16.285l52.088 7.416 15.812 7.953 3.72 3.535 1.396 4.418v49.046l-2.326 6.628-11.626 8.395v17.675l10.696 14.139 14.417-3.535 16.278-1.767 33.949 7.511 15.348 7.07 6.975 5.302 6.046 6.186 10.697 15.465 6.511 17.674 2.79 17.675 1.395 19.441-1.395 18.116-1.86 13.698-3.256 13.697-7.441 24.302-10.231 19.884-8.836 15.465-14.417 19-19.998 19.883-19.533 11.93-20.928 7.07-20.463.442-16.742-5.744-18.138-4.861-15.347-8.837-10.696-11.488-11.162-19-3.721-11.93-11.161 3.093-.465 14.581-6.046 2.21-24.648-7.954-25.114 7.954-6.976-2.652v-12.813l-11.627-4.419-20.928-11.93-42.786-30.046-13.022 6.628-16.742 3.534H97.425l-13.951-3.534-17.673-6.628-13.487-7.954-10.697-10.604-7.906-10.163-6.976-12.814-5.115-15.023-3.256-22.534.465-20.326 2.79-18.116 5.116-19.883 6.976-15.907 11.162-19L61.15 250.16l12.557-11.046 12.092-7.512 16.277-8.395 15.347-4.419v-24.302l2.326-5.744 6.976-4.86 14.417-5.302 51.157-8.396v-15.305l3.72-3.093 6.046-2.651z" fill="#fff"/><path d="M201.6 141.854v9.561m104.173-8.236v8.236m80.456 45.281c6.976-5.744-3.813-20.502-71.155-26.512m-123.239 0c-59.948 5.35-76.186 17.983-74.107 24.744m103.405 292.509v12.075a2 2 0 0 0 1.587 1.957l6.22 1.314c.369.077.751.05 1.105-.081l21.594-7.955a2.003 2.003 0 0 1 1.315-.024l24.347 7.992c.372.122.771.132 1.148.03l4.457-1.21a2.001 2.001 0 0 0 1.476-1.93v-13.494" stroke="#AFB4C8"/><path d="M374.604 258.114v15.293c0 1.261.397 2.489 1.135 3.511l10.026 13.893m-93.013 140.952c-19.377-13.992-70.225-56.999-90.688-107.371" stroke="#AFB4C8" stroke-width=".75"/><path d="M296.013 408.121c-14.374-10.379-46.063-36.723-69.823-70.195" stroke="#AFB4C8" stroke-width="1.5" stroke-miterlimit="10" stroke-linecap="round" stroke-dasharray="0.1 4"/><path d="M363.908 542.669l-19.533-5.745c-30.694-9.72-52.095-38.279-52.095-85.94 0-67.178 41.283-138.652 92.208-159.642 12.269-5.058 23.979-6.723 34.687-5.398l26.594 5.853" stroke="#AFB4C8" stroke-miterlimit="10"/><path d="M451.351 301.789c1.903 1.283 3.116 3.915 3.116 7.421 0 6.225-3.826 12.849-8.545 14.794-1.394.575-2.71.677-3.872.375" stroke="#AFB4C8" stroke-width=".6" stroke-miterlimit="10"/><path d="M456.398 310.132c0 6.225-3.826 12.849-8.545 14.794-4.719 1.945-8.544-1.525-8.544-7.75 0-6.226 3.825-12.849 8.544-14.794 4.72-1.945 8.545 1.525 8.545 7.75z" stroke="#AFB4C8" stroke-miterlimit="10"/><path d="M446.031 304.587l5.379 1.278m-8.067 2.129l10.757 2.555m-13.446.852l5.379 1.277" stroke="#AFB4C8" stroke-miterlimit="10" stroke-linecap="round" stroke-dasharray="0.1 2"/><path d="M384.379 321.231c1.903 1.283 3.116 3.915 3.116 7.42 0 6.226-3.826 12.85-8.544 14.795-1.394.574-2.71.676-3.873.374" stroke="#AFB4C8" stroke-width=".6" stroke-miterlimit="10"/><path d="M389.43 329.574c0 6.225-3.826 12.849-8.545 14.794-4.719 1.945-8.545-1.525-8.545-7.75 0-6.226 3.826-12.85 8.545-14.795 4.719-1.945 8.545 1.525 8.545 7.751z" stroke="#AFB4C8" stroke-miterlimit="10"/><path d="M379.058 324.029l5.378 1.277m-8.066 2.13l10.758 2.555m-13.448.851l5.378 1.278" stroke="#AFB4C8" stroke-miterlimit="10" stroke-linecap="round" stroke-dasharray="0.1 2"/><path d="M371.357 509.461c1.903 1.283 3.116 3.915 3.116 7.421 0 6.225-3.826 12.849-8.545 14.794-1.394.574-2.71.677-3.872.375" stroke="#AFB4C8" stroke-width=".6" stroke-miterlimit="10"/><path d="M376.408 517.804c0 6.226-3.826 12.85-8.545 14.794-4.719 1.945-8.545-1.524-8.545-7.75 0-6.225 3.826-12.849 8.545-14.794 4.72-1.945 8.545 1.525 8.545 7.75z" stroke="#AFB4C8" stroke-miterlimit="10"/><path d="M366.041 512.259l5.379 1.278m-8.066 2.129l10.757 2.555m-13.448.852l5.379 1.277" stroke="#AFB4C8" stroke-miterlimit="10" stroke-linecap="round" stroke-dasharray="0.1 2"/><path d="M442.979 485.601c1.903 1.283 3.116 3.915 3.116 7.421 0 6.225-3.826 12.849-8.545 14.794-1.394.574-2.71.676-3.872.374" stroke="#AFB4C8" stroke-width=".6" stroke-miterlimit="10"/><path d="M448.028 493.944c0 6.225-3.826 12.849-8.545 14.794-4.719 1.945-8.545-1.525-8.545-7.75 0-6.226 3.826-12.85 8.545-14.794 4.72-1.945 8.545 1.525 8.545 7.75z" stroke="#AFB4C8" stroke-miterlimit="10"/><path d="M437.664 488.399l5.379 1.277m-8.068 2.13l10.757 2.555m-13.446.852l5.379 1.277" stroke="#AFB4C8" stroke-miterlimit="10" stroke-linecap="round" stroke-dasharray="0.1 2"/><path d="M344.381 383.974c1.903 1.284 3.116 3.916 3.116 7.421 0 6.226-3.826 12.85-8.545 14.794-1.393.575-2.709.677-3.872.375" stroke="#AFB4C8" stroke-width=".6" stroke-miterlimit="10"/><path d="M349.432 392.317c0 6.226-3.825 12.85-8.544 14.795-4.719 1.945-8.545-1.525-8.545-7.751 0-6.225 3.826-12.849 8.545-14.794 4.719-1.945 8.544 1.525 8.544 7.75z" stroke="#AFB4C8" stroke-miterlimit="10"/><path d="M339.064 386.772l5.379 1.278m-8.065 2.129l10.757 2.555m-13.447.852l5.378 1.278" stroke="#AFB4C8" stroke-miterlimit="10" stroke-linecap="round" stroke-dasharray="0.1 2"/><path d="M57.841 308.485c1.903 1.283 3.116 3.915 3.116 7.421 0 6.225-3.826 12.849-8.545 14.794-1.393.575-2.71.677-3.872.375" stroke="#AFB4C8" stroke-width=".6" stroke-miterlimit="10"/><path d="M62.892 316.829c0 6.225-3.826 12.849-8.545 14.794-4.72 1.945-8.545-1.525-8.545-7.751 0-6.225 3.826-12.849 8.545-14.794 4.719-1.945 8.544 1.525 8.544 7.751z" stroke="#AFB4C8" stroke-miterlimit="10"/><path d="M52.524 311.283l5.38 1.278m-8.067 2.129l10.757 2.555m-13.447.852l5.378 1.277" stroke="#AFB4C8" stroke-miterlimit="10" stroke-linecap="round" stroke-dasharray="0.1 2"/><path d="M59.704 378.298c1.902 1.284 3.116 3.915 3.116 7.421 0 6.226-3.826 12.849-8.545 14.794-1.394.575-2.71.677-3.873.375" stroke="#AFB4C8" stroke-width=".6" stroke-miterlimit="10"/><path d="M64.752 386.641c0 6.226-3.826 12.85-8.545 14.794-4.719 1.945-8.545-1.524-8.545-7.75 0-6.225 3.826-12.849 8.545-14.794 4.72-1.945 8.545 1.525 8.545 7.75z" stroke="#AFB4C8" stroke-miterlimit="10"/><path d="M54.386 381.096l5.378 1.278m-8.066 2.129l10.758 2.555m-13.448.852l5.379 1.278" stroke="#AFB4C8" stroke-miterlimit="10" stroke-linecap="round" stroke-dasharray="0.1 2"/><path d="M106.21 420.716c1.902 1.284 3.115 3.916 3.115 7.421 0 6.226-3.825 12.85-8.544 14.794-1.394.575-2.71.677-3.873.375" stroke="#AFB4C8" stroke-width=".6" stroke-miterlimit="10"/><path d="M111.261 429.059c0 6.225-3.826 12.849-8.545 14.794-4.72 1.945-8.545-1.525-8.545-7.75 0-6.226 3.826-12.85 8.545-14.795 4.719-1.945 8.545 1.525 8.545 7.751z" stroke="#AFB4C8" stroke-miterlimit="10"/><path d="M100.89 423.514l5.378 1.278m-8.066 2.129l10.758 2.555m-13.448.852l5.378 1.278" stroke="#AFB4C8" stroke-miterlimit="10" stroke-linecap="round" stroke-dasharray="0.1 2"/><path d="M96.909 251.044c1.902 1.283 3.116 3.915 3.116 7.421 0 6.225-3.826 12.849-8.545 14.794-1.394.574-2.71.677-3.873.375" stroke="#AFB4C8" stroke-width=".6" stroke-miterlimit="10"/><path d="M101.959 259.387c0 6.225-3.826 12.849-8.545 14.794-4.719 1.945-8.545-1.525-8.545-7.75 0-6.226 3.826-12.85 8.545-14.794 4.72-1.945 8.545 1.525 8.545 7.75z" stroke="#AFB4C8" stroke-miterlimit="10"/><path d="M91.588 253.842l5.379 1.278m-8.067 2.129l10.757 2.555m-13.447.852l5.38 1.277" stroke="#AFB4C8" stroke-miterlimit="10" stroke-linecap="round" stroke-dasharray="0.1 2"/><path d="M336.942 456.438c1.903 1.284 3.116 3.915 3.116 7.421 0 6.226-3.826 12.849-8.545 14.794-1.394.575-2.71.677-3.872.375" stroke="#AFB4C8" stroke-width=".6" stroke-miterlimit="10"/><path d="M341.994 464.781c0 6.226-3.826 12.85-8.545 14.795-4.719 1.945-8.545-1.525-8.545-7.751 0-6.225 3.826-12.849 8.545-14.794 4.72-1.945 8.545 1.525 8.545 7.75z" stroke="#AFB4C8" stroke-miterlimit="10"/><path d="M331.624 459.236l5.379 1.278m-8.066 2.129l10.757 2.555m-13.448.852l5.379 1.278" stroke="#AFB4C8" stroke-miterlimit="10" stroke-linecap="round" stroke-dasharray="0.1 2"/><path d="M486.695 345.975c1.903 1.283 3.116 3.915 3.116 7.421 0 6.225-3.826 12.849-8.545 14.794-1.394.574-2.71.676-3.872.374" stroke="#AFB4C8" stroke-width=".6" stroke-miterlimit="10"/><path d="M491.746 354.318c0 6.225-3.826 12.849-8.545 14.794-4.719 1.945-8.545-1.525-8.545-7.75 0-6.226 3.826-12.85 8.545-14.795 4.719-1.945 8.545 1.526 8.545 7.751z" stroke="#AFB4C8" stroke-miterlimit="10"/><path d="M481.374 348.773l5.379 1.277m-8.065 2.13l10.757 2.555m-13.448.852l5.379 1.277" stroke="#AFB4C8" stroke-miterlimit="10" stroke-linecap="round" stroke-dasharray="0.1 2"/><path d="M479.254 424.625c1.903 1.283 3.116 3.915 3.116 7.421 0 6.225-3.826 12.849-8.544 14.794-1.394.575-2.71.677-3.873.375" stroke="#AFB4C8" stroke-width=".6" stroke-miterlimit="10"/><path d="M484.304 432.968c0 6.226-3.826 12.849-8.545 14.794-4.719 1.945-8.545-1.525-8.545-7.75 0-6.226 3.826-12.849 8.545-14.794 4.719-1.945 8.545 1.525 8.545 7.75z" stroke="#AFB4C8" stroke-miterlimit="10"/><path d="M473.933 427.423l5.378 1.278m-8.066 2.129l10.758 2.555m-13.448.852l5.378 1.277m4.317-44.063c0 48.553-29.837 100.211-66.643 115.382-36.806 15.171-66.643-11.891-66.643-60.444 0-48.553 29.837-100.212 66.643-115.383 36.806-15.171 66.643 11.891 66.643 60.445z" stroke="#AFB4C8" stroke-miterlimit="10" stroke-linecap="round" stroke-dasharray="0.1 2"/><path d="M481.342 392.369c0 48.554-29.837 100.212-66.643 115.383-36.806 15.171-66.643-11.891-66.643-60.444 0-48.553 29.837-100.212 66.643-115.383 36.806-15.171 66.643 11.891 66.643 60.444z" fill="#fff" stroke="#AFB4C8" stroke-miterlimit="10"/><mask id="b" maskUnits="userSpaceOnUse" x="373" y="360" width="85" height="117"><path d="M457.465 401.377c0 30.582-18.794 63.121-41.977 72.676-23.184 9.556-41.977-7.49-41.977-38.072 0-30.583 18.793-63.121 41.977-72.677 23.183-9.555 41.977 7.49 41.977 38.073z" fill="#fff"/></mask><g mask="url(#b)"><path d="M427.973 394.514c0 30.583-18.793 63.121-41.977 72.677-23.183 9.556-41.976-7.49-41.976-38.072 0-30.583 18.793-63.121 41.976-72.677 23.184-9.556 41.977 7.49 41.977 38.072z" stroke="#AFB4C8" stroke-miterlimit="10"/></g><path d="M457.465 401.377c0 30.582-18.794 63.121-41.977 72.676-23.184 9.556-41.977-7.49-41.977-38.072 0-30.583 18.793-63.121 41.977-72.677 23.183-9.555 41.977 7.49 41.977 38.073z" stroke="#AFB4C8" stroke-miterlimit="10"/><path d="M398.658 475.986c4.082.064 8.438-.987 12.961-2.851 23.184-9.556 41.977-42.095 41.977-72.677 0-19.754-7.84-33.86-19.64-38.798" stroke="#AFB4C8" stroke-miterlimit="10"/><path d="M378.098 419.103l39.042 10.275m-6.986-60.825l10.686 2.877" stroke="#AFB4C8" stroke-width="1.5" stroke-miterlimit="10" stroke-linecap="round" stroke-dasharray="0.1 4"/><path d="M402.044 372.162l24.176 5.972" stroke="#AFB4C8" stroke-miterlimit="10"/><path d="M398.646 377.595l11.762 3.158m-33.954 49.858l32.878 9.041" stroke="#AFB4C8" stroke-width="1.5" stroke-miterlimit="10" stroke-linecap="round" stroke-dasharray="0.1 4"/><path d="M499.748 380.029c0 66.971-41.156 138.225-91.923 159.151-50.768 20.925-91.924-16.402-91.924-83.373s41.156-138.226 91.924-159.151c50.768-20.926 91.923 16.402 91.923 83.373zM117.423 230.664a104.957 104.957 0 0 0-3.413 1.586c-64.487 24.096-89.655 90.781-81.367 148.816 8.288 58.035 59.696 86.477 111.381 61.347.851-.414 1.698-.84 2.541-1.276" stroke="#AFB4C8" stroke-miterlimit="10"/><path d="M98.66 224.352C38.361 251.097 11.794 316.9 20.082 374.935c3.825 26.784 17.679 48.506 35.02 59.921 3.993 2.628 12.093 7.07 18.604 9.279M98.66 224.352c1.139-.554-1.136.504 0 0zm0 0c5.119-1.768 11.322-4.238 18.298-5.121" stroke="#AFB4C8" stroke-miterlimit="10"/><path d="M88.59 395.973c8.371 11.93 39.996 32.697 81.386 61.859 41.391 29.163 51.623 30.587 67.435 32.256 4.651.491 32.834 1.414 58.133-7.07m-186.029-67.162c-46.041 0-64.642-121.068 24.65-152.882" stroke="#AFB4C8"/><path d="M94.169 410.996c-37.67-18.558-46.1-116.233 32.847-149.347l5.289-1.768m.93 11.488c-70.69 30.046-55.808 110.464-44.183 125.487" stroke="#AFB4C8" stroke-miterlimit="10" stroke-linecap="round" stroke-dasharray="0.1 2"/><path d="M133.701 352.229c3.721 16.201 36.182 47.544 115.802 41.534" stroke="#AFB4C8" stroke-width="1.5" stroke-miterlimit="10" stroke-linecap="round" stroke-dasharray="0.1 4"/><path d="M133.701 352.229v-91.906" stroke="#AFB4C8" stroke-width=".75"/><path d="M117.421 194.045v51.887c0 1.332.265 2.644 1.081 3.697 4.767 6.148 28.427 27.107 129.602 27.484 105.44.393 132.574-21.219 137.296-26.017.594-.604.982-1.336 1.285-2.128l1.404-3.668v-52.581" stroke="#AFB4C8"/><path d="M117.421 222.323s23.718 26.997 130.683 27.395c106.966.399 139.985-26.069 139.985-26.069" stroke="#AFB4C8"/><path d="M117.421 218.788s23.718 26.997 130.683 27.396c106.966.398 139.985-26.07 139.985-26.07" stroke="#AFB4C8"/><path d="M388.089 229.082s-33.019 26.468-139.985 26.069m125.571 21.079s-16.742 24.744-157.657 21.433" stroke="#AFB4C8" stroke-width="1.5" stroke-miterlimit="10" stroke-linecap="round" stroke-dasharray="0.1 4"/><path d="M117.421 195.21s15.347 24.016 130.683 24.016c115.337 0 138.125-22.53 138.125-22.53" stroke="#AFB4C8"/><path d="M349.827 168.223h-32.915c-.831 0-1.497.65-1.497 1.46v11.816c0 .58.347 1.111.887 1.36l7.184 3.301c.205.094.428.143.653.143h17.506c.235 0 .465-.053.674-.155l8.226-4.017c.505-.247.823-.75.823-1.305v-11.101c0-.826-.693-1.502-1.541-1.502z" fill="#fff" stroke="#AFB4C8" stroke-miterlimit="10"/><path d="M342.278 173.643l-.207-.453.207.453 7.731-3.285c1.21-.514 1.189-2.196-.033-2.716l-7.705-3.273a1.546 1.546 0 0 0-.611-.125h-17.559c-.199 0-.396.038-.579.113l-7.192 2.924a1.454 1.454 0 0 0-.917 1.347v.85c0 .613.387 1.168.973 1.396l.182-.458-.182.458 7.157 2.785c.181.07.373.106.567.106h17.567c.207 0 .412-.041.601-.122z" fill="#fff" stroke="#AFB4C8" stroke-miterlimit="10"/><path d="M343.368 167.696c0 1.409-4.725 2.552-10.554 2.552-5.828 0-10.553-1.143-10.553-2.552 0-1.41-.001-4.084 0-8.168 3.61 0 16.122-2.308 21.107 0v8.168z" fill="#fff" stroke="#AFB4C8" stroke-miterlimit="10"/><path d="M343.367 164.122c0 1.41-4.725 2.553-10.553 2.553-5.828 0-10.553-1.143-10.553-2.553" stroke="#AFB4C8" stroke-miterlimit="10" stroke-linecap="round" stroke-dasharray="0.1 2"/><ellipse cx="332.812" cy="159.528" rx="10.553" ry="2.552" fill="#fff" stroke="#AFB4C8" stroke-miterlimit="10"/><path d="M323.842 173.821v12.761m17.94-12.251v12.762" stroke="#AFB4C8" stroke-miterlimit="10" stroke-linecap="round" stroke-dasharray="0.1 2"/><path d="M341.767 181.051l-.003.492.003-.492c-.828 0-1.501.679-1.501 1.514l-.005 11.675c0 .566.314 1.082.813 1.337l8.233 4.209c.208.106.438.161.672.161h17.497c.235 0 .467-.056.677-.163l8.223-4.203a1.52 1.52 0 0 0 .825-1.352v-11.68a1.49 1.49 0 0 0-1.485-1.498h-33.949z" fill="#fff" stroke="#AFB4C8" stroke-miterlimit="10"/><path d="M349.963 176.886c-.208 0-.413.044-.604.128l-7.777 3.46c-1.191.529-1.198 2.231-.013 2.758l7.788 3.464c.189.084.393.128.6.128h17.553c.208 0 .413-.044.604-.129l7.777-3.46c1.191-.529 1.198-2.23.013-2.758l-7.788-3.464a1.476 1.476 0 0 0-.6-.127h-17.553z" fill="#fff" stroke="#AFB4C8" stroke-miterlimit="10"/><path d="M369.21 180.484c0 1.476-4.724 2.672-10.553 2.672-5.828 0-10.553-1.196-10.553-2.672v-8.549c3.609 0 16.122-2.416 21.106 0v8.549z" fill="#fff" stroke="#AFB4C8" stroke-miterlimit="10"/><path d="M369.21 176.744c0 1.476-4.725 2.672-10.553 2.672-5.829 0-10.553-1.196-10.553-2.672" stroke="#AFB4C8" stroke-miterlimit="10" stroke-linecap="round" stroke-dasharray="0.1 2"/><ellipse cx="358.655" cy="171.935" rx="10.553" ry="2.672" fill="#fff" stroke="#AFB4C8" stroke-miterlimit="10"/><path d="M349.955 186.832v13.186m17.673-12.679v12.679" stroke="#AFB4C8" stroke-miterlimit="10" stroke-linecap="round" stroke-dasharray="0.1 2"/><path d="M201.601 149.135c-6.181 1.698-9.766 3.717-9.766 5.884 0 6.024 27.693 10.907 61.854 10.907s61.853-4.883 61.853-10.907c0-1.879-3.255-4.116-9.766-5.442" stroke="#AFB4C8" stroke-miterlimit="10"/><path d="M305.774 151.415c0 4.881-22.855 8.837-51.622 8.837s-52.552-3.956-52.552-8.837" stroke="#AFB4C8" stroke-miterlimit="10"/><path d="M254.153 147.598c36.986 0 66.97-5.397 66.97-12.054v-13.132H187.184v13.132c0 6.657 29.983 12.054 66.969 12.054z" fill="#fff" stroke="#AFB4C8" stroke-miterlimit="10"/><path d="M201.601 185.649c-6.181 1.698-9.766 3.717-9.766 5.885 0 6.023 27.693 10.906 61.854 10.906s61.853-4.883 61.853-10.906c0-1.879-2.695-3.648-7.441-5.191" stroke="#AFB4C8" stroke-miterlimit="10"/><path d="M239.453 196.827c-.827 0-1.501.682-1.501 1.52l-.004 11.73a1.498 1.498 0 0 0 .808 1.337l8.237 4.229c.207.107.437.162.67.162h17.498c.234 0 .466-.056.677-.164l8.223-4.222c.505-.26.824-.785.824-1.357v-11.737c0-.829-.66-1.498-1.479-1.498h-33.953z" fill="#fff" stroke="#AFB4C8" stroke-miterlimit="10"/><path d="M247.641 202.623l.004-.504-.004.504h17.553c.208 0 .414-.044.604-.13l7.783-3.477c1.188-.531 1.199-2.234.017-2.762l-7.796-3.483a1.475 1.475 0 0 0-.599-.128H247.65a1.48 1.48 0 0 0-.604.129l-7.783 3.478c-1.188.531-1.199 2.234-.017 2.762l7.796 3.483c.189.084.393.128.599.128z" fill="#fff" stroke="#AFB4C8" stroke-miterlimit="10"/><path d="M266.896 196.257c0 1.482-4.725 2.683-10.553 2.683-5.829 0-10.554-1.201-10.554-2.683v-8.588c3.61 0 16.122-2.427 21.107 0v8.588z" fill="#fff" stroke="#AFB4C8" stroke-miterlimit="10"/><path d="M266.895 192.5c0 1.482-4.724 2.683-10.553 2.683-5.828 0-10.553-1.201-10.553-2.683" stroke="#AFB4C8" stroke-miterlimit="10" stroke-linecap="round" stroke-dasharray="0.1 2"/><ellipse cx="256.34" cy="187.669" rx="10.553" ry="2.684" fill="#fff" stroke="#AFB4C8" stroke-miterlimit="10"/><path d="M247.641 202.632v12.736m17.672-12.226v12.735" stroke="#AFB4C8" stroke-miterlimit="10" stroke-linecap="round" stroke-dasharray="0.1 2"/><path d="M150.152 165.275c-.828 0-1.5.676-1.501 1.509l-.004 11.618a1.5 1.5 0 0 0 .817 1.338l8.23 4.188c.208.106.439.162.673.162h17.497c.235 0 .466-.056.676-.163l8.224-4.185c.505-.257.824-.778.824-1.347v-11.621c0-.829-.666-1.499-1.49-1.499h-33.946z" fill="#fff" stroke="#AFB4C8" stroke-miterlimit="10"/><path d="M158.348 161.128c-.208 0-.413.044-.604.128l-7.773 3.442c-1.192.528-1.197 2.228-.008 2.754l7.78 3.445c.189.084.394.127.601.127h17.553c.207 0 .413-.043.603-.127l7.773-3.442c1.193-.528 1.197-2.228.008-2.755l-7.779-3.445a1.5 1.5 0 0 0-.601-.127h-17.553z" fill="#fff" stroke="#AFB4C8" stroke-miterlimit="10"/><path d="M177.596 164.712c0 1.469-4.725 2.66-10.553 2.66-5.828 0-10.553-1.191-10.553-2.66l-.001-8.511c3.61 0 16.122-2.405 21.107 0v8.511z" fill="#fff" stroke="#AFB4C8" stroke-miterlimit="10"/><path d="M177.596 160.989c0 1.469-4.725 2.659-10.554 2.659-5.828 0-10.553-1.19-10.553-2.659" stroke="#AFB4C8" stroke-miterlimit="10" stroke-linecap="round" stroke-dasharray="0.1 2"/><ellipse cx="167.041" cy="156.201" rx="10.553" ry="2.66" fill="#fff" stroke="#AFB4C8" stroke-miterlimit="10"/><path d="M158.342 171.031v12.623m17.672-12.118v12.623" stroke="#AFB4C8" stroke-miterlimit="10" stroke-linecap="round" stroke-dasharray="0.1 2"/><path d="M191.835 155.321v27.677m123.707-27.677v27.677" stroke="#AFB4C8"/><path d="M131.811 196.792l.224-.444-.224.444 8.218 4.112c.21.105.443.16.678.16l-.002-.498.002.498h17.495c.235 0 .466-.055.676-.159l8.224-4.115c.506-.253.824-.767.824-1.33v-11.405c0-.828-.677-1.5-1.51-1.5h-33.934c-.828 0-1.498.665-1.499 1.488l-.004 11.408a1.5 1.5 0 0 0 .832 1.341z" fill="#fff" stroke="#AFB4C8" stroke-miterlimit="10"/><path d="M158.232 178.478l.002.498-.002-.498H140.68c-.208 0-.413.043-.603.126l-7.755 3.376c-1.2.522-1.194 2.215.008 2.739l7.749 3.373c.191.083.397.126.606.126h17.551c.208 0 .413-.042.603-.125l7.756-3.377c1.199-.522 1.194-2.214-.009-2.738l-7.749-3.374a1.518 1.518 0 0 0-.605-.126z" fill="#fff" stroke="#AFB4C8" stroke-miterlimit="10"/><path d="M159.932 182.007c0 1.444-4.725 2.615-10.553 2.615-5.829 0-10.553-1.171-10.553-2.615l-.001-8.368c3.61 0 16.122-2.365 21.107 0v8.368z" fill="#fff" stroke="#AFB4C8" stroke-miterlimit="10"/><path d="M159.932 178.346c0 1.444-4.725 2.615-10.554 2.615-5.828 0-10.553-1.171-10.553-2.615" stroke="#AFB4C8" stroke-miterlimit="10" stroke-linecap="round" stroke-dasharray="0.1 2"/><ellipse cx="149.376" cy="173.639" rx="10.553" ry="2.615" fill="#fff" stroke="#AFB4C8" stroke-miterlimit="10"/><path d="M140.677 188.22v12.41m17.672-11.914v12.41" stroke="#AFB4C8" stroke-miterlimit="10" stroke-linecap="round" stroke-dasharray="0.1 2"/><path d="M298.981 192.279c-.827 0-1.502.685-1.502 1.526l-.004 11.786c0 .565.31 1.081.805 1.336l8.239 4.249c.207.107.436.162.669.162h17.498c.235 0 .467-.056.677-.165l8.223-4.24c.506-.261.825-.788.825-1.361v-11.795c0-.829-.658-1.498-1.474-1.498h-33.956z" fill="#fff" stroke="#AFB4C8" stroke-miterlimit="10"/><path d="M307.177 188.078l-.005.504.005-.504a1.48 1.48 0 0 0-.604.129l-7.787 3.495c-1.187.532-1.2 2.237-.021 2.766l7.803 3.502c.188.084.392.128.598.128h17.554c.208 0 .413-.044.604-.13l7.787-3.494c1.186-.533 1.199-2.238.021-2.767l-7.804-3.502a1.462 1.462 0 0 0-.597-.127h-17.554z" fill="#fff" stroke="#AFB4C8" stroke-miterlimit="10"/><path d="M326.423 191.705c0 1.489-4.725 2.696-10.553 2.696-5.828 0-10.553-1.207-10.553-2.696v-8.625c3.609 0 16.122-2.438 21.106 0v8.625z" fill="#fff" stroke="#AFB4C8" stroke-miterlimit="10"/><path d="M326.423 187.932c0 1.488-4.725 2.695-10.553 2.695-5.829 0-10.554-1.207-10.554-2.695" stroke="#AFB4C8" stroke-miterlimit="10" stroke-linecap="round" stroke-dasharray="0.1 2"/><ellipse cx="315.867" cy="183.08" rx="10.553" ry="2.695" fill="#fff" stroke="#AFB4C8" stroke-miterlimit="10"/><path d="M307.167 198.109v12.792m17.672-12.281v12.792" stroke="#AFB4C8" stroke-miterlimit="10" stroke-linecap="round" stroke-dasharray="0.1 2"/><ellipse cx="254.153" cy="122.854" rx="66.969" ry="11.488" fill="#fff" stroke="#AFB4C8"/><path d="M303.448 118.877c0 3.661-21.863 6.628-48.832 6.628s-48.832-2.967-48.832-6.628v-3.093c5.823-2.776 26.508-3.534 48.832-3.534s43.009 1.2 48.832 3.976v2.651z" fill="#fff" stroke="#AFB4C8"/><ellipse cx="254.618" cy="116.226" rx="48.832" ry="6.628" fill="#fff" stroke="#AFB4C8"/><path d="M288.569 114.901c0 2.44-15.2 4.418-33.95 4.418-18.749 0-33.949-1.978-33.949-4.418 0-2.441-.002-5.744-.002-15.023 12.732 0 52.042-3.163 67.901 1.325v13.698z" fill="#fff" stroke="#AFB4C8"/><path d="M254.153 107.831c26.712 0 48.367-3.977 48.367-8.882V82.203h-96.734V98.95c0 4.905 21.655 8.882 48.367 8.882z" fill="#fff" stroke="#AFB4C8" stroke-miterlimit="10"/><ellipse cx="254.153" cy="82.203" rx="48.367" ry="6.186" fill="#fff" stroke="#AFB4C8"/><path d="M220.408 84.02l-.06-.404.06.404h12.27l-.065-.445.065.445c.229 0 .449-.039.647-.114l5.64-2.153c.501-.19.807-.594.807-1.062v-9.083c0-.794-.863-1.493-1.844-1.493h-23.313c-.829 0-1.453.505-1.453 1.176l-.003 9.174.545.052-.545-.052c-.001.56.439 1.103 1.096 1.354l5.405 2.062c.239.091.495.14.748.14z" fill="#fff" stroke="#AFB4C8" stroke-miterlimit="10"/><path d="M220.23 67.908c-.203 0-.399.03-.58.09l-4.568 1.518c-1.304.433-1.108 2 .31 2.47l4.327 1.438c.214.07.439.107.661.107h12.328c.203 0 .4-.03.58-.09l4.569-1.517c1.304-.433 1.107-2-.31-2.471l-4.328-1.437a2.1 2.1 0 0 0-.66-.108H220.23z" fill="#fff" stroke="#AFB4C8" stroke-miterlimit="10"/><path d="M233.9 69.994c0 .782-3.353 1.415-7.491 1.415-4.137 0-7.491-.633-7.491-1.415V59.318c2.562 0 11.444-1.28 14.982 0v10.676z" fill="#fff" stroke="#AFB4C8" stroke-miterlimit="10"/><path d="M233.9 66.244c0 .782-3.354 1.416-7.491 1.416s-7.491-.634-7.491-1.416M233.9 62.71c0 .781-3.354 1.415-7.491 1.415s-7.491-.634-7.491-1.416" stroke="#AFB4C8" stroke-miterlimit="10" stroke-linecap="round" stroke-dasharray="0.1 2"/><ellipse cx="226.408" cy="59.278" rx="7.491" ry="1.416" fill="#fff" stroke="#AFB4C8" stroke-miterlimit="10"/><path d="M219.74 73.366v8.498m13.022-8.158v8.497" stroke="#AFB4C8" stroke-miterlimit="10" stroke-linecap="round" stroke-dasharray="0.1 2"/><path d="M274.352 84.538l-.059-.404.059.404h12.27l-.065-.445.065.445c.229 0 .449-.039.647-.114l5.641-2.153c.5-.19.807-.594.807-1.061v-9.084c0-.794-.863-1.493-1.845-1.493H268.56c-.829 0-1.454.505-1.454 1.177l-.003 9.173.545.052-.545-.052c0 .561.439 1.103 1.096 1.354l5.405 2.062c.24.092.496.14.748.14z" fill="#fff" stroke="#AFB4C8" stroke-miterlimit="10"/><path d="M274.174 68.426c-.202 0-.399.031-.579.091l-4.569 1.517c-1.304.433-1.107 2 .31 2.47l4.328 1.438a2.1 2.1 0 0 0 .66.108h12.329c.203 0 .399-.031.579-.091l4.569-1.517c1.304-.433 1.108-2-.31-2.47l-4.327-1.438a2.11 2.11 0 0 0-.661-.108h-12.329z" fill="#fff" stroke="#AFB4C8" stroke-miterlimit="10"/><path d="M287.848 70.512c0 .782-3.354 1.416-7.491 1.416-4.138 0-7.491-.634-7.491-1.416l-.001-10.676c2.563 0 11.444-1.28 14.983 0v10.676z" fill="#fff" stroke="#AFB4C8" stroke-miterlimit="10"/><path d="M287.847 66.763c0 .781-3.354 1.415-7.491 1.415s-7.491-.634-7.491-1.415m14.982-3.535c0 .782-3.354 1.415-7.491 1.415s-7.491-.633-7.491-1.415" stroke="#AFB4C8" stroke-miterlimit="10" stroke-linecap="round" stroke-dasharray="0.1 2"/><ellipse cx="280.353" cy="59.796" rx="7.491" ry="1.416" fill="#fff" stroke="#AFB4C8" stroke-miterlimit="10"/><path d="M273.685 74.25v8.497m13.021-8.157v8.497" stroke="#AFB4C8" stroke-miterlimit="10" stroke-linecap="round" stroke-dasharray="0.1 2"/><path d="M263.453 81.364c0 2.416-7.441 2.608-10.231 2.608-2.791 0-10.231-.192-10.231-2.608l-.001-24.654c4.186-3.535 15.684-4.445 20.463 0v24.654z" fill="#fff" stroke="#AFB4C8"/><path d="M262.027 57.018c0 2.119-4.186 2.843-8.75 2.843s-8.75-.943-8.75-3.062l-.001-43.125c3.1 0 13.612-.243 17.501.462v42.882z" fill="#fff" stroke="#AFB4C8"/><path d="M253.276 15.097c2.301 0 4.396-.156 5.926-.412.762-.128 1.407-.284 1.873-.47.231-.09.447-.2.614-.337.162-.133.351-.354.351-.666 0-.313-.189-.534-.351-.666a2.323 2.323 0 0 0-.614-.338c-.466-.185-1.111-.341-1.873-.47-1.53-.256-3.625-.412-5.926-.412s-4.396.156-5.926.413c-.762.127-1.407.284-1.873.469a2.323 2.323 0 0 0-.614.338c-.162.132-.351.353-.351.666 0 .313.189.534.351.666.167.137.383.246.614.338.466.185 1.111.341 1.873.469 1.53.256 3.625.412 5.926.412z" fill="#fff" stroke="#AFB4C8" stroke-miterlimit="10"/><path d="M261.54 23.89c0 1.02-3.494 1.848-7.805 1.848s-8.723-.827-8.723-1.847m16.528 4.835c0 1.02-3.494 1.848-7.805 1.848s-8.723-.827-8.723-1.848m16.528 5.76c0 1.02-3.494 1.847-7.805 1.847s-8.723-.827-8.723-1.847m16.528 4.944c0 1.02-3.494 1.848-7.805 1.848s-8.723-.828-8.723-1.848m16.528 5.651c0 1.02-3.494 1.847-7.805 1.847s-8.723-.827-8.723-1.847m16.528 5.868c0 1.02-3.494 1.848-7.805 1.848s-8.723-.828-8.723-1.848" stroke="#AFB4C8" stroke-miterlimit="10" stroke-linecap="round" stroke-dasharray="0.1 2"/><path d="M229.503 502.46v-13.306m22.788 1.817v3.535m24.649 7.954v-14.528" stroke="#AFB4C8"/><path d="M169.511 457.832c-12.712-8.542-38.694-35.171-40.926-73.348" stroke="#AFB4C8" stroke-width="1.5" stroke-miterlimit="10" stroke-linecap="round" stroke-dasharray="0.1 4"/><path d="M179.926 192.279c-.827 0-1.501.685-1.502 1.526l-.004 11.786c0 .565.31 1.081.805 1.336l8.239 4.249c.207.107.437.162.67.162h17.497c.235 0 .467-.056.678-.165l8.223-4.24c.505-.261.824-.788.824-1.361v-11.795c0-.829-.658-1.498-1.474-1.498h-33.956z" fill="#fff" stroke="#AFB4C8" stroke-miterlimit="10"/><path d="M188.121 188.078l-.004.504.004-.504c-.207 0-.413.044-.604.129l-7.787 3.495c-1.186.532-1.199 2.237-.021 2.766l7.804 3.502c.188.084.391.128.598.128h17.553c.208 0 .414-.044.604-.13l7.787-3.494c1.187-.533 1.2-2.238.021-2.767l-7.803-3.502a1.466 1.466 0 0 0-.598-.127h-17.554z" fill="#fff" stroke="#AFB4C8" stroke-miterlimit="10"/><path d="M207.368 191.705c0 1.489-4.725 2.696-10.554 2.696-5.828 0-10.553-1.207-10.553-2.696v-8.625c3.61 0 16.122-2.438 21.107 0v8.625z" fill="#fff" stroke="#AFB4C8" stroke-miterlimit="10"/><path d="M207.367 187.932c0 1.488-4.725 2.695-10.553 2.695-5.828 0-10.553-1.207-10.553-2.695" stroke="#AFB4C8" stroke-miterlimit="10" stroke-linecap="round" stroke-dasharray="0.1 2"/><ellipse cx="196.812" cy="183.08" rx="10.553" ry="2.695" fill="#fff" stroke="#AFB4C8" stroke-miterlimit="10"/><path d="M188.112 198.109v12.792m17.673-12.281v12.792" stroke="#AFB4C8" stroke-miterlimit="10" stroke-linecap="round" stroke-dasharray="0.1 2"/></svg>