<svg width="1105" height="665" fill="none" xmlns="http://www.w3.org/2000/svg"><mask id="a" maskUnits="userSpaceOnUse" x="0" y="0" width="1348" height="666"><path d="M1215 144l132 521-240-55.057H780L294 600 2 508.5 68.5 467l89-12.5-17.5-98-96-20 10-35 50-31-35.5-11L51 230.211l309-61.535L354 89 709 1l506 143z" fill="#C4C4C4" stroke="#000" stroke-width="1.2"/></mask><g mask="url(#a)" stroke="#D6D8DF" stroke-width="1.2" stroke-miterlimit="10" stroke-linecap="round" stroke-dasharray="0.1 4"><path d="M-2062-25.622L273.651 616.633M-1862-25.622L473.651 616.633M-2262-25.622L73.65 616.633M327.002-25.622L2662.65 616.633M527.002-25.622L2862.65 616.633M127.002-25.622L2462.65 616.633M-272.998-25.622L2062.65 616.633M-72.998-25.622L2262.65 616.633M-472.998-25.622L1862.65 616.633M-872.998-25.622L1462.65 616.633M-672.998-25.622L1662.65 616.633M-1063-25.622l2335.65 642.255M-1463-25.622L872.651 616.633M-1263-25.622l2335.65 642.255M-1663-25.622L672.651 616.633M872.648-25.622L-1463 616.633M672.648-25.622L-1663 616.633M1072.65-25.622L-1263 616.633M1472.65-25.622L-863 616.633M1272.65-25.622L-1063 616.633M1672.65-25.622L-663 616.633M2072.65-25.622L-263 616.633M1872.65-25.622L-463 616.633M2262.65-25.622L-73 616.633M2662.65-25.622L327 616.633M2462.65-25.622L127 616.633M2862.65-25.622L527 616.633M273.648-25.622L-2062 616.633M73.648-25.622L-2262 616.633M473.648-25.622L-1862 616.633"/></g></svg>