<svg width="109" height="171" fill="none" xmlns="http://www.w3.org/2000/svg"><path fill="#fff" stroke="#AFB4C8" d="M2.5 119.5h9v48h-9zm0 10h-2v28h2zm15 21.466v-14.932l-6-5.848v26.628l6-5.848zm0-14.466h22v14h-22z"/><path fill="#fff" stroke="#AFB4C8" d="M35.5 121.5h39v43h-39z"/><path fill="#fff" stroke="#AFB4C8" d="M41.5 133.5h27v23h-27zm-6-5h39v-7h-39zm7-7h25v-9h-25zm-5-76.5a1.5 1.5 0 0 1 1.5-1.5h32a1.5 1.5 0 0 1 1.5 1.5v47.5h-35V45zm1.028-1.5a4.5 4.5 0 0 1 4.472-4h24a4.5 4.5 0 0 1 4.472 4H38.528zm-19.028 69h71v-10h-71zm0-10h71v-10h-71z"/><path fill="#fff" stroke="#AFB4C8" d="M38.5 117.5h8v4h-8z"/><path fill="#fff" stroke="#AFB4C8" d="M40.5 117.5h4v4h-4zm9-82h12v4h-12z"/><path fill="#fff" stroke="#AFB4C8" d="M52.5 35.5h6v4h-6zm-14 129h8v4h-8z"/><path fill="#fff" stroke="#AFB4C8" d="M40.5 164.5h4v4h-4zm23 0h8v4h-8z"/><path fill="#fff" stroke="#AFB4C8" d="M65.5 164.5h4v4h-4zm-2-47h8v4h-8z"/><path fill="#fff" stroke="#AFB4C8" d="M65.5 117.5h4v4h-4z"/><path d="M18 146.5h17" stroke="#AFB4C8"/><path fill="#fff" stroke="#AFB4C8" d="M106.5 119.5h-9v48h9zm0 10h2v28h-2zm-15 21.466v-14.932l6-5.848v26.628l-6-5.848zm0-14.466h-17v14h17z"/><path d="M91.5 146.5h-17m-27.5-7h16m-16 3h16m-16 3h16m-16 3h11" stroke="#AFB4C8"/><path fill="#fff" stroke="#AFB4C8" d="M40.5 168.5h4v2h-4zm25 0h4v2h-4zm-25-53h4v2h-4zm-18-27h8v4h-8z"/><path fill="#fff" stroke="#AFB4C8" d="M24.5 88.5h4v4h-4zm0-2h4v2h-4zm16 2h8v4h-8z"/><path fill="#fff" stroke="#AFB4C8" d="M42.5 88.5h4v4h-4zm0-2h4v2h-4zm19 2h8v4h-8z"/><path fill="#fff" stroke="#AFB4C8" d="M63.5 88.5h4v4h-4zm-12-88h8v4h-8z"/><path fill="#fff" stroke="#AFB4C8" d="M53.5.5h4v4h-4zm10 86h4v2h-4zm16 2h8v4h-8z"/><path fill="#fff" stroke="#AFB4C8" d="M81.5 88.5h4v4h-4zm0-2h4v2h-4zm-16 29h4v2h-4zm-13-111h6v31h-6z"/><path d="M45.5 44v42" stroke="#AFB4C8"/></svg>