<svg width="80" height="170" fill="none" xmlns="http://www.w3.org/2000/svg"><path fill="#fff" stroke="#AFB4C8" d="M24.5 65.5h31v34h-31zm0 70h31v34h-31zm-4-70h39v-8h-39z"/><path fill="#fff" stroke="#AFB4C8" d="M20.5 65.5h39v-8h-39zm0-29h39v-4h-39zm3-4h33v-14h-33z"/><path fill="#fff" stroke="#AFB4C8" d="M23.5 16.5h33v3h-33zm9-3h15v3h-15zm-32 9h23v4H.5zm50-8h4v2h-4zm-25 0h4v2h-4z"/><circle cx="40" cy="119" r="39.5" fill="#fff" stroke="#AFB4C8"/><path d="M55.5 74.647C50.733 72.942 45.496 72 40 72s-10.733.942-15.5 2.647" stroke="#AFB4C8"/><circle cx="40" cy="119" r="23.5" fill="#fff" stroke="#AFB4C8"/><circle cx="40" cy="119" r="15.5" fill="#fff" stroke="#AFB4C8"/><circle cx="40" cy="119" r="11.5" fill="#F6F6F6" stroke="#AFB4C8"/><path d="M26.353 92.915a2.5 2.5 0 1 0-4.707-1.685 2.5 2.5 0 0 0 4.707 1.684zM15.19 104.678a2.5 2.5 0 1 0-4.707-1.685 2.5 2.5 0 0 0 4.706 1.685zm-4 15a2.5 2.5 0 1 0-4.707-1.685 2.5 2.5 0 0 0 4.706 1.685zm42.293-26.763a2.5 2.5 0 1 1 4.708-1.685 2.5 2.5 0 0 1-4.708 1.684zm11.164 11.763a2.501 2.501 0 0 1 4.707-1.685 2.5 2.5 0 0 1-4.707 1.685zm5 15a2.501 2.501 0 0 1 4.707-1.685 2.5 2.5 0 0 1-4.707 1.685zm-27.457-31a2.5 2.5 0 1 0-4.709-1.685 2.5 2.5 0 0 0 4.708 1.685zm11.293 57.078a2.5 2.5 0 1 0 4.707 1.684 2.5 2.5 0 0 0-4.707-1.684zm11.164-11.763a2.5 2.5 0 1 0 4.707 1.685 2.5 2.5 0 0 0-4.707-1.685zm-38.294 11.763a2.5 2.5 0 1 1-4.707 1.685 2.5 2.5 0 0 1 4.707-1.685zM15.19 133.993a2.5 2.5 0 1 1-4.708 1.684 2.5 2.5 0 0 1 4.707-1.684zm22.457 16a2.5 2.5 0 1 0 4.707 1.685 2.5 2.5 0 0 0-4.707-1.685z" fill="#fff" stroke="#AFB4C8"/><rect x="14.5" y="36.5" width="51" height="21" rx="3.5" fill="#fff" stroke="#AFB4C8"/><rect x="17.5" y="39.5" width="45" height="15" rx="1.5" fill="#F6F6F6" stroke="#AFB4C8"/><path fill="#fff" stroke="#AFB4C8" d="M30.5 46.5h19v11h-19z"/><path fill="#F6F6F6" stroke="#AFB4C8" d="M30.5 54.5h19v3h-19z"/><path fill="#fff" stroke="#AFB4C8" d="M38.5 54.5h3v3h-3zm-16-3h5v3h-5zm30 0h5v3h-5z"/><path fill="#fff" stroke="#AFB4C8" d="M52.5 51.5h5v3h-5zm-16-8h7v3h-7z"/><path fill="#fff" stroke="#AFB4C8" d="M38.5 43.5h3v3h-3zm-17-4h7v3h-7z"/><path fill="#fff" stroke="#AFB4C8" d="M23.5 39.5h3v3h-3zm28 0h7v3h-7z"/><path fill="#fff" stroke="#AFB4C8" d="M53.5 39.5h3v3h-3zm-33-7h19v-3h-19zm20 0h19v-3h-19z"/><path fill="#fff" stroke="#AFB4C8" d="M43.5 32.5h-7v-3h7z"/><circle cx="29.5" cy="24.5" r="2" fill="#fff" stroke="#AFB4C8"/><circle cx="50.5" cy="24.5" r="2" fill="#fff" stroke="#AFB4C8"/></svg>