<svg width="261" height="227" fill="none" xmlns="http://www.w3.org/2000/svg"><path d="M185.143 110.33a24.068 24.068 0 0 0-4.056 1.372c-15.768 6.889-28.55 30.346-28.55 52.393 0 10.354 2.819 18.555 7.442 23.629" stroke="#AFB4C8" stroke-width=".451" stroke-miterlimit="10"/><path d="M167.917 211.609c-16.523-.262-28.471-16.62-28.471-42.037 0-31.568 18.431-65.155 41.166-75.018 5.045-2.188 9.877-3.025 14.343-2.658a23.46 23.46 0 0 1 10.741 3.608" stroke="#AFB4C8" stroke-width=".451" stroke-miterlimit="10" stroke-linecap="square"/><path d="M145.679 206.109c-13.426-3.607-22.63-18.948-22.63-41.268 0-31.6 18.45-65.22 41.209-75.094 5.504-2.388 10.755-3.168 15.555-2.532" stroke="#AFB4C8" stroke-width=".677" stroke-miterlimit="10" stroke-linecap="round" stroke-dasharray="0.05 1.8"/><path d="M161.98 210.421l-37.033-10.148c-13.307-3.631-22.422-18.873-22.422-41.025 0-19.615 6.764-39.378 17.639-54.33" stroke="#AFB4C8" stroke-width=".451" stroke-miterlimit="10"/><path d="M113.831 109.375c-8.321 14.026-13.935 32.143-13.935 48.923.611 13.527 4.501 25.091 10.709 32.461M93.75 103.013c-7.998 13.486-13.024 30.168-13.024 46.299 0 16.733 5.408 29.366 13.93 35.708 0 0 2.157 1.826 4.506 3.196" stroke="#AFB4C8" stroke-width=".677" stroke-miterlimit="10" stroke-linecap="round" stroke-dasharray="0.05 1.8"/><path d="M83.89 180.283C74.826 175 68.941 162.67 68.941 145.878c0-19.189 7.686-39.22 19.017-52.729l1.758-1.336m-37.701 65.846c-6.072-4.631-9.916-13.72-9.916-25.723 0-21.88 12.775-45.16 28.533-51.996 2.069-.898 4.085-1.467 6.029-1.73" stroke="#AFB4C8" stroke-width=".677" stroke-miterlimit="10" stroke-linecap="round" stroke-dasharray="0.05 1.8"/><path d="M89.056 80.805L78.5 77.943l-2.92-.924c-3.34-.496-7.009.021-10.858 1.692-15.521 6.733-28.104 29.663-28.104 51.214 0 13.528 4.958 23.298 12.49 27.031 0 0 6.536 1.486 11.332 5.382 4.796 3.896 23.415 18.176 26.035 19.844 3.68 2.341 10.862 5.885 15.646 6.834 4.784.949 6.82 1.054 6.82 1.054" stroke="#AFB4C8" stroke-width=".451" stroke-miterlimit="10"/><path d="M57.832 160.722c-17.655 7.687-31.967-6.025-31.967-30.626 0-24.602 14.312-50.776 31.967-58.463C68.158 67.137 77.34 69.96 83.184 78" stroke="#AFB4C8" stroke-width=".677" stroke-miterlimit="10" stroke-linecap="round" stroke-dasharray="0.05 1.8"/><path d="M68.944 169.869c-3.808 3.122-7.821 5.649-11.966 7.447-24.609 10.676-44.558-8.368-44.558-42.537 0-34.168 19.95-70.522 44.558-81.197 15.375-6.67 28.93-1.74 36.939 11.232" stroke="#AFB4C8" stroke-width=".451" stroke-miterlimit="10" stroke-linecap="round"/><path d="M35.44 178.964l-14.413-3.778C8.954 169.251 1 153.624 1 131.968c0-34.426 20.1-71.055 44.895-81.811 6.723-2.917 13.102-3.632 18.827-2.438l14.424 4.1" stroke="#AFB4C8" stroke-width=".451" stroke-miterlimit="10"/><path d="M100.138 188.52s1.239 2.132 1.374 3.795" stroke="#AFB4C8" stroke-width=".451" stroke-miterlimit="10" stroke-linecap="round" stroke-dasharray="0.05 0.9"/><path d="M96.87 187.386s1.136 4.478.731 7.642c-.404 3.165 10.305 11.019 25.245 11.269 14.94.249 20.565-.996 20.565-.996" stroke="#AFB4C8" stroke-width=".451" stroke-miterlimit="10"/><path d="M97.475 190.628s1.88 1.742 6.599 2.248c4.72.507 9.899 2.722 9.899 2.722" stroke="#AFB4C8" stroke-width=".451" stroke-miterlimit="10"/><path d="M113.341 193.073s1.021 6.891 6.8 9.549c5.779 2.658 9.555 3.674 9.555 3.674" stroke="#AFB4C8" stroke-width=".451" stroke-miterlimit="10"/><path d="M135.011 203.171l-.865 3.126m-11.3-2.662l1.052-3.549" stroke="#AFB4C8" stroke-width=".451" stroke-miterlimit="10" stroke-linecap="round" stroke-dasharray="0.05 0.9"/><path d="M146.095 206.178s-11.95 2.836-21.255 2.646c-9.237-.189-16.451-3.403-16.451-3.403s-1.011-1.787-3.225-3.308" stroke="#AFB4C8" stroke-width=".451" stroke-miterlimit="10" stroke-linejoin="round"/><path d="M111.992 192.415c-6.568-2.58-14.32-22.293-14.32-36.2 0-15.656 5.304-32.381 12.876-45.667" stroke="#AFB4C8" stroke-width=".451" stroke-miterlimit="10" stroke-linecap="square"/><path d="M89.11 78.052l.266 12.051s1.13 10.509 11.95 15.853c2.883 1.424 7.3 2.505 9.419 2.5 1.965-.005 3.443-2.278 3.848-2.911.405-.633 2.194-3.257 9.44-4.514 11.192-1.941 27.802-8.311 27.802-8.311l14.778-6.568 4.457-2.346" stroke="#AFB4C8" stroke-width=".451" stroke-miterlimit="10"/><path d="M89.376 87.003s-2.292 4.24-.674 7.784c1.618 3.544 4.914 10.272 12.137 13.674 6.573 3.096 11.965 2.784 13.889 0 1.459-2.111 2.747-2.982 8.844-4.293 8.012-1.724 27.86-8.654 30.532-9.952 1.312-.638 16.274-6.77 18.251-9.175l24.992 7.071" stroke="#AFB4C8" stroke-width=".451" stroke-miterlimit="10"/><path d="M155.381 57.735c6.922 2.456 11.239 5.928 11.239 9.776 0 7.445-16.154 13.48-36.081 13.48-19.926 0-36.08-6.035-36.08-13.48 0-3.881 4.39-7.38 11.418-9.839" stroke="#AFB4C8" stroke-width=".451" stroke-miterlimit="10" stroke-linecap="round"/><path d="M94.256 66.182v8.892c0 7.567 16.22 13.7 36.227 13.7 19.136 0 34.806-5.61 36.136-12.72v-9.112" stroke="#AFB4C8" stroke-width=".451" stroke-miterlimit="10" stroke-linecap="round"/><path d="M166.621 71.668c2.295 1.756 3.572 3.705 3.572 5.757 0 7.737-18.15 14.008-40.541 14.008-22.39 0-40.541-6.272-40.541-14.008 0-2.378 1.715-4.618 4.742-6.58" stroke="#AFB4C8" stroke-width=".451" stroke-miterlimit="10" stroke-linecap="round"/><path d="M105.877 50.614v14.41c-1.327.988-1.656 2.075-1.656 3.215 0 4.561 11.74 8.258 26.222 8.258 14.482 0 26.222-3.697 26.222-8.258 0-1.14-.33-2.227-1.657-3.215v-12.89" stroke="#AFB4C8" stroke-width=".451" stroke-miterlimit="10" stroke-linecap="round"/><path d="M154.777 65.963c0 4.245-10.927 7.687-24.407 7.687s-24.408-3.442-24.408-7.687" stroke="#AFB4C8" stroke-width=".677" stroke-miterlimit="10" stroke-linecap="round" stroke-dasharray="0.05 1.8"/><path d="M138.461 7.566c16.698 1.151 29.303 6.359 29.303 12.61 0 7.094-16.242 12.846-36.277 12.846S95.21 27.27 95.21 20.175c0-6.256 12.627-11.467 29.349-12.613" stroke="#AFB4C8" stroke-width=".451" stroke-miterlimit="10"/><path d="M167.764 27.01c0 7.095-16.242 12.846-36.277 12.846S95.21 34.105 95.21 27.01" stroke="#AFB4C8" stroke-width=".677" stroke-miterlimit="10" stroke-linecap="round" stroke-dasharray="0.05 1.8"/><path d="M167.764 37.831c0 7.095-16.242 12.847-36.277 12.847S95.21 44.926 95.21 37.831" stroke="#AFB4C8" stroke-width=".677" stroke-miterlimit="10" stroke-linecap="round" stroke-dasharray="0.05 1.8"/><path d="M95.21 20.175V39.73c0 7.095 16.242 12.846 36.277 12.846s36.277-5.751 36.277-12.846V20.175" stroke="#AFB4C8" stroke-width=".451" stroke-miterlimit="10"/><path d="M130.684 57.103c9.132 0 18.861-1.69 23.62-4.843 3.041-2.014 5.814-3.83 6.912-5.048" stroke="#AFB4C8" stroke-width=".451" stroke-miterlimit="10" stroke-linecap="round"/><path d="M132.168 57.103c-9.132 0-18.861-1.69-23.62-4.843-3.041-2.014-6.049-4.065-7.148-5.283m29.361 12.403c7.949 0 16.416-1.767 20.559-4.187a29.864 29.864 0 0 0 3.562-2.437" stroke="#AFB4C8" stroke-width=".451" stroke-miterlimit="10" stroke-linecap="round"/><path d="M132.053 59.38c-7.949 0-16.416-1.297-20.559-3.718-2.646-1.547-4.448-3.123-5.404-4.058m32.586-39.818c9.691 1.109 16.708 4.36 16.708 8.2 0 4.752-10.76 8.606-24.034 8.606-13.273 0-24.034-3.854-24.034-8.607 0-3.908 7.273-7.207 17.236-8.257" stroke="#AFB4C8" stroke-width=".451" stroke-miterlimit="10" stroke-linecap="round"/><path d="M124.416 17.692c-1.775.635-2.872 1.513-2.872 2.483 0 1.94 4.391 3.512 9.807 3.512s9.807-1.572 9.807-3.512c0-.873-.889-1.671-2.361-2.286" stroke="#AFB4C8" stroke-width=".451" stroke-miterlimit="10" stroke-linecap="round"/><path d="M127.941 6.252V22.58l-3.236-3.038V3.215l3.236 3.037z" stroke="#AFB4C8" stroke-width=".451" stroke-miterlimit="10"/><path d="M129.081 22.77l8.773-.95V5.493l-8.697.95V22.77h-1.214" stroke="#AFB4C8" stroke-width=".451" stroke-miterlimit="10" stroke-linecap="round" stroke-dasharray="0.05 0.9"/><path d="M124.705 3.215l1.214-1.266L134.751 1l3.102 3.227.809.696v16.328l-.809.57" stroke="#AFB4C8" stroke-width=".451" stroke-miterlimit="10"/><mask id="a" maskUnits="userSpaceOnUse" x="15" y="53" width="82" height="125"><path fill-rule="evenodd" clip-rule="evenodd" d="M66.88 65.514c2.29-1.008 4.146-4.442 4.146-7.67 0-3.228-1.856-5.027-4.145-4.018-2.29 1.008-4.146 4.442-4.146 7.67 0 3.228 1.856 5.027 4.146 4.018zm-14.836.75c0 3.227-1.856 6.662-4.146 7.67s-4.145-.79-4.145-4.019c0-3.227 1.856-6.662 4.145-7.67 2.29-1.008 4.145.79 4.145 4.018zm-17.268 21.3c0 3.228-1.856 6.662-4.145 7.67-2.29 1.01-4.146-.79-4.146-4.018 0-3.227 1.857-6.662 4.146-7.67 2.29-1.009 4.145.79 4.145 4.018zm53.238-23.403c0 3.227-1.856 6.662-4.145 7.67-2.29 1.009-4.146-.79-4.146-4.018 0-3.228 1.856-6.662 4.146-7.67 2.29-1.01 4.145.79 4.145 4.018zm4.472 55.245c2.29-1.009 4.145-4.443 4.145-7.67 0-3.228-1.856-5.027-4.145-4.019-2.29 1.009-4.145 4.443-4.145 7.671 0 3.227 1.856 5.027 4.145 4.018zm-6.237 20.358c0 3.228-1.856 6.662-4.146 7.67-2.29 1.009-4.145-.79-4.145-4.018 0-3.228 1.856-6.662 4.145-7.671 2.29-1.008 4.146.791 4.146 4.019zm-21.151 28.991c2.29-1.009 4.145-4.443 4.145-7.671 0-3.228-1.855-5.027-4.145-4.018-2.29 1.009-4.145 4.443-4.145 7.671 0 3.227 1.856 5.026 4.145 4.018zm-15.096.644c0 3.228-1.856 6.662-4.145 7.67-2.29 1.009-4.145-.79-4.145-4.018 0-3.228 1.856-6.662 4.145-7.67 2.29-1.009 4.145.79 4.145 4.018zm-20.339 1.546c2.29-1.009 4.146-4.443 4.146-7.671 0-3.227-1.856-5.027-4.146-4.018-2.29 1.009-4.145 4.443-4.145 7.67 0 3.228 1.856 5.027 4.145 4.019zm-5.361-27.109c0 3.227-1.856 6.661-4.146 7.67-2.289 1.009-4.145-.791-4.145-4.018 0-3.228 1.856-6.662 4.145-7.671 2.29-1.008 4.146.791 4.146 4.019zm-3.197-20.06c2.29-1.009 4.145-4.443 4.145-7.671 0-3.228-1.855-5.027-4.145-4.018-2.29 1.008-4.145 4.442-4.145 7.67 0 3.228 1.855 5.027 4.145 4.019z" fill="#CED2DC"/><path d="M66.88 53.826l-.09-.207.09.207zM47.899 73.934l.091.206-.09-.206zm0-11.689l-.09-.206.09.206zM30.631 83.547l.09.206-.09-.206zm53.238-11.715l-.091-.206.09.206zm0-11.689l.09.207-.09-.207zm8.617 59.264l.091.206-.091-.206zm0-11.689l-.09-.206.09.206zm-10.383 39.717l.091.207-.09-.207zm0-11.689l.091.207-.09-.207zm-17.005 21.321l.09.206-.09-.206zm-19.24 8.315l-.092-.207.091.207zm-16.195-6.125l-.09-.206.09.206zm-9.507-7.75l.091.207-.09-.207zm0-11.689l.091.207-.09-.207zm5.094-23.712h-.225.225zm-4.145 7.671l.09.206-.09-.206zm0-11.689l-.091-.207.091.207zM70.8 57.844c0 1.573-.453 3.202-1.187 4.56-.736 1.362-1.74 2.427-2.823 2.904l.182.413c1.206-.531 2.274-1.688 3.038-3.102.767-1.418 1.242-3.12 1.242-4.775H70.8zm-3.828-3.812c1.068-.47 2.005-.281 2.683.376.692.67 1.145 1.86 1.145 3.436h.452c0-1.651-.474-2.976-1.283-3.76-.822-.797-1.958-1.003-3.18-.465l.183.413zm-4.011 7.464c0-1.573.453-3.202 1.187-4.56.736-1.362 1.74-2.427 2.824-2.904l-.182-.413c-1.206.531-2.275 1.688-3.039 3.102-.766 1.418-1.241 3.12-1.241 4.775h.45zm3.829 3.812c-1.069.47-2.005.281-2.684-.376-.691-.67-1.145-1.86-1.145-3.436h-.451c0 1.651.474 2.976 1.282 3.76.822.797 1.959 1.003 3.18.465l-.182-.413zm-18.8 8.832c1.205-.53 2.273-1.687 3.038-3.102.766-1.418 1.241-3.12 1.241-4.775h-.451c0 1.573-.453 3.202-1.187 4.56-.736 1.362-1.74 2.427-2.824 2.904l.182.413zm-4.463-4.225c0 1.652.474 2.976 1.283 3.76.822.797 1.958 1.003 3.18.465l-.183-.413c-1.068.471-2.005.282-2.683-.376-.692-.67-1.146-1.859-1.146-3.436h-.45zm4.28-7.876c-1.206.53-2.274 1.687-3.038 3.102-.767 1.418-1.242 3.12-1.242 4.774h.451c0-1.573.453-3.201 1.188-4.56.735-1.361 1.74-2.426 2.823-2.904l-.182-.412zm4.462 4.224c0-1.65-.474-2.976-1.282-3.76-.823-.796-1.959-1.002-3.18-.464l.182.413c1.069-.471 2.005-.282 2.683.376.692.67 1.146 1.859 1.146 3.435h.451zm-21.547 29.18c1.206-.532 2.274-1.689 3.038-3.103.767-1.418 1.242-3.12 1.242-4.775h-.451c0 1.573-.453 3.202-1.187 4.56-.736 1.362-1.74 2.427-2.824 2.904l.182.413zm-4.462-4.226c0 1.651.474 2.976 1.283 3.76.822.797 1.958 1.003 3.179.465l-.182-.413c-1.069.47-2.005.282-2.683-.376-.692-.67-1.146-1.859-1.146-3.436h-.451zm4.28-7.877c-1.206.532-2.274 1.688-3.039 3.103-.766 1.417-1.241 3.12-1.241 4.774h.451c0-1.573.453-3.202 1.187-4.56.736-1.362 1.74-2.426 2.824-2.904l-.182-.413zm4.462 4.225c0-1.65-.474-2.976-1.283-3.76-.822-.796-1.958-1.003-3.18-.465l.183.413c1.068-.47 2.005-.281 2.683.376.692.67 1.146 1.86 1.146 3.436H35zM83.96 72.04c1.206-.532 2.274-1.688 3.039-3.103.766-1.418 1.24-3.12 1.24-4.774h-.45c0 1.573-.453 3.201-1.188 4.56-.735 1.362-1.74 2.426-2.823 2.904l.182.412zm-4.462-4.225c0 1.65.474 2.976 1.282 3.76.822.796 1.959 1.002 3.18.465l-.182-.413c-1.069.47-2.005.281-2.683-.377-.692-.67-1.146-1.859-1.146-3.435h-.451zm4.28-7.877c-1.206.531-2.274 1.687-3.039 3.102-.766 1.418-1.241 3.12-1.241 4.775h.451c0-1.573.453-3.202 1.187-4.56.736-1.362 1.74-2.427 2.824-2.904l-.182-.413zm4.462 4.225c0-1.652-.474-2.976-1.283-3.76-.822-.797-1.958-1.003-3.18-.465l.183.413c1.068-.47 2.005-.282 2.683.376.692.67 1.146 1.859 1.146 3.436h.45zm8.166 47.575c0 1.573-.453 3.201-1.187 4.56-.736 1.361-1.74 2.426-2.824 2.903l.182.413c1.206-.531 2.274-1.687 3.039-3.102.766-1.418 1.241-3.12 1.241-4.774h-.451zm-3.829-3.812c1.068-.471 2.005-.282 2.683.376.692.67 1.146 1.859 1.146 3.436h.451c0-1.652-.474-2.976-1.283-3.76-.822-.797-1.958-1.003-3.179-.465l.182.413zm-4.01 7.464c0-1.573.452-3.202 1.186-4.561.736-1.361 1.74-2.426 2.824-2.903l-.182-.413c-1.206.531-2.274 1.687-3.039 3.102-.766 1.418-1.241 3.12-1.241 4.775h.451zm3.828 3.811c-1.068.471-2.005.282-2.683-.376-.692-.67-1.146-1.859-1.146-3.435h-.451c0 1.651.474 2.976 1.283 3.759.822.797 1.958 1.003 3.179.465l-.182-.413zm-10.2 28.442c1.205-.532 2.274-1.688 3.038-3.103.766-1.417 1.241-3.12 1.241-4.774h-.45c0 1.573-.454 3.202-1.188 4.56-.736 1.362-1.74 2.426-2.824 2.904l.182.413zm-4.463-4.225c0 1.651.475 2.976 1.283 3.76.822.796 1.958 1.003 3.18.465l-.183-.413c-1.068.47-2.005.281-2.683-.376-.692-.671-1.145-1.86-1.145-3.436h-.452zm4.28-7.877c-1.206.531-2.274 1.688-3.038 3.102-.767 1.418-1.242 3.12-1.242 4.775h.452c0-1.573.453-3.202 1.187-4.56.736-1.362 1.74-2.427 2.823-2.904l-.182-.413zm4.462 4.225c0-1.651-.474-2.976-1.282-3.76-.822-.797-1.959-1.003-3.18-.465l.182.413c1.069-.471 2.005-.282 2.684.376.691.67 1.145 1.859 1.145 3.436h.451zm-17.456 21.32c0 1.573-.453 3.202-1.187 4.56-.736 1.362-1.74 2.427-2.824 2.904l.182.413c1.206-.531 2.274-1.688 3.039-3.102.766-1.418 1.24-3.12 1.24-4.775h-.45zm-3.83-3.812c1.07-.47 2.006-.281 2.684.376.692.671 1.146 1.86 1.146 3.436h.45c0-1.651-.473-2.976-1.282-3.76-.822-.796-1.958-1.002-3.18-.464l.183.412zm-4.01 7.465c0-1.574.453-3.202 1.187-4.561.736-1.361 1.74-2.426 2.824-2.904l-.182-.412c-1.206.531-2.274 1.687-3.039 3.102-.766 1.418-1.241 3.12-1.241 4.775h.451zm3.829 3.811c-1.068.471-2.005.282-2.683-.376-.692-.67-1.146-1.859-1.146-3.435h-.451c0 1.651.474 2.975 1.283 3.759.822.797 1.958 1.003 3.179.465l-.182-.413zm-19.059 8.728c1.206-.531 2.274-1.688 3.039-3.102.766-1.418 1.241-3.12 1.241-4.775h-.451c0 1.573-.453 3.202-1.187 4.56-.736 1.362-1.74 2.427-2.824 2.904l.182.413zm-4.462-4.225c0 1.651.474 2.976 1.283 3.76.822.797 1.958 1.003 3.179.465l-.182-.413c-1.068.471-2.005.281-2.683-.376-.692-.671-1.146-1.859-1.146-3.436h-.45zm4.28-7.877c-1.206.532-2.274 1.688-3.039 3.102-.766 1.418-1.24 3.12-1.24 4.775h.45c0-1.573.453-3.202 1.187-4.56.736-1.362 1.74-2.427 2.824-2.904l-.182-.413zm4.462 4.225c0-1.651-.474-2.976-1.283-3.76-.822-.796-1.958-1.003-3.179-.465l.182.413c1.068-.47 2.005-.281 2.683.376.692.671 1.146 1.859 1.146 3.436h.451zm-16.645-6.125c0 1.573-.453 3.202-1.187 4.561-.736 1.361-1.74 2.426-2.824 2.903l.182.413c1.206-.531 2.274-1.687 3.039-3.102.766-1.418 1.241-3.12 1.241-4.775h-.451zm-3.829-3.812c1.069-.47 2.005-.281 2.683.377.692.67 1.146 1.859 1.146 3.435h.451c0-1.651-.474-2.976-1.283-3.759-.821-.797-1.958-1.003-3.179-.465l.182.412zm-4.01 7.464c0-1.573.452-3.201 1.186-4.56.736-1.361 1.74-2.426 2.824-2.904l-.182-.412c-1.206.531-2.274 1.687-3.038 3.102-.767 1.418-1.242 3.12-1.242 4.774h.451zm3.828 3.812c-1.068.471-2.005.282-2.683-.376-.692-.67-1.146-1.859-1.146-3.436h-.45c0 1.652.473 2.976 1.282 3.76.822.797 1.958 1.003 3.18.465l-.183-.413zm-9.325-19.025c1.206-.532 2.275-1.688 3.04-3.103.765-1.418 1.24-3.12 1.24-4.774h-.45c0 1.573-.454 3.201-1.188 4.56-.736 1.361-1.74 2.426-2.824 2.904l.182.413zm-4.462-4.225c0 1.651.474 2.976 1.283 3.76.822.796 1.958 1.002 3.18.465l-.183-.413c-1.068.47-2.004.281-2.683-.376-.692-.671-1.145-1.86-1.145-3.436h-.452zm4.28-7.877c-1.206.531-2.274 1.688-3.038 3.102-.767 1.418-1.242 3.12-1.242 4.775h.452c0-1.573.453-3.202 1.187-4.56.736-1.362 1.74-2.427 2.823-2.904l-.182-.413zm4.462 4.225c0-1.652-.474-2.976-1.282-3.76-.822-.797-1.959-1.003-3.18-.465l.182.413c1.069-.471 2.005-.282 2.684.376.691.67 1.145 1.859 1.145 3.436h.451zm.498-27.731c0 1.573-.453 3.202-1.187 4.56-.736 1.362-1.74 2.427-2.824 2.904l.182.413c1.206-.531 2.274-1.688 3.039-3.102.766-1.418 1.241-3.12 1.241-4.775h-.451zm-3.83-3.812c1.07-.47 2.006-.281 2.684.376.692.671 1.146 1.859 1.146 3.436h.451c0-1.651-.474-2.976-1.283-3.76-.822-.796-1.958-1.003-3.179-.465l.182.413zm-4.01 7.464c0-1.573.453-3.202 1.187-4.56.736-1.362 1.74-2.426 2.824-2.904l-.182-.413c-1.206.532-2.274 1.688-3.039 3.103-.766 1.417-1.241 3.119-1.241 4.774h.451zm3.829 3.812c-1.069.471-2.005.282-2.683-.376-.692-.67-1.146-1.859-1.146-3.436h-.451c0 1.651.474 2.976 1.283 3.76.822.797 1.958 1.003 3.179.465l-.182-.413z" fill="#CED2DC"/></mask><g mask="url(#a)" stroke="#AFB4C8" stroke-width=".271" stroke-miterlimit="10"><path d="M33.838 87.089c0 3.228-1.856 6.662-4.145 7.67-2.29 1.009-4.145-.79-4.145-4.018 0-3.228 1.856-6.662 4.145-7.67 2.29-1.009 4.145.79 4.145 4.018zm17.268-21.302c0 3.228-1.856 6.662-4.146 7.67-2.289 1.009-4.145-.79-4.145-4.018 0-3.228 1.856-6.662 4.145-7.67 2.29-1.009 4.146.79 4.146 4.018zm18.982-8.419c0 3.227-1.856 6.662-4.145 7.67-2.29 1.008-4.146-.79-4.146-4.018 0-3.228 1.856-6.662 4.146-7.67 2.29-1.01 4.145.79 4.145 4.018zm16.988 6.317c0 3.228-1.856 6.662-4.145 7.67-2.29 1.01-4.146-.79-4.146-4.018 0-3.227 1.856-6.662 4.146-7.67 2.29-1.009 4.145.79 4.145 4.018zM49.064 168.924c0 3.227-1.856 6.662-4.145 7.67-2.29 1.009-4.145-.79-4.145-4.018 0-3.228 1.856-6.662 4.145-7.671 2.29-1.008 4.145.791 4.145 4.019zm-16.194-6.125c0 3.228-1.855 6.662-4.145 7.67-2.29 1.009-4.145-.79-4.145-4.018 0-3.228 1.856-6.662 4.145-7.67 2.29-1.009 4.146.79 4.146 4.018zm-9.506-19.439c0 3.228-1.856 6.662-4.146 7.671-2.289 1.008-4.145-.791-4.145-4.019s1.856-6.662 4.145-7.67c2.29-1.009 4.146.79 4.146 4.018zm.948-27.73c0 3.228-1.856 6.662-4.145 7.67-2.29 1.009-4.146-.79-4.146-4.018 0-3.228 1.857-6.662 4.146-7.671 2.29-1.008 4.145.791 4.145 4.019z"/></g><path d="M66.88 53.826l-.09-.207.09.207zM47.899 73.934l.091.206-.09-.206zm0-11.689l-.09-.206.09.206zM30.631 83.547l.09.206-.09-.206zm53.238-11.715l-.091-.206.09.206zm0-11.689l.09.207-.09-.207zM45.857 165.382l-.09-.207.09.207zm-16.194-6.125l-.09-.206.09.206zm-9.507-7.75l.091.207-.09-.207zm0-11.689l.091.207-.09-.207zm5.094-23.712h-.225.225zm-4.145 7.671l.09.206-.09-.206zm0-11.689l-.091-.207.091.207zm43.993 56.668l.09.206-.09-.206zM70.8 57.844c0 1.573-.454 3.202-1.188 4.56-.736 1.362-1.74 2.427-2.823 2.904l.182.413c1.206-.531 2.274-1.688 3.038-3.102.767-1.418 1.242-3.12 1.242-4.775H70.8zm-3.83-3.812c1.07-.47 2.005-.281 2.684.376.692.67 1.145 1.86 1.145 3.436h.452c0-1.651-.474-2.976-1.283-3.76-.822-.797-1.958-1.003-3.18-.465l.183.413zm-4.01 7.464c0-1.573.453-3.202 1.187-4.56.736-1.362 1.74-2.427 2.824-2.904l-.182-.413c-1.206.531-2.275 1.688-3.039 3.102-.766 1.418-1.241 3.12-1.241 4.775h.45zm3.829 3.812c-1.069.47-2.005.281-2.684-.376-.691-.67-1.145-1.86-1.145-3.436h-.451c0 1.651.474 2.976 1.282 3.76.822.797 1.959 1.003 3.18.465l-.182-.413zm-18.8 8.832c1.205-.53 2.273-1.687 3.038-3.102.766-1.418 1.241-3.12 1.241-4.775h-.451c0 1.573-.453 3.202-1.187 4.56-.736 1.362-1.74 2.427-2.824 2.904l.182.413zm-4.463-4.225c0 1.652.474 2.976 1.283 3.76.822.797 1.958 1.003 3.18.465l-.183-.413c-1.068.471-2.005.282-2.683-.376-.692-.67-1.146-1.859-1.146-3.436h-.45zm4.28-7.876c-1.206.53-2.274 1.687-3.038 3.102-.767 1.418-1.242 3.12-1.242 4.774h.451c0-1.573.453-3.201 1.188-4.56.735-1.361 1.74-2.426 2.823-2.904l-.182-.412zm4.462 4.224c0-1.65-.474-2.976-1.282-3.76-.823-.796-1.959-1.002-3.18-.464l.182.413c1.069-.471 2.005-.282 2.683.376.692.67 1.146 1.859 1.146 3.435h.451zm-21.547 29.18c1.206-.532 2.274-1.689 3.038-3.103.767-1.418 1.242-3.12 1.242-4.775h-.451c0 1.573-.453 3.202-1.187 4.56-.736 1.362-1.74 2.427-2.824 2.904l.182.413zm-4.462-4.226c0 1.651.474 2.976 1.283 3.76.822.797 1.958 1.003 3.179.465l-.182-.413c-1.069.47-2.005.282-2.683-.376-.692-.67-1.146-1.859-1.146-3.436h-.451zm4.28-7.877c-1.206.532-2.274 1.688-3.039 3.103-.766 1.417-1.241 3.12-1.241 4.774h.451c0-1.573.453-3.202 1.187-4.56.736-1.362 1.74-2.426 2.824-2.904l-.182-.413zm4.462 4.225c0-1.65-.474-2.976-1.283-3.76-.822-.796-1.958-1.003-3.18-.465l.183.413c1.068-.47 2.005-.281 2.683.376.692.67 1.146 1.86 1.146 3.436H35zM83.96 72.04c1.206-.532 2.274-1.688 3.039-3.103.766-1.418 1.24-3.12 1.24-4.774h-.45c0 1.573-.453 3.201-1.188 4.56-.735 1.362-1.74 2.426-2.823 2.904l.182.412zm-4.462-4.225c0 1.65.474 2.976 1.282 3.76.822.796 1.959 1.002 3.18.465l-.182-.413c-1.069.47-2.005.281-2.683-.377-.692-.67-1.146-1.859-1.146-3.435h-.451zm4.28-7.877c-1.206.531-2.274 1.687-3.039 3.102-.766 1.418-1.241 3.12-1.241 4.775h.451c0-1.573.453-3.202 1.187-4.56.736-1.362 1.74-2.427 2.824-2.904l-.182-.413zm4.462 4.225c0-1.652-.474-2.976-1.283-3.76-.822-.797-1.958-1.003-3.18-.465l.183.413c1.068-.47 2.005-.282 2.683.376.692.67 1.146 1.859 1.146 3.436h.45zM45.948 177.277c1.206-.531 2.274-1.688 3.039-3.102.766-1.418 1.241-3.12 1.241-4.775h-.451c0 1.573-.453 3.202-1.187 4.56-.736 1.362-1.74 2.427-2.824 2.904l.182.413zm-4.462-4.225c0 1.651.474 2.976 1.283 3.76.822.797 1.958 1.003 3.179.465l-.182-.413c-1.068.471-2.005.281-2.683-.376-.692-.671-1.146-1.859-1.146-3.436h-.45zm4.28-7.877c-1.206.532-2.274 1.688-3.039 3.102-.766 1.418-1.24 3.12-1.24 4.775h.45c0-1.573.453-3.202 1.187-4.56.736-1.362 1.74-2.427 2.824-2.904l-.182-.413zm4.462 4.225c0-1.651-.474-2.976-1.283-3.76-.822-.796-1.958-1.003-3.179-.465l.182.413c1.068-.47 2.005-.281 2.683.376.692.671 1.146 1.859 1.146 3.436h.451zm-16.645-6.125c0 1.573-.453 3.202-1.187 4.561-.736 1.361-1.74 2.426-2.824 2.903l.182.413c1.206-.531 2.274-1.687 3.039-3.102.766-1.418 1.241-3.12 1.241-4.775h-.451zm-3.829-3.812c1.069-.47 2.005-.281 2.683.377.692.67 1.146 1.859 1.146 3.435h.451c0-1.651-.474-2.976-1.283-3.759-.821-.797-1.958-1.003-3.179-.465l.182.412zm-4.01 7.464c0-1.573.452-3.201 1.186-4.56.736-1.361 1.74-2.426 2.824-2.904l-.182-.412c-1.206.531-2.274 1.687-3.038 3.102-.767 1.418-1.242 3.12-1.242 4.774h.451zm3.828 3.812c-1.068.471-2.005.282-2.683-.376-.692-.67-1.146-1.859-1.146-3.436h-.45c0 1.652.473 2.976 1.282 3.76.822.797 1.958 1.003 3.18.465l-.183-.413zm-9.325-19.025c1.206-.532 2.275-1.688 3.04-3.103.765-1.418 1.24-3.12 1.24-4.774h-.45c0 1.573-.454 3.201-1.188 4.56-.736 1.361-1.74 2.426-2.824 2.904l.182.413zm-4.462-4.225c0 1.651.474 2.976 1.283 3.76.822.796 1.958 1.002 3.18.465l-.183-.413c-1.068.47-2.004.281-2.683-.376-.692-.671-1.145-1.86-1.145-3.436h-.452zm4.28-7.877c-1.206.531-2.274 1.688-3.038 3.102-.767 1.418-1.242 3.12-1.242 4.775h.452c0-1.573.453-3.202 1.187-4.56.736-1.362 1.74-2.427 2.823-2.904l-.182-.413zm4.462 4.225c0-1.652-.474-2.976-1.282-3.76-.822-.797-1.959-1.003-3.18-.465l.182.413c1.069-.471 2.005-.282 2.684.376.691.67 1.145 1.859 1.145 3.436h.451zm.498-27.731c0 1.573-.453 3.202-1.187 4.56-.736 1.362-1.74 2.427-2.824 2.904l.182.413c1.206-.531 2.274-1.688 3.039-3.102.766-1.418 1.241-3.12 1.241-4.775h-.451zm-3.83-3.812c1.07-.47 2.006-.281 2.684.376.692.671 1.146 1.859 1.146 3.436h.451c0-1.651-.474-2.976-1.283-3.76-.822-.796-1.958-1.003-3.179-.465l.182.413zm-4.01 7.464c0-1.573.453-3.202 1.187-4.56.736-1.362 1.74-2.426 2.824-2.904l-.182-.413c-1.206.532-2.274 1.688-3.039 3.103-.766 1.417-1.241 3.119-1.241 4.774h.451zm3.829 3.812c-1.069.471-2.005.282-2.683-.376-.692-.67-1.146-1.859-1.146-3.436h-.451c0 1.651.474 2.976 1.283 3.76.822.797 1.958 1.003 3.179.465l-.182-.413zm43.993 44.979c-1.068.471-2.005.282-2.683-.376-.692-.67-1.146-1.859-1.146-3.435h-.451c0 1.651.474 2.975 1.283 3.759.822.797 1.958 1.003 3.179.465l-.182-.413zm1.781-1.381c-.543.624-1.15 1.103-1.781 1.381l.182.413c.707-.311 1.364-.837 1.94-1.498l-.34-.296zm-5.61-2.43c0-.532.052-1.071.15-1.604l-.445-.081a9.41 9.41 0 0 0-.156 1.685h.451z" fill="#AFB4C8"/><path d="M148.605 147.27l3.859 1.066a.452.452 0 0 1 .318.545l-2.943 11.77-4.236-1.263-2.567-3.897 1.555-6.088 4.014-2.133z" fill="#fff" stroke="#AFB4C8" stroke-width=".451" stroke-miterlimit="10"/><path d="M148.017 157.034l-4.54-1.309m5.708-4.79l-4.541-1.309" stroke="#AFB4C8" stroke-width=".451" stroke-miterlimit="10" stroke-linecap="round" stroke-dasharray="0.05 0.9"/><path d="M152.539 148.774a.452.452 0 0 1 .589.15l2.341 3.555-1.555 6.087-4.014 2.134-2.566-3.898 1.554-6.087 3.651-1.941zm-4.873 24.299l3.859 1.067a.451.451 0 0 1 .318.544l-2.943 11.771-4.236-1.263-2.567-3.898 1.555-6.087 4.014-2.134z" fill="#fff" stroke="#AFB4C8" stroke-width=".451" stroke-miterlimit="10"/><path d="M147.078 182.838l-4.54-1.309m5.708-4.791l-4.541-1.308" stroke="#AFB4C8" stroke-width=".451" stroke-miterlimit="10" stroke-linecap="round" stroke-dasharray="0.05 0.9"/><path d="M151.6 174.578a.45.45 0 0 1 .589.15l2.341 3.554-1.555 6.088-4.014 2.133-2.566-3.897 1.554-6.088 3.651-1.94zm4.511 16.323l3.86 1.066a.453.453 0 0 1 .318.545l-2.943 11.771-4.236-1.263-2.567-3.898 1.554-6.087 4.014-2.134z" fill="#fff" stroke="#AFB4C8" stroke-width=".451" stroke-miterlimit="10"/><path d="M155.524 200.665l-4.541-1.308m5.708-4.791l-4.541-1.308" stroke="#AFB4C8" stroke-width=".451" stroke-miterlimit="10" stroke-linecap="round" stroke-dasharray="0.05 0.9"/><path d="M160.046 192.406a.45.45 0 0 1 .589.15l2.341 3.554-1.555 6.087-4.014 2.134-2.567-3.897 1.555-6.088 3.651-1.94zm-2.528-70.94l3.859 1.066a.453.453 0 0 1 .318.545l-2.943 11.771-4.236-1.264-2.566-3.897 1.554-6.087 4.014-2.134z" fill="#fff" stroke="#AFB4C8" stroke-width=".451" stroke-miterlimit="10"/><path d="M156.931 131.23l-4.541-1.308m5.708-4.791l-4.541-1.308" stroke="#AFB4C8" stroke-width=".451" stroke-miterlimit="10" stroke-linecap="round" stroke-dasharray="0.05 0.9"/><path d="M161.453 122.97a.45.45 0 0 1 .588.151l2.341 3.554-1.554 6.087-4.014 2.134-2.567-3.897 1.554-6.088 3.652-1.941zm12.486-20.739l3.86 1.066a.45.45 0 0 1 .317.544l-2.943 11.771-4.235-1.263-2.567-3.897 1.554-6.088 4.014-2.133z" fill="#fff" stroke="#AFB4C8" stroke-width=".451" stroke-miterlimit="10"/><path d="M173.352 111.995l-4.541-1.309m5.708-4.79l-4.54-1.309" stroke="#AFB4C8" stroke-width=".451" stroke-miterlimit="10" stroke-linecap="round" stroke-dasharray="0.05 0.9"/><path d="M177.874 103.735a.452.452 0 0 1 .589.15l2.341 3.555-1.555 6.087-4.014 2.134-2.567-3.898 1.555-6.087 3.651-1.941zm14.362-9.949l3.86 1.066a.45.45 0 0 1 .317.545l-2.943 11.771-4.235-1.264-2.567-3.897 1.554-6.087 4.014-2.134z" fill="#fff" stroke="#AFB4C8" stroke-width=".451" stroke-miterlimit="10"/><path d="M191.649 103.55l-4.541-1.309m5.708-4.79l-4.541-1.309" stroke="#AFB4C8" stroke-width=".451" stroke-miterlimit="10" stroke-linecap="round" stroke-dasharray="0.05 0.9"/><path d="M196.171 95.29a.45.45 0 0 1 .588.15l2.341 3.555-1.554 6.087-4.014 2.134-2.567-3.898 1.554-6.087 3.652-1.94z" fill="#fff" stroke="#AFB4C8" stroke-width=".451" stroke-miterlimit="10"/><path d="M198.48 226.473l-14.379-2.913c-14.68-3.819-24.761-20.513-24.761-44.849 0-34.303 20.028-70.799 44.733-81.517 5.953-2.582 11.634-3.433 16.828-2.756l12.902 2.989" fill="#fff"/><path d="M198.48 226.473l-14.379-2.913c-14.68-3.819-24.761-20.513-24.761-44.849 0-34.303 20.028-70.799 44.733-81.517 5.953-2.582 11.634-3.433 16.828-2.756l12.902 2.989m-63.61-20.587v4.51c0 1.8 1.23 3.407 3.058 3.947l.075.021" stroke="#AFB4C8" stroke-width=".451" stroke-miterlimit="10"/><mask id="b" maskUnits="userSpaceOnUse" x="174" y="100" width="83" height="124"><path fill-rule="evenodd" clip-rule="evenodd" d="M229.735 105.358c0 3.179-1.856 6.562-4.145 7.555-2.29.993-4.146-.779-4.146-3.958 0-3.179 1.856-6.561 4.146-7.554 2.289-.993 4.145.779 4.145 3.957zm-23.13 15.846c2.29-.993 4.146-4.375 4.146-7.554 0-3.179-1.856-4.95-4.146-3.957-2.289.993-4.145 4.375-4.145 7.554 0 3.179 1.856 4.951 4.145 3.957zm-17.267 20.979c2.289-.993 4.146-4.375 4.146-7.554 0-3.179-1.857-4.951-4.146-3.957-2.289.993-4.145 4.375-4.145 7.554 0 3.179 1.856 4.951 4.145 3.957zm53.238-23.049c2.289-.993 4.145-4.375 4.145-7.554 0-3.179-1.856-4.95-4.145-3.957-2.289.993-4.145 4.375-4.145 7.554 0 3.179 1.856 4.951 4.145 3.957zm13.535 11.651c0 3.179-1.856 6.561-4.145 7.554-2.29.993-4.146-.779-4.146-3.957 0-3.179 1.856-6.561 4.146-7.555 2.289-.993 4.145.779 4.145 3.958zm-4.918 35.203c2.29-.993 4.146-4.375 4.146-7.554 0-3.179-1.856-4.951-4.146-3.957-2.289.993-4.145 4.375-4.145 7.554 0 3.179 1.856 4.951 4.145 3.957zm-6.237 20.049c0 3.179-1.856 6.561-4.145 7.555-2.29.993-4.146-.779-4.146-3.958 0-3.179 1.856-6.561 4.146-7.554 2.289-.993 4.145.778 4.145 3.957zm-21.151 28.552c2.29-.993 4.146-4.375 4.146-7.554 0-3.179-1.856-4.951-4.146-3.958-2.289.994-4.145 4.376-4.145 7.555 0 3.178 1.856 4.95 4.145 3.957zm-15.094.634c0 3.179-1.856 6.561-4.145 7.555-2.289.993-4.145-.779-4.145-3.958 0-3.179 1.856-6.561 4.145-7.554 2.289-.993 4.145.779 4.145 3.957zm-20.341 1.523c2.29-.993 4.146-4.376 4.146-7.554 0-3.179-1.856-4.951-4.146-3.958-2.289.994-4.145 4.375-4.145 7.554 0 3.179 1.856 4.951 4.145 3.958zm-5.361-26.698c0 3.178-1.856 6.56-4.145 7.554-2.29.993-4.146-.779-4.146-3.958 0-3.179 1.856-6.561 4.146-7.554 2.289-.993 4.145.779 4.145 3.958zm-3.197-19.756c2.29-.994 4.146-4.376 4.146-7.555 0-3.178-1.856-4.95-4.146-3.957-2.289.993-4.145 4.375-4.145 7.554 0 3.179 1.856 4.951 4.145 3.958z" fill="#CED2DC"/><path d="M225.59 101.401l-.09-.207.09.207zm-18.985 19.803l-.089-.207.089.207zm0-11.511l-.089-.207.089.207zm-17.267 20.979l-.09-.207.09.207zm53.238-11.538l-.09-.207.09.207zm0-11.511l.09.207-.09-.207zm9.39 30.716l.09.207-.09-.207zm0-11.512l.09.207-.09-.207zm-.773 39.161l-.089-.207.089.207zm0-11.511l.09.207-.09-.207zm-10.382 39.115l.089.207-.089-.207zm0-11.512l-.09-.207.09.207zm-17.006 32.509l-.09-.207.09.207zm0-11.512l.09.207-.09-.207zm-19.239 19.701l-.09-.207.09.207zm0-11.512l.09.207-.09-.207zm-16.196 5.48l.09.207-.09-.207zm0-11.512l-.089-.207.089.207zm-9.506-7.632l.089.207-.089-.207zm0-11.512l-.09-.207.09.207zm5.094-23.353h-.226.226zm-4.146 7.555l.09.207-.09-.207zm0-11.512l-.09-.207.09.207zm45.867-45.66c1.206-.523 2.275-1.662 3.04-3.056.766-1.397 1.242-3.075 1.242-4.706h-.452c0 1.548-.452 3.152-1.186 4.489-.735 1.34-1.74 2.389-2.823 2.859l.179.414zm-4.46-4.165c0 1.628.474 2.934 1.284 3.707.822.784 1.957.987 3.176.458l-.179-.414c-1.07.464-2.007.277-2.686-.371-.691-.66-1.144-1.829-1.144-3.38h-.451zm4.281-7.761c-1.206.523-2.274 1.662-3.039 3.056-.767 1.397-1.242 3.074-1.242 4.705h.451c0-1.548.453-3.151 1.186-4.488.736-1.34 1.74-2.389 2.823-2.859l-.179-.414zm4.461 4.164c0-1.627-.475-2.933-1.284-3.706-.822-.785-1.957-.987-3.177-.458l.179.414c1.07-.464 2.008-.277 2.686.37.691.66 1.144 1.829 1.144 3.38h.452zm-19.436 8.292c0 1.548-.452 3.151-1.186 4.488-.736 1.341-1.74 2.389-2.823 2.859l.179.414c1.206-.523 2.275-1.662 3.039-3.056.767-1.397 1.242-3.074 1.242-4.705h-.451zm-3.83-3.75c1.07-.464 2.008-.277 2.686.37.691.66 1.144 1.829 1.144 3.38h.451c0-1.627-.474-2.934-1.284-3.706-.821-.785-1.956-.987-3.176-.458l.179.414zm-4.009 7.347c0-1.548.452-3.151 1.186-4.488.736-1.341 1.74-2.389 2.823-2.859l-.179-.414c-1.206.523-2.275 1.662-3.04 3.056-.766 1.397-1.242 3.074-1.242 4.705h.452zm3.83 3.75c-1.07.464-2.008.278-2.686-.37-.691-.66-1.144-1.829-1.144-3.38h-.452c0 1.628.475 2.934 1.285 3.706.821.785 1.957.987 3.176.458l-.179-.414zm-13.258 13.632c0 1.548-.453 3.151-1.186 4.488-.736 1.341-1.74 2.389-2.824 2.859l.18.414c1.206-.523 2.274-1.662 3.039-3.056.767-1.397 1.242-3.074 1.242-4.705h-.451zm-3.83-3.75c1.07-.464 2.007-.278 2.686.37.691.66 1.144 1.829 1.144 3.38h.451c0-1.627-.475-2.934-1.284-3.706-.822-.785-1.957-.988-3.177-.458l.18.414zm-4.01 7.347c0-1.548.453-3.151 1.187-4.488.735-1.341 1.739-2.389 2.823-2.859l-.18-.414c-1.205.523-2.274 1.662-3.039 3.056-.766 1.397-1.242 3.074-1.242 4.705h.451zm3.83 3.75c-1.069.464-2.007.278-2.685-.37-.691-.66-1.145-1.829-1.145-3.38h-.451c0 1.627.475 2.934 1.284 3.706.822.785 1.957.988 3.177.458l-.18-.414zm57.248-30.396c0 1.548-.453 3.151-1.187 4.488-.735 1.341-1.739 2.389-2.823 2.859l.18.414c1.206-.523 2.274-1.662 3.039-3.055.767-1.397 1.242-3.075 1.242-4.706h-.451zm-3.83-3.75c1.069-.464 2.007-.277 2.685.37.692.66 1.145 1.829 1.145 3.38h.451c0-1.627-.475-2.934-1.284-3.706-.822-.785-1.957-.987-3.177-.458l.18.414zm-4.01 7.347c0-1.548.453-3.151 1.187-4.488.735-1.341 1.739-2.389 2.823-2.859l-.18-.414c-1.205.523-2.274 1.662-3.039 3.056-.767 1.397-1.242 3.074-1.242 4.705h.451zm3.83 3.75c-1.069.465-2.007.278-2.685-.37-.691-.66-1.145-1.829-1.145-3.38h-.451c0 1.628.475 2.934 1.284 3.706.822.785 1.957.988 3.177.458l-.18-.414zm9.57 19.619c1.205-.523 2.274-1.662 3.039-3.056.766-1.397 1.242-3.074 1.242-4.705h-.452c0 1.548-.452 3.151-1.186 4.488-.735 1.34-1.739 2.389-2.823 2.859l.18.414zm-4.461-4.164c0 1.627.474 2.933 1.284 3.706.822.785 1.957.987 3.177.458l-.18-.414c-1.07.464-2.007.277-2.686-.37-.691-.66-1.144-1.829-1.144-3.38h-.451zm4.281-7.762c-1.206.524-2.274 1.662-3.039 3.056-.767 1.397-1.242 3.075-1.242 4.706h.451c0-1.548.453-3.152 1.186-4.489.736-1.34 1.74-2.389 2.824-2.859l-.18-.414zm4.461 4.165c0-1.628-.475-2.934-1.284-3.707-.822-.784-1.957-.987-3.177-.458l.18.414c1.069-.464 2.007-.277 2.685.371.691.66 1.144 1.829 1.144 3.38h.452zm-1.224 27.649c0 1.548-.452 3.151-1.186 4.488-.736 1.34-1.74 2.389-2.823 2.859l.179.414c1.206-.523 2.274-1.662 3.039-3.056.767-1.397 1.242-3.074 1.242-4.705h-.451zm-3.83-3.75c1.07-.465 2.007-.278 2.686.37.691.66 1.144 1.829 1.144 3.38h.451c0-1.628-.474-2.934-1.284-3.706-.822-.785-1.957-.988-3.176-.458l.179.414zm-4.01 7.347c0-1.548.453-3.151 1.187-4.488.735-1.341 1.74-2.389 2.823-2.859l-.179-.414c-1.206.523-2.275 1.662-3.04 3.056-.766 1.397-1.242 3.074-1.242 4.705h.451zm3.831 3.75c-1.07.464-2.008.277-2.686-.37-.691-.66-1.145-1.829-1.145-3.38h-.451c0 1.627.475 2.934 1.284 3.706.822.785 1.957.987 3.177.458l-.179-.414zM240.9 193.799c1.206-.524 2.275-1.663 3.04-3.056.766-1.397 1.242-3.075 1.242-4.706h-.452c0 1.548-.452 3.151-1.186 4.488-.735 1.341-1.74 2.389-2.823 2.86l.179.414zm-4.46-4.165c0 1.628.474 2.934 1.284 3.707.822.784 1.957.987 3.176.458l-.179-.414c-1.07.464-2.007.277-2.686-.371-.691-.66-1.144-1.829-1.144-3.38h-.451zm4.281-7.761c-1.206.523-2.274 1.662-3.039 3.056-.767 1.397-1.242 3.074-1.242 4.705h.451c0-1.548.453-3.151 1.186-4.488.736-1.34 1.74-2.389 2.823-2.859l-.179-.414zm4.461 4.164c0-1.627-.475-2.934-1.284-3.706-.822-.785-1.957-.987-3.177-.458l.179.414c1.07-.464 2.008-.277 2.686.37.691.66 1.144 1.829 1.144 3.38h.452zm-17.457 20.998c0 1.548-.453 3.151-1.186 4.488-.736 1.34-1.74 2.389-2.824 2.859l.18.414c1.206-.523 2.274-1.662 3.039-3.056.767-1.397 1.242-3.074 1.242-4.705h-.451zm-3.83-3.751c1.07-.464 2.007-.277 2.686.371.691.659 1.144 1.828 1.144 3.38h.451c0-1.628-.474-2.934-1.284-3.707-.822-.784-1.957-.987-3.177-.458l.18.414zm-4.01 7.348c0-1.548.453-3.151 1.187-4.489.735-1.34 1.739-2.388 2.823-2.859l-.18-.414c-1.205.524-2.274 1.663-3.039 3.056-.766 1.397-1.242 3.075-1.242 4.706h.451zm3.83 3.75c-1.069.464-2.007.277-2.685-.37-.691-.66-1.145-1.829-1.145-3.38h-.451c0 1.627.475 2.933 1.284 3.706.822.785 1.957.987 3.177.458l-.18-.414zm-19.059 8.603c1.206-.524 2.274-1.663 3.039-3.056.767-1.397 1.242-3.075 1.242-4.706h-.451c0 1.548-.453 3.151-1.187 4.489-.735 1.34-1.739 2.388-2.823 2.859l.18.414zm-4.461-4.165c0 1.628.475 2.934 1.284 3.707.822.784 1.957.987 3.177.458l-.18-.414c-1.069.464-2.007.277-2.685-.371-.691-.659-1.145-1.828-1.145-3.38h-.451zm4.281-7.761c-1.205.523-2.274 1.662-3.039 3.056-.767 1.397-1.242 3.074-1.242 4.705h.451c0-1.548.453-3.151 1.187-4.488.735-1.34 1.739-2.389 2.823-2.859l-.18-.414zm4.461 4.164c0-1.627-.475-2.933-1.284-3.706-.822-.785-1.957-.987-3.177-.458l.18.414c1.069-.464 2.007-.277 2.685.37.691.66 1.145 1.829 1.145 3.38h.451zm-16.647-6.031c0 1.548-.452 3.151-1.186 4.488-.736 1.34-1.74 2.389-2.823 2.859l.179.414c1.206-.523 2.275-1.662 3.039-3.056.767-1.397 1.242-3.074 1.242-4.705h-.451zm-3.83-3.751c1.07-.464 2.007-.277 2.686.371.691.659 1.144 1.828 1.144 3.38h.451c0-1.628-.474-2.934-1.284-3.707-.822-.785-1.957-.987-3.176-.458l.179.414zm-4.009 7.347c0-1.548.452-3.151 1.186-4.488.736-1.34 1.74-2.389 2.823-2.859l-.179-.414c-1.206.523-2.275 1.662-3.04 3.056-.766 1.397-1.242 3.074-1.242 4.705h.452zm3.83 3.751c-1.07.464-2.008.277-2.686-.371-.691-.659-1.144-1.828-1.144-3.38h-.452c0 1.628.475 2.934 1.284 3.707.822.784 1.958.987 3.177.458l-.179-.414zm-9.328-18.73c1.206-.523 2.275-1.662 3.04-3.056.766-1.397 1.242-3.074 1.242-4.705h-.452c0 1.547-.452 3.151-1.186 4.488-.735 1.34-1.74 2.389-2.823 2.859l.179.414zm-4.46-4.165c0 1.628.474 2.934 1.284 3.707.822.785 1.957.987 3.176.458l-.179-.414c-1.07.464-2.007.277-2.686-.371-.691-.659-1.144-1.828-1.144-3.38h-.451zm4.281-7.761c-1.206.523-2.274 1.662-3.039 3.056-.767 1.397-1.242 3.074-1.242 4.705h.451c0-1.548.453-3.151 1.186-4.488.736-1.34 1.74-2.389 2.823-2.859l-.179-.414zm4.461 4.165c0-1.628-.475-2.934-1.284-3.707-.822-.785-1.957-.987-3.177-.458l.179.414c1.07-.464 2.008-.277 2.686.37.691.66 1.144 1.829 1.144 3.381h.452zm.497-27.311c0 1.548-.453 3.152-1.186 4.489-.736 1.34-1.74 2.389-2.824 2.859l.18.414c1.206-.524 2.274-1.663 3.039-3.056.767-1.397 1.242-3.075 1.242-4.706h-.451zm-3.83-3.75c1.07-.464 2.007-.277 2.686.37.691.66 1.144 1.829 1.144 3.38h.451c0-1.627-.474-2.933-1.284-3.706-.822-.785-1.957-.987-3.177-.458l.18.414zm-4.01 7.347c0-1.548.453-3.151 1.187-4.488.735-1.34 1.739-2.389 2.823-2.859l-.18-.414c-1.205.523-2.274 1.662-3.039 3.056-.766 1.397-1.242 3.074-1.242 4.705h.451zm3.83 3.751c-1.069.464-2.007.277-2.685-.371-.691-.659-1.145-1.829-1.145-3.38h-.451c0 1.628.475 2.934 1.284 3.707.822.784 1.957.987 3.177.458l-.18-.414z" fill="#CED2DC"/></mask><g mask="url(#b)" stroke="#AFB4C8" stroke-width=".271" stroke-miterlimit="10"><path d="M192.545 134.16c0 3.179-1.856 6.561-4.145 7.554-2.29.994-4.146-.778-4.146-3.957s1.856-6.561 4.146-7.554c2.289-.994 4.145.778 4.145 3.957zm17.267-20.979c0 3.179-1.856 6.561-4.145 7.554-2.289.993-4.145-.778-4.145-3.957s1.856-6.561 4.145-7.555c2.29-.993 4.145.779 4.145 3.958zm18.983-8.292c0 3.179-1.856 6.561-4.145 7.554-2.29.993-4.146-.778-4.146-3.957s1.856-6.561 4.146-7.554c2.289-.993 4.145.778 4.145 3.957zm16.988 6.222c0 3.179-1.856 6.561-4.145 7.554-2.29.994-4.146-.778-4.146-3.957s1.856-6.561 4.146-7.554c2.289-.993 4.145.778 4.145 3.957zm9.391 19.205c0 3.179-1.856 6.561-4.146 7.554-2.289.993-4.145-.779-4.145-3.958 0-3.178 1.856-6.561 4.145-7.554 2.29-.993 4.146.779 4.146 3.958zm-.774 27.649c0 3.179-1.856 6.561-4.145 7.554-2.29.993-4.146-.779-4.146-3.958 0-3.178 1.856-6.56 4.146-7.554 2.289-.993 4.145.779 4.145 3.958zm-10.382 27.603c0 3.179-1.856 6.561-4.146 7.554-2.289.993-4.145-.778-4.145-3.957s1.856-6.561 4.145-7.554c2.29-.994 4.146.778 4.146 3.957zm-17.006 20.997c0 3.179-1.856 6.561-4.145 7.555-2.29.993-4.146-.779-4.146-3.958 0-3.179 1.856-6.561 4.146-7.554 2.289-.993 4.145.779 4.145 3.957zm-19.241 8.189c0 3.179-1.856 6.561-4.145 7.554-2.289.994-4.146-.778-4.146-3.957s1.857-6.561 4.146-7.554c2.289-.993 4.145.778 4.145 3.957zm-16.194-6.032c0 3.179-1.856 6.562-4.145 7.555-2.289.993-4.145-.779-4.145-3.958 0-3.179 1.856-6.561 4.145-7.554 2.289-.993 4.145.779 4.145 3.957zm-9.506-19.144c0 3.179-1.856 6.561-4.146 7.554-2.289.994-4.145-.778-4.145-3.957s1.856-6.561 4.145-7.554c2.29-.994 4.146.778 4.146 3.957zm.948-27.31c0 3.179-1.856 6.561-4.145 7.554-2.29.994-4.146-.778-4.146-3.957s1.856-6.561 4.146-7.554c2.289-.994 4.145.778 4.145 3.957z"/></g><path d="M225.59 101.401l-.09-.207.09.207zm-18.985 19.803l-.089-.207.089.207zm0-11.511l-.089-.207.089.207zm-17.267 20.979l-.09-.207.09.207zm53.238-11.538l-.09-.207.09.207zm0-11.511l.09.207-.09-.207zm9.39 30.716l.09.207-.09-.207zm0-11.512l.09.207-.09-.207zm-.773 39.161l-.089-.207.089.207zm0-11.511l.09.207-.09-.207zm-10.382 39.115l.089.207-.089-.207zm0-11.512l-.09-.207.09.207zm-17.006 32.509l-.09-.207.09.207zm0-11.512l.09.207-.09-.207zm-19.239 19.701l-.09-.207.09.207zm0-11.512l.09.207-.09-.207zm-16.196 5.48l.09.207-.09-.207zm0-11.512l-.089-.207.089.207zm-9.506-7.632l.089.207-.089-.207zm0-11.512l-.09-.207.09.207zm5.094-23.353h-.226.226zm-4.146 7.555l.09.207-.09-.207zm0-11.512l-.09-.207.09.207zm45.867-45.66c1.206-.523 2.275-1.662 3.04-3.056.766-1.397 1.242-3.075 1.242-4.706h-.452c0 1.548-.452 3.152-1.186 4.489-.735 1.34-1.74 2.389-2.823 2.859l.179.414zm-4.46-4.165c0 1.628.474 2.934 1.284 3.707.822.784 1.957.987 3.176.458l-.179-.414c-1.07.464-2.007.277-2.686-.371-.691-.66-1.144-1.829-1.144-3.38h-.451zm4.281-7.761c-1.206.523-2.274 1.662-3.039 3.056-.767 1.397-1.242 3.074-1.242 4.705h.451c0-1.548.453-3.151 1.186-4.488.736-1.34 1.74-2.389 2.823-2.859l-.179-.414zm4.461 4.164c0-1.627-.475-2.933-1.284-3.706-.822-.785-1.957-.987-3.177-.458l.179.414c1.07-.464 2.008-.277 2.686.37.691.66 1.144 1.829 1.144 3.38h.452zm-19.436 8.292c0 1.548-.452 3.151-1.186 4.488-.736 1.341-1.74 2.389-2.823 2.859l.179.414c1.206-.523 2.275-1.662 3.039-3.056.767-1.397 1.242-3.074 1.242-4.705h-.451zm-3.83-3.75c1.07-.464 2.008-.277 2.686.37.691.66 1.144 1.829 1.144 3.38h.451c0-1.627-.474-2.934-1.284-3.706-.821-.785-1.956-.987-3.176-.458l.179.414zm-4.009 7.347c0-1.548.452-3.151 1.186-4.488.736-1.341 1.74-2.389 2.823-2.859l-.179-.414c-1.206.523-2.275 1.662-3.04 3.056-.766 1.397-1.242 3.074-1.242 4.705h.452zm3.83 3.75c-1.07.464-2.008.278-2.686-.37-.691-.66-1.144-1.829-1.144-3.38h-.452c0 1.628.475 2.934 1.285 3.706.821.785 1.957.987 3.176.458l-.179-.414zm-13.258 13.632c0 1.548-.453 3.151-1.186 4.488-.736 1.341-1.74 2.389-2.824 2.859l.18.414c1.206-.523 2.274-1.662 3.039-3.056.767-1.397 1.242-3.074 1.242-4.705h-.451zm-3.83-3.75c1.07-.464 2.007-.278 2.686.37.691.66 1.144 1.829 1.144 3.38h.451c0-1.627-.475-2.934-1.284-3.706-.822-.785-1.957-.988-3.177-.458l.18.414zm-4.01 7.347c0-1.548.453-3.151 1.187-4.488.735-1.341 1.739-2.389 2.823-2.859l-.18-.414c-1.205.523-2.274 1.662-3.039 3.056-.766 1.397-1.242 3.074-1.242 4.705h.451zm3.83 3.75c-1.069.464-2.007.278-2.685-.37-.691-.66-1.145-1.829-1.145-3.38h-.451c0 1.627.475 2.934 1.284 3.706.822.785 1.957.988 3.177.458l-.18-.414zm57.248-30.396c0 1.548-.453 3.151-1.187 4.488-.735 1.341-1.739 2.389-2.823 2.859l.18.414c1.206-.523 2.274-1.662 3.039-3.055.767-1.397 1.242-3.075 1.242-4.706h-.451zm-3.83-3.75c1.069-.464 2.007-.277 2.685.37.692.66 1.145 1.829 1.145 3.38h.451c0-1.627-.475-2.934-1.284-3.706-.822-.785-1.957-.987-3.177-.458l.18.414zm-4.01 7.347c0-1.548.453-3.151 1.187-4.488.735-1.341 1.739-2.389 2.823-2.859l-.18-.414c-1.205.523-2.274 1.662-3.039 3.056-.767 1.397-1.242 3.074-1.242 4.705h.451zm3.83 3.75c-1.069.465-2.007.278-2.685-.37-.691-.66-1.145-1.829-1.145-3.38h-.451c0 1.628.475 2.934 1.284 3.706.822.785 1.957.988 3.177.458l-.18-.414zm9.57 19.619c1.205-.523 2.274-1.662 3.039-3.056.766-1.397 1.242-3.074 1.242-4.705h-.452c0 1.548-.452 3.151-1.186 4.488-.735 1.34-1.739 2.389-2.823 2.859l.18.414zm-4.461-4.164c0 1.627.474 2.933 1.284 3.706.822.785 1.957.987 3.177.458l-.18-.414c-1.07.464-2.007.277-2.686-.37-.691-.66-1.144-1.829-1.144-3.38h-.451zm4.281-7.762c-1.206.524-2.274 1.662-3.039 3.056-.767 1.397-1.242 3.075-1.242 4.706h.451c0-1.548.453-3.152 1.186-4.489.736-1.34 1.74-2.389 2.824-2.859l-.18-.414zm4.461 4.165c0-1.628-.475-2.934-1.284-3.707-.822-.784-1.957-.987-3.177-.458l.18.414c1.069-.464 2.007-.277 2.685.371.691.66 1.144 1.829 1.144 3.38h.452zm-1.224 27.649c0 1.548-.452 3.151-1.186 4.488-.736 1.34-1.74 2.389-2.823 2.859l.179.414c1.206-.523 2.274-1.662 3.039-3.056.767-1.397 1.242-3.074 1.242-4.705h-.451zm-3.83-3.75c1.07-.465 2.007-.278 2.686.37.691.66 1.144 1.829 1.144 3.38h.451c0-1.628-.474-2.934-1.284-3.706-.822-.785-1.957-.988-3.176-.458l.179.414zm-4.01 7.347c0-1.548.453-3.151 1.187-4.488.735-1.341 1.74-2.389 2.823-2.859l-.179-.414c-1.206.523-2.275 1.662-3.04 3.056-.766 1.397-1.242 3.074-1.242 4.705h.451zm3.831 3.75c-1.07.464-2.008.277-2.686-.37-.691-.66-1.145-1.829-1.145-3.38h-.451c0 1.627.475 2.934 1.284 3.706.822.785 1.957.987 3.177.458l-.179-.414zM240.9 193.799c1.206-.524 2.275-1.663 3.04-3.056.766-1.397 1.242-3.075 1.242-4.706h-.452c0 1.548-.452 3.151-1.186 4.488-.735 1.341-1.74 2.389-2.823 2.86l.179.414zm-4.46-4.165c0 1.628.474 2.934 1.284 3.707.822.784 1.957.987 3.176.458l-.179-.414c-1.07.464-2.007.277-2.686-.371-.691-.66-1.144-1.829-1.144-3.38h-.451zm4.281-7.761c-1.206.523-2.274 1.662-3.039 3.056-.767 1.397-1.242 3.074-1.242 4.705h.451c0-1.548.453-3.151 1.186-4.488.736-1.34 1.74-2.389 2.823-2.859l-.179-.414zm4.461 4.164c0-1.627-.475-2.934-1.284-3.706-.822-.785-1.957-.987-3.177-.458l.179.414c1.07-.464 2.008-.277 2.686.37.691.66 1.144 1.829 1.144 3.38h.452zm-17.457 20.998c0 1.548-.453 3.151-1.186 4.488-.736 1.34-1.74 2.389-2.824 2.859l.18.414c1.206-.523 2.274-1.662 3.039-3.056.767-1.397 1.242-3.074 1.242-4.705h-.451zm-3.83-3.751c1.07-.464 2.007-.277 2.686.371.691.659 1.144 1.828 1.144 3.38h.451c0-1.628-.474-2.934-1.284-3.707-.822-.784-1.957-.987-3.177-.458l.18.414zm-4.01 7.348c0-1.548.453-3.151 1.187-4.489.735-1.34 1.739-2.388 2.823-2.859l-.18-.414c-1.205.524-2.274 1.663-3.039 3.056-.766 1.397-1.242 3.075-1.242 4.706h.451zm3.83 3.75c-1.069.464-2.007.277-2.685-.37-.691-.66-1.145-1.829-1.145-3.38h-.451c0 1.627.475 2.933 1.284 3.706.822.785 1.957.987 3.177.458l-.18-.414zm-19.059 8.603c1.206-.524 2.274-1.663 3.039-3.056.767-1.397 1.242-3.075 1.242-4.706h-.451c0 1.548-.453 3.151-1.187 4.489-.735 1.34-1.739 2.388-2.823 2.859l.18.414zm-4.461-4.165c0 1.628.475 2.934 1.284 3.707.822.784 1.957.987 3.177.458l-.18-.414c-1.069.464-2.007.277-2.685-.371-.691-.659-1.145-1.828-1.145-3.38h-.451zm4.281-7.761c-1.205.523-2.274 1.662-3.039 3.056-.767 1.397-1.242 3.074-1.242 4.705h.451c0-1.548.453-3.151 1.187-4.488.735-1.34 1.739-2.389 2.823-2.859l-.18-.414zm4.461 4.164c0-1.627-.475-2.933-1.284-3.706-.822-.785-1.957-.987-3.177-.458l.18.414c1.069-.464 2.007-.277 2.685.37.691.66 1.145 1.829 1.145 3.38h.451zm-16.647-6.031c0 1.548-.452 3.151-1.186 4.488-.736 1.34-1.74 2.389-2.823 2.859l.179.414c1.206-.523 2.275-1.662 3.039-3.056.767-1.397 1.242-3.074 1.242-4.705h-.451zm-3.83-3.751c1.07-.464 2.007-.277 2.686.371.691.659 1.144 1.828 1.144 3.38h.451c0-1.628-.474-2.934-1.284-3.707-.822-.785-1.957-.987-3.176-.458l.179.414zm-4.009 7.347c0-1.548.452-3.151 1.186-4.488.736-1.34 1.74-2.389 2.823-2.859l-.179-.414c-1.206.523-2.275 1.662-3.04 3.056-.766 1.397-1.242 3.074-1.242 4.705h.452zm3.83 3.751c-1.07.464-2.008.277-2.686-.371-.691-.659-1.144-1.828-1.144-3.38h-.452c0 1.628.475 2.934 1.284 3.707.822.784 1.958.987 3.177.458l-.179-.414zm-9.328-18.73c1.206-.523 2.275-1.662 3.04-3.056.766-1.397 1.242-3.074 1.242-4.705h-.452c0 1.547-.452 3.151-1.186 4.488-.735 1.34-1.74 2.389-2.823 2.859l.179.414zm-4.46-4.165c0 1.628.474 2.934 1.284 3.707.822.785 1.957.987 3.176.458l-.179-.414c-1.07.464-2.007.277-2.686-.371-.691-.659-1.144-1.828-1.144-3.38h-.451zm4.281-7.761c-1.206.523-2.274 1.662-3.039 3.056-.767 1.397-1.242 3.074-1.242 4.705h.451c0-1.548.453-3.151 1.186-4.488.736-1.34 1.74-2.389 2.823-2.859l-.179-.414zm4.461 4.165c0-1.628-.475-2.934-1.284-3.707-.822-.785-1.957-.987-3.177-.458l.179.414c1.07-.464 2.008-.277 2.686.37.691.66 1.144 1.829 1.144 3.381h.452zm.497-27.311c0 1.548-.453 3.152-1.186 4.489-.736 1.34-1.74 2.389-2.824 2.859l.18.414c1.206-.524 2.274-1.663 3.039-3.056.767-1.397 1.242-3.075 1.242-4.706h-.451zm-3.83-3.75c1.07-.464 2.007-.277 2.686.37.691.66 1.144 1.829 1.144 3.38h.451c0-1.627-.474-2.933-1.284-3.706-.822-.785-1.957-.987-3.177-.458l.18.414zm-4.01 7.347c0-1.548.453-3.151 1.187-4.488.735-1.34 1.739-2.389 2.823-2.859l-.18-.414c-1.205.523-2.274 1.662-3.039 3.056-.766 1.397-1.242 3.074-1.242 4.705h.451zm3.83 3.751c-1.069.464-2.007.277-2.685-.371-.691-.659-1.145-1.829-1.145-3.38h-.451c0 1.628.475 2.934 1.284 3.707.822.784 1.957.987 3.177.458l-.18-.414z" fill="#AFB4C8"/><path d="M211.698 143.213l2.61.652m-25.657-12.394l2.609.652m-3.915 1.087l5.219 1.305m-6.523.435l2.609.652M20.125 113.205l2.61.652m-3.915 1.087l5.219 1.305m-6.523.435l2.609.652m-1.305 24.137l2.609.653m-3.915 1.087l5.219 1.305m-6.523.435l2.609.652m187.009-35.01l2.609.653m-3.915 1.087l5.219 1.305m-6.523.435l2.609.652m19.138-12.395l2.609.653m-3.915 1.087l5.219 1.304m-6.523.436l2.609.652m16.961 1.957l2.609.652m-3.915 1.087l5.219 1.305m-6.523.435l2.609.652m9.134 15.005l2.609.652m-3.915 1.087l5.219 1.305m-6.523.435l2.609.652m-72.193 28.486l2.61.653m-3.915 1.087l5.218 1.305m-6.523.435l2.61.652m-.871 22.832l2.61.653m-3.915 1.087l5.218 1.304m-6.523.435l2.61.653m9.568 14.569l2.61.652m-3.916 1.087l5.219 1.305m-6.523.435l2.61.652m16.091 2.393l2.61.652m-3.915 1.087l5.219 1.305m-6.524.435l2.61.652m19.137-11.96l2.61.653m-3.915 1.087l5.218 1.304m-6.523.435l2.61.653m16.961-24.137l2.61.652m-3.915 1.087l5.218 1.305m-6.523.435l2.61.652m10.438-33.27l2.609.653m-3.915 1.087l5.219 1.305m-6.523.435l2.609.652m-.628-11.21c0 24.792-14.475 51.17-32.331 58.916-17.856 7.747-32.331-6.072-32.331-30.864s14.475-51.17 32.331-58.916c17.856-7.747 32.331 6.072 32.331 30.864z" stroke="#AFB4C8" stroke-width=".451" stroke-miterlimit="10" stroke-linecap="round" stroke-dasharray="0.05 0.9"/><path d="M251.059 148.781c0 24.792-14.475 51.17-32.331 58.916-17.856 7.747-32.331-6.072-32.331-30.864s14.475-51.17 32.331-58.916c17.856-7.747 32.331 6.072 32.331 30.864z" fill="#fff" stroke="#AFB4C8" stroke-width=".451" stroke-miterlimit="10"/><mask id="c" maskUnits="userSpaceOnUse" x="198" y="132" width="42" height="60"><path d="M239.475 153.38c0 15.616-9.117 32.231-20.364 37.11-11.247 4.879-20.365-3.824-20.365-19.44 0-15.617 9.118-32.231 20.365-37.111 11.247-4.879 20.364 3.825 20.364 19.441z" fill="#fff"/></mask><g mask="url(#c)"><path d="M225.169 149.876c0 15.616-9.118 32.231-20.365 37.11-11.247 4.88-20.364-3.824-20.364-19.44 0-15.616 9.117-32.231 20.364-37.11 11.247-4.88 20.365 3.824 20.365 19.44z" stroke="#AFB4C8" stroke-width=".451" stroke-miterlimit="10"/></g><path d="M239.475 153.38c0 15.616-9.117 32.231-20.364 37.11-11.247 4.879-20.365-3.824-20.365-19.44 0-15.617 9.118-32.231 20.365-37.111 11.247-4.879 20.364 3.825 20.364 19.441z" stroke="#AFB4C8" stroke-width=".451" stroke-miterlimit="10"/><path d="M210.948 191.477c1.98.033 4.094-.504 6.288-1.456 11.247-4.88 20.364-21.494 20.364-37.11 0-10.087-3.803-17.289-9.528-19.811" stroke="#AFB4C8" stroke-width=".451" stroke-miterlimit="10"/><path d="M199.806 161.727l21.463 6.058m-5.895-31.513l7.772 2.19" stroke="#E0E1E4" stroke-width=".677" stroke-miterlimit="10" stroke-linecap="round" stroke-dasharray="0.05 1.8"/><path d="M212.589 138.462l11.729 3.05" stroke="#AFB4C8" stroke-width=".451" stroke-miterlimit="10"/><path d="M209.774 140.808l5.706 1.613m-16.262 25.66l19.493 5.334" stroke="#E0E1E4" stroke-width=".677" stroke-miterlimit="10" stroke-linecap="round" stroke-dasharray="0.05 1.8"/><path d="M259.988 142.479c0 34.197-19.966 70.581-44.595 81.266-24.629 10.685-44.595-8.375-44.595-42.572s19.966-70.58 44.595-81.265c24.63-10.685 44.595 8.375 44.595 42.571z" stroke="#AFB4C8" stroke-width=".451" stroke-miterlimit="10"/></svg>