<svg width="118" height="170" fill="none" xmlns="http://www.w3.org/2000/svg"><path d="M101.5 114.5l-5 6" stroke="#AFB4C8"/><path fill="#fff" stroke="#AFB4C8" d="M2.5 60.5h9v64h-9zm0 14h-2v38h2zm12-3h-3v44h3zm101-11h-9v64h9zm0 14h2v38h-2zm-12-3h3v44h-3zm-22.264 2.373C89.99 73.027 98.22 73 103.5 73v41.832a42.215 42.215 0 0 0-3.784-.886c-1.202-.222-2.512-.398-3.722-.422-1.194-.024-2.356.098-3.218.529-.561.281-.978.647-1.144 1.181-.159.511-.05 1.062.146 1.62.2.565.528 1.235.914 2.016l.082.165c.333.671.713 1.438 1.117 2.329L54.977 154.86c-8.31-6.232-16.39-17.008-22.433-26.32a223.177 223.177 0 0 1-7.342-12.167 190.55 190.55 0 0 1-2.04-3.73 106.361 106.361 0 0 1-.67-1.281l-.035-.067-.009-.016-.002-.004v-.001L22 111.5l.446-.226-.246-.484-.462.284-6.38 3.926H14.5V72.937c7.252-.93 25.492-.77 40.267 7.005l.22.116.224-.105c7.423-3.464 16.98-5.207 26.025-6.08z"/><path fill="#fff" stroke="#AFB4C8" d="M97.368 121.621l5.39 7.208-46.448 34.735-5.39-7.207z"/><path d="M96.278 120.16l-2.697-.7-42.907 32.088-.81 3.395 1.058 1.414 46.449-34.736-1.093-1.461zm8.878 11.872l-2.395-3.203-46.449 34.736 2.396 3.203z" fill="#fff" stroke="#AFB4C8"/><path fill="#fff" stroke="#AFB4C8" d="M104.55 136.231l-1.797-2.402-5.605 4.192 1.796 2.402z"/><path fill="#fff" stroke="#AFB4C8" d="M102.95 137.43l-1.798-2.403-2.402 1.796 1.797 2.403zm-16.02 11.977l-1.798-2.402-5.605 4.192 1.796 2.402z"/><path fill="#fff" stroke="#AFB4C8" d="M85.328 150.605l-1.797-2.402-2.403 1.796 1.797 2.403zm-16.817 12.576l-1.797-2.402-5.605 4.192 1.796 2.402z"/><path fill="#fff" stroke="#AFB4C8" d="M66.91 164.38l-1.797-2.403-2.402 1.796 1.797 2.403z"/><path d="M22.498 111.5s-4-16 26-27m45.002 35s-14.254-8.057-24.438-17M79 89.5v2h10.5V93l4.5-2.5-4.5-2.5v1.5H79z" stroke="#AFB4C8"/><path fill="#AFB4C8" d="M37 98h17v1H37zm0 3h17v1H37zm0 3h13v1H37z"/></svg>