<svg width="40" height="40" fill="none" xmlns="http://www.w3.org/2000/svg"><mask id="a" fill="#fff"><path fill-rule="evenodd" clip-rule="evenodd" d="M31.4 14.1l3.6.9v6l-3.6.9c-.075.225-.188.45-.3.675-.113.225-.225.45-.3.675l1.95 3.3-4.2 4.2-3.3-1.95c-.45.3-.9.45-1.35.6L23 33h-6l-.9-3.6c-.225-.075-.45-.188-.675-.3a5.243 5.243 0 0 0-.675-.3l-3.3 1.95-4.2-4.2 1.95-3.3c-.3-.45-.45-.9-.6-1.35L5 21v-6l3.6-.9c.075-.225.188-.45.3-.675.112-.225.225-.45.3-.675l-1.95-3.3 4.2-4.2 3.3 1.95c.45-.15.9-.3 1.35-.6L17 3h6l.9 3.6c.225.075.45.188.675.3.225.112.45.225.675.3l3.3-1.95 4.2 4.2-1.95 3.3c.3.45.45.9.6 1.35zM20 25a7 7 0 1 0 0-14 7 7 0 0 0 0 14z"/></mask><path fill-rule="evenodd" clip-rule="evenodd" d="M31.4 14.1l3.6.9v6l-3.6.9c-.075.225-.188.45-.3.675-.113.225-.225.45-.3.675l1.95 3.3-4.2 4.2-3.3-1.95c-.45.3-.9.45-1.35.6L23 33h-6l-.9-3.6c-.225-.075-.45-.188-.675-.3a5.243 5.243 0 0 0-.675-.3l-3.3 1.95-4.2-4.2 1.95-3.3c-.3-.45-.45-.9-.6-1.35L5 21v-6l3.6-.9c.075-.225.188-.45.3-.675.112-.225.225-.45.3-.675l-1.95-3.3 4.2-4.2 3.3 1.95c.45-.15.9-.3 1.35-.6L17 3h6l.9 3.6c.225.075.45.188.675.3.225.112.45.225.675.3l3.3-1.95 4.2 4.2-1.95 3.3c.3.45.45.9.6 1.35zM20 25a7 7 0 1 0 0-14 7 7 0 0 0 0 14z" fill="#fff"/><path d="M35 15h1v-.78l-.758-.19L35 15zm-3.6-.9l-.949.316.174.521.532.133.243-.97zM35 21l.242.97.758-.19V21h-1zm-3.6.9l-.242-.97-.533.133-.174.52.949.317zm-.3.675l.894.447-.894-.447zm-.3.675l-.949-.316-.144.432.232.393.861-.509zm1.95 3.3l.707.707.548-.548-.394-.668-.861.509zm-4.2 4.2l-.509.86.668.395.548-.548-.707-.707zm-3.3-1.95l.509-.86-.541-.32-.523.348.555.832zm-1.35.6l-.316-.949-.521.174-.133.532.97.243zM23 33v1h.78l.19-.758L23 33zm-6 0l-.97.242.19.758H17v-1zm-.9-3.6l.97-.242-.133-.533-.52-.174-.317.949zm-1.35-.6l.316-.949-.432-.144-.393.232.509.861zm-3.3 1.95l-.707.707.548.548.668-.394-.509-.861zm-4.2-4.2l-.86-.509-.395.668.548.548.707-.707zm1.95-3.3l.86.509.32-.541-.348-.523-.832.555zm-.6-1.35l.949-.316-.174-.521-.532-.133-.243.97zM5 21H4v.78l.757.19L5 21zm0-6l-.243-.97-.757.19V15h1zm3.6-.9l.243.97.532-.133.174-.52L8.6 14.1zm.6-1.35l.949.316.144-.432-.232-.393-.861.509zm-1.95-3.3l-.707-.707-.548.548.394.668.861-.509zm4.2-4.2l.509-.86-.668-.395-.548.548.707.707zm3.3 1.95l-.509.86.393.233.432-.144-.316-.949zm1.35-.6l.555.832.321-.214.094-.375-.97-.243zM17 3V2h-.78l-.19.757L17 3zm6 0l.97-.243L23.78 2H23v1zm.9 3.6l-.97.243.133.532.52.174.317-.949zm.675.3l.447-.894-.447.894zm.675.3l-.316.949.432.144.393-.232-.509-.861zm3.3-1.95l.707-.707-.548-.548-.668.394.509.861zm4.2 4.2l.86.509.395-.668-.548-.548-.707.707zm-1.95 3.3l-.86-.509-.32.541.348.523.832-.555zm4.442 1.28l-3.6-.9-.485 1.94 3.6.9.486-1.94zM36 21v-6h-2v6h2zm-4.358 1.87l3.6-.9-.484-1.94-3.6.9.484 1.94zm.352.152c.106-.211.253-.501.355-.806l-1.898-.632a4.452 4.452 0 0 1-.245.544l1.788.894zm-.245.544a4.45 4.45 0 0 1 .245-.544l-1.788-.894c-.106.211-.253.501-.355.806l1.898.632zm1.862 2.475l-1.95-3.3-1.722 1.018 1.95 3.3 1.722-1.018zm-4.354 5.416l4.2-4.2-1.414-1.414-4.2 4.2 1.414 1.414zm-4.516-1.796l3.3 1.95 1.018-1.722-3.3-1.95-1.018 1.722zm-.525.688c.44-.147 1.013-.333 1.589-.717l-1.11-1.664c-.324.216-.652.33-1.111.483l.632 1.898zm-.246 2.893l.9-3.6-1.94-.485-.9 3.6 1.94.486zM17 34h6v-2h-6v2zm-1.87-4.358l.9 3.6 1.94-.484-.9-3.6-1.94.484zm-.152.352c.211.106.501.253.806.355l.632-1.898a4.452 4.452 0 0 1-.544-.245l-.894 1.788zm-.544-.245c.145.048.305.126.544.245l.894-1.788c-.211-.106-.501-.253-.806-.355l-.632 1.898zm-2.475 1.862l3.3-1.95-1.018-1.722-3.3 1.95 1.018 1.722zm-5.416-4.354l4.2 4.2 1.414-1.414-4.2-4.2-1.414 1.414zm1.796-4.516l-1.95 3.3 1.722 1.018 1.95-3.3-1.722-1.018zm-.688-.525c.147.44.333 1.013.717 1.589l1.664-1.11c-.216-.324-.33-.652-.483-1.111l-1.898.632zm-2.894-.246l3.6.9.486-1.94-3.6-.9-.486 1.94zM4 15v6h2v-6H4zm4.357-1.87l-3.6.9.486 1.94 3.6-.9-.486-1.94zm-.351-.152c-.106.211-.253.501-.355.806l1.898.632a4.45 4.45 0 0 1 .245-.544l-1.788-.894zm.245-.544a4.452 4.452 0 0 1-.245.544l1.788.894c.106-.211.253-.501.355-.806l-1.898-.632zM6.39 9.959l1.95 3.3 1.722-1.018-1.95-3.3L6.389 9.96zm4.354-5.416l-4.2 4.2 1.414 1.414 4.2-4.2-1.414-1.414zm4.516 1.796l-3.3-1.95-1.018 1.722 3.3 1.95 1.018-1.722zm.286-.571c-.324.216-.652.33-1.111.483l.632 1.898c.44-.147 1.013-.333 1.589-.717l-1.11-1.664zm.485-3.01l-.9 3.6 1.94.485.9-3.6-1.94-.486zM23 2h-6v2h6V2zm1.87 4.357l-.9-3.6-1.94.486.9 3.6 1.94-.486zm.152-.351c-.211-.106-.501-.253-.806-.355l-.632 1.898c.145.048.305.126.544.245l.894-1.788zm.544.245a4.452 4.452 0 0 1-.544-.245l-.894 1.788c.211.106.501.253.806.355l.632-1.898zm2.475-1.862l-3.3 1.95 1.018 1.722 3.3-1.95-1.018-1.722zm5.416 4.354l-4.2-4.2-1.414 1.414 4.2 4.2 1.414-1.414zm-1.796 4.516l1.95-3.3-1.722-1.018-1.95 3.3 1.722 1.018zm.688.525c-.147-.44-.333-1.013-.717-1.589l-1.664 1.11c.216.324.33.652.483 1.111l1.898-.632zM26 18a6 6 0 0 1-6 6v2a8 8 0 0 0 8-8h-2zm-6-6a6 6 0 0 1 6 6h2a8 8 0 0 0-8-8v2zm-6 6a6 6 0 0 1 6-6v-2a8 8 0 0 0-8 8h2zm6 6a6 6 0 0 1-6-6h-2a8 8 0 0 0 8 8v-2z" fill="#AFB4C8" mask="url(#a)"/><circle cx="20" cy="18" r="1.5" fill="#fff" stroke="#AFB4C8"/><path d="M21 17l2.5-2.5" stroke="#AFB4C8"/></svg>