<svg width="40" height="40" fill="none" xmlns="http://www.w3.org/2000/svg"><path d="M21.275 21.16c0 .127-.102.406-.454.8-.333.374-.832.784-1.467 1.164a9.847 9.847 0 0 1-4.966 1.372c-1.925 0-3.681-.682-4.958-1.485-.638-.4-1.143-.824-1.482-1.19a2.795 2.795 0 0 1-.365-.474.656.656 0 0 1-.083-.187c0-4.706 3.163-8.328 6.887-8.328 3.725 0 6.888 3.622 6.888 8.328z" fill="#F5F7F8" stroke="#AFB4C8"/><rect x="10.091" y="6.5" width="8.498" height="8.498" rx="4.249" fill="#F5F7F8" stroke="#AFB4C8"/><path d="M32.5 21.16c0 .127-.102.406-.454.8-.333.374-.832.784-1.467 1.164a9.847 9.847 0 0 1-4.967 1.372c-1.925 0-3.68-.682-4.958-1.485-.637-.4-1.143-.824-1.482-1.19a2.796 2.796 0 0 1-.365-.474.655.655 0 0 1-.082-.187c0-4.706 3.162-8.328 6.887-8.328 3.725 0 6.887 3.622 6.887 8.328z" fill="#F5F7F8" stroke="#AFB4C8"/><rect x="21.315" y="6.5" width="8.498" height="8.498" rx="4.249" fill="#F5F7F8" stroke="#AFB4C8"/><path d="M28.087 27.196c0 .198-.149.569-.586 1.058-.418.47-1.04.979-1.827 1.45a12.198 12.198 0 0 1-6.154 1.7c-2.388 0-4.564-.847-6.144-1.84-.79-.497-1.418-1.022-1.842-1.48a3.542 3.542 0 0 1-.463-.602c-.104-.178-.117-.27-.117-.286 0-5.819 3.914-10.334 8.566-10.334 4.653 0 8.567 4.515 8.567 10.334z" fill="#fff" stroke="#AFB4C8"/><rect x="14.408" y="9.09" width="10.225" height="10.225" rx="5.113" fill="#fff" stroke="#AFB4C8"/></svg>