<svg width="576" height="502" fill="none" xmlns="http://www.w3.org/2000/svg"><path d="M69.722 184.986l384.555 118.093" stroke="#94A0B7" stroke-width="1.5" stroke-miterlimit="10" stroke-linecap="round" stroke-dasharray="0.1 6"/><path d="M87.07 397.479l-39.515-9.638-6.264-3.373-6.265-4.819-6.265-5.783-6.746-7.71-6.265-10.12-4.337-8.192-4.337-13.011-2.892-13.011-1.445-12.048-1.446-13.493.482-13.011.964-14.457 1.445-10.602 1.928-12.047 2.891-11.084 3.855-13.493 3.856-11.084 4.337-8.674 3.373-9.156 7.229-13.975 6.746-11.084 6.265-9.156 9.156-11.565 7.228-7.711 7.229-7.228 8.674-7.711 7.71-5.782 10.12-5.301 8.192-3.855 8.193-3.374 10.601-2.409 11.566-.482 9.156 1.446 17.348 4.819 13.493 3.855 7.229 3.373 8.674 5.783 9.156 8.192 7.229 9.156 2.409 5.783 3.373-4.337 5.301-5.783 7.229-4.819 9.638-3.855.482-15.903-10.12-7.71-2.892-1.928-5.782-4.337-3.856-4.819-1.445-3.855V43.285l.963-4.82 5.301-6.264 7.711-4.819 11.565-4.819 12.53-3.373 18.794-2.892 8.674-.963V5.215l2.891-2.41L297.66.878l9.156 9.156v5.3l10.12.964 13.975 2.41 11.566 2.891 9.156 3.374 7.71 3.855 6.265 4.337 3.855 5.3 1.445 5.302v44.816l-1.445 3.855-2.892 3.855-3.855 2.892-5.301 3.373-4.337 3.373-10.12 7.711v13.011l6.747 2.409 7.71 3.856 5.301 4.337 3.855 4.819 1.928 4.819v10.601l4.337 4.337 2.41 4.338.963 5.3v7.711l.964 3.855 2.892 3.373 3.373 1.446 32.287 9.638 43.853 13.493 5.782-1.446 10.12-1.927h11.084l8.192 1.927 19.758 4.337 13.493 3.856 7.229 3.855 5.782 4.337 8.193 7.228 6.264 7.711 8.674 14.939 4.819 13.011 3.374 13.493 2.409 15.903v33.732l-3.373 22.168-4.819 19.276-9.156 27.468-11.084 22.649-11.083 18.312-8.193 11.566-7.228 8.192-9.156 9.156-12.53 10.602-13.011 8.674-11.083 5.301-11.084 3.855-11.566 1.446h-9.638l-13.975-2.41-16.384-2.891-13.493-4.337-10.602-6.265-7.71-7.229-8.675-10.119h-5.3l-9.638-1.928-5.783-2.409-27.468-7.711-8.193 1.928-19.275 2.891-20.24 1.446L262 460.126l-13.012-2.891-9.638-3.374-1.445-1.927-3.855-4.337-13.012-8.192-4.819-5.301-.963-2.892v-7.71l-.964-9.156-13.975-6.265-19.276-13.011-27.95-21.685-5.783 5.782-14.457 9.638-13.975 6.265-16.866 2.409H87.07z" fill="#fff"/><path d="M409.404 243.166c-2.937.699-5.938 1.708-8.99 3.041-34.943 15.266-63.27 67.25-63.27 116.109 0 22.945 6.247 41.12 16.492 52.364" stroke="#AFB4C8" stroke-miterlimit="10"/><path d="M371.227 467.611c-36.618-.579-63.096-36.832-63.096-93.159 0-69.957 40.845-144.389 91.23-166.248 11.179-4.849 21.888-6.704 31.785-5.889 8.626.71 16.636 3.447 23.803 7.995" stroke="#AFB4C8" stroke-miterlimit="10" stroke-linecap="square"/><path d="M321.944 455.424c-29.754-7.993-50.152-41.992-50.152-91.455 0-70.029 40.888-144.537 91.324-166.418 12.197-5.291 23.836-7.02 34.473-5.61" stroke="#AFB4C8" stroke-width="1.5" stroke-miterlimit="10" stroke-linecap="round" stroke-dasharray="0.1 4"/><path d="M358.074 464.978l-82.07-22.488c-29.49-8.046-49.691-41.824-49.691-90.916 0-43.47 14.991-87.267 39.092-120.402" stroke="#AFB4C8" stroke-miterlimit="10"/><path d="M251.369 241.049c-18.44 31.085-30.882 71.233-30.882 108.421 1.354 29.977 9.976 55.604 23.733 71.937m-37.355-194.456c-17.723 29.886-28.862 66.855-28.862 102.605 0 37.082 11.986 65.077 30.871 79.132 0 0 4.779 4.046 9.985 7.082" stroke="#AFB4C8" stroke-width="1.5" stroke-miterlimit="10" stroke-linecap="round" stroke-dasharray="0.1 4"/><path d="M185.013 398.191c-20.084-11.709-33.126-39.034-33.126-76.246 0-42.525 17.033-86.916 42.143-116.854l3.897-2.962m-83.55 145.923C100.92 337.789 92.4 317.648 92.4 291.048c0-48.489 28.312-100.08 63.235-115.231 4.583-1.988 9.052-3.25 13.359-3.832" stroke="#AFB4C8" stroke-width="1.5" stroke-miterlimit="10" stroke-linecap="round" stroke-dasharray="0.1 4"/><path d="M196.462 177.734l-23.39-6.341-6.47-2.048c-7.404-1.098-15.534.047-24.065 3.749-34.397 14.922-62.282 65.736-62.282 113.496 0 29.981 10.988 51.631 27.678 59.904 0 0 14.487 3.293 25.116 11.928 10.628 8.634 51.889 40.28 57.696 43.976 8.153 5.189 24.071 13.042 34.673 15.146 10.601 2.104 15.114 2.334 15.114 2.334" stroke="#AFB4C8" stroke-miterlimit="10"/><path d="M127.268 354.842c-39.126 17.034-70.844-13.353-70.844-67.873 0-54.519 31.718-112.525 70.844-129.56 22.882-9.963 43.231-3.705 56.183 14.114" stroke="#AFB4C8" stroke-width="1.5" stroke-miterlimit="10" stroke-linecap="round" stroke-dasharray="0.1 4"/><path d="M151.891 375.111c-8.438 6.919-17.332 12.519-26.518 16.504-54.536 23.66-98.746-18.545-98.746-94.266s44.21-156.285 98.747-179.945c34.072-14.781 64.113-3.854 81.861 24.892" stroke="#AFB4C8" stroke-miterlimit="10" stroke-linecap="round"/><path d="M77.642 395.268l-31.94-8.374C18.948 373.741 1.32 339.111 1.32 291.118c0-76.293 44.544-157.465 99.492-181.304 14.9-6.464 29.035-8.048 41.725-5.403L174.5 113.5" stroke="#AFB4C8" stroke-miterlimit="10"/><path d="M221.024 416.444s2.744 4.726 3.043 8.411" stroke="#AFB4C8" stroke-miterlimit="10" stroke-linecap="round" stroke-dasharray="0.1 2"/><path d="M213.776 413.932s2.518 9.923 1.621 16.935c-.896 7.013 22.838 24.42 55.947 24.972 33.108.553 45.574-2.206 45.574-2.206" stroke="#AFB4C8" stroke-miterlimit="10"/><path d="M215.119 421.116s4.165 3.861 14.625 4.983c10.459 1.122 21.935 6.031 21.935 6.031" stroke="#AFB4C8" stroke-miterlimit="10"/><path d="M250.28 426.535s2.263 15.271 15.07 21.161c12.807 5.891 21.174 8.143 21.174 8.143" stroke="#AFB4C8" stroke-miterlimit="10"/><path d="M298.301 448.914l-1.916 6.925m-25.039-5.898l2.332-7.864" stroke="#AFB4C8" stroke-miterlimit="10" stroke-linecap="round" stroke-dasharray="0.1 2"/><path d="M322.868 455.577s-26.483 6.284-47.103 5.863c-20.471-.417-36.458-7.541-36.458-7.541s-2.242-3.959-7.147-7.331" stroke="#AFB4C8" stroke-miterlimit="10" stroke-linejoin="round"/><path d="M247.292 425.077c-14.556-5.718-31.735-49.404-31.735-80.225 0-34.695 11.754-71.76 28.534-101.203" stroke="#AFB4C8" stroke-miterlimit="10" stroke-linecap="square"/><path d="M196.583 171.635l.588 26.707s2.501 23.288 26.481 35.131c6.389 3.156 16.178 5.551 20.874 5.54 4.354-.01 7.632-5.049 8.528-6.451.897-1.402 4.862-7.218 20.919-10.003 24.804-4.302 61.613-18.419 61.613-18.419l32.751-14.556 9.877-5.198" stroke="#AFB4C8" stroke-miterlimit="10"/><path d="M197.17 191.47s-5.08 9.396-1.494 17.25c3.586 7.854 10.89 22.766 26.896 30.303 14.569 6.862 26.517 6.17 30.781 0 3.233-4.677 6.088-6.607 19.6-9.514 17.755-3.819 61.74-19.176 67.661-22.054 2.909-1.414 36.066-15.003 40.446-20.332l55.387 15.67" stroke="#AFB4C8" stroke-miterlimit="10"/><path d="M343.447 126.61c15.34 5.443 24.906 13.136 24.906 21.665 0 16.498-35.799 29.872-79.959 29.872-44.159 0-79.958-13.374-79.958-29.872 0-8.602 9.73-16.354 25.303-21.805" stroke="#AFB4C8" stroke-miterlimit="10" stroke-linecap="round"/><path d="M207.988 145.33v19.704c0 16.769 35.944 30.363 80.284 30.363 42.406 0 77.134-12.435 80.081-28.189v-20.195" stroke="#AFB4C8" stroke-miterlimit="10" stroke-linecap="round"/><path d="M368.355 157.485c5.086 3.892 7.916 8.212 7.916 12.76 0 17.145-40.224 31.043-89.844 31.043s-89.844-13.898-89.844-31.043c0-5.271 3.801-10.234 10.508-14.582" stroke="#AFB4C8" stroke-miterlimit="10" stroke-linecap="round"/><path d="M233.739 110.829v31.934c-2.94 2.19-3.67 4.597-3.67 7.124 0 10.108 26.017 18.302 58.111 18.302 32.093 0 58.111-8.194 58.111-18.302 0-2.527-.73-4.934-3.67-7.124v-28.568" stroke="#AFB4C8" stroke-miterlimit="10" stroke-linecap="round"/><path d="M342.109 144.843c0 9.408-24.217 17.035-54.091 17.035-29.873 0-54.09-7.627-54.09-17.035" stroke="#AFB4C8" stroke-width="1.5" stroke-miterlimit="10" stroke-linecap="round" stroke-dasharray="0.1 4"/><path d="M305.951 15.428c37.006 2.551 64.94 14.092 64.94 27.944 0 15.723-35.994 28.47-80.395 28.47-44.4 0-80.394-12.746-80.394-28.47 0-13.864 27.984-25.413 65.041-27.951" stroke="#AFB4C8" stroke-miterlimit="10"/><path d="M370.891 58.518c0 15.724-35.994 28.47-80.395 28.47-44.4 0-80.394-12.746-80.394-28.47" stroke="#AFB4C8" stroke-width="1.5" stroke-miterlimit="10" stroke-linecap="round" stroke-dasharray="0.1 4"/><path d="M370.891 82.5c0 15.723-35.994 28.47-80.395 28.47-44.4 0-80.394-12.746-80.394-28.47" stroke="#AFB4C8" stroke-width="1.5" stroke-miterlimit="10" stroke-linecap="round" stroke-dasharray="0.1 4"/><path d="M210.102 43.372v43.335c0 15.724 35.994 28.47 80.394 28.47 44.401 0 80.395-12.746 80.395-28.47V43.372" stroke="#AFB4C8" stroke-miterlimit="10"/><path d="M288.714 125.208c20.238 0 41.798-3.746 52.345-10.731 6.739-4.464 12.885-8.489 15.319-11.188" stroke="#AFB4C8" stroke-miterlimit="10" stroke-linecap="round"/><path d="M292.002 125.208c-20.238 0-41.798-3.745-52.345-10.731-6.74-4.464-13.406-9.009-15.84-11.708m65.069 27.487c17.615 0 36.38-3.916 45.56-9.281a66.131 66.131 0 0 0 7.895-5.401" stroke="#AFB4C8" stroke-miterlimit="10" stroke-linecap="round"/><path d="M291.751 130.256c-17.615 0-36.38-2.877-45.56-8.242-5.866-3.428-9.859-6.919-11.977-8.993m72.21-88.241c21.477 2.458 37.028 9.665 37.028 18.171 0 10.534-23.846 19.073-53.262 19.073s-53.262-8.539-53.262-19.073c0-8.66 16.118-15.972 38.197-18.3" stroke="#AFB4C8" stroke-miterlimit="10" stroke-linecap="round"/><path d="M274.824 37.868c-3.934 1.409-6.366 3.355-6.366 5.504 0 4.298 9.731 7.783 21.734 7.783 12.003 0 21.734-3.485 21.734-7.783 0-1.935-1.971-3.704-5.233-5.066" stroke="#AFB4C8" stroke-miterlimit="10" stroke-linecap="round"/><path d="M282.637 12.518V48.7l-7.172-6.732V5.786l7.172 6.732z" stroke="#AFB4C8" stroke-miterlimit="10"/><path d="M285.16 49.122l19.443-2.104V10.835l-19.275 2.104v36.183h-2.69" stroke="#AFB4C8" stroke-miterlimit="10" stroke-linecap="round" stroke-dasharray="0.1 2"/><path d="M275.465 5.786l2.69-2.805L297.729.878l6.873 7.152 1.793 1.543v36.183l-1.793 1.262" stroke="#AFB4C8" stroke-miterlimit="10"/><mask id="a" maskUnits="userSpaceOnUse" x="34" y="116" width="180" height="277"><path fill-rule="evenodd" clip-rule="evenodd" d="M147.321 143.849c5.073-2.234 9.187-9.845 9.187-16.998 0-7.153-4.113-11.14-9.187-8.906-5.073 2.235-9.187 9.846-9.187 16.999 0 7.153 4.114 11.14 9.187 8.905zm-32.88 1.66c0 7.153-4.113 14.764-9.186 16.999-5.074 2.234-9.187-1.752-9.187-8.905 0-7.154 4.113-14.764 9.187-16.999 5.073-2.235 9.186 1.752 9.186 8.905zm-38.27 47.207c0 7.154-4.112 14.764-9.186 16.999-5.073 2.235-9.186-1.752-9.186-8.905s4.113-14.764 9.186-16.999c5.074-2.235 9.187 1.752 9.187 8.905zm117.984-51.865c0 7.153-4.113 14.764-9.187 16.999-5.074 2.235-9.186-1.752-9.186-8.905 0-7.154 4.113-14.764 9.186-16.999 5.074-2.235 9.187 1.752 9.187 8.905zm9.909 122.431c5.074-2.236 9.187-9.846 9.187-16.999 0-7.153-4.113-11.14-9.187-8.905-5.073 2.235-9.186 9.845-9.186 16.998 0 7.154 4.113 11.141 9.186 8.906zm-13.82 45.115c0 7.153-4.113 14.763-9.186 16.998-5.074 2.236-9.187-1.752-9.187-8.905s4.113-14.763 9.187-16.999c5.073-2.235 9.186 1.753 9.186 8.906zm-46.873 64.247c5.073-2.235 9.186-9.845 9.186-16.998 0-7.154-4.112-11.141-9.186-8.905-5.074 2.235-9.187 9.845-9.187 16.998 0 7.153 4.113 11.14 9.187 8.905zm-33.452 1.428c0 7.153-4.113 14.763-9.187 16.999-5.073 2.235-9.186-1.752-9.186-8.905s4.113-14.764 9.186-16.999c5.074-2.235 9.187 1.752 9.187 8.905zm-45.077 3.426c5.073-2.235 9.187-9.846 9.187-16.999 0-7.153-4.114-11.14-9.187-8.905-5.073 2.235-9.187 9.845-9.187 16.999 0 7.153 4.114 11.139 9.187 8.905zm-11.881-60.077c0 7.153-4.113 14.763-9.187 16.998-5.073 2.235-9.187-1.752-9.187-8.905s4.114-14.763 9.187-16.999c5.074-2.235 9.187 1.752 9.187 8.906zm-7.086-44.456c5.073-2.235 9.187-9.845 9.187-16.998 0-7.154-4.113-11.141-9.187-8.906-5.074 2.236-9.187 9.846-9.187 16.999 0 7.153 4.113 11.14 9.187 8.905z" fill="#CED2DC"/><path d="M147.321 143.849l.202.458-.202-.458zm0-25.904l-.202-.457.202.457zm-42.066 44.563l.201.457-.201-.457zm0-25.904l-.202-.458.202.458zm-38.27 73.111l-.201-.458.201.458zm0-25.904l-.201-.457.201.457zm117.983-25.961l-.201-.458.201.458zm0-25.904l-.201-.458.201.458zm19.096 131.336l-.201-.458.201.458zm0-25.904l.202.457-.202-.457zm-23.006 88.017l.201.458-.201-.458zm0-25.904l-.202-.457.202.457zm-37.687 73.153l-.202-.457.202.457zm0-25.903l.201.457-.201-.457zm-42.639 44.33l-.201-.458.201.458zm0-25.904l.202.458-.202-.458zm-35.89 12.331l-.201-.458.201.458zm0-25.904l-.201-.458.201.458zm-21.068-17.175l.202.458-.202-.458zm0-25.904l-.201-.457.201.457zm11.288-52.548h-.5.5zm-9.187 16.998l.202.458-.202-.458zm0-25.904l-.202-.457.202.457zm110.133-120.21c0 3.486-1.004 7.096-2.631 10.106-1.631 3.017-3.857 5.377-6.258 6.435l.404.915c2.672-1.177 5.04-3.74 6.734-6.875 1.698-3.142 2.751-6.914 2.751-10.581h-1zm-8.485-8.448c2.367-1.043 4.443-.624 5.946.834 1.533 1.486 2.539 4.12 2.539 7.614h1c0-3.659-1.051-6.595-2.843-8.332-1.821-1.766-4.34-2.223-7.046-1.031l.404.915zm-8.889 16.541c0-3.486 1.004-7.096 2.631-10.106 1.631-3.018 3.857-5.378 6.258-6.435l-.404-.915c-2.672 1.177-5.04 3.74-6.734 6.875-1.698 3.142-2.751 6.914-2.751 10.581h1zm8.485 8.448c-2.367 1.043-4.442.623-5.946-.834-1.533-1.486-2.539-4.12-2.539-7.614h-1c0 3.659 1.051 6.595 2.843 8.332 1.822 1.766 4.34 2.223 7.046 1.031l-.404-.915zm-41.663 19.573c2.673-1.177 5.04-3.74 6.734-6.874 1.698-3.143 2.751-6.915 2.751-10.582h-1c0 3.486-1.004 7.096-2.63 10.106-1.631 3.018-3.857 5.378-6.258 6.435l.403.915zm-9.888-9.362c0 3.659 1.05 6.595 2.843 8.332 1.821 1.765 4.339 2.222 7.045 1.03l-.403-.915c-2.368 1.043-4.443.624-5.946-.833-1.533-1.486-2.539-4.12-2.539-7.614h-1zm9.485-17.457c-2.673 1.178-5.04 3.74-6.734 6.875-1.698 3.142-2.751 6.914-2.751 10.582h1c0-3.486 1.004-7.096 2.63-10.106 1.632-3.018 3.858-5.378 6.258-6.435l-.403-.916zm9.888 9.363c0-3.659-1.051-6.595-2.842-8.332-1.822-1.766-4.34-2.222-7.046-1.031l.403.916c2.368-1.043 4.443-.624 5.947.833 1.532 1.486 2.538 4.12 2.538 7.614h1zm-47.754 64.664c2.672-1.178 5.04-3.741 6.734-6.875 1.698-3.142 2.75-6.914 2.75-10.582h-1c0 3.486-1.003 7.096-2.63 10.106-1.63 3.018-3.857 5.378-6.257 6.435l.403.916zm-9.888-9.363c0 3.659 1.05 6.595 2.842 8.332 1.822 1.766 4.34 2.223 7.046 1.031l-.403-.916c-2.368 1.044-4.443.624-5.947-.833-1.533-1.486-2.538-4.12-2.538-7.614h-1zm9.485-17.456c-2.673 1.177-5.04 3.74-6.735 6.875-1.698 3.142-2.75 6.914-2.75 10.581h1c0-3.486 1.003-7.096 2.63-10.106 1.631-3.018 3.857-5.378 6.258-6.435l-.403-.915zm9.888 9.362c0-3.659-1.051-6.595-2.843-8.332-1.822-1.766-4.34-2.222-7.045-1.03l.403.915c2.367-1.043 4.443-.624 5.946.833 1.533 1.486 2.539 4.12 2.539 7.614h1zm108.498-34.409c2.673-1.177 5.04-3.74 6.734-6.874 1.698-3.143 2.751-6.915 2.751-10.582h-1c0 3.486-1.004 7.096-2.631 10.106-1.631 3.018-3.857 5.378-6.257 6.435l.403.915zm-9.888-9.362c0 3.659 1.05 6.595 2.842 8.332 1.822 1.766 4.34 2.222 7.046 1.03l-.403-.915c-2.368 1.043-4.443.624-5.947-.833-1.533-1.486-2.538-4.12-2.538-7.614h-1zm9.485-17.457c-2.673 1.178-5.04 3.74-6.734 6.875-1.699 3.142-2.751 6.914-2.751 10.582h1c0-3.486 1.003-7.096 2.63-10.106 1.631-3.018 3.857-5.378 6.258-6.435l-.403-.916zm9.888 9.363c0-3.659-1.051-6.595-2.843-8.332-1.821-1.766-4.34-2.222-7.045-1.031l.403.916c2.367-1.043 4.443-.624 5.946.833 1.533 1.486 2.539 4.12 2.539 7.614h1zm18.096 105.432c0 3.486-1.004 7.096-2.63 10.106-1.631 3.017-3.857 5.377-6.258 6.435l.403.915c2.673-1.177 5.04-3.74 6.734-6.875 1.699-3.142 2.751-6.914 2.751-10.581h-1zm-8.485-8.448c2.368-1.043 4.443-.624 5.946.834 1.533 1.486 2.539 4.12 2.539 7.614h1c0-3.659-1.051-6.595-2.843-8.332-1.821-1.766-4.339-2.223-7.045-1.031l.403.915zm-8.888 16.541c0-3.486 1.004-7.095 2.63-10.105 1.631-3.018 3.857-5.378 6.258-6.436l-.403-.915c-2.673 1.178-5.04 3.74-6.734 6.875-1.699 3.142-2.751 6.914-2.751 10.581h1zm8.485 8.448c-2.368 1.043-4.443.624-5.946-.833-1.533-1.486-2.539-4.12-2.539-7.615h-1c0 3.659 1.051 6.596 2.843 8.333 1.821 1.765 4.339 2.222 7.045 1.03l-.403-.915zm-22.604 63.029c2.673-1.178 5.04-3.74 6.734-6.875 1.698-3.142 2.751-6.914 2.751-10.581h-1c0 3.486-1.004 7.095-2.63 10.106-1.631 3.017-3.857 5.377-6.258 6.435l.403.915zm-9.888-9.363c0 3.659 1.051 6.595 2.843 8.332 1.821 1.766 4.339 2.223 7.045 1.031l-.403-.915c-2.368 1.043-4.443.624-5.946-.834-1.533-1.486-2.539-4.12-2.539-7.614h-1zm9.485-17.456c-2.673 1.177-5.04 3.74-6.734 6.875-1.698 3.142-2.751 6.914-2.751 10.581h1c0-3.486 1.004-7.096 2.631-10.106 1.63-3.017 3.856-5.377 6.257-6.435l-.403-.915zm9.888 9.363c0-3.659-1.051-6.595-2.843-8.333-1.821-1.765-4.339-2.222-7.045-1.03l.403.915c2.368-1.043 4.443-.624 5.946.833 1.533 1.487 2.539 4.121 2.539 7.615h1zm-38.687 47.249c0 3.486-1.004 7.095-2.63 10.105-1.631 3.018-3.857 5.378-6.258 6.436l.403.915c2.673-1.178 5.04-3.741 6.734-6.875 1.699-3.142 2.751-6.914 2.751-10.581h-1zm-8.485-8.448c2.368-1.043 4.443-.624 5.947.833 1.533 1.486 2.538 4.12 2.538 7.615h1c0-3.659-1.05-6.596-2.842-8.333-1.822-1.765-4.34-2.222-7.046-1.03l.403.915zm-8.888 16.541c0-3.486 1.004-7.095 2.631-10.105 1.631-3.018 3.857-5.378 6.257-6.436l-.403-.915c-2.673 1.178-5.04 3.74-6.734 6.875-1.698 3.142-2.751 6.914-2.751 10.581h1zm8.485 8.448c-2.368 1.043-4.443.624-5.946-.834-1.533-1.486-2.539-4.12-2.539-7.614h-1c0 3.659 1.051 6.595 2.843 8.332 1.821 1.766 4.339 2.223 7.045 1.031l-.403-.915zm-42.235 19.341c2.672-1.177 5.04-3.74 6.734-6.875 1.698-3.142 2.751-6.914 2.751-10.581h-1c0 3.486-1.004 7.096-2.631 10.106-1.631 3.017-3.857 5.377-6.257 6.435l.403.915zm-9.888-9.362c0 3.659 1.05 6.595 2.842 8.332 1.822 1.765 4.34 2.222 7.046 1.03l-.403-.915c-2.368 1.043-4.443.624-5.947-.833-1.533-1.486-2.538-4.12-2.538-7.614h-1zm9.485-17.456c-2.673 1.177-5.04 3.74-6.735 6.874-1.698 3.143-2.75 6.915-2.75 10.582h1c0-3.486 1.003-7.096 2.63-10.106 1.631-3.018 3.857-5.378 6.258-6.435l-.403-.915zm9.888 9.362c0-3.659-1.051-6.595-2.843-8.332-1.822-1.765-4.34-2.222-7.045-1.03l.403.915c2.367-1.043 4.443-.624 5.946.833 1.533 1.486 2.539 4.12 2.539 7.614h1zm-36.89-13.573c0 3.486-1.004 7.096-2.631 10.106-1.63 3.018-3.857 5.378-6.257 6.435l.403.915c2.672-1.177 5.04-3.74 6.734-6.874 1.698-3.143 2.75-6.915 2.75-10.582h-1zm-8.485-8.447c2.367-1.044 4.443-.624 5.946.833 1.533 1.486 2.539 4.12 2.539 7.614h1c0-3.659-1.051-6.595-2.843-8.332-1.822-1.766-4.34-2.223-7.046-1.031l.404.916zm-8.889 16.541c0-3.486 1.004-7.096 2.631-10.106 1.631-3.018 3.857-5.378 6.258-6.435l-.403-.916c-2.673 1.178-5.04 3.741-6.735 6.875-1.698 3.142-2.75 6.914-2.75 10.582h1zm8.486 8.447c-2.368 1.043-4.443.624-5.947-.833-1.533-1.486-2.539-4.12-2.539-7.614h-1c0 3.659 1.051 6.595 2.843 8.332 1.822 1.765 4.34 2.222 7.046 1.03l-.403-.915zm-20.665-42.163c2.672-1.178 5.04-3.741 6.734-6.875 1.698-3.142 2.75-6.914 2.75-10.581h-1c0 3.486-1.003 7.095-2.63 10.105-1.63 3.018-3.857 5.378-6.257 6.436l.403.915zm-9.889-9.363c0 3.659 1.051 6.595 2.843 8.332 1.822 1.766 4.34 2.223 7.046 1.031l-.403-.915c-2.368 1.043-4.443.624-5.947-.834-1.533-1.486-2.538-4.12-2.538-7.614h-1zm9.486-17.456c-2.673 1.177-5.04 3.74-6.735 6.875-1.698 3.142-2.75 6.914-2.75 10.581h1c0-3.486 1.003-7.096 2.63-10.106 1.631-3.017 3.857-5.377 6.258-6.435l-.403-.915zm9.888 9.363c0-3.66-1.05-6.596-2.843-8.333-1.822-1.765-4.34-2.222-7.045-1.03l.403.915c2.367-1.043 4.443-.624 5.946.833 1.533 1.486 2.539 4.12 2.539 7.615h1zm1.1-61.454c0 3.486-1.003 7.095-2.63 10.105-1.631 3.018-3.857 5.378-6.258 6.436l.404.915c2.672-1.178 5.04-3.741 6.734-6.875 1.698-3.142 2.75-6.914 2.75-10.581h-1zm-8.484-8.448c2.367-1.043 4.443-.624 5.946.833 1.533 1.486 2.539 4.12 2.539 7.615h1c0-3.659-1.05-6.596-2.843-8.333-1.821-1.765-4.34-2.222-7.046-1.03l.404.915zm-8.889 16.541c0-3.486 1.004-7.096 2.63-10.106 1.632-3.017 3.858-5.377 6.259-6.435l-.404-.915c-2.672 1.177-5.04 3.74-6.734 6.875-1.698 3.142-2.75 6.914-2.75 10.581h1zm8.485 8.448c-2.367 1.043-4.443.624-5.946-.834-1.533-1.486-2.539-4.12-2.539-7.614h-1c0 3.659 1.05 6.595 2.843 8.332 1.821 1.766 4.34 2.223 7.046 1.031l-.404-.915z" fill="#CED2DC"/></mask><g mask="url(#a)" stroke="#AFB4C8" stroke-width=".6" stroke-miterlimit="10"><path d="M74.093 191.661c0 7.153-4.113 14.763-9.186 16.999-5.074 2.235-9.187-1.752-9.187-8.906 0-7.153 4.113-14.763 9.187-16.998 5.073-2.235 9.186 1.752 9.186 8.905zm38.27-47.208c0 7.154-4.114 14.764-9.187 16.999-5.073 2.235-9.186-1.752-9.186-8.905s4.113-14.764 9.186-16.999c5.074-2.234 9.187 1.752 9.187 8.905zm42.066-18.658c0 7.153-4.113 14.764-9.187 16.999-5.073 2.234-9.186-1.752-9.186-8.906 0-7.153 4.113-14.763 9.186-16.998 5.074-2.235 9.187 1.752 9.187 8.905zm37.647 14c0 7.154-4.113 14.764-9.186 16.999-5.074 2.235-9.187-1.752-9.187-8.905s4.113-14.764 9.187-16.999c5.073-2.234 9.186 1.752 9.186 8.905zM107.84 373.016c0 7.153-4.113 14.764-9.186 16.999-5.074 2.235-9.187-1.752-9.187-8.905s4.113-14.764 9.187-16.998c5.073-2.235 9.186 1.751 9.186 8.904zm-35.89-13.573c0 7.153-4.113 14.764-9.187 16.999-5.073 2.235-9.186-1.752-9.186-8.905s4.113-14.764 9.187-16.999c5.073-2.235 9.186 1.752 9.186 8.905zm-21.068-43.078c0 7.153-4.113 14.763-9.186 16.998-5.074 2.236-9.187-1.752-9.187-8.905s4.113-14.763 9.187-16.998c5.073-2.236 9.186 1.752 9.186 8.905zm2.101-61.454c0 7.153-4.113 14.763-9.187 16.999-5.074 2.235-9.186-1.752-9.186-8.906 0-7.153 4.113-14.763 9.186-16.998 5.074-2.235 9.188 1.752 9.187 8.905z"/></g><path d="M147.321 143.849l.202.458-.202-.458zm0-25.904l-.202-.457.202.457zm-42.066 44.563l.201.457-.201-.457zm0-25.904l-.202-.458.202.458zm-38.27 73.111l-.201-.458.201.458zm0-25.904l-.201-.457.201.457zm117.983-25.961l-.201-.458.201.458zm0-25.904l-.201-.458.201.458zm-84.236 259.125l-.201-.458.201.458zm0-25.904l.202.458-.202-.458zm-35.89 12.331l-.201-.458.201.458zm0-25.904l-.201-.458.201.458zm-21.068-17.175l.202.458-.202-.458zm0-25.904l-.201-.457.201.457zm11.288-52.548h-.5.5zm-9.187 16.998l.202.458-.202-.458zm0-25.904l-.202-.457.202.457zm97.496 125.583l-.202-.457.202.457zm12.637-245.793c0 3.486-1.004 7.096-2.631 10.106-1.631 3.017-3.857 5.377-6.258 6.435l.404.915c2.672-1.177 5.04-3.74 6.734-6.875 1.698-3.142 2.751-6.914 2.751-10.581h-1zm-8.485-8.448c2.367-1.043 4.443-.624 5.946.834 1.533 1.486 2.539 4.12 2.539 7.614h1c0-3.659-1.051-6.595-2.843-8.332-1.821-1.766-4.34-2.223-7.046-1.031l.404.915zm-8.889 16.541c0-3.486 1.004-7.096 2.631-10.106 1.631-3.018 3.857-5.378 6.258-6.435l-.404-.915c-2.672 1.177-5.04 3.74-6.734 6.875-1.698 3.142-2.751 6.914-2.751 10.581h1zm8.485 8.448c-2.367 1.043-4.442.623-5.946-.834-1.533-1.486-2.539-4.12-2.539-7.614h-1c0 3.659 1.051 6.595 2.843 8.332 1.822 1.766 4.34 2.223 7.046 1.031l-.404-.915zm-41.663 19.573c2.673-1.177 5.04-3.74 6.734-6.874 1.698-3.143 2.751-6.915 2.751-10.582h-1c0 3.486-1.004 7.096-2.63 10.106-1.631 3.018-3.857 5.378-6.258 6.435l.403.915zm-9.888-9.362c0 3.659 1.05 6.595 2.843 8.332 1.821 1.765 4.339 2.222 7.045 1.03l-.403-.915c-2.368 1.043-4.443.624-5.946-.833-1.533-1.486-2.539-4.12-2.539-7.614h-1zm9.485-17.457c-2.673 1.178-5.04 3.74-6.734 6.875-1.698 3.142-2.751 6.914-2.751 10.582h1c0-3.486 1.004-7.096 2.63-10.106 1.632-3.018 3.858-5.378 6.258-6.435l-.403-.916zm9.888 9.363c0-3.659-1.051-6.595-2.842-8.332-1.822-1.766-4.34-2.222-7.046-1.031l.403.916c2.368-1.043 4.443-.624 5.947.833 1.532 1.486 2.538 4.12 2.538 7.614h1zm-47.754 64.664c2.672-1.178 5.04-3.741 6.734-6.875 1.698-3.142 2.75-6.914 2.75-10.582h-1c0 3.486-1.003 7.096-2.63 10.106-1.63 3.018-3.857 5.378-6.257 6.435l.403.916zm-9.888-9.363c0 3.659 1.05 6.595 2.842 8.332 1.822 1.766 4.34 2.223 7.046 1.031l-.403-.916c-2.368 1.044-4.443.624-5.947-.833-1.533-1.486-2.538-4.12-2.538-7.614h-1zm9.485-17.456c-2.673 1.177-5.04 3.74-6.735 6.875-1.698 3.142-2.75 6.914-2.75 10.581h1c0-3.486 1.003-7.096 2.63-10.106 1.631-3.018 3.857-5.378 6.258-6.435l-.403-.915zm9.888 9.362c0-3.659-1.051-6.595-2.843-8.332-1.822-1.766-4.34-2.222-7.045-1.03l.403.915c2.367-1.043 4.443-.624 5.946.833 1.533 1.486 2.539 4.12 2.539 7.614h1zm108.498-34.409c2.673-1.177 5.04-3.74 6.734-6.874 1.698-3.143 2.751-6.915 2.751-10.582h-1c0 3.486-1.004 7.096-2.631 10.106-1.631 3.018-3.857 5.378-6.257 6.435l.403.915zm-9.888-9.362c0 3.659 1.05 6.595 2.842 8.332 1.822 1.766 4.34 2.222 7.046 1.03l-.403-.915c-2.368 1.043-4.443.624-5.947-.833-1.533-1.486-2.538-4.12-2.538-7.614h-1zm9.485-17.457c-2.673 1.178-5.04 3.74-6.734 6.875-1.699 3.142-2.751 6.914-2.751 10.582h1c0-3.486 1.003-7.096 2.63-10.106 1.631-3.018 3.857-5.378 6.258-6.435l-.403-.916zm9.888 9.363c0-3.659-1.051-6.595-2.843-8.332-1.821-1.766-4.34-2.222-7.045-1.031l.403.916c2.367-1.043 4.443-.624 5.946.833 1.533 1.486 2.539 4.12 2.539 7.614h1zm-93.721 250.677c2.672-1.177 5.04-3.74 6.734-6.875 1.698-3.142 2.751-6.914 2.751-10.581h-1c0 3.486-1.004 7.096-2.631 10.106-1.631 3.017-3.857 5.377-6.257 6.435l.403.915zm-9.888-9.362c0 3.659 1.05 6.595 2.842 8.332 1.822 1.765 4.34 2.222 7.046 1.03l-.403-.915c-2.368 1.043-4.443.624-5.947-.833-1.533-1.486-2.538-4.12-2.538-7.614h-1zm9.485-17.456c-2.673 1.177-5.04 3.74-6.735 6.874-1.698 3.143-2.75 6.915-2.75 10.582h1c0-3.486 1.003-7.096 2.63-10.106 1.631-3.018 3.857-5.378 6.258-6.435l-.403-.915zm9.888 9.362c0-3.659-1.051-6.595-2.843-8.332-1.822-1.765-4.34-2.222-7.045-1.03l.403.915c2.367-1.043 4.443-.624 5.946.833 1.533 1.486 2.539 4.12 2.539 7.614h1zm-36.89-13.573c0 3.486-1.004 7.096-2.631 10.106-1.63 3.018-3.857 5.378-6.257 6.435l.403.915c2.672-1.177 5.04-3.74 6.734-6.874 1.698-3.143 2.75-6.915 2.75-10.582h-1zm-8.485-8.447c2.367-1.044 4.443-.624 5.946.833 1.533 1.486 2.539 4.12 2.539 7.614h1c0-3.659-1.051-6.595-2.843-8.332-1.822-1.766-4.34-2.223-7.046-1.031l.404.916zm-8.889 16.541c0-3.486 1.004-7.096 2.631-10.106 1.631-3.018 3.857-5.378 6.258-6.435l-.403-.916c-2.673 1.178-5.04 3.741-6.735 6.875-1.698 3.142-2.75 6.914-2.75 10.582h1zm8.486 8.447c-2.368 1.043-4.443.624-5.947-.833-1.533-1.486-2.539-4.12-2.539-7.614h-1c0 3.659 1.051 6.595 2.843 8.332 1.822 1.765 4.34 2.222 7.046 1.03l-.403-.915zm-20.665-42.163c2.672-1.178 5.04-3.741 6.734-6.875 1.698-3.142 2.75-6.914 2.75-10.581h-1c0 3.486-1.003 7.095-2.63 10.105-1.63 3.018-3.857 5.378-6.257 6.436l.403.915zm-9.889-9.363c0 3.659 1.051 6.595 2.843 8.332 1.822 1.766 4.34 2.223 7.046 1.031l-.403-.915c-2.368 1.043-4.443.624-5.947-.834-1.533-1.486-2.538-4.12-2.538-7.614h-1zm9.486-17.456c-2.673 1.177-5.04 3.74-6.735 6.875-1.698 3.142-2.75 6.914-2.75 10.581h1c0-3.486 1.003-7.096 2.63-10.106 1.631-3.017 3.857-5.377 6.258-6.435l-.403-.915zm9.888 9.363c0-3.66-1.05-6.596-2.843-8.333-1.822-1.765-4.34-2.222-7.045-1.03l.403.915c2.367-1.043 4.443-.624 5.946.833 1.533 1.486 2.539 4.12 2.539 7.615h1zm1.1-61.454c0 3.486-1.003 7.095-2.63 10.105-1.631 3.018-3.857 5.378-6.258 6.436l.404.915c2.672-1.178 5.04-3.741 6.734-6.875 1.698-3.142 2.75-6.914 2.75-10.581h-1zm-8.484-8.448c2.367-1.043 4.443-.624 5.946.833 1.533 1.486 2.539 4.12 2.539 7.615h1c0-3.659-1.05-6.596-2.843-8.333-1.821-1.765-4.34-2.222-7.046-1.03l.404.915zm-8.889 16.541c0-3.486 1.004-7.096 2.63-10.106 1.632-3.017 3.858-5.377 6.259-6.435l-.404-.915c-2.672 1.177-5.04 3.74-6.734 6.875-1.698 3.142-2.75 6.914-2.75 10.581h1zm8.485 8.448c-2.367 1.043-4.443.624-5.946-.834-1.533-1.486-2.539-4.12-2.539-7.614h-1c0 3.659 1.05 6.595 2.843 8.332 1.821 1.766 4.34 2.223 7.046 1.031l-.404-.915zm97.496 99.679c-2.368 1.043-4.443.624-5.946-.834-1.533-1.486-2.539-4.12-2.539-7.614h-1c0 3.659 1.051 6.595 2.843 8.332 1.821 1.766 4.339 2.223 7.045 1.031l-.403-.915zm3.948-3.062c-1.205 1.385-2.548 2.445-3.948 3.062l.403.915c1.566-.69 3.024-1.854 4.299-3.321l-.754-.656zm-12.433-5.386c0-1.178.115-2.372.33-3.554l-.983-.179a20.803 20.803 0 0 0-.347 3.733h1z" fill="#AFB4C8"/><path d="M328.43 325.029l8.553 2.363a1 1 0 0 1 .704 1.206l-6.523 26.086-9.386-2.799-5.689-8.638 3.445-13.49 8.896-4.728z" fill="#fff" stroke="#AFB4C8" stroke-miterlimit="10"/><path d="M327.127 346.668l-10.063-2.901m12.65-10.615l-10.063-2.901" stroke="#AFB4C8" stroke-miterlimit="10" stroke-linecap="round" stroke-dasharray="0.1 2"/><path d="M337.146 328.363a1 1 0 0 1 1.305.333l5.187 7.877-3.444 13.49-8.896 4.728-5.688-8.637 3.444-13.49 8.092-4.301zm-10.796 53.85l8.554 2.363c.523.144.835.68.703 1.206l-6.522 26.086-9.386-2.8-5.689-8.637 3.445-13.49 8.895-4.728z" fill="#fff" stroke="#AFB4C8" stroke-miterlimit="10"/><path d="M325.048 403.851l-10.063-2.9m12.65-10.616l-10.063-2.9" stroke="#AFB4C8" stroke-miterlimit="10" stroke-linecap="round" stroke-dasharray="0.1 2"/><path d="M335.067 385.546a1 1 0 0 1 1.304.333l5.188 7.877-3.444 13.49-8.896 4.729-5.689-8.638 3.445-13.49 8.092-4.301zm9.999 36.175l8.553 2.363a1 1 0 0 1 .704 1.207l-6.522 26.085-9.387-2.799-5.688-8.637 3.445-13.49 8.895-4.729z" fill="#fff" stroke="#AFB4C8" stroke-miterlimit="10"/><path d="M343.764 443.36l-10.063-2.9m12.65-10.616l-10.063-2.9" stroke="#AFB4C8" stroke-miterlimit="10" stroke-linecap="round" stroke-dasharray="0.1 2"/><path d="M353.783 425.055a1 1 0 0 1 1.304.333l5.188 7.877-3.445 13.49-8.895 4.728-5.689-8.637 3.445-13.49 8.092-4.301zm-5.597-157.21l8.554 2.363a1 1 0 0 1 .703 1.207l-6.522 26.085-9.386-2.799-5.689-8.637 3.445-13.491 8.895-4.728z" fill="#fff" stroke="#AFB4C8" stroke-miterlimit="10"/><path d="M346.884 289.484l-10.063-2.901m12.65-10.615l-10.063-2.901" stroke="#AFB4C8" stroke-miterlimit="10" stroke-linecap="round" stroke-dasharray="0.1 2"/><path d="M356.903 271.179a1 1 0 0 1 1.304.333l5.188 7.877-3.444 13.49-8.896 4.728-5.689-8.637 3.445-13.49 8.092-4.301zm27.672-45.962l8.553 2.363c.523.145.835.68.704 1.207l-6.522 26.085-9.387-2.799-5.689-8.637 3.445-13.49 8.896-4.729z" fill="#fff" stroke="#AFB4C8" stroke-miterlimit="10"/><path d="M383.272 246.856l-10.063-2.9m12.65-10.616l-10.063-2.901" stroke="#AFB4C8" stroke-miterlimit="10" stroke-linecap="round" stroke-dasharray="0.1 2"/><path d="M393.291 228.551a1 1 0 0 1 1.305.333l5.187 7.877-3.444 13.49-8.896 4.728-5.688-8.637 3.444-13.49 8.092-4.301zm31.832-22.048l8.553 2.363a1 1 0 0 1 .704 1.206l-6.522 26.086-9.387-2.8-5.688-8.637 3.444-13.49 8.896-4.728z" fill="#fff" stroke="#AFB4C8" stroke-miterlimit="10"/><path d="M423.82 228.141l-10.063-2.9m12.651-10.616l-10.063-2.9" stroke="#AFB4C8" stroke-miterlimit="10" stroke-linecap="round" stroke-dasharray="0.1 2"/><path d="M433.839 209.836a1 1 0 0 1 1.305.333l5.188 7.877-3.445 13.49-8.896 4.729-5.688-8.638 3.445-13.49 8.091-4.301z" fill="#fff" stroke="#AFB4C8" stroke-miterlimit="10"/><path d="M438.957 500.554l-31.865-6.458c-32.533-8.462-54.873-45.457-54.873-99.391 0-76.018 44.383-156.897 99.133-180.65 13.191-5.722 25.781-7.607 37.293-6.107l28.592 6.623" fill="#fff"/><path d="M438.957 500.554l-31.865-6.458c-32.533-8.462-54.873-45.457-54.873-99.391 0-76.018 44.383-156.897 99.133-180.65 13.191-5.722 25.781-7.607 37.293-6.107l28.592 6.623M376.27 168.947v9.996c0 3.987 2.726 7.549 6.778 8.746l.166.048" stroke="#AFB4C8" stroke-miterlimit="10"/><mask id="b" maskUnits="userSpaceOnUse" x="385" y="222" width="183" height="272"><path fill-rule="evenodd" clip-rule="evenodd" d="M508.221 232.149c0 7.044-4.113 14.54-9.186 16.741-5.074 2.2-9.187-1.726-9.187-8.771 0-7.044 4.113-14.54 9.187-16.741 5.074-2.2 9.186 1.726 9.186 8.771zm-51.254 35.116c5.074-2.201 9.187-9.696 9.187-16.741s-4.113-10.971-9.187-8.77c-5.073 2.201-9.186 9.696-9.186 16.741s4.113 10.971 9.186 8.77zm-38.268 46.492c5.073-2.201 9.186-9.696 9.186-16.741s-4.113-10.971-9.186-8.77c-5.074 2.201-9.187 9.696-9.187 16.741s4.113 10.971 9.187 8.77zm117.982-51.079c5.073-2.201 9.187-9.696 9.187-16.741s-4.114-10.971-9.187-8.77c-5.073 2.201-9.187 9.696-9.187 16.741 0 7.044 4.113 10.971 9.187 8.77zm29.996 25.819c0 7.044-4.113 14.539-9.187 16.741-5.074 2.201-9.187-1.726-9.187-8.771 0-7.044 4.114-14.54 9.187-16.741 5.074-2.2 9.187 1.726 9.187 8.771zm-10.9 78.015c5.074-2.202 9.187-9.697 9.187-16.741 0-7.045-4.113-10.972-9.187-8.771-5.073 2.202-9.187 9.697-9.187 16.741 0 7.045 4.114 10.972 9.187 8.771zm-13.82 44.431c0 7.045-4.113 14.539-9.187 16.741-5.074 2.201-9.186-1.726-9.186-8.77 0-7.045 4.113-14.54 9.186-16.741 5.074-2.202 9.187 1.725 9.187 8.77zm-46.874 63.273c5.074-2.201 9.187-9.696 9.187-16.741 0-7.044-4.113-10.971-9.187-8.769-5.073 2.201-9.186 9.696-9.186 16.741 0 7.044 4.113 10.971 9.186 8.769zm-33.451 1.407c0 7.044-4.113 14.539-9.186 16.741-5.074 2.201-9.187-1.726-9.187-8.77 0-7.045 4.113-14.54 9.187-16.741 5.073-2.201 9.186 1.725 9.186 8.77zm-45.077 3.373c5.073-2.2 9.186-9.696 9.186-16.741 0-7.044-4.113-10.971-9.186-8.77-5.074 2.202-9.187 9.696-9.187 16.741s4.113 10.971 9.187 8.77zm-11.881-59.166c0 7.045-4.114 14.54-9.187 16.741-5.074 2.201-9.187-1.726-9.187-8.77 0-7.045 4.113-14.54 9.187-16.741 5.073-2.202 9.187 1.725 9.187 8.77zm-7.084-43.782c5.074-2.201 9.187-9.696 9.187-16.741.001-7.044-4.113-10.971-9.187-8.77-5.073 2.201-9.186 9.696-9.186 16.741s4.113 10.972 9.186 8.77z" fill="#CED2DC"/><path d="M499.035 223.378l-.199-.458.199.458zm-42.068 43.887l.199.459-.199-.459zm0-25.511l-.199-.459.199.459zm-38.268 72.003l.199.459-.199-.459zm0-25.511l-.199-.459.199.459zm117.982-25.568l-.199-.459.199.459zm20.809 42.56l.199.458-.199-.458zm0-25.512l.199.459-.199-.459zM555.777 341l-.199-.458.199.458zm-23.007 86.684l.199.458-.199-.458zm-37.687 46.532l-.199-.458.199.458zm0-25.51l.199.458-.199-.458zm-42.637 43.658l-.199-.459.199.459zm0-25.511l.199.458-.199-.458zm-35.891 12.143l-.199-.458.199.458zm0-25.511l-.199-.458.199.458zm-21.068-16.914l.199.459-.199-.459zm0-25.511l.199.458-.199-.458zm11.29-51.753h-.5.5zm-9.187 16.741l.199.459-.199-.459zm0-25.511l-.199-.459.199.459zm101.644-101.189c2.672-1.159 5.04-3.683 6.735-6.772 1.699-3.096 2.752-6.813 2.752-10.427h-1c0 3.43-1.003 6.983-2.629 9.946-1.63 2.97-3.855 5.294-6.256 6.336l.398.917zm-9.886-9.229c0 3.607 1.052 6.502 2.845 8.214 1.822 1.739 4.338 2.188 7.041 1.015l-.398-.917c-2.371 1.028-4.449.614-5.952-.821-1.531-1.462-2.536-4.053-2.536-7.491h-1zm9.488-17.199c-2.672 1.159-5.041 3.683-6.736 6.772-1.699 3.096-2.752 6.813-2.752 10.427h1c0-3.43 1.003-6.983 2.629-9.946 1.63-2.97 3.855-5.294 6.257-6.336l-.398-.917zm9.885 9.229c0-3.607-1.052-6.502-2.845-8.214-1.822-1.739-4.337-2.188-7.04-1.015l.398.917c2.37-1.028 4.448-.614 5.951.821 1.532 1.462 2.536 4.053 2.536 7.491h1zm-43.067 18.375c0 3.43-1.003 6.983-2.629 9.947-1.63 2.97-3.855 5.294-6.257 6.335l.398.918c2.672-1.159 5.04-3.683 6.735-6.772 1.699-3.096 2.753-6.813 2.753-10.428h-1zm-8.488-8.311c2.371-1.029 4.449-.614 5.952.821 1.531 1.462 2.536 4.052 2.536 7.49h1c0-3.607-1.052-6.501-2.845-8.214-1.822-1.739-4.337-2.187-7.041-1.015l.398.918zm-8.885 16.282c0-3.43 1.003-6.983 2.629-9.946 1.63-2.971 3.855-5.295 6.256-6.336l-.398-.918c-2.672 1.159-5.04 3.684-6.735 6.772-1.699 3.096-2.752 6.814-2.752 10.428h1zm8.487 8.311c-2.37 1.029-4.448.615-5.951-.82-1.532-1.462-2.536-4.053-2.536-7.491h-1c0 3.607 1.052 6.502 2.845 8.214 1.822 1.739 4.337 2.187 7.04 1.015l-.398-.918zm-29.383 30.21c0 3.43-1.003 6.983-2.629 9.946-1.63 2.971-3.855 5.294-6.256 6.336l.398.918c2.672-1.16 5.04-3.684 6.735-6.773 1.699-3.095 2.752-6.812 2.752-10.427h-1zm-8.487-8.311c2.37-1.029 4.448-.615 5.951.82 1.532 1.462 2.536 4.053 2.536 7.491h1c0-3.607-1.051-6.502-2.845-8.214-1.822-1.739-4.337-2.188-7.04-1.015l.398.918zm-8.886 16.282c0-3.43 1.003-6.983 2.629-9.946 1.63-2.971 3.856-5.295 6.257-6.336l-.398-.918c-2.672 1.16-5.04 3.684-6.735 6.773-1.699 3.095-2.753 6.812-2.753 10.427h1zm8.488 8.311c-2.371 1.029-4.448.615-5.952-.82-1.531-1.462-2.536-4.053-2.536-7.491h-1c0 3.607 1.052 6.502 2.846 8.214 1.821 1.739 4.337 2.188 7.04 1.015l-.398-.918zm126.868-67.361c0 3.43-1.003 6.983-2.629 9.946-1.63 2.971-3.856 5.295-6.257 6.336l.398.918c2.672-1.16 5.04-3.684 6.735-6.773 1.699-3.096 2.753-6.813 2.753-10.427h-1zm-8.488-8.312c2.37-1.028 4.448-.614 5.952.821 1.531 1.462 2.536 4.053 2.536 7.491h1c0-3.607-1.052-6.502-2.846-8.214-1.822-1.739-4.337-2.188-7.04-1.015l.398.917zm-8.886 16.283c0-3.431 1.003-6.984 2.629-9.947 1.63-2.97 3.856-5.294 6.257-6.336l-.398-.917c-2.672 1.159-5.04 3.683-6.735 6.772-1.699 3.096-2.753 6.813-2.753 10.428h1zm8.488 8.311c-2.371 1.029-4.449.615-5.952-.821-1.531-1.462-2.536-4.052-2.536-7.49h-1c0 3.607 1.052 6.501 2.846 8.214 1.821 1.739 4.337 2.187 7.04 1.015l-.398-.918zm21.207 43.477c2.672-1.159 5.04-3.683 6.735-6.772 1.699-3.096 2.753-6.813 2.753-10.427h-1c0 3.43-1.003 6.983-2.629 9.946-1.63 2.97-3.856 5.294-6.257 6.336l.398.917zm-9.886-9.229c0 3.607 1.052 6.502 2.846 8.214 1.821 1.739 4.337 2.188 7.04 1.015l-.398-.917c-2.37 1.028-4.448.614-5.952-.821-1.531-1.462-2.536-4.053-2.536-7.491h-1zm9.488-17.199c-2.672 1.159-5.04 3.683-6.735 6.772-1.699 3.096-2.753 6.813-2.753 10.427h1c0-3.43 1.003-6.983 2.63-9.946 1.629-2.97 3.855-5.294 6.256-6.336l-.398-.917zm9.886 9.229c0-3.607-1.052-6.502-2.846-8.214-1.821-1.739-4.337-2.188-7.04-1.015l.398.917c2.37-1.028 4.448-.614 5.952.821 1.531 1.462 2.536 4.053 2.536 7.491h1zm-2.713 61.274c0 3.43-1.003 6.983-2.629 9.946-1.63 2.97-3.855 5.294-6.257 6.336l.398.917c2.672-1.159 5.04-3.683 6.735-6.772 1.699-3.096 2.753-6.813 2.753-10.427h-1zm-8.488-8.312c2.371-1.028 4.449-.614 5.952.821 1.531 1.462 2.536 4.053 2.536 7.491h1c0-3.607-1.052-6.502-2.846-8.214-1.821-1.74-4.337-2.188-7.04-1.015l.398.917zm-8.886 16.282c0-3.43 1.004-6.983 2.63-9.946 1.63-2.97 3.855-5.294 6.256-6.336l-.398-.917c-2.672 1.159-5.04 3.683-6.735 6.772-1.699 3.096-2.753 6.813-2.753 10.427h1zm8.488 8.312c-2.37 1.028-4.448.614-5.951-.821-1.532-1.462-2.537-4.053-2.537-7.491h-1c0 3.607 1.052 6.502 2.846 8.214 1.822 1.739 4.337 2.188 7.04 1.015l-.398-.917zm-22.609 62.089c2.672-1.159 5.04-3.683 6.735-6.772 1.699-3.096 2.753-6.813 2.753-10.427h-1c0 3.43-1.003 6.983-2.629 9.946-1.63 2.97-3.855 5.294-6.257 6.336l.398.917zm-9.885-9.228c0 3.606 1.051 6.501 2.845 8.214 1.822 1.739 4.337 2.187 7.04 1.014l-.398-.917c-2.37 1.029-4.448.614-5.952-.821-1.531-1.462-2.535-4.053-2.535-7.49h-1zm9.487-17.2c-2.672 1.159-5.04 3.683-6.735 6.772-1.699 3.096-2.752 6.813-2.752 10.428h1c0-3.431 1.003-6.984 2.629-9.947 1.63-2.97 3.855-5.294 6.256-6.336l-.398-.917zm9.886 9.229c0-3.607-1.052-6.502-2.846-8.214-1.821-1.739-4.337-2.188-7.04-1.015l.398.917c2.371-1.028 4.449-.614 5.952.821 1.531 1.462 2.536 4.053 2.536 7.491h1zm-38.687 46.532c0 3.431-1.003 6.984-2.629 9.947-1.63 2.97-3.855 5.294-6.257 6.336l.398.917c2.673-1.159 5.041-3.683 6.736-6.772 1.698-3.096 2.752-6.813 2.752-10.428h-1zm-8.488-8.311c2.371-1.028 4.449-.614 5.952.821 1.532 1.462 2.536 4.053 2.536 7.49h1c0-3.606-1.052-6.501-2.845-8.214-1.822-1.739-4.337-2.187-7.041-1.014l.398.917zm-8.885 16.283c0-3.431 1.003-6.983 2.629-9.947 1.63-2.97 3.855-5.294 6.256-6.336l-.398-.917c-2.672 1.159-5.04 3.683-6.735 6.772-1.699 3.096-2.752 6.813-2.752 10.428h1zm8.487 8.311c-2.37 1.028-4.448.614-5.951-.821-1.532-1.462-2.536-4.053-2.536-7.49h-1c0 3.606 1.052 6.501 2.845 8.213 1.822 1.739 4.337 2.188 7.04 1.015l-.398-.917zm-42.239 19.064c2.672-1.159 5.04-3.683 6.735-6.772 1.699-3.096 2.752-6.813 2.752-10.427h-1c0 3.43-1.003 6.983-2.629 9.946-1.63 2.97-3.855 5.294-6.256 6.336l.398.917zm-9.886-9.228c0 3.607 1.052 6.501 2.846 8.213 1.821 1.739 4.337 2.188 7.04 1.015l-.398-.917c-2.371 1.028-4.448.614-5.952-.821-1.531-1.462-2.536-4.053-2.536-7.49h-1zm9.488-17.2c-2.672 1.159-5.04 3.683-6.735 6.772-1.699 3.096-2.753 6.813-2.753 10.428h1c0-3.43 1.003-6.983 2.629-9.947 1.63-2.97 3.855-5.294 6.257-6.336l-.398-.917zm9.885 9.229c0-3.607-1.052-6.502-2.845-8.214-1.822-1.739-4.337-2.188-7.04-1.015l.398.917c2.37-1.028 4.448-.614 5.951.821 1.532 1.462 2.536 4.053 2.536 7.491h1zm-36.891-13.368c0 3.431-1.003 6.984-2.629 9.947-1.63 2.97-3.855 5.294-6.256 6.336l.398.917c2.672-1.159 5.04-3.683 6.735-6.772 1.699-3.096 2.752-6.813 2.752-10.428h-1zm-8.487-8.311c2.37-1.028 4.448-.614 5.951.821 1.532 1.462 2.536 4.053 2.536 7.49h1c0-3.606-1.052-6.501-2.845-8.214-1.822-1.739-4.337-2.187-7.04-1.014l.398.917zm-8.886 16.282c0-3.43 1.003-6.983 2.629-9.946 1.63-2.97 3.855-5.294 6.257-6.336l-.398-.917c-2.672 1.159-5.04 3.683-6.735 6.772-1.699 3.096-2.753 6.813-2.753 10.427h1zm8.488 8.312c-2.371 1.028-4.448.614-5.952-.821-1.531-1.462-2.536-4.053-2.536-7.491h-1c0 3.607 1.052 6.502 2.846 8.214 1.821 1.739 4.337 2.188 7.04 1.015l-.398-.917zm-20.67-41.508c2.672-1.16 5.04-3.684 6.735-6.773 1.699-3.096 2.753-6.813 2.753-10.427h-1c0 3.43-1.003 6.983-2.63 9.946-1.629 2.97-3.855 5.294-6.256 6.336l.398.918zm-9.886-9.229c0 3.607 1.052 6.501 2.846 8.214 1.821 1.739 4.337 2.187 7.04 1.015l-.398-.918c-2.37 1.029-4.448.615-5.952-.821-1.531-1.462-2.536-4.052-2.536-7.49h-1zm9.488-17.2c-2.672 1.159-5.04 3.684-6.735 6.772-1.699 3.096-2.753 6.813-2.753 10.428h1c0-3.431 1.003-6.983 2.629-9.947 1.63-2.97 3.856-5.294 6.257-6.336l-.398-.917zm9.886 9.229c0-3.607-1.052-6.502-2.846-8.214-1.822-1.739-4.337-2.188-7.04-1.015l.398.917c2.37-1.028 4.448-.614 5.952.821 1.531 1.462 2.536 4.053 2.536 7.491h1zm1.103-60.523c0 3.431-1.003 6.984-2.629 9.947-1.63 2.97-3.855 5.294-6.257 6.336l.398.917c2.673-1.159 5.041-3.683 6.736-6.772 1.699-3.096 2.752-6.813 2.752-10.428h-1zm-8.488-8.311c2.371-1.029 4.449-.615 5.952.821 1.532 1.462 2.536 4.052 2.536 7.49h1c0-3.606-1.052-6.501-2.845-8.214-1.822-1.739-4.337-2.187-7.041-1.015l.398.918zm-8.885 16.282c0-3.43 1.003-6.983 2.629-9.946 1.63-2.97 3.855-5.294 6.256-6.336l-.398-.918c-2.672 1.16-5.04 3.684-6.735 6.773-1.699 3.096-2.752 6.813-2.752 10.427h1zm8.487 8.312c-2.37 1.028-4.448.614-5.951-.821-1.532-1.462-2.536-4.053-2.536-7.491h-1c0 3.607 1.052 6.502 2.845 8.214 1.822 1.739 4.337 2.188 7.04 1.015l-.398-.917z" fill="#CED2DC"/></mask><g mask="url(#b)" stroke="#AFB4C8" stroke-width=".6" stroke-miterlimit="10"><path d="M425.807 295.976c0 7.045-4.113 14.54-9.187 16.741-5.073 2.202-9.186-1.725-9.186-8.77s4.113-14.54 9.186-16.741c5.074-2.201 9.187 1.725 9.187 8.77zm38.269-46.492c0 7.045-4.113 14.54-9.186 16.741-5.074 2.201-9.187-1.725-9.187-8.77s4.113-14.54 9.187-16.741c5.073-2.201 9.186 1.726 9.186 8.77zm42.067-18.375c0 7.045-4.114 14.54-9.187 16.741-5.073 2.201-9.187-1.726-9.187-8.77 0-7.045 4.114-14.541 9.187-16.741 5.074-2.201 9.187 1.725 9.187 8.77zm37.647 13.788c0 7.045-4.113 14.54-9.187 16.741-5.074 2.201-9.186-1.725-9.186-8.77s4.113-14.54 9.186-16.741c5.074-2.201 9.187 1.725 9.187 8.77zm20.809 42.56c0 7.045-4.113 14.54-9.187 16.741-5.073 2.201-9.186-1.726-9.186-8.77 0-7.045 4.113-14.54 9.186-16.741 5.074-2.201 9.187 1.725 9.187 8.77zm-1.713 61.274c0 7.045-4.113 14.54-9.187 16.741-5.073 2.201-9.186-1.726-9.186-8.77 0-7.045 4.113-14.54 9.186-16.741 5.074-2.202 9.187 1.725 9.187 8.77zm-23.007 61.172c0 7.045-4.113 14.54-9.186 16.741-5.074 2.201-9.187-1.725-9.187-8.77s4.113-14.54 9.187-16.741c5.073-2.202 9.186 1.725 9.186 8.77zm-37.687 46.533c0 7.044-4.113 14.539-9.186 16.741-5.074 2.201-9.187-1.726-9.187-8.77 0-7.045 4.113-14.54 9.187-16.741 5.074-2.202 9.186 1.725 9.186 8.77zm-42.638 18.147c0 7.045-4.113 14.54-9.187 16.741-5.073 2.201-9.186-1.726-9.186-8.77 0-7.045 4.113-14.54 9.186-16.741 5.074-2.201 9.187 1.725 9.187 8.77zm-35.89-13.367c0 7.044-4.114 14.54-9.187 16.741-5.073 2.2-9.187-1.726-9.187-8.771 0-7.044 4.114-14.539 9.187-16.741 5.073-2.201 9.187 1.726 9.187 8.771zm-21.068-42.426c0 7.045-4.113 14.54-9.187 16.741-5.073 2.201-9.187-1.725-9.187-8.77s4.114-14.54 9.187-16.741c5.074-2.201 9.187 1.725 9.187 8.77zm2.103-60.523c0 7.045-4.113 14.54-9.186 16.741-5.074 2.202-9.187-1.725-9.187-8.77 0-7.044 4.113-14.539 9.187-16.741 5.074-2.201 9.187 1.726 9.186 8.77z"/></g><path d="M499.035 223.378l-.199-.458.199.458zm-42.068 43.887l.199.459-.199-.459zm0-25.511l-.199-.459.199.459zm-38.268 72.003l.199.459-.199-.459zm0-25.511l-.199-.459.199.459zm117.982-25.568l-.199-.459.199.459zm20.809 42.56l.199.458-.199-.458zm0-25.512l.199.459-.199-.459zM555.777 341l-.199-.458.199.458zm-23.007 86.684l.199.458-.199-.458zm-37.687 46.532l-.199-.458.199.458zm0-25.51l.199.458-.199-.458zm-42.637 43.658l-.199-.459.199.459zm0-25.511l.199.458-.199-.458zm-35.891 12.143l-.199-.458.199.458zm0-25.511l-.199-.458.199.458zm-21.068-16.914l.199.459-.199-.459zm0-25.511l.199.458-.199-.458zm11.29-51.753h-.5.5zm-9.187 16.741l.199.459-.199-.459zm0-25.511l-.199-.459.199.459zm101.644-101.189c2.672-1.159 5.04-3.683 6.735-6.772 1.699-3.096 2.752-6.813 2.752-10.427h-1c0 3.43-1.003 6.983-2.629 9.946-1.63 2.97-3.855 5.294-6.256 6.336l.398.917zm-9.886-9.229c0 3.607 1.052 6.502 2.845 8.214 1.822 1.739 4.338 2.188 7.041 1.015l-.398-.917c-2.371 1.028-4.449.614-5.952-.821-1.531-1.462-2.536-4.053-2.536-7.491h-1zm9.488-17.199c-2.672 1.159-5.041 3.683-6.736 6.772-1.699 3.096-2.752 6.813-2.752 10.427h1c0-3.43 1.003-6.983 2.629-9.946 1.63-2.97 3.855-5.294 6.257-6.336l-.398-.917zm9.885 9.229c0-3.607-1.052-6.502-2.845-8.214-1.822-1.739-4.337-2.188-7.04-1.015l.398.917c2.37-1.028 4.448-.614 5.951.821 1.532 1.462 2.536 4.053 2.536 7.491h1zm-43.067 18.375c0 3.43-1.003 6.983-2.629 9.947-1.63 2.97-3.855 5.294-6.257 6.335l.398.918c2.672-1.159 5.04-3.683 6.735-6.772 1.699-3.096 2.753-6.813 2.753-10.428h-1zm-8.488-8.311c2.371-1.029 4.449-.614 5.952.821 1.531 1.462 2.536 4.052 2.536 7.49h1c0-3.607-1.052-6.501-2.845-8.214-1.822-1.739-4.337-2.187-7.041-1.015l.398.918zm-8.885 16.282c0-3.43 1.003-6.983 2.629-9.946 1.63-2.971 3.855-5.295 6.256-6.336l-.398-.918c-2.672 1.159-5.04 3.684-6.735 6.772-1.699 3.096-2.752 6.814-2.752 10.428h1zm8.487 8.311c-2.37 1.029-4.448.615-5.951-.82-1.532-1.462-2.536-4.053-2.536-7.491h-1c0 3.607 1.052 6.502 2.845 8.214 1.822 1.739 4.337 2.187 7.04 1.015l-.398-.918zm-29.383 30.21c0 3.43-1.003 6.983-2.629 9.946-1.63 2.971-3.855 5.294-6.256 6.336l.398.918c2.672-1.16 5.04-3.684 6.735-6.773 1.699-3.095 2.752-6.812 2.752-10.427h-1zm-8.487-8.311c2.37-1.029 4.448-.615 5.951.82 1.532 1.462 2.536 4.053 2.536 7.491h1c0-3.607-1.051-6.502-2.845-8.214-1.822-1.739-4.337-2.188-7.04-1.015l.398.918zm-8.886 16.282c0-3.43 1.003-6.983 2.629-9.946 1.63-2.971 3.856-5.295 6.257-6.336l-.398-.918c-2.672 1.16-5.04 3.684-6.735 6.773-1.699 3.095-2.753 6.812-2.753 10.427h1zm8.488 8.311c-2.371 1.029-4.448.615-5.952-.82-1.531-1.462-2.536-4.053-2.536-7.491h-1c0 3.607 1.052 6.502 2.846 8.214 1.821 1.739 4.337 2.188 7.04 1.015l-.398-.918zm126.868-67.361c0 3.43-1.003 6.983-2.629 9.946-1.63 2.971-3.856 5.295-6.257 6.336l.398.918c2.672-1.16 5.04-3.684 6.735-6.773 1.699-3.096 2.753-6.813 2.753-10.427h-1zm-8.488-8.312c2.37-1.028 4.448-.614 5.952.821 1.531 1.462 2.536 4.053 2.536 7.491h1c0-3.607-1.052-6.502-2.846-8.214-1.822-1.739-4.337-2.188-7.04-1.015l.398.917zm-8.886 16.283c0-3.431 1.003-6.984 2.629-9.947 1.63-2.97 3.856-5.294 6.257-6.336l-.398-.917c-2.672 1.159-5.04 3.683-6.735 6.772-1.699 3.096-2.753 6.813-2.753 10.428h1zm8.488 8.311c-2.371 1.029-4.449.615-5.952-.821-1.531-1.462-2.536-4.052-2.536-7.49h-1c0 3.607 1.052 6.501 2.846 8.214 1.821 1.739 4.337 2.187 7.04 1.015l-.398-.918zm21.207 43.477c2.672-1.159 5.04-3.683 6.735-6.772 1.699-3.096 2.753-6.813 2.753-10.427h-1c0 3.43-1.003 6.983-2.629 9.946-1.63 2.97-3.856 5.294-6.257 6.336l.398.917zm-9.886-9.229c0 3.607 1.052 6.502 2.846 8.214 1.821 1.739 4.337 2.188 7.04 1.015l-.398-.917c-2.37 1.028-4.448.614-5.952-.821-1.531-1.462-2.536-4.053-2.536-7.491h-1zm9.488-17.199c-2.672 1.159-5.04 3.683-6.735 6.772-1.699 3.096-2.753 6.813-2.753 10.427h1c0-3.43 1.003-6.983 2.63-9.946 1.629-2.97 3.855-5.294 6.256-6.336l-.398-.917zm9.886 9.229c0-3.607-1.052-6.502-2.846-8.214-1.821-1.739-4.337-2.188-7.04-1.015l.398.917c2.37-1.028 4.448-.614 5.952.821 1.531 1.462 2.536 4.053 2.536 7.491h1zm-2.713 61.274c0 3.43-1.003 6.983-2.629 9.946-1.63 2.97-3.855 5.294-6.257 6.336l.398.917c2.672-1.159 5.04-3.683 6.735-6.772 1.699-3.096 2.753-6.813 2.753-10.427h-1zm-8.488-8.312c2.371-1.028 4.449-.614 5.952.821 1.531 1.462 2.536 4.053 2.536 7.491h1c0-3.607-1.052-6.502-2.846-8.214-1.821-1.74-4.337-2.188-7.04-1.015l.398.917zm-8.886 16.282c0-3.43 1.004-6.983 2.63-9.946 1.63-2.97 3.855-5.294 6.256-6.336l-.398-.917c-2.672 1.159-5.04 3.683-6.735 6.772-1.699 3.096-2.753 6.813-2.753 10.427h1zm8.488 8.312c-2.37 1.028-4.448.614-5.951-.821-1.532-1.462-2.537-4.053-2.537-7.491h-1c0 3.607 1.052 6.502 2.846 8.214 1.822 1.739 4.337 2.188 7.04 1.015l-.398-.917zm-22.609 62.089c2.672-1.159 5.04-3.683 6.735-6.772 1.699-3.096 2.753-6.813 2.753-10.427h-1c0 3.43-1.003 6.983-2.629 9.946-1.63 2.97-3.855 5.294-6.257 6.336l.398.917zm-9.885-9.228c0 3.606 1.051 6.501 2.845 8.214 1.822 1.739 4.337 2.187 7.04 1.014l-.398-.917c-2.37 1.029-4.448.614-5.952-.821-1.531-1.462-2.535-4.053-2.535-7.49h-1zm9.487-17.2c-2.672 1.159-5.04 3.683-6.735 6.772-1.699 3.096-2.752 6.813-2.752 10.428h1c0-3.431 1.003-6.984 2.629-9.947 1.63-2.97 3.855-5.294 6.256-6.336l-.398-.917zm9.886 9.229c0-3.607-1.052-6.502-2.846-8.214-1.821-1.739-4.337-2.188-7.04-1.015l.398.917c2.371-1.028 4.449-.614 5.952.821 1.531 1.462 2.536 4.053 2.536 7.491h1zm-38.687 46.532c0 3.431-1.003 6.984-2.629 9.947-1.63 2.97-3.855 5.294-6.257 6.336l.398.917c2.673-1.159 5.041-3.683 6.736-6.772 1.698-3.096 2.752-6.813 2.752-10.428h-1zm-8.488-8.311c2.371-1.028 4.449-.614 5.952.821 1.532 1.462 2.536 4.053 2.536 7.49h1c0-3.606-1.052-6.501-2.845-8.214-1.822-1.739-4.337-2.187-7.041-1.014l.398.917zm-8.885 16.283c0-3.431 1.003-6.983 2.629-9.947 1.63-2.97 3.855-5.294 6.256-6.336l-.398-.917c-2.672 1.159-5.04 3.683-6.735 6.772-1.699 3.096-2.752 6.813-2.752 10.428h1zm8.487 8.311c-2.37 1.028-4.448.614-5.951-.821-1.532-1.462-2.536-4.053-2.536-7.49h-1c0 3.606 1.052 6.501 2.845 8.213 1.822 1.739 4.337 2.188 7.04 1.015l-.398-.917zm-42.239 19.064c2.672-1.159 5.04-3.683 6.735-6.772 1.699-3.096 2.752-6.813 2.752-10.427h-1c0 3.43-1.003 6.983-2.629 9.946-1.63 2.97-3.855 5.294-6.256 6.336l.398.917zm-9.886-9.228c0 3.607 1.052 6.501 2.846 8.213 1.821 1.739 4.337 2.188 7.04 1.015l-.398-.917c-2.371 1.028-4.448.614-5.952-.821-1.531-1.462-2.536-4.053-2.536-7.49h-1zm9.488-17.2c-2.672 1.159-5.04 3.683-6.735 6.772-1.699 3.096-2.753 6.813-2.753 10.428h1c0-3.43 1.003-6.983 2.629-9.947 1.63-2.97 3.855-5.294 6.257-6.336l-.398-.917zm9.885 9.229c0-3.607-1.052-6.502-2.845-8.214-1.822-1.739-4.337-2.188-7.04-1.015l.398.917c2.37-1.028 4.448-.614 5.951.821 1.532 1.462 2.536 4.053 2.536 7.491h1zm-36.891-13.368c0 3.431-1.003 6.984-2.629 9.947-1.63 2.97-3.855 5.294-6.256 6.336l.398.917c2.672-1.159 5.04-3.683 6.735-6.772 1.699-3.096 2.752-6.813 2.752-10.428h-1zm-8.487-8.311c2.37-1.028 4.448-.614 5.951.821 1.532 1.462 2.536 4.053 2.536 7.49h1c0-3.606-1.052-6.501-2.845-8.214-1.822-1.739-4.337-2.187-7.04-1.014l.398.917zm-8.886 16.282c0-3.43 1.003-6.983 2.629-9.946 1.63-2.97 3.855-5.294 6.257-6.336l-.398-.917c-2.672 1.159-5.04 3.683-6.735 6.772-1.699 3.096-2.753 6.813-2.753 10.427h1zm8.488 8.312c-2.371 1.028-4.448.614-5.952-.821-1.531-1.462-2.536-4.053-2.536-7.491h-1c0 3.607 1.052 6.502 2.846 8.214 1.821 1.739 4.337 2.188 7.04 1.015l-.398-.917zm-20.67-41.508c2.672-1.16 5.04-3.684 6.735-6.773 1.699-3.096 2.753-6.813 2.753-10.427h-1c0 3.43-1.003 6.983-2.63 9.946-1.629 2.97-3.855 5.294-6.256 6.336l.398.918zm-9.886-9.229c0 3.607 1.052 6.501 2.846 8.214 1.821 1.739 4.337 2.187 7.04 1.015l-.398-.918c-2.37 1.029-4.448.615-5.952-.821-1.531-1.462-2.536-4.052-2.536-7.49h-1zm9.488-17.2c-2.672 1.159-5.04 3.684-6.735 6.772-1.699 3.096-2.753 6.813-2.753 10.428h1c0-3.431 1.003-6.983 2.629-9.947 1.63-2.97 3.856-5.294 6.257-6.336l-.398-.917zm9.886 9.229c0-3.607-1.052-6.502-2.846-8.214-1.822-1.739-4.337-2.188-7.04-1.015l.398.917c2.37-1.028 4.448-.614 5.952.821 1.531 1.462 2.536 4.053 2.536 7.491h1zm1.103-60.523c0 3.431-1.003 6.984-2.629 9.947-1.63 2.97-3.855 5.294-6.257 6.336l.398.917c2.673-1.159 5.041-3.683 6.736-6.772 1.699-3.096 2.752-6.813 2.752-10.428h-1zm-8.488-8.311c2.371-1.029 4.449-.615 5.952.821 1.532 1.462 2.536 4.052 2.536 7.49h1c0-3.606-1.052-6.501-2.845-8.214-1.822-1.739-4.337-2.187-7.041-1.015l.398.918zm-8.885 16.282c0-3.43 1.003-6.983 2.629-9.946 1.63-2.97 3.855-5.294 6.256-6.336l-.398-.918c-2.672 1.16-5.04 3.684-6.735 6.773-1.699 3.096-2.752 6.813-2.752 10.427h1zm8.487 8.312c-2.37 1.028-4.448.614-5.951-.821-1.532-1.462-2.536-4.053-2.536-7.491h-1c0 3.607 1.052 6.502 2.845 8.214 1.822 1.739 4.337 2.188 7.04 1.015l-.398-.917z" fill="#AFB4C8"/><path d="M468.252 316.039l5.783 1.446m-56.864-27.469l5.782 1.446m-8.674 2.409l11.566 2.892m-14.457.964l5.783 1.445M43.7 249.537l5.783 1.446m-8.674 2.409l11.565 2.891m-14.457.964l5.783 1.446m-2.891 53.49l5.783 1.446m-8.675 2.41l11.566 2.891m-14.457.964l5.783 1.445m414.432-77.585l5.783 1.446m-8.674 2.409l11.565 2.892m-14.457.963l5.783 1.446m42.407-27.468l5.783 1.446m-8.675 2.409l11.566 2.892m-14.457.963l5.783 1.446m37.588 4.337l5.783 1.446m-8.674 2.409l11.565 2.892m-14.457.964l5.783 1.445m20.239 33.251l5.783 1.446m-8.674 2.409l11.565 2.892m-14.457.963l5.783 1.446m-159.99 63.129l5.783 1.445m-8.674 2.41l11.566 2.891m-14.457.964l5.782 1.446m-1.927 50.599l5.783 1.446m-8.674 2.409l11.565 2.892m-14.457.964l5.783 1.445m21.204 32.287l5.783 1.446m-8.675 2.409l11.566 2.892m-14.457.964l5.783 1.445m35.659 5.301l5.783 1.446m-8.674 2.409l11.566 2.892m-14.457.963l5.782 1.446m42.408-26.504l5.783 1.446m-8.674 2.409l11.565 2.891m-14.456.964l5.782 1.446m37.588-53.491l5.783 1.446m-8.674 2.409l11.566 2.892m-14.457.964l5.782 1.445m23.131-73.73l5.783 1.446m-8.675 2.409l11.566 2.892m-14.457.963l5.783 1.446m-1.39-24.843c0 54.942-32.079 113.399-71.649 130.566-39.571 17.167-71.65-13.456-71.65-68.398 0-54.943 32.079-113.399 71.65-130.566 39.57-17.168 71.649 13.456 71.649 68.398z" stroke="#AFB4C8" stroke-miterlimit="10" stroke-linecap="round" stroke-dasharray="0.1 2"/><path d="M555.481 328.378c0 54.942-32.078 113.398-71.649 130.566-39.571 17.167-71.649-13.456-71.649-68.399 0-54.942 32.078-113.398 71.649-130.566 39.571-17.167 71.649 13.456 71.649 68.399z" fill="#fff" stroke="#AFB4C8" stroke-miterlimit="10"/><mask id="c" maskUnits="userSpaceOnUse" x="439" y="292" width="91" height="132"><path d="M529.811 338.57c0 34.607-20.205 71.427-45.13 82.24-24.924 10.813-45.13-8.475-45.13-43.082s20.206-71.428 45.13-82.241c24.925-10.813 45.13 8.476 45.13 43.083z" fill="#fff"/></mask><g mask="url(#c)"><path d="M498.104 330.804c0 34.607-20.205 71.428-45.13 82.241-24.925 10.813-45.13-8.476-45.13-43.083s20.205-71.427 45.13-82.24c24.925-10.813 45.13 8.475 45.13 43.082z" stroke="#AFB4C8" stroke-miterlimit="10"/></g><path d="M529.811 338.57c0 34.607-20.205 71.427-45.13 82.24-24.924 10.813-45.13-8.475-45.13-43.082s20.206-71.428 45.13-82.241c24.925-10.813 45.13 8.476 45.13 43.083z" stroke="#AFB4C8" stroke-miterlimit="10"/><path d="M466.588 422.998c4.389.072 9.072-1.118 13.935-3.227 24.925-10.814 45.13-47.634 45.13-82.241 0-22.353-8.429-38.315-21.116-43.903" stroke="#AFB4C8" stroke-miterlimit="10"/><path d="M441.896 357.068l47.564 13.424m-13.063-69.836l17.223 4.855" stroke="#E0E1E4" stroke-width="1.5" stroke-miterlimit="10" stroke-linecap="round" stroke-dasharray="0.1 4"/><path d="M470.226 305.511l25.993 6.758" stroke="#AFB4C8" stroke-miterlimit="10"/><path d="M463.989 310.709l12.644 3.574m-36.038 56.867l43.2 11.819" stroke="#E0E1E4" stroke-width="1.5" stroke-miterlimit="10" stroke-linecap="round" stroke-dasharray="0.1 4"/><path d="M575.27 314.413c0 75.784-44.247 156.415-98.829 180.094-54.581 23.679-98.828-18.56-98.828-94.344 0-75.784 44.247-156.415 98.828-180.094 54.582-23.679 98.829 18.56 98.829 94.344z" stroke="#AFB4C8" stroke-miterlimit="10"/></svg>