<svg width="103" height="33" fill="none" xmlns="http://www.w3.org/2000/svg"><g clip-path="url(#clip0)"><rect x="1.5" y="1.5" width="100" height="30" rx="15" stroke="#2A9260" stroke-width="3"/><path d="M20.271 9.623c.837 0 1.598.097 2.281.292.684.194 1.269.49 1.755.884.487.396.862.892 1.127 1.488s.397 1.296.397 2.1c0 .803-.132 1.496-.397 2.08a3.74 3.74 0 0 1-1.127 1.439c-.487.376-1.072.651-1.755.826a9.203 9.203 0 0 1-2.281.262h-1.293v3.714c0 .143-.05.266-.148.37a.468.468 0 0 1-.351.155h-3.806a.467.467 0 0 1-.351-.155.516.516 0 0 1-.148-.37v-12.56c0-.143.05-.266.148-.37a.468.468 0 0 1 .351-.155h5.598zm-1.386 5.774h1.294c.197 0 .387-.08.572-.243.185-.162.277-.43.277-.807 0-.246-.058-.492-.175-.739-.118-.245-.342-.369-.674-.369h-1.294v2.158zm9.127 7.836a.467.467 0 0 1-.35-.156.516.516 0 0 1-.148-.37l2.033-3.83-4.157-8.65a.398.398 0 0 1-.037-.176.42.42 0 0 1 .12-.301.381.381 0 0 1 .287-.127h3.473c.246 0 .43.065.554.195.123.13.197.226.222.291l1.847 3.908 1.847-3.908c.024-.065.098-.162.221-.291.123-.13.308-.195.555-.195h3.473a.38.38 0 0 1 .286.127.42.42 0 0 1 .12.301.403.403 0 0 1-.036.175l-4.157 8.652-2.033 3.83c-.067.124-.15.25-.267.37-.127.13-.216.155-.351.155h-3.502zm14.424-8.439a48.468 48.468 0 0 0 0 3.267c.024.596.157 1.008.397 1.235.24.226.563.34.97.34.32 0 .6-.078.84-.233.24-.156.422-.428.545-.817.062-.22.14-.37.231-.447.093-.078.243-.117.453-.117h3.769a.38.38 0 0 1 .286.127.42.42 0 0 1 .12.301c-.012.881-.197 1.636-.553 2.265a4.656 4.656 0 0 1-1.404 1.546 6.045 6.045 0 0 1-1.977.884 9.264 9.264 0 0 1-2.29.282c-.887 0-1.7-.1-2.44-.301a5.398 5.398 0 0 1-1.93-.943 4.464 4.464 0 0 1-1.293-1.634c-.314-.66-.49-1.458-.526-2.39a39.884 39.884 0 0 1 0-3.46c.037-.909.218-1.693.545-2.354a4.734 4.734 0 0 1 1.311-1.643 5.432 5.432 0 0 1 1.93-.962 8.858 8.858 0 0 1 2.403-.312c.788 0 1.551.095 2.29.282a6.054 6.054 0 0 1 1.977.885 4.647 4.647 0 0 1 1.404 1.546c.357.629.542 1.383.554 2.265a.42.42 0 0 1-.12.301.382.382 0 0 1-.287.127h-3.769c-.21 0-.357-.039-.443-.117-.087-.078-.166-.226-.24-.447-.136-.415-.32-.693-.554-.836a1.568 1.568 0 0 0-.831-.214c-.407 0-.73.114-.97.34-.241.227-.374.639-.398 1.234zm19.2-5.171a.47.47 0 0 1 .351.155.52.52 0 0 1 .148.37v3.13c0 .143-.05.266-.148.37a.468.468 0 0 1-.35.155H58.57v8.905c0 .143-.05.266-.148.37a.468.468 0 0 1-.351.155h-3.695a.467.467 0 0 1-.351-.156.516.516 0 0 1-.148-.37v-8.904h-3.066a.466.466 0 0 1-.351-.155.516.516 0 0 1-.148-.37v-3.13a.52.52 0 0 1 .148-.37.468.468 0 0 1 .35-.155h10.826zm8.984 9.527a5.985 5.985 0 0 1-1.478-.35 4.988 4.988 0 0 1-1.506-.866 4.93 4.93 0 0 1-1.164-1.419c-.314-.564-.47-1.234-.47-2.012 0-.661.122-1.296.37-1.905a4.65 4.65 0 0 1 1.108-1.624c.492-.473 1.102-.848 1.829-1.127.726-.279 1.57-.418 2.53-.418.961 0 1.814.12 2.56.36.744.24 1.372.573 1.883 1.001.511.428.9.94 1.164 1.536a4.83 4.83 0 0 1 .397 1.983c0 .48-.074.937-.221 1.371a7.664 7.664 0 0 1-.564 1.264c-.227.408-.487.816-.776 1.225-.289.408-.581.826-.877 1.253l-2.439 3.422c-.049.065-.13.146-.24.243-.11.098-.27.146-.48.146h-3.713a.38.38 0 0 1-.286-.127.421.421 0 0 1-.12-.301c0-.09.024-.175.073-.253l2.42-3.403zm.092-4.667c0 .415.108.73.323.943.215.214.502.321.86.321.356 0 .643-.107.858-.32.216-.215.324-.529.324-.944 0-.415-.108-.729-.324-.943-.215-.213-.501-.32-.859-.32-.357 0-.643.107-.859.32-.215.215-.323.529-.323.943zm11.552 4.511c.172.22.33.389.471.505.141.117.366.175.674.175.296 0 .557-.1.785-.301.228-.201.342-.503.342-.904 0-.298-.099-.57-.295-.817-.197-.246-.474-.37-.831-.37-.197 0-.354.027-.471.078a1.604 1.604 0 0 0-.296.165l-.212.156a.332.332 0 0 1-.204.068h-3.676a.38.38 0 0 1-.287-.127.423.423 0 0 1-.12-.301c0-.026-.003-.023-.009.01-.006.032-.003-.004.01-.107l.738-6.941c.025-.22.108-.386.25-.496a.748.748 0 0 1 .47-.165h8.258a.47.47 0 0 1 .351.155.52.52 0 0 1 .148.37v2.741c0 .143-.05.266-.148.37a.468.468 0 0 1-.35.155h-5.395l-.148 1.38c.172-.116.342-.216.508-.3.166-.085.345-.153.535-.205.191-.052.4-.09.629-.117.228-.026.495-.04.803-.04.567 0 1.121.111 1.663.331a4.518 4.518 0 0 1 1.44.934c.42.402.758.874 1.017 1.419a4.12 4.12 0 0 1 .388 1.789 4.69 4.69 0 0 1-.37 1.847 4.322 4.322 0 0 1-1.117 1.545c-.499.447-1.118.804-1.857 1.07-.739.265-1.595.398-2.568.398-.985 0-1.844-.116-2.577-.35-.733-.233-1.346-.55-1.838-.952a4.05 4.05 0 0 1-1.118-1.39 3.974 3.974 0 0 1-.397-1.663c0-.116.04-.216.12-.301a.383.383 0 0 1 .287-.127h3.732c.197 0 .347.04.452.117.105.08.176.144.213.196z" fill="#2A9260"/></g><defs><clipPath id="clip0"><path fill="#fff" d="M0 0h103v33H0z"/></clipPath></defs></svg>